<?xml version="1.0" encoding="UTF-8" standalone="no"?>
<!DOCTYPE svg PUBLIC "-//W3C//DTD SVG 1.1//EN" "http://www.w3.org/Graphics/SVG/1.1/DTD/svg11.dtd">
<svg width="100%" height="100%" viewBox="0 0 491 394" version="1.1" xmlns="http://www.w3.org/2000/svg" xmlns:xlink="http://www.w3.org/1999/xlink" xml:space="preserve" xmlns:serif="http://www.serif.com/" style="fill-rule:evenodd;clip-rule:evenodd;stroke-linecap:round;stroke-linejoin:round;">
    <g transform="matrix(1.33333,0,0,1.33333,0,0)">
        <path d="M63.89,209.368L63.89,221.699" style="fill:none;fill-rule:nonzero;stroke:black;stroke-width:0.1px;"/>
        <path d="M63.89,209.368L75.852,209.368" style="fill:none;fill-rule:nonzero;stroke:black;stroke-width:0.1px;"/>
        <path d="M63.89,221.699L75.852,221.699" style="fill:none;fill-rule:nonzero;stroke:black;stroke-width:0.1px;"/>
        <path d="M75.852,209.368L82.088,212.344" style="fill:none;fill-rule:nonzero;stroke:black;stroke-width:0.1px;"/>
        <path d="M75.852,221.699L82.088,224.675" style="fill:none;fill-rule:nonzero;stroke:black;stroke-width:0.1px;"/>
        <path d="M97.452,212.344L82.088,212.344" style="fill:none;fill-rule:nonzero;stroke:black;stroke-width:0.1px;"/>
        <path d="M97.452,212.344L97.452,224.675" style="fill:none;fill-rule:nonzero;stroke:black;stroke-width:0.1px;"/>
        <g transform="matrix(1.16036,0,0,1,-15.6276,0)">
            <path d="M97.452,224.675L84.356,224.675" style="fill:none;fill-rule:nonzero;stroke:black;stroke-width:0.09px;"/>
        </g>
        <circle cx="83.208" cy="202.211" r="8.15" style="fill-opacity:0;stroke:black;stroke-width:0.1px;"/>
    </g>
    <g transform="matrix(1.33333,0,0,1.33333,0,0)">
        <path d="M186.07,209.801L185.425,222.115" style="fill:none;fill-rule:nonzero;stroke:black;stroke-width:0.1px;"/>
        <path d="M186.07,209.801L198.016,210.427" style="fill:none;fill-rule:nonzero;stroke:black;stroke-width:0.1px;"/>
        <path d="M185.425,222.115L197.371,222.741" style="fill:none;fill-rule:nonzero;stroke:black;stroke-width:0.1px;"/>
        <path d="M198.016,210.427L204.088,213.726" style="fill:none;fill-rule:nonzero;stroke:black;stroke-width:0.1px;"/>
        <path d="M197.371,222.741L203.443,226.04" style="fill:none;fill-rule:nonzero;stroke:black;stroke-width:0.1px;"/>
        <path d="M219.431,214.53L204.088,213.726" style="fill:none;fill-rule:nonzero;stroke:black;stroke-width:0.1px;"/>
        <path d="M219.431,214.53L218.785,226.844" style="fill:none;fill-rule:nonzero;stroke:black;stroke-width:0.1px;"/>
        <g transform="matrix(1.16402,0.00859605,0.00859605,1.00045,-37.8347,-1.98289)">
            <path d="M218.785,226.844L205.707,226.159" style="fill:none;fill-rule:nonzero;stroke:black;stroke-width:0.09px;"/>
        </g>
        <circle cx="205.737" cy="203.664" r="8.15" style="fill-opacity:0;stroke:black;stroke-width:0.1px;"/>
    </g>
    <g transform="matrix(1.33333,0,0,1.38618,0,-8.14295)">
        <rect x="275.117" y="154.081" width="20.397" height="16.721" style="fill:none;stroke:black;stroke-width:0.1px;stroke-miterlimit:1.5;"/>
    </g>
    <g transform="matrix(1.33333,0,0,1.33333,0,0)">
        <path d="M279.323,74.39L279.323,86.721" style="fill:none;fill-rule:nonzero;stroke:black;stroke-width:0.1px;"/>
        <path d="M279.323,74.39L291.285,74.39" style="fill:none;fill-rule:nonzero;stroke:black;stroke-width:0.1px;"/>
        <path d="M279.323,86.721L291.285,86.721" style="fill:none;fill-rule:nonzero;stroke:black;stroke-width:0.1px;"/>
        <path d="M291.285,74.39L297.521,77.367" style="fill:none;fill-rule:nonzero;stroke:black;stroke-width:0.1px;"/>
        <path d="M291.285,86.721L297.521,89.698" style="fill:none;fill-rule:nonzero;stroke:black;stroke-width:0.1px;"/>
        <path d="M312.885,77.367L297.521,77.367" style="fill:none;fill-rule:nonzero;stroke:black;stroke-width:0.1px;"/>
        <path d="M312.885,77.367L312.885,89.698" style="fill:none;fill-rule:nonzero;stroke:black;stroke-width:0.1px;"/>
        <g transform="matrix(1.17908,0,0,1,-56.0326,0)">
            <path d="M312.885,89.698L299.789,89.698" style="fill:none;fill-rule:nonzero;stroke:black;stroke-width:0.09px;"/>
        </g>
        <circle cx="298.641" cy="67.233" r="8.15" style="fill-opacity:0;stroke:black;stroke-width:0.1px;"/>
    </g>
    <g transform="matrix(1.33333,0,0,1.33333,0,0)">
        <path d="M296.949,237.756L289.701,247.731" style="fill:none;fill-rule:nonzero;stroke:black;stroke-width:0.1px;"/>
        <path d="M296.949,237.756L306.627,244.787" style="fill:none;fill-rule:nonzero;stroke:black;stroke-width:0.1px;"/>
        <path d="M289.701,247.731L299.379,254.763" style="fill:none;fill-rule:nonzero;stroke:black;stroke-width:0.1px;"/>
        <path d="M306.627,244.787L309.922,250.86" style="fill:none;fill-rule:nonzero;stroke:black;stroke-width:0.1px;"/>
        <path d="M299.379,254.763L302.674,260.836" style="fill:none;fill-rule:nonzero;stroke:black;stroke-width:0.1px;"/>
        <path d="M322.352,259.891L309.922,250.86" style="fill:none;fill-rule:nonzero;stroke:black;stroke-width:0.1px;"/>
        <path d="M322.352,259.891L315.104,269.867" style="fill:none;fill-rule:nonzero;stroke:black;stroke-width:0.1px;"/>
        <g transform="matrix(1.10475,0.0761051,0.0761051,1.0553,-53.5444,-38.9033)">
            <path d="M315.104,269.867L304.509,262.169" style="fill:none;fill-rule:nonzero;stroke:black;stroke-width:0.09px;"/>
        </g>
        <circle cx="316.785" cy="243.32" r="8.15" style="fill-opacity:0;stroke:black;stroke-width:0.1px;"/>
    </g>
    <g transform="matrix(1.33333,0,0,1.33333,0,0)">
        <path d="M124.48,209.368L124.48,221.699" style="fill:none;fill-rule:nonzero;stroke:black;stroke-width:0.1px;"/>
        <path d="M124.48,209.368L136.442,209.368" style="fill:none;fill-rule:nonzero;stroke:black;stroke-width:0.1px;"/>
        <path d="M124.48,221.699L136.442,221.699" style="fill:none;fill-rule:nonzero;stroke:black;stroke-width:0.1px;"/>
        <path d="M136.442,209.368L142.678,212.344" style="fill:none;fill-rule:nonzero;stroke:black;stroke-width:0.1px;"/>
        <path d="M136.442,221.699L142.678,224.675" style="fill:none;fill-rule:nonzero;stroke:black;stroke-width:0.1px;"/>
        <path d="M158.042,212.344L142.678,212.344" style="fill:none;fill-rule:nonzero;stroke:black;stroke-width:0.1px;"/>
        <path d="M158.042,212.344L158.042,224.675" style="fill:none;fill-rule:nonzero;stroke:black;stroke-width:0.1px;"/>
        <g transform="matrix(1.17083,0,0,1,-26.9985,0)">
            <path d="M158.042,224.675L144.946,224.675" style="fill:none;fill-rule:nonzero;stroke:black;stroke-width:0.09px;"/>
        </g>
        <circle cx="143.798" cy="202.211" r="8.15" style="fill-opacity:0;stroke:black;stroke-width:0.1px;"/>
    </g>
    <g transform="matrix(1.33333,0,0,1.33333,0,0)">
        <path d="M242.969,215.216L238.752,226.803" style="fill:none;fill-rule:nonzero;stroke:black;stroke-width:0.1px;"/>
        <path d="M242.969,215.216L254.21,219.308" style="fill:none;fill-rule:nonzero;stroke:black;stroke-width:0.1px;"/>
        <path d="M238.752,226.803L249.993,230.895" style="fill:none;fill-rule:nonzero;stroke:black;stroke-width:0.1px;"/>
        <path d="M254.21,219.308L259.052,224.237" style="fill:none;fill-rule:nonzero;stroke:black;stroke-width:0.1px;"/>
        <path d="M249.993,230.895L254.835,235.825" style="fill:none;fill-rule:nonzero;stroke:black;stroke-width:0.1px;"/>
        <path d="M273.49,229.492L259.052,224.237" style="fill:none;fill-rule:nonzero;stroke:black;stroke-width:0.1px;"/>
        <path d="M273.49,229.492L269.272,241.079" style="fill:none;fill-rule:nonzero;stroke:black;stroke-width:0.1px;"/>
        <g transform="matrix(1.14195,0.0516635,0.0516635,1.0188,-50.6777,-18.4447)">
            <path d="M269.272,241.079L256.966,236.6" style="fill:none;fill-rule:nonzero;stroke:black;stroke-width:0.09px;"/>
        </g>
        <circle cx="263.57" cy="215.098" r="8.15" style="fill-opacity:0;stroke:black;stroke-width:0.1px;"/>
    </g>
    <g transform="matrix(1.33333,0,0,1.33333,0,0)">
        <path d="M279.323,128.249L279.323,140.579" style="fill:none;fill-rule:nonzero;stroke:black;stroke-width:0.1px;"/>
        <path d="M279.323,128.249L291.285,128.249" style="fill:none;fill-rule:nonzero;stroke:black;stroke-width:0.1px;"/>
        <path d="M279.323,140.579L291.285,140.579" style="fill:none;fill-rule:nonzero;stroke:black;stroke-width:0.1px;"/>
        <path d="M291.285,128.249L297.521,131.225" style="fill:none;fill-rule:nonzero;stroke:black;stroke-width:0.1px;"/>
        <path d="M291.285,140.579L297.521,143.556" style="fill:none;fill-rule:nonzero;stroke:black;stroke-width:0.1px;"/>
        <path d="M312.885,131.225L297.521,131.225" style="fill:none;fill-rule:nonzero;stroke:black;stroke-width:0.1px;"/>
        <path d="M312.885,131.225L312.885,143.556" style="fill:none;fill-rule:nonzero;stroke:black;stroke-width:0.1px;"/>
        <g transform="matrix(1.16479,0,0,1,-51.5614,0)">
            <path d="M312.885,143.556L299.789,143.556" style="fill:none;fill-rule:nonzero;stroke:black;stroke-width:0.09px;"/>
        </g>
        <circle cx="298.641" cy="121.091" r="8.15" style="fill-opacity:0;stroke:black;stroke-width:0.1px;"/>
        <g transform="matrix(0.873263,0,0,0.961011,45.6293,1.67525)">
            <rect x="329.804" y="114.811" width="29.177" height="38.421" style="fill:none;stroke:black;stroke-width:0.11px;stroke-miterlimit:1.5;"/>
        </g>
    </g>
    <g transform="matrix(1.33333,0,0,1.33333,0,0)">
        <g transform="matrix(1.16296,0,0,1,-33.4346,0)">
            <path d="M205.168,63.1L192.072,63.1" style="fill:none;fill-rule:nonzero;stroke:black;stroke-width:0.09px;"/>
        </g>
        <path d="M205.168,50.77L205.168,63.1" style="fill:none;fill-rule:nonzero;stroke:black;stroke-width:0.1px;"/>
        <path d="M205.168,50.77L189.804,50.77" style="fill:none;fill-rule:nonzero;stroke:black;stroke-width:0.1px;"/>
        <path d="M183.568,60.124L189.804,63.1" style="fill:none;fill-rule:nonzero;stroke:black;stroke-width:0.1px;"/>
        <path d="M183.568,47.793L189.804,50.77" style="fill:none;fill-rule:nonzero;stroke:black;stroke-width:0.1px;"/>
        <path d="M171.606,60.124L183.568,60.124" style="fill:none;fill-rule:nonzero;stroke:black;stroke-width:0.1px;"/>
        <path d="M171.606,47.793L183.568,47.793" style="fill:none;fill-rule:nonzero;stroke:black;stroke-width:0.1px;"/>
        <path d="M171.606,47.793L171.606,60.124" style="fill:none;fill-rule:nonzero;stroke:black;stroke-width:0.1px;"/>
        <circle cx="190.924" cy="40.636" r="8.15" style="fill-opacity:0;stroke:black;stroke-width:0.1px;"/>
    </g>
    <g transform="matrix(1.33333,0,0,1.33333,0,0)">
        <g transform="matrix(1.16456,0,0,1,-33.7619,0)">
            <path d="M205.168,170.817L192.072,170.817" style="fill:none;fill-rule:nonzero;stroke:black;stroke-width:0.09px;"/>
        </g>
        <path d="M205.168,158.486L205.168,170.817" style="fill:none;fill-rule:nonzero;stroke:black;stroke-width:0.1px;"/>
        <path d="M205.168,158.486L189.804,158.486" style="fill:none;fill-rule:nonzero;stroke:black;stroke-width:0.1px;"/>
        <path d="M183.568,167.841L189.804,170.817" style="fill:none;fill-rule:nonzero;stroke:black;stroke-width:0.1px;"/>
        <path d="M183.568,155.51L189.804,158.486" style="fill:none;fill-rule:nonzero;stroke:black;stroke-width:0.1px;"/>
        <path d="M171.606,167.841L183.568,167.841" style="fill:none;fill-rule:nonzero;stroke:black;stroke-width:0.1px;"/>
        <path d="M171.606,155.51L183.568,155.51" style="fill:none;fill-rule:nonzero;stroke:black;stroke-width:0.1px;"/>
        <path d="M171.606,155.51L171.606,167.841" style="fill:none;fill-rule:nonzero;stroke:black;stroke-width:0.1px;"/>
        <circle cx="190.924" cy="148.352" r="8.15" style="fill-opacity:0;stroke:black;stroke-width:0.1px;"/>
    </g>
    <g transform="matrix(1.33333,0,0,1.33333,0,0)">
        <g transform="matrix(1.16639,0,0,1,-25.177,0)">
            <path d="M151.31,159.478L138.214,159.478" style="fill:none;fill-rule:nonzero;stroke:black;stroke-width:0.09px;"/>
        </g>
        <path d="M151.31,147.148L151.31,159.478" style="fill:none;fill-rule:nonzero;stroke:black;stroke-width:0.1px;"/>
        <path d="M151.31,147.148L135.946,147.148" style="fill:none;fill-rule:nonzero;stroke:black;stroke-width:0.1px;"/>
        <path d="M129.71,156.502L135.946,159.478" style="fill:none;fill-rule:nonzero;stroke:black;stroke-width:0.1px;"/>
        <path d="M129.71,144.171L135.946,147.148" style="fill:none;fill-rule:nonzero;stroke:black;stroke-width:0.1px;"/>
        <path d="M117.748,156.502L129.71,156.502" style="fill:none;fill-rule:nonzero;stroke:black;stroke-width:0.1px;"/>
        <path d="M117.748,144.171L129.71,144.171" style="fill:none;fill-rule:nonzero;stroke:black;stroke-width:0.1px;"/>
        <path d="M117.748,144.171L117.748,156.502" style="fill:none;fill-rule:nonzero;stroke:black;stroke-width:0.1px;"/>
        <circle cx="137.066" cy="137.014" r="8.15" style="fill-opacity:0;stroke:black;stroke-width:0.1px;"/>
    </g>
    <g transform="matrix(1.33333,0,0,1.33333,0,0)">
        <g transform="matrix(1.16311,0,0,1,-33.4646,0)">
            <path d="M205.168,116.959L192.072,116.959" style="fill:none;fill-rule:nonzero;stroke:black;stroke-width:0.09px;"/>
        </g>
        <path d="M205.168,104.628L205.168,116.959" style="fill:none;fill-rule:nonzero;stroke:black;stroke-width:0.1px;"/>
        <path d="M205.168,104.628L189.804,104.628" style="fill:none;fill-rule:nonzero;stroke:black;stroke-width:0.1px;"/>
        <path d="M183.568,113.982L189.804,116.959" style="fill:none;fill-rule:nonzero;stroke:black;stroke-width:0.1px;"/>
        <path d="M183.568,101.652L189.804,104.628" style="fill:none;fill-rule:nonzero;stroke:black;stroke-width:0.1px;"/>
        <path d="M171.606,113.982L183.568,113.982" style="fill:none;fill-rule:nonzero;stroke:black;stroke-width:0.1px;"/>
        <path d="M171.606,101.652L183.568,101.652" style="fill:none;fill-rule:nonzero;stroke:black;stroke-width:0.1px;"/>
        <path d="M171.606,101.652L171.606,113.982" style="fill:none;fill-rule:nonzero;stroke:black;stroke-width:0.1px;"/>
        <circle cx="190.924" cy="94.494" r="8.15" style="fill-opacity:0;stroke:black;stroke-width:0.1px;"/>
    </g>
    <g transform="matrix(1.33333,0,0,1.33333,0,0)">
        <g transform="matrix(1.16121,0,0,1,-7.02758,0)">
            <path d="M43.593,142.47L30.497,142.47" style="fill:none;fill-rule:nonzero;stroke:black;stroke-width:0.09px;"/>
        </g>
        <path d="M43.593,130.14L43.593,142.47" style="fill:none;fill-rule:nonzero;stroke:black;stroke-width:0.1px;"/>
        <path d="M43.593,130.14L28.23,130.14" style="fill:none;fill-rule:nonzero;stroke:black;stroke-width:0.1px;"/>
        <path d="M21.993,139.494L28.23,142.47" style="fill:none;fill-rule:nonzero;stroke:black;stroke-width:0.1px;"/>
        <path d="M21.993,127.163L28.23,130.14" style="fill:none;fill-rule:nonzero;stroke:black;stroke-width:0.1px;"/>
        <path d="M10.031,139.494L21.993,139.494" style="fill:none;fill-rule:nonzero;stroke:black;stroke-width:0.1px;"/>
        <path d="M10.031,127.163L21.993,127.163" style="fill:none;fill-rule:nonzero;stroke:black;stroke-width:0.1px;"/>
        <path d="M10.031,127.163L10.031,139.494" style="fill:none;fill-rule:nonzero;stroke:black;stroke-width:0.1px;"/>
        <circle cx="29.349" cy="120.006" r="8.15" style="fill-opacity:0;stroke:black;stroke-width:0.1px;"/>
    </g>
    <g transform="matrix(1.33333,0,0,1.33333,0,0)">
        <g transform="matrix(1.16867,0,0,1,-7.35288,0)">
            <path d="M43.593,88.612L30.497,88.612" style="fill:none;fill-rule:nonzero;stroke:black;stroke-width:0.09px;"/>
        </g>
        <path d="M43.593,76.281L43.593,88.612" style="fill:none;fill-rule:nonzero;stroke:black;stroke-width:0.1px;"/>
        <path d="M43.593,76.281L28.23,76.281" style="fill:none;fill-rule:nonzero;stroke:black;stroke-width:0.1px;"/>
        <path d="M21.993,85.636L28.23,88.612" style="fill:none;fill-rule:nonzero;stroke:black;stroke-width:0.1px;"/>
        <path d="M21.993,73.305L28.23,76.281" style="fill:none;fill-rule:nonzero;stroke:black;stroke-width:0.1px;"/>
        <path d="M10.031,85.636L21.993,85.636" style="fill:none;fill-rule:nonzero;stroke:black;stroke-width:0.1px;"/>
        <path d="M10.031,73.305L21.993,73.305" style="fill:none;fill-rule:nonzero;stroke:black;stroke-width:0.1px;"/>
        <path d="M10.031,73.305L10.031,85.636" style="fill:none;fill-rule:nonzero;stroke:black;stroke-width:0.1px;"/>
        <circle cx="29.349" cy="66.148" r="8.15" style="fill-opacity:0;stroke:black;stroke-width:0.1px;"/>
    </g>
    <g transform="matrix(1.33333,0,0,1.33333,0,0)">
        <g transform="matrix(1.1619,0,0,1,-7.05786,0)">
            <path d="M43.593,196.329L30.497,196.329" style="fill:none;fill-rule:nonzero;stroke:black;stroke-width:0.09px;"/>
        </g>
        <path d="M43.593,183.998L43.593,196.329" style="fill:none;fill-rule:nonzero;stroke:black;stroke-width:0.1px;"/>
        <path d="M43.593,183.998L28.23,183.998" style="fill:none;fill-rule:nonzero;stroke:black;stroke-width:0.1px;"/>
        <path d="M21.993,193.352L28.23,196.329" style="fill:none;fill-rule:nonzero;stroke:black;stroke-width:0.1px;"/>
        <path d="M21.993,181.022L28.23,183.998" style="fill:none;fill-rule:nonzero;stroke:black;stroke-width:0.1px;"/>
        <path d="M10.031,193.352L21.993,193.352" style="fill:none;fill-rule:nonzero;stroke:black;stroke-width:0.1px;"/>
        <path d="M10.031,181.022L21.993,181.022" style="fill:none;fill-rule:nonzero;stroke:black;stroke-width:0.1px;"/>
        <path d="M10.031,181.022L10.031,193.352" style="fill:none;fill-rule:nonzero;stroke:black;stroke-width:0.1px;"/>
        <circle cx="29.349" cy="173.864" r="8.15" style="fill-opacity:0;stroke:black;stroke-width:0.1px;"/>
        <g>
            <circle cx="287.872" cy="187.044" r="5.669" style="fill:none;stroke:black;stroke-width:0.1px;stroke-linecap:butt;stroke-miterlimit:2;"/>
        </g>
    </g>
    <g transform="matrix(1.33333,0,0,1.33333,0,0)">
        <g transform="matrix(1.1635,0,0,1,-42.3507,0)">
            <path d="M259.027,116.959L245.93,116.959" style="fill:none;fill-rule:nonzero;stroke:black;stroke-width:0.09px;"/>
        </g>
        <path d="M259.027,104.628L259.027,116.959" style="fill:none;fill-rule:nonzero;stroke:black;stroke-width:0.1px;"/>
        <path d="M259.027,104.628L243.663,104.628" style="fill:none;fill-rule:nonzero;stroke:black;stroke-width:0.1px;"/>
        <path d="M237.427,113.982L243.663,116.959" style="fill:none;fill-rule:nonzero;stroke:black;stroke-width:0.1px;"/>
        <path d="M237.427,101.652L243.663,104.628" style="fill:none;fill-rule:nonzero;stroke:black;stroke-width:0.1px;"/>
        <path d="M225.464,113.982L237.427,113.982" style="fill:none;fill-rule:nonzero;stroke:black;stroke-width:0.1px;"/>
        <path d="M225.464,101.652L237.427,101.652" style="fill:none;fill-rule:nonzero;stroke:black;stroke-width:0.1px;"/>
        <path d="M225.464,101.652L225.464,113.982" style="fill:none;fill-rule:nonzero;stroke:black;stroke-width:0.1px;"/>
        <circle cx="244.782" cy="94.494" r="8.15" style="fill-opacity:0;stroke:black;stroke-width:0.1px;"/>
    </g>
    <g transform="matrix(1.33333,0,0,1.33333,0,0)">
        <g transform="matrix(1.16771,0,0,1,-16.344,0)">
            <path d="M97.452,170.817L84.356,170.817" style="fill:none;fill-rule:nonzero;stroke:black;stroke-width:0.09px;"/>
        </g>
        <path d="M97.452,158.486L97.452,170.817" style="fill:none;fill-rule:nonzero;stroke:black;stroke-width:0.1px;"/>
        <path d="M97.452,158.486L82.088,158.486" style="fill:none;fill-rule:nonzero;stroke:black;stroke-width:0.1px;"/>
        <path d="M75.852,167.841L82.088,170.817" style="fill:none;fill-rule:nonzero;stroke:black;stroke-width:0.1px;"/>
        <path d="M75.852,155.51L82.088,158.486" style="fill:none;fill-rule:nonzero;stroke:black;stroke-width:0.1px;"/>
        <path d="M63.89,167.841L75.852,167.841" style="fill:none;fill-rule:nonzero;stroke:black;stroke-width:0.1px;"/>
        <path d="M63.89,155.51L75.852,155.51" style="fill:none;fill-rule:nonzero;stroke:black;stroke-width:0.1px;"/>
        <path d="M63.89,155.51L63.89,167.841" style="fill:none;fill-rule:nonzero;stroke:black;stroke-width:0.1px;"/>
        <circle cx="83.208" cy="148.352" r="8.15" style="fill-opacity:0;stroke:black;stroke-width:0.1px;"/>
    </g>
    <g transform="matrix(1.33333,0,0,1.33333,0,0)">
        <g transform="matrix(1.16791,0,0,1,-25.4068,0)">
            <path d="M151.31,105.62L138.214,105.62" style="fill:none;fill-rule:nonzero;stroke:black;stroke-width:0.09px;"/>
        </g>
        <path d="M151.31,93.289L151.31,105.62" style="fill:none;fill-rule:nonzero;stroke:black;stroke-width:0.1px;"/>
        <path d="M151.31,93.289L135.946,93.289" style="fill:none;fill-rule:nonzero;stroke:black;stroke-width:0.1px;"/>
        <path d="M129.71,102.644L135.946,105.62" style="fill:none;fill-rule:nonzero;stroke:black;stroke-width:0.1px;"/>
        <path d="M129.71,90.313L135.946,93.289" style="fill:none;fill-rule:nonzero;stroke:black;stroke-width:0.1px;"/>
        <path d="M117.748,102.644L129.71,102.644" style="fill:none;fill-rule:nonzero;stroke:black;stroke-width:0.1px;"/>
        <path d="M117.748,90.313L129.71,90.313" style="fill:none;fill-rule:nonzero;stroke:black;stroke-width:0.1px;"/>
        <path d="M117.748,90.313L117.748,102.644" style="fill:none;fill-rule:nonzero;stroke:black;stroke-width:0.1px;"/>
        <circle cx="137.066" cy="83.155" r="8.15" style="fill-opacity:0;stroke:black;stroke-width:0.1px;"/>
    </g>
    <g transform="matrix(1.33333,0,0,1.33333,0,0)">
        <g transform="matrix(1.1619,0,0,1,-24.4977,0)">
            <path d="M151.31,51.762L138.214,51.762" style="fill:none;fill-rule:nonzero;stroke:black;stroke-width:0.09px;"/>
        </g>
        <path d="M151.31,39.431L151.31,51.762" style="fill:none;fill-rule:nonzero;stroke:black;stroke-width:0.1px;"/>
        <path d="M151.31,39.431L135.946,39.431" style="fill:none;fill-rule:nonzero;stroke:black;stroke-width:0.1px;"/>
        <path d="M129.71,48.785L135.946,51.762" style="fill:none;fill-rule:nonzero;stroke:black;stroke-width:0.1px;"/>
        <path d="M129.71,36.455L135.946,39.431" style="fill:none;fill-rule:nonzero;stroke:black;stroke-width:0.1px;"/>
        <path d="M117.748,48.785L129.71,48.785" style="fill:none;fill-rule:nonzero;stroke:black;stroke-width:0.1px;"/>
        <path d="M117.748,36.455L129.71,36.455" style="fill:none;fill-rule:nonzero;stroke:black;stroke-width:0.1px;"/>
        <path d="M117.748,36.455L117.748,48.785" style="fill:none;fill-rule:nonzero;stroke:black;stroke-width:0.1px;"/>
        <circle cx="137.066" cy="29.297" r="8.15" style="fill-opacity:0;stroke:black;stroke-width:0.1px;"/>
    </g>
    <g transform="matrix(1.33333,0,0,1.33333,0,0)">
        <g transform="matrix(1.16978,0,0,1,-16.5455,0)">
            <path d="M97.452,116.959L84.356,116.959" style="fill:none;fill-rule:nonzero;stroke:black;stroke-width:0.09px;"/>
        </g>
        <path d="M97.452,104.628L97.452,116.959" style="fill:none;fill-rule:nonzero;stroke:black;stroke-width:0.1px;"/>
        <path d="M97.452,104.628L82.088,104.628" style="fill:none;fill-rule:nonzero;stroke:black;stroke-width:0.1px;"/>
        <path d="M75.852,113.982L82.088,116.959" style="fill:none;fill-rule:nonzero;stroke:black;stroke-width:0.1px;"/>
        <path d="M75.852,101.652L82.088,104.628" style="fill:none;fill-rule:nonzero;stroke:black;stroke-width:0.1px;"/>
        <path d="M63.89,113.982L75.852,113.982" style="fill:none;fill-rule:nonzero;stroke:black;stroke-width:0.1px;"/>
        <path d="M63.89,101.652L75.852,101.652" style="fill:none;fill-rule:nonzero;stroke:black;stroke-width:0.1px;"/>
        <path d="M63.89,101.652L63.89,113.982" style="fill:none;fill-rule:nonzero;stroke:black;stroke-width:0.1px;"/>
        <circle cx="83.208" cy="94.494" r="8.15" style="fill-opacity:0;stroke:black;stroke-width:0.1px;"/>
    </g>
    <g transform="matrix(1.33333,0,0,1.33333,0,0)">
        <g transform="matrix(1.16725,0,0,1,-43.3217,0)">
            <path d="M259.027,170.817L245.93,170.817" style="fill:none;fill-rule:nonzero;stroke:black;stroke-width:0.09px;"/>
        </g>
        <path d="M259.027,158.486L259.027,170.817" style="fill:none;fill-rule:nonzero;stroke:black;stroke-width:0.1px;"/>
        <path d="M259.027,158.486L243.663,158.486" style="fill:none;fill-rule:nonzero;stroke:black;stroke-width:0.1px;"/>
        <path d="M237.427,167.841L243.663,170.817" style="fill:none;fill-rule:nonzero;stroke:black;stroke-width:0.1px;"/>
        <path d="M237.427,155.51L243.663,158.486" style="fill:none;fill-rule:nonzero;stroke:black;stroke-width:0.1px;"/>
        <path d="M225.464,167.841L237.427,167.841" style="fill:none;fill-rule:nonzero;stroke:black;stroke-width:0.1px;"/>
        <path d="M225.464,155.51L237.427,155.51" style="fill:none;fill-rule:nonzero;stroke:black;stroke-width:0.1px;"/>
        <path d="M225.464,155.51L225.464,167.841" style="fill:none;fill-rule:nonzero;stroke:black;stroke-width:0.1px;"/>
        <circle cx="244.782" cy="148.352" r="8.15" style="fill-opacity:0;stroke:black;stroke-width:0.1px;"/>
    </g>
    <g transform="matrix(1.33333,0,0,1.33333,0,0)">
        <g transform="matrix(1.1643,0,0,1,-16.0116,0)">
            <path d="M97.452,63.1L84.356,63.1" style="fill:none;fill-rule:nonzero;stroke:black;stroke-width:0.09px;"/>
        </g>
        <path d="M97.452,50.77L97.452,63.1" style="fill:none;fill-rule:nonzero;stroke:black;stroke-width:0.1px;"/>
        <path d="M97.452,50.77L82.088,50.77" style="fill:none;fill-rule:nonzero;stroke:black;stroke-width:0.1px;"/>
        <path d="M75.852,60.124L82.088,63.1" style="fill:none;fill-rule:nonzero;stroke:black;stroke-width:0.1px;"/>
        <path d="M75.852,47.793L82.088,50.77" style="fill:none;fill-rule:nonzero;stroke:black;stroke-width:0.1px;"/>
        <path d="M63.89,60.124L75.852,60.124" style="fill:none;fill-rule:nonzero;stroke:black;stroke-width:0.1px;"/>
        <path d="M63.89,47.793L75.852,47.793" style="fill:none;fill-rule:nonzero;stroke:black;stroke-width:0.1px;"/>
        <path d="M63.89,47.793L63.89,60.124" style="fill:none;fill-rule:nonzero;stroke:black;stroke-width:0.1px;"/>
        <circle cx="83.208" cy="40.636" r="8.15" style="fill-opacity:0;stroke:black;stroke-width:0.1px;"/>
    </g>
    <g transform="matrix(1.33333,0,0,1.33333,0,0)">
        <g transform="matrix(1.15999,0,0,1,-41.4423,0)">
            <path d="M259.027,63.1L245.93,63.1" style="fill:none;fill-rule:nonzero;stroke:black;stroke-width:0.09px;"/>
        </g>
        <path d="M259.027,50.77L259.027,63.1" style="fill:none;fill-rule:nonzero;stroke:black;stroke-width:0.1px;"/>
        <path d="M259.027,50.77L243.663,50.77" style="fill:none;fill-rule:nonzero;stroke:black;stroke-width:0.1px;"/>
        <path d="M237.427,60.124L243.663,63.1" style="fill:none;fill-rule:nonzero;stroke:black;stroke-width:0.1px;"/>
        <path d="M237.427,47.793L243.663,50.77" style="fill:none;fill-rule:nonzero;stroke:black;stroke-width:0.1px;"/>
        <path d="M225.464,60.124L237.427,60.124" style="fill:none;fill-rule:nonzero;stroke:black;stroke-width:0.1px;"/>
        <path d="M225.464,47.793L237.427,47.793" style="fill:none;fill-rule:nonzero;stroke:black;stroke-width:0.1px;"/>
        <path d="M225.464,47.793L225.464,60.124" style="fill:none;fill-rule:nonzero;stroke:black;stroke-width:0.1px;"/>
        <circle cx="244.782" cy="40.636" r="8.15" style="fill-opacity:0;stroke:black;stroke-width:0.1px;"/>
    </g>
    <g transform="matrix(1.33333,0,0,1.33333,0,0)">
        <path d="M113.696,0.25L160.439,0.25" style="fill:none;fill-rule:nonzero;stroke:black;stroke-width:0.1px;"/>
        <path d="M327.683,43.875L327.683,91.356" style="fill:none;fill-rule:nonzero;stroke:black;stroke-width:0.1px;"/>
        <g transform="matrix(1,0,0,0.441902,-53.8894,-2.32149)">
            <path d="M327.683,43.875L327.683,91.356" style="fill:none;fill-rule:nonzero;stroke:black;stroke-width:0.13px;"/>
        </g>
        <path d="M273.825,17.258C273.825,14.148 271.266,11.589 268.156,11.589" style="fill-opacity:0;fill-rule:nonzero;stroke:black;stroke-width:0.1px;"/>
        <path d="M232.949,234.874L278.892,251.513" style="fill:none;fill-rule:nonzero;stroke:black;stroke-width:0.1px;"/>
        <path d="M232.949,234.874C231.98,234.467 230.954,234.211 229.907,234.116" style="fill-opacity:0;fill-rule:nonzero;stroke:black;stroke-width:0.1px;"/>
        <path d="M180.622,231.246L229.907,234.116" style="fill:none;fill-rule:nonzero;stroke:black;stroke-width:0.1px;"/>
        <path d="M358.038,235.998C358.8,234.949 359.18,233.669 359.113,232.374" style="fill-opacity:0;fill-rule:nonzero;stroke:black;stroke-width:0.1px;"/>
        <path d="M327.683,91.356L353.422,91.356" style="fill:none;fill-rule:nonzero;stroke:black;stroke-width:0.1px;"/>
        <path d="M54.168,17.258L54.168,37.101" style="fill:none;fill-rule:nonzero;stroke:black;stroke-width:0.1px;"/>
        <path d="M5.979,37.101L54.168,37.101" style="fill:none;fill-rule:nonzero;stroke:black;stroke-width:0.1px;"/>
        <path d="M54.168,225.576L54.168,202.899" style="fill:none;fill-rule:nonzero;stroke:black;stroke-width:0.1px;"/>
        <path d="M113.696,0.25C113.696,0.25 113.695,0.25 113.695,0.25C110.585,0.25 108.026,2.809 108.026,5.919C108.026,5.919 108.026,5.919 108.026,5.92" style="fill-opacity:0;fill-rule:nonzero;stroke:black;stroke-width:0.1px;"/>
        <path d="M359.091,97.025C359.09,93.915 356.531,91.356 353.422,91.356" style="fill-opacity:0;fill-rule:nonzero;stroke:black;stroke-width:0.1px;"/>
        <path d="M54.168,225.576C54.168,228.686 56.727,231.246 59.837,231.246" style="fill-opacity:0;fill-rule:nonzero;stroke:black;stroke-width:0.1px;"/>
        <path d="M0.31,197.23C0.31,197.23 0.31,197.23 0.31,197.23C0.31,200.34 2.869,202.899 5.979,202.899C5.979,202.899 5.979,202.899 5.979,202.899" style="fill-opacity:0;fill-rule:nonzero;stroke:black;stroke-width:0.1px;"/>
        <path d="M59.837,11.589C59.837,11.589 59.837,11.589 59.837,11.589C56.727,11.589 54.168,14.148 54.168,17.258C54.168,17.258 54.168,17.258 54.168,17.258" style="fill-opacity:0;fill-rule:nonzero;stroke:black;stroke-width:0.1px;"/>
        <path d="M318.647,280.449C319.615,281.153 320.782,281.532 321.979,281.532C323.792,281.532 325.5,280.662 326.566,279.195" style="fill-opacity:0;fill-rule:nonzero;stroke:black;stroke-width:0.1px;"/>
        <path d="M0.31,42.77L0.31,197.23" style="fill:none;fill-rule:nonzero;stroke:black;stroke-width:0.1px;"/>
        <path d="M59.837,11.589L108.026,11.589" style="fill:none;fill-rule:nonzero;stroke:black;stroke-width:0.1px;"/>
        <path d="M166.108,5.92C166.108,5.919 166.108,5.919 166.108,5.919C166.108,2.809 163.549,0.25 160.439,0.25" style="fill-opacity:0;fill-rule:nonzero;stroke:black;stroke-width:0.1px;"/>
        <path d="M268.156,11.589L166.108,11.589" style="fill:none;fill-rule:nonzero;stroke:black;stroke-width:0.1px;"/>
        <path d="M5.979,37.101C2.869,37.101 0.31,39.66 0.31,42.77" style="fill-opacity:0;fill-rule:nonzero;stroke:black;stroke-width:0.1px;"/>
        <path d="M108.026,5.92L108.026,11.589" style="fill:none;fill-rule:nonzero;stroke:black;stroke-width:0.1px;"/>
        <path d="M59.837,231.246L180.622,231.246" style="fill:none;fill-rule:nonzero;stroke:black;stroke-width:0.1px;"/>
        <path d="M358.038,235.998L326.566,279.195" style="fill:none;fill-rule:nonzero;stroke:black;stroke-width:0.1px;"/>
        <path d="M166.108,5.92L166.108,11.589" style="fill:none;fill-rule:nonzero;stroke:black;stroke-width:0.1px;"/>
        <path d="M5.979,202.899L54.168,202.899" style="fill:none;fill-rule:nonzero;stroke:black;stroke-width:0.1px;"/>
        <path d="M327.683,43.875C327.683,43.875 327.683,43.875 327.683,43.875C327.683,40.765 325.124,38.206 322.014,38.206C322.014,38.206 322.014,38.206 322.014,38.206" style="fill-opacity:0;fill-rule:nonzero;stroke:black;stroke-width:0.1px;"/>
        <path d="M322.014,38.206L273.825,38.206" style="fill:none;fill-rule:nonzero;stroke:black;stroke-width:0.1px;"/>
        <path d="M359.113,232.374L359.091,97.025" style="fill:none;fill-rule:nonzero;stroke:black;stroke-width:0.1px;"/>
        <path d="M318.647,280.449L278.892,251.513" style="fill:none;fill-rule:nonzero;stroke:black;stroke-width:0.1px;"/>
    </g>
</svg>
