<?xml version="1.0" encoding="UTF-8" standalone="no"?>
<!DOCTYPE svg PUBLIC "-//W3C//DTD SVG 1.1//EN" "http://www.w3.org/Graphics/SVG/1.1/DTD/svg11.dtd">
<svg width="100%" height="100%" viewBox="0 0 491 394" version="1.1" xmlns="http://www.w3.org/2000/svg" xmlns:xlink="http://www.w3.org/1999/xlink" xml:space="preserve" xmlns:serif="http://www.serif.com/" style="fill-rule:evenodd;clip-rule:evenodd;stroke-linejoin:round;stroke-miterlimit:2;">
    <g transform="matrix(1.33333,0,0,1.33333,0,0)">
        <g>
            <circle cx="287.872" cy="187.044" r="5.669" style="fill:none;stroke:black;stroke-width:0.1px;"/>
        </g>
    </g>
    <g transform="matrix(1.33333,0,0,1.33333,0,0)">
        <path d="M113.696,0.25L160.439,0.25" style="fill:none;fill-rule:nonzero;stroke:black;stroke-width:0.1px;stroke-linecap:round;stroke-miterlimit:4;"/>
        <path d="M327.683,43.875L327.683,91.356" style="fill:none;fill-rule:nonzero;stroke:black;stroke-width:0.1px;stroke-linecap:round;stroke-miterlimit:4;"/>
        <g transform="matrix(1,0,0,0.441902,-53.8894,-2.32149)">
            <path d="M327.683,43.875L327.683,91.356" style="fill:none;fill-rule:nonzero;stroke:black;stroke-width:0.13px;stroke-linecap:round;stroke-miterlimit:4;"/>
        </g>
        <path d="M273.825,17.258C273.825,14.148 271.266,11.589 268.156,11.589" style="fill-opacity:0;fill-rule:nonzero;stroke:black;stroke-width:0.1px;stroke-linecap:round;stroke-miterlimit:4;"/>
        <path d="M232.949,234.874L278.892,251.513" style="fill:none;fill-rule:nonzero;stroke:black;stroke-width:0.1px;stroke-linecap:round;stroke-miterlimit:4;"/>
        <path d="M232.949,234.874C231.98,234.467 230.954,234.211 229.907,234.116" style="fill-opacity:0;fill-rule:nonzero;stroke:black;stroke-width:0.1px;stroke-linecap:round;stroke-miterlimit:4;"/>
        <path d="M180.622,231.246L229.907,234.116" style="fill:none;fill-rule:nonzero;stroke:black;stroke-width:0.1px;stroke-linecap:round;stroke-miterlimit:4;"/>
        <path d="M358.038,235.998C358.8,234.949 359.18,233.669 359.113,232.374" style="fill-opacity:0;fill-rule:nonzero;stroke:black;stroke-width:0.1px;stroke-linecap:round;stroke-miterlimit:4;"/>
        <path d="M327.683,91.356L353.422,91.356" style="fill:none;fill-rule:nonzero;stroke:black;stroke-width:0.1px;stroke-linecap:round;stroke-miterlimit:4;"/>
        <path d="M54.168,17.258L54.168,37.101" style="fill:none;fill-rule:nonzero;stroke:black;stroke-width:0.1px;stroke-linecap:round;stroke-miterlimit:4;"/>
        <path d="M5.979,37.101L54.168,37.101" style="fill:none;fill-rule:nonzero;stroke:black;stroke-width:0.1px;stroke-linecap:round;stroke-miterlimit:4;"/>
        <path d="M54.168,225.576L54.168,202.899" style="fill:none;fill-rule:nonzero;stroke:black;stroke-width:0.1px;stroke-linecap:round;stroke-miterlimit:4;"/>
        <path d="M113.696,0.25C113.696,0.25 113.695,0.25 113.695,0.25C110.585,0.25 108.026,2.809 108.026,5.919C108.026,5.919 108.026,5.919 108.026,5.92" style="fill-opacity:0;fill-rule:nonzero;stroke:black;stroke-width:0.1px;stroke-linecap:round;stroke-miterlimit:4;"/>
        <path d="M359.091,97.025C359.09,93.915 356.531,91.356 353.422,91.356" style="fill-opacity:0;fill-rule:nonzero;stroke:black;stroke-width:0.1px;stroke-linecap:round;stroke-miterlimit:4;"/>
        <path d="M54.168,225.576C54.168,228.686 56.727,231.246 59.837,231.246" style="fill-opacity:0;fill-rule:nonzero;stroke:black;stroke-width:0.1px;stroke-linecap:round;stroke-miterlimit:4;"/>
        <path d="M0.31,197.23C0.31,197.23 0.31,197.23 0.31,197.23C0.31,200.34 2.869,202.899 5.979,202.899C5.979,202.899 5.979,202.899 5.979,202.899" style="fill-opacity:0;fill-rule:nonzero;stroke:black;stroke-width:0.1px;stroke-linecap:round;stroke-miterlimit:4;"/>
        <path d="M59.837,11.589C59.837,11.589 59.837,11.589 59.837,11.589C56.727,11.589 54.168,14.148 54.168,17.258C54.168,17.258 54.168,17.258 54.168,17.258" style="fill-opacity:0;fill-rule:nonzero;stroke:black;stroke-width:0.1px;stroke-linecap:round;stroke-miterlimit:4;"/>
        <path d="M318.647,280.449C319.615,281.153 320.782,281.532 321.979,281.532C323.792,281.532 325.5,280.662 326.566,279.195" style="fill-opacity:0;fill-rule:nonzero;stroke:black;stroke-width:0.1px;stroke-linecap:round;stroke-miterlimit:4;"/>
        <path d="M0.31,42.77L0.31,197.23" style="fill:none;fill-rule:nonzero;stroke:black;stroke-width:0.1px;stroke-linecap:round;stroke-miterlimit:4;"/>
        <path d="M59.837,11.589L108.026,11.589" style="fill:none;fill-rule:nonzero;stroke:black;stroke-width:0.1px;stroke-linecap:round;stroke-miterlimit:4;"/>
        <path d="M166.108,5.92C166.108,5.919 166.108,5.919 166.108,5.919C166.108,2.809 163.549,0.25 160.439,0.25" style="fill-opacity:0;fill-rule:nonzero;stroke:black;stroke-width:0.1px;stroke-linecap:round;stroke-miterlimit:4;"/>
        <path d="M268.156,11.589L166.108,11.589" style="fill:none;fill-rule:nonzero;stroke:black;stroke-width:0.1px;stroke-linecap:round;stroke-miterlimit:4;"/>
        <path d="M5.979,37.101C2.869,37.101 0.31,39.66 0.31,42.77" style="fill-opacity:0;fill-rule:nonzero;stroke:black;stroke-width:0.1px;stroke-linecap:round;stroke-miterlimit:4;"/>
        <path d="M108.026,5.92L108.026,11.589" style="fill:none;fill-rule:nonzero;stroke:black;stroke-width:0.1px;stroke-linecap:round;stroke-miterlimit:4;"/>
        <path d="M59.837,231.246L180.622,231.246" style="fill:none;fill-rule:nonzero;stroke:black;stroke-width:0.1px;stroke-linecap:round;stroke-miterlimit:4;"/>
        <path d="M358.038,235.998L326.566,279.195" style="fill:none;fill-rule:nonzero;stroke:black;stroke-width:0.1px;stroke-linecap:round;stroke-miterlimit:4;"/>
        <path d="M166.108,5.92L166.108,11.589" style="fill:none;fill-rule:nonzero;stroke:black;stroke-width:0.1px;stroke-linecap:round;stroke-miterlimit:4;"/>
        <path d="M5.979,202.899L54.168,202.899" style="fill:none;fill-rule:nonzero;stroke:black;stroke-width:0.1px;stroke-linecap:round;stroke-miterlimit:4;"/>
        <path d="M327.683,43.875C327.683,43.875 327.683,43.875 327.683,43.875C327.683,40.765 325.124,38.206 322.014,38.206C322.014,38.206 322.014,38.206 322.014,38.206" style="fill-opacity:0;fill-rule:nonzero;stroke:black;stroke-width:0.1px;stroke-linecap:round;stroke-miterlimit:4;"/>
        <path d="M322.014,38.206L273.825,38.206" style="fill:none;fill-rule:nonzero;stroke:black;stroke-width:0.1px;stroke-linecap:round;stroke-miterlimit:4;"/>
        <path d="M359.113,232.374L359.091,97.025" style="fill:none;fill-rule:nonzero;stroke:black;stroke-width:0.1px;stroke-linecap:round;stroke-miterlimit:4;"/>
        <path d="M318.647,280.449L278.892,251.513" style="fill:none;fill-rule:nonzero;stroke:black;stroke-width:0.1px;stroke-linecap:round;stroke-miterlimit:4;"/>
    </g>
</svg>
