<?xml version="1.0" encoding="UTF-8" standalone="no"?>
<!DOCTYPE svg PUBLIC "-//W3C//DTD SVG 1.1//EN" "http://www.w3.org/Graphics/SVG/1.1/DTD/svg11.dtd">
<svg width="100%" height="100%" viewBox="0 0 364 284" version="1.1" xmlns="http://www.w3.org/2000/svg" xmlns:xlink="http://www.w3.org/1999/xlink" xml:space="preserve" xmlns:serif="http://www.serif.com/" style="fill-rule:evenodd;clip-rule:evenodd;stroke-linecap:round;stroke-linejoin:round;">
    <g>
        <path d="M113.696,0.25L160.439,0.25" style="fill:none;fill-rule:nonzero;stroke:black;stroke-width:0.28px;"/>
        <path d="M327.683,43.875L327.699,144.383" style="fill:none;fill-rule:nonzero;stroke:black;stroke-width:0.28px;"/>
        <path d="M273.825,17.258C273.825,14.148 271.266,11.589 268.156,11.589" style="fill-opacity:0;fill-rule:nonzero;stroke:black;stroke-width:0.28px;"/>
        <path d="M232.949,234.874L278.892,251.513" style="fill:none;fill-rule:nonzero;stroke:black;stroke-width:0.28px;"/>
        <path d="M232.949,234.874C231.98,234.467 230.954,234.211 229.907,234.116" style="fill-opacity:0;fill-rule:nonzero;stroke:black;stroke-width:0.28px;"/>
        <path d="M273.825,17.258L273.825,38.206" style="fill:none;fill-rule:nonzero;stroke:black;stroke-width:0.28px;"/>
        <path d="M180.622,231.246L229.907,234.116" style="fill:none;fill-rule:nonzero;stroke:black;stroke-width:0.28px;"/>
        <path d="M354.579,240.799C356.408,238.228 355.797,234.608 353.227,232.779" style="fill-opacity:0;fill-rule:nonzero;stroke:black;stroke-width:0.28px;"/>
        <path d="M322.03,150.052C325.14,150.052 327.699,147.493 327.699,144.383" style="fill-opacity:0;fill-rule:nonzero;stroke:black;stroke-width:0.28px;"/>
        <path d="M322.03,150.024L272.65,150.024" style="fill:none;fill-rule:nonzero;stroke:black;stroke-width:0.28px;"/>
        <path d="M353.227,232.779L316.437,206.471" style="fill:none;fill-rule:nonzero;stroke:black;stroke-width:0.28px;"/>
        <path d="M54.168,17.258L54.168,37.101" style="fill:none;fill-rule:nonzero;stroke:black;stroke-width:0.28px;"/>
        <path d="M5.979,37.101L54.168,37.101" style="fill:none;fill-rule:nonzero;stroke:black;stroke-width:0.28px;"/>
        <path d="M54.168,225.576L54.168,202.899" style="fill:none;fill-rule:nonzero;stroke:black;stroke-width:0.28px;"/>
        <path d="M293.457,172.276L272.65,172.276" style="fill:none;fill-rule:nonzero;stroke:black;stroke-width:0.28px;"/>
        <path d="M272.65,150.024L272.65,172.276" style="fill:none;fill-rule:nonzero;stroke:black;stroke-width:0.28px;"/>
        <path d="M113.696,0.25C110.586,0.25 108.026,2.81 108.026,5.92" style="fill-opacity:0;fill-rule:nonzero;stroke:black;stroke-width:0.28px;"/>
        <path d="M299.126,177.945C299.126,174.835 296.567,172.276 293.457,172.276" style="fill-opacity:0;fill-rule:nonzero;stroke:black;stroke-width:0.28px;"/>
        <path d="M54.168,225.576C54.168,228.686 56.727,231.246 59.837,231.246" style="fill-opacity:0;fill-rule:nonzero;stroke:black;stroke-width:0.28px;"/>
        <path d="M0.31,197.23C0.31,197.23 0.31,197.23 0.31,197.23C0.31,200.34 2.869,202.899 5.979,202.899C5.979,202.899 5.979,202.899 5.979,202.899" style="fill-opacity:0;fill-rule:nonzero;stroke:black;stroke-width:0.28px;"/>
        <path d="M299.11,200.083L299.126,177.945" style="fill:none;fill-rule:nonzero;stroke:black;stroke-width:0.28px;"/>
        <path d="M59.837,11.589C56.727,11.589 54.168,14.148 54.168,17.258" style="fill-opacity:0;fill-rule:nonzero;stroke:black;stroke-width:0.28px;"/>
        <path d="M318.647,280.449C321.163,282.277 324.738,281.711 326.566,279.195" style="fill-opacity:0;fill-rule:nonzero;stroke:black;stroke-width:0.28px;"/>
        <path d="M0.31,42.77L0.31,197.23" style="fill:none;fill-rule:nonzero;stroke:black;stroke-width:0.28px;"/>
        <path d="M59.837,11.589L108.026,11.589" style="fill:none;fill-rule:nonzero;stroke:black;stroke-width:0.28px;"/>
        <path d="M166.108,5.92C166.108,2.81 163.549,0.25 160.439,0.25" style="fill-opacity:0;fill-rule:nonzero;stroke:black;stroke-width:0.28px;"/>
        <path d="M268.156,11.589L166.108,11.589" style="fill:none;fill-rule:nonzero;stroke:black;stroke-width:0.28px;"/>
        <path d="M5.979,37.101C5.979,37.101 5.979,37.101 5.979,37.101C2.869,37.101 0.31,39.66 0.31,42.77" style="fill-opacity:0;fill-rule:nonzero;stroke:black;stroke-width:0.28px;"/>
        <path d="M108.026,5.92L108.026,11.589" style="fill:none;fill-rule:nonzero;stroke:black;stroke-width:0.28px;"/>
        <path d="M316.437,206.471C315.487,205.968 314.431,205.699 313.356,205.686" style="fill-opacity:0;fill-rule:nonzero;stroke:black;stroke-width:0.28px;"/>
        <path d="M59.837,231.246L180.622,231.246" style="fill:none;fill-rule:nonzero;stroke:black;stroke-width:0.28px;"/>
        <path d="M354.579,240.799L326.566,279.195" style="fill:none;fill-rule:nonzero;stroke:black;stroke-width:0.28px;"/>
        <path d="M313.356,205.686L304.779,205.753" style="fill:none;fill-rule:nonzero;stroke:black;stroke-width:0.28px;"/>
        <path d="M166.108,5.92L166.108,11.589" style="fill:none;fill-rule:nonzero;stroke:black;stroke-width:0.28px;"/>
        <path d="M5.979,202.899L54.168,202.899" style="fill:none;fill-rule:nonzero;stroke:black;stroke-width:0.28px;"/>
        <path d="M327.683,43.875C327.683,40.765 325.124,38.206 322.014,38.206" style="fill-opacity:0;fill-rule:nonzero;stroke:black;stroke-width:0.28px;"/>
        <path d="M322.014,38.206L273.825,38.206" style="fill:none;fill-rule:nonzero;stroke:black;stroke-width:0.28px;"/>
        <path d="M318.647,280.449L278.892,251.513" style="fill:none;fill-rule:nonzero;stroke:black;stroke-width:0.28px;"/>
        <path d="M299.11,200.083C299.11,203.194 301.669,205.753 304.779,205.753" style="fill-opacity:0;fill-rule:nonzero;stroke:black;stroke-width:0.28px;"/>
        <path d="M63.365,182.368L103.05,182.368" style="fill:none;fill-rule:nonzero;stroke:black;stroke-width:0.28px;"/>
        <path d="M103.05,182.368L103.05,222.053" style="fill:none;fill-rule:nonzero;stroke:black;stroke-width:0.28px;"/>
        <path d="M103.05,222.053L63.365,222.053" style="fill:none;fill-rule:nonzero;stroke:black;stroke-width:0.28px;"/>
        <path d="M63.365,222.053L63.365,182.368" style="fill:none;fill-rule:nonzero;stroke:black;stroke-width:0.28px;"/>
        <path d="M186.96,182.811L226.59,184.888" style="fill:none;fill-rule:nonzero;stroke:black;stroke-width:0.28px;"/>
        <path d="M226.59,184.888L224.513,224.518" style="fill:none;fill-rule:nonzero;stroke:black;stroke-width:0.28px;"/>
        <path d="M224.513,224.518L184.883,222.441" style="fill:none;fill-rule:nonzero;stroke:black;stroke-width:0.28px;"/>
        <path d="M184.883,222.441L186.96,182.811" style="fill:none;fill-rule:nonzero;stroke:black;stroke-width:0.28px;"/>
        <path d="M278.798,47.39L318.483,47.39" style="fill:none;fill-rule:nonzero;stroke:black;stroke-width:0.28px;"/>
        <path d="M318.483,47.39L318.483,87.075" style="fill:none;fill-rule:nonzero;stroke:black;stroke-width:0.28px;"/>
        <path d="M318.483,87.075L278.798,87.075" style="fill:none;fill-rule:nonzero;stroke:black;stroke-width:0.28px;"/>
        <path d="M278.798,87.075L278.798,47.39" style="fill:none;fill-rule:nonzero;stroke:black;stroke-width:0.28px;"/>
        <path d="M312.395,215.604L344.501,238.93" style="fill:none;fill-rule:nonzero;stroke:black;stroke-width:0.28px;"/>
        <path d="M344.501,238.93L321.174,271.036" style="fill:none;fill-rule:nonzero;stroke:black;stroke-width:0.28px;"/>
        <path d="M321.174,271.036L289.069,247.71" style="fill:none;fill-rule:nonzero;stroke:black;stroke-width:0.28px;"/>
        <path d="M289.069,247.71L312.395,215.604" style="fill:none;fill-rule:nonzero;stroke:black;stroke-width:0.28px;"/>
        <path d="M123.956,182.368L163.641,182.368" style="fill:none;fill-rule:nonzero;stroke:black;stroke-width:0.28px;"/>
        <path d="M163.641,182.368L163.641,222.053" style="fill:none;fill-rule:nonzero;stroke:black;stroke-width:0.28px;"/>
        <path d="M163.641,222.053L123.956,222.053" style="fill:none;fill-rule:nonzero;stroke:black;stroke-width:0.28px;"/>
        <path d="M123.956,222.053L123.956,182.368" style="fill:none;fill-rule:nonzero;stroke:black;stroke-width:0.28px;"/>
        <path d="M251.711,189.665L289.003,203.238" style="fill:none;fill-rule:nonzero;stroke:black;stroke-width:0.28px;"/>
        <path d="M289.003,203.238L275.43,240.53" style="fill:none;fill-rule:nonzero;stroke:black;stroke-width:0.28px;"/>
        <path d="M275.43,240.53L238.138,226.957" style="fill:none;fill-rule:nonzero;stroke:black;stroke-width:0.28px;"/>
        <path d="M238.138,226.957L251.711,189.665" style="fill:none;fill-rule:nonzero;stroke:black;stroke-width:0.28px;"/>
        <path d="M278.798,101.249L318.483,101.249" style="fill:none;fill-rule:nonzero;stroke:black;stroke-width:0.28px;"/>
        <path d="M318.483,101.249L318.483,140.934" style="fill:none;fill-rule:nonzero;stroke:black;stroke-width:0.28px;"/>
        <path d="M318.483,140.934L278.798,140.934" style="fill:none;fill-rule:nonzero;stroke:black;stroke-width:0.28px;"/>
        <path d="M278.798,140.934L278.798,101.249" style="fill:none;fill-rule:nonzero;stroke:black;stroke-width:0.28px;"/>
        <path d="M210.767,20.793L171.082,20.793" style="fill:none;fill-rule:nonzero;stroke:black;stroke-width:0.28px;"/>
        <path d="M171.082,20.793L171.082,60.478" style="fill:none;fill-rule:nonzero;stroke:black;stroke-width:0.28px;"/>
        <path d="M171.082,60.478L210.767,60.478" style="fill:none;fill-rule:nonzero;stroke:black;stroke-width:0.28px;"/>
        <path d="M210.767,60.478L210.767,20.793" style="fill:none;fill-rule:nonzero;stroke:black;stroke-width:0.28px;"/>
        <path d="M210.767,128.51L171.082,128.51" style="fill:none;fill-rule:nonzero;stroke:black;stroke-width:0.28px;"/>
        <path d="M171.082,128.51L171.082,168.195" style="fill:none;fill-rule:nonzero;stroke:black;stroke-width:0.28px;"/>
        <path d="M171.082,168.195L210.767,168.195" style="fill:none;fill-rule:nonzero;stroke:black;stroke-width:0.28px;"/>
        <path d="M210.767,168.195L210.767,128.51" style="fill:none;fill-rule:nonzero;stroke:black;stroke-width:0.28px;"/>
        <path d="M156.908,117.171L117.223,117.171" style="fill:none;fill-rule:nonzero;stroke:black;stroke-width:0.28px;"/>
        <path d="M117.223,117.171L117.223,156.856" style="fill:none;fill-rule:nonzero;stroke:black;stroke-width:0.28px;"/>
        <path d="M117.223,156.856L156.908,156.856" style="fill:none;fill-rule:nonzero;stroke:black;stroke-width:0.28px;"/>
        <path d="M156.908,156.856L156.908,117.171" style="fill:none;fill-rule:nonzero;stroke:black;stroke-width:0.28px;"/>
        <path d="M210.767,74.652L171.082,74.652" style="fill:none;fill-rule:nonzero;stroke:black;stroke-width:0.28px;"/>
        <path d="M171.082,74.652L171.082,114.337" style="fill:none;fill-rule:nonzero;stroke:black;stroke-width:0.28px;"/>
        <path d="M171.082,114.337L210.767,114.337" style="fill:none;fill-rule:nonzero;stroke:black;stroke-width:0.28px;"/>
        <path d="M210.767,114.337L210.767,74.652" style="fill:none;fill-rule:nonzero;stroke:black;stroke-width:0.28px;"/>
        <path d="M49.192,100.163L9.507,100.163" style="fill:none;fill-rule:nonzero;stroke:black;stroke-width:0.28px;"/>
        <path d="M9.507,100.163L9.507,139.848" style="fill:none;fill-rule:nonzero;stroke:black;stroke-width:0.28px;"/>
        <path d="M9.507,139.848L49.192,139.848" style="fill:none;fill-rule:nonzero;stroke:black;stroke-width:0.28px;"/>
        <path d="M49.192,139.848L49.192,100.163" style="fill:none;fill-rule:nonzero;stroke:black;stroke-width:0.28px;"/>
        <path d="M49.192,46.305L9.507,46.305" style="fill:none;fill-rule:nonzero;stroke:black;stroke-width:0.28px;"/>
        <path d="M9.507,46.305L9.507,85.99" style="fill:none;fill-rule:nonzero;stroke:black;stroke-width:0.28px;"/>
        <path d="M9.507,85.99L49.192,85.99" style="fill:none;fill-rule:nonzero;stroke:black;stroke-width:0.28px;"/>
        <path d="M49.192,85.99L49.192,46.305" style="fill:none;fill-rule:nonzero;stroke:black;stroke-width:0.28px;"/>
        <path d="M49.192,154.022L9.507,154.022" style="fill:none;fill-rule:nonzero;stroke:black;stroke-width:0.28px;"/>
        <path d="M9.507,154.022L9.507,193.707" style="fill:none;fill-rule:nonzero;stroke:black;stroke-width:0.28px;"/>
        <path d="M9.507,193.707L49.192,193.707" style="fill:none;fill-rule:nonzero;stroke:black;stroke-width:0.28px;"/>
        <path d="M49.192,193.707L49.192,154.022" style="fill:none;fill-rule:nonzero;stroke:black;stroke-width:0.28px;"/>
        <path d="M264.625,74.652L224.94,74.652" style="fill:none;fill-rule:nonzero;stroke:black;stroke-width:0.28px;"/>
        <path d="M224.94,74.652L224.94,114.337" style="fill:none;fill-rule:nonzero;stroke:black;stroke-width:0.28px;"/>
        <path d="M224.94,114.337L264.625,114.337" style="fill:none;fill-rule:nonzero;stroke:black;stroke-width:0.28px;"/>
        <path d="M264.625,114.337L264.625,74.652" style="fill:none;fill-rule:nonzero;stroke:black;stroke-width:0.28px;"/>
        <path d="M103.05,128.51L63.365,128.51" style="fill:none;fill-rule:nonzero;stroke:black;stroke-width:0.28px;"/>
        <path d="M63.365,128.51L63.365,168.195" style="fill:none;fill-rule:nonzero;stroke:black;stroke-width:0.28px;"/>
        <path d="M63.365,168.195L103.05,168.195" style="fill:none;fill-rule:nonzero;stroke:black;stroke-width:0.28px;"/>
        <path d="M103.05,168.195L103.05,128.51" style="fill:none;fill-rule:nonzero;stroke:black;stroke-width:0.28px;"/>
        <path d="M156.908,63.313L117.223,63.313" style="fill:none;fill-rule:nonzero;stroke:black;stroke-width:0.28px;"/>
        <path d="M117.223,63.313L117.223,102.998" style="fill:none;fill-rule:nonzero;stroke:black;stroke-width:0.28px;"/>
        <path d="M117.223,102.998L156.908,102.998" style="fill:none;fill-rule:nonzero;stroke:black;stroke-width:0.28px;"/>
        <path d="M156.908,102.998L156.908,63.313" style="fill:none;fill-rule:nonzero;stroke:black;stroke-width:0.28px;"/>
        <path d="M156.908,9.455L117.223,9.455" style="fill:none;fill-rule:nonzero;stroke:black;stroke-width:0.28px;"/>
        <path d="M117.223,9.455L117.223,49.14" style="fill:none;fill-rule:nonzero;stroke:black;stroke-width:0.28px;"/>
        <path d="M117.223,49.14L156.908,49.14" style="fill:none;fill-rule:nonzero;stroke:black;stroke-width:0.28px;"/>
        <path d="M156.908,49.14L156.908,9.455" style="fill:none;fill-rule:nonzero;stroke:black;stroke-width:0.28px;"/>
        <path d="M103.05,74.652L63.365,74.652" style="fill:none;fill-rule:nonzero;stroke:black;stroke-width:0.28px;"/>
        <path d="M63.365,74.652L63.365,114.337" style="fill:none;fill-rule:nonzero;stroke:black;stroke-width:0.28px;"/>
        <path d="M63.365,114.337L103.05,114.337" style="fill:none;fill-rule:nonzero;stroke:black;stroke-width:0.28px;"/>
        <path d="M103.05,114.337L103.05,74.652" style="fill:none;fill-rule:nonzero;stroke:black;stroke-width:0.28px;"/>
        <path d="M264.625,128.51L224.94,128.51" style="fill:none;fill-rule:nonzero;stroke:black;stroke-width:0.28px;"/>
        <path d="M224.94,128.51L224.94,168.195" style="fill:none;fill-rule:nonzero;stroke:black;stroke-width:0.28px;"/>
        <path d="M224.94,168.195L264.625,168.195" style="fill:none;fill-rule:nonzero;stroke:black;stroke-width:0.28px;"/>
        <path d="M264.625,168.195L264.625,128.51" style="fill:none;fill-rule:nonzero;stroke:black;stroke-width:0.28px;"/>
        <path d="M103.05,20.793L63.365,20.793" style="fill:none;fill-rule:nonzero;stroke:black;stroke-width:0.28px;"/>
        <path d="M63.365,20.793L63.365,60.478" style="fill:none;fill-rule:nonzero;stroke:black;stroke-width:0.28px;"/>
        <path d="M63.365,60.478L103.05,60.478" style="fill:none;fill-rule:nonzero;stroke:black;stroke-width:0.28px;"/>
        <path d="M103.05,60.478L103.05,20.793" style="fill:none;fill-rule:nonzero;stroke:black;stroke-width:0.28px;"/>
        <path d="M264.625,20.793L224.94,20.793" style="fill:none;fill-rule:nonzero;stroke:black;stroke-width:0.28px;"/>
        <path d="M224.94,20.793L224.94,60.478" style="fill:none;fill-rule:nonzero;stroke:black;stroke-width:0.28px;"/>
        <path d="M224.94,60.478L264.625,60.478" style="fill:none;fill-rule:nonzero;stroke:black;stroke-width:0.28px;"/>
        <path d="M264.625,60.478L264.625,20.793" style="fill:none;fill-rule:nonzero;stroke:black;stroke-width:0.28px;"/>
    </g>
</svg>
