%TF.GenerationSoftware,KiCad,Pcbnew,7.0.2-0*%
%TF.CreationDate,2024-02-18T22:39:56+01:00*%
%TF.ProjectId,defiant-plate,64656669-616e-4742-9d70-6c6174652e6b,v0.1*%
%TF.SameCoordinates,Original*%
%TF.FileFunction,Legend,Top*%
%TF.FilePolarity,Positive*%
%FSLAX46Y46*%
G04 Gerber Fmt 4.6, Leading zero omitted, Abs format (unit mm)*
G04 Created by KiCad (PCBNEW 7.0.2-0) date 2024-02-18 22:39:56*
%MOMM*%
%LPD*%
G01*
G04 APERTURE LIST*
%ADD10C,0.150000*%
%ADD11C,4.000000*%
G04 APERTURE END LIST*
D10*
X161073809Y-90777619D02*
X161073809Y-91491904D01*
X161073809Y-91491904D02*
X161026190Y-91634761D01*
X161026190Y-91634761D02*
X160930952Y-91730000D01*
X160930952Y-91730000D02*
X160788095Y-91777619D01*
X160788095Y-91777619D02*
X160692857Y-91777619D01*
X162026190Y-91777619D02*
X161550000Y-91777619D01*
X161550000Y-91777619D02*
X161550000Y-90777619D01*
X162930952Y-91682380D02*
X162883333Y-91730000D01*
X162883333Y-91730000D02*
X162740476Y-91777619D01*
X162740476Y-91777619D02*
X162645238Y-91777619D01*
X162645238Y-91777619D02*
X162502381Y-91730000D01*
X162502381Y-91730000D02*
X162407143Y-91634761D01*
X162407143Y-91634761D02*
X162359524Y-91539523D01*
X162359524Y-91539523D02*
X162311905Y-91349047D01*
X162311905Y-91349047D02*
X162311905Y-91206190D01*
X162311905Y-91206190D02*
X162359524Y-91015714D01*
X162359524Y-91015714D02*
X162407143Y-90920476D01*
X162407143Y-90920476D02*
X162502381Y-90825238D01*
X162502381Y-90825238D02*
X162645238Y-90777619D01*
X162645238Y-90777619D02*
X162740476Y-90777619D01*
X162740476Y-90777619D02*
X162883333Y-90825238D01*
X162883333Y-90825238D02*
X162930952Y-90872857D01*
X163645238Y-90777619D02*
X163645238Y-91491904D01*
X163645238Y-91491904D02*
X163597619Y-91634761D01*
X163597619Y-91634761D02*
X163502381Y-91730000D01*
X163502381Y-91730000D02*
X163359524Y-91777619D01*
X163359524Y-91777619D02*
X163264286Y-91777619D01*
X164597619Y-91777619D02*
X164121429Y-91777619D01*
X164121429Y-91777619D02*
X164121429Y-90777619D01*
X165502381Y-91682380D02*
X165454762Y-91730000D01*
X165454762Y-91730000D02*
X165311905Y-91777619D01*
X165311905Y-91777619D02*
X165216667Y-91777619D01*
X165216667Y-91777619D02*
X165073810Y-91730000D01*
X165073810Y-91730000D02*
X164978572Y-91634761D01*
X164978572Y-91634761D02*
X164930953Y-91539523D01*
X164930953Y-91539523D02*
X164883334Y-91349047D01*
X164883334Y-91349047D02*
X164883334Y-91206190D01*
X164883334Y-91206190D02*
X164930953Y-91015714D01*
X164930953Y-91015714D02*
X164978572Y-90920476D01*
X164978572Y-90920476D02*
X165073810Y-90825238D01*
X165073810Y-90825238D02*
X165216667Y-90777619D01*
X165216667Y-90777619D02*
X165311905Y-90777619D01*
X165311905Y-90777619D02*
X165454762Y-90825238D01*
X165454762Y-90825238D02*
X165502381Y-90872857D01*
X166216667Y-90777619D02*
X166216667Y-91491904D01*
X166216667Y-91491904D02*
X166169048Y-91634761D01*
X166169048Y-91634761D02*
X166073810Y-91730000D01*
X166073810Y-91730000D02*
X165930953Y-91777619D01*
X165930953Y-91777619D02*
X165835715Y-91777619D01*
X167169048Y-91777619D02*
X166692858Y-91777619D01*
X166692858Y-91777619D02*
X166692858Y-90777619D01*
X168073810Y-91682380D02*
X168026191Y-91730000D01*
X168026191Y-91730000D02*
X167883334Y-91777619D01*
X167883334Y-91777619D02*
X167788096Y-91777619D01*
X167788096Y-91777619D02*
X167645239Y-91730000D01*
X167645239Y-91730000D02*
X167550001Y-91634761D01*
X167550001Y-91634761D02*
X167502382Y-91539523D01*
X167502382Y-91539523D02*
X167454763Y-91349047D01*
X167454763Y-91349047D02*
X167454763Y-91206190D01*
X167454763Y-91206190D02*
X167502382Y-91015714D01*
X167502382Y-91015714D02*
X167550001Y-90920476D01*
X167550001Y-90920476D02*
X167645239Y-90825238D01*
X167645239Y-90825238D02*
X167788096Y-90777619D01*
X167788096Y-90777619D02*
X167883334Y-90777619D01*
X167883334Y-90777619D02*
X168026191Y-90825238D01*
X168026191Y-90825238D02*
X168073810Y-90872857D01*
X168788096Y-90777619D02*
X168788096Y-91491904D01*
X168788096Y-91491904D02*
X168740477Y-91634761D01*
X168740477Y-91634761D02*
X168645239Y-91730000D01*
X168645239Y-91730000D02*
X168502382Y-91777619D01*
X168502382Y-91777619D02*
X168407144Y-91777619D01*
X169740477Y-91777619D02*
X169264287Y-91777619D01*
X169264287Y-91777619D02*
X169264287Y-90777619D01*
X170645239Y-91682380D02*
X170597620Y-91730000D01*
X170597620Y-91730000D02*
X170454763Y-91777619D01*
X170454763Y-91777619D02*
X170359525Y-91777619D01*
X170359525Y-91777619D02*
X170216668Y-91730000D01*
X170216668Y-91730000D02*
X170121430Y-91634761D01*
X170121430Y-91634761D02*
X170073811Y-91539523D01*
X170073811Y-91539523D02*
X170026192Y-91349047D01*
X170026192Y-91349047D02*
X170026192Y-91206190D01*
X170026192Y-91206190D02*
X170073811Y-91015714D01*
X170073811Y-91015714D02*
X170121430Y-90920476D01*
X170121430Y-90920476D02*
X170216668Y-90825238D01*
X170216668Y-90825238D02*
X170359525Y-90777619D01*
X170359525Y-90777619D02*
X170454763Y-90777619D01*
X170454763Y-90777619D02*
X170597620Y-90825238D01*
X170597620Y-90825238D02*
X170645239Y-90872857D01*
X122748571Y-108618214D02*
X122748571Y-107868214D01*
X122748571Y-108153928D02*
X122820000Y-108118214D01*
X122820000Y-108118214D02*
X122962857Y-108118214D01*
X122962857Y-108118214D02*
X123034285Y-108153928D01*
X123034285Y-108153928D02*
X123070000Y-108189642D01*
X123070000Y-108189642D02*
X123105714Y-108261071D01*
X123105714Y-108261071D02*
X123105714Y-108475357D01*
X123105714Y-108475357D02*
X123070000Y-108546785D01*
X123070000Y-108546785D02*
X123034285Y-108582500D01*
X123034285Y-108582500D02*
X122962857Y-108618214D01*
X122962857Y-108618214D02*
X122820000Y-108618214D01*
X122820000Y-108618214D02*
X122748571Y-108582500D01*
X123355713Y-108118214D02*
X123534285Y-108618214D01*
X123712856Y-108118214D02*
X123534285Y-108618214D01*
X123534285Y-108618214D02*
X123462856Y-108796785D01*
X123462856Y-108796785D02*
X123427142Y-108832500D01*
X123427142Y-108832500D02*
X123355713Y-108868214D01*
X124534286Y-108403928D02*
X124891429Y-108403928D01*
X124462857Y-108618214D02*
X124712857Y-107868214D01*
X124712857Y-107868214D02*
X124962857Y-108618214D01*
X125212857Y-108118214D02*
X125212857Y-108618214D01*
X125212857Y-108189642D02*
X125248571Y-108153928D01*
X125248571Y-108153928D02*
X125320000Y-108118214D01*
X125320000Y-108118214D02*
X125427143Y-108118214D01*
X125427143Y-108118214D02*
X125498571Y-108153928D01*
X125498571Y-108153928D02*
X125534286Y-108225357D01*
X125534286Y-108225357D02*
X125534286Y-108618214D01*
X125784285Y-108118214D02*
X126069999Y-108118214D01*
X125891428Y-107868214D02*
X125891428Y-108511071D01*
X125891428Y-108511071D02*
X125927142Y-108582500D01*
X125927142Y-108582500D02*
X125998571Y-108618214D01*
X125998571Y-108618214D02*
X126069999Y-108618214D01*
X126427142Y-108618214D02*
X126355713Y-108582500D01*
X126355713Y-108582500D02*
X126319999Y-108546785D01*
X126319999Y-108546785D02*
X126284285Y-108475357D01*
X126284285Y-108475357D02*
X126284285Y-108261071D01*
X126284285Y-108261071D02*
X126319999Y-108189642D01*
X126319999Y-108189642D02*
X126355713Y-108153928D01*
X126355713Y-108153928D02*
X126427142Y-108118214D01*
X126427142Y-108118214D02*
X126534285Y-108118214D01*
X126534285Y-108118214D02*
X126605713Y-108153928D01*
X126605713Y-108153928D02*
X126641428Y-108189642D01*
X126641428Y-108189642D02*
X126677142Y-108261071D01*
X126677142Y-108261071D02*
X126677142Y-108475357D01*
X126677142Y-108475357D02*
X126641428Y-108546785D01*
X126641428Y-108546785D02*
X126605713Y-108582500D01*
X126605713Y-108582500D02*
X126534285Y-108618214D01*
X126534285Y-108618214D02*
X126427142Y-108618214D01*
X126998570Y-108118214D02*
X126998570Y-108618214D01*
X126998570Y-108189642D02*
X127034284Y-108153928D01*
X127034284Y-108153928D02*
X127105713Y-108118214D01*
X127105713Y-108118214D02*
X127212856Y-108118214D01*
X127212856Y-108118214D02*
X127284284Y-108153928D01*
X127284284Y-108153928D02*
X127319999Y-108225357D01*
X127319999Y-108225357D02*
X127319999Y-108618214D01*
X127677141Y-108618214D02*
X127677141Y-108118214D01*
X127677141Y-107868214D02*
X127641427Y-107903928D01*
X127641427Y-107903928D02*
X127677141Y-107939642D01*
X127677141Y-107939642D02*
X127712855Y-107903928D01*
X127712855Y-107903928D02*
X127677141Y-107868214D01*
X127677141Y-107868214D02*
X127677141Y-107939642D01*
X128355713Y-108118214D02*
X128355713Y-108618214D01*
X128034284Y-108118214D02*
X128034284Y-108511071D01*
X128034284Y-108511071D02*
X128069998Y-108582500D01*
X128069998Y-108582500D02*
X128141427Y-108618214D01*
X128141427Y-108618214D02*
X128248570Y-108618214D01*
X128248570Y-108618214D02*
X128319998Y-108582500D01*
X128319998Y-108582500D02*
X128355713Y-108546785D01*
X128677141Y-108582500D02*
X128748569Y-108618214D01*
X128748569Y-108618214D02*
X128891426Y-108618214D01*
X128891426Y-108618214D02*
X128962855Y-108582500D01*
X128962855Y-108582500D02*
X128998569Y-108511071D01*
X128998569Y-108511071D02*
X128998569Y-108475357D01*
X128998569Y-108475357D02*
X128962855Y-108403928D01*
X128962855Y-108403928D02*
X128891426Y-108368214D01*
X128891426Y-108368214D02*
X128784284Y-108368214D01*
X128784284Y-108368214D02*
X128712855Y-108332500D01*
X128712855Y-108332500D02*
X128677141Y-108261071D01*
X128677141Y-108261071D02*
X128677141Y-108225357D01*
X128677141Y-108225357D02*
X128712855Y-108153928D01*
X128712855Y-108153928D02*
X128784284Y-108118214D01*
X128784284Y-108118214D02*
X128891426Y-108118214D01*
X128891426Y-108118214D02*
X128962855Y-108153928D01*
X129891427Y-108618214D02*
X129891427Y-107868214D01*
X129891427Y-107868214D02*
X130319998Y-108618214D01*
X130319998Y-108618214D02*
X130319998Y-107868214D01*
X130998570Y-108618214D02*
X130998570Y-108225357D01*
X130998570Y-108225357D02*
X130962855Y-108153928D01*
X130962855Y-108153928D02*
X130891427Y-108118214D01*
X130891427Y-108118214D02*
X130748570Y-108118214D01*
X130748570Y-108118214D02*
X130677141Y-108153928D01*
X130998570Y-108582500D02*
X130927141Y-108618214D01*
X130927141Y-108618214D02*
X130748570Y-108618214D01*
X130748570Y-108618214D02*
X130677141Y-108582500D01*
X130677141Y-108582500D02*
X130641427Y-108511071D01*
X130641427Y-108511071D02*
X130641427Y-108439642D01*
X130641427Y-108439642D02*
X130677141Y-108368214D01*
X130677141Y-108368214D02*
X130748570Y-108332500D01*
X130748570Y-108332500D02*
X130927141Y-108332500D01*
X130927141Y-108332500D02*
X130998570Y-108296785D01*
X131677141Y-108118214D02*
X131677141Y-108618214D01*
X131355712Y-108118214D02*
X131355712Y-108511071D01*
X131355712Y-108511071D02*
X131391426Y-108582500D01*
X131391426Y-108582500D02*
X131462855Y-108618214D01*
X131462855Y-108618214D02*
X131569998Y-108618214D01*
X131569998Y-108618214D02*
X131641426Y-108582500D01*
X131641426Y-108582500D02*
X131677141Y-108546785D01*
X132034283Y-108618214D02*
X132034283Y-108118214D01*
X132034283Y-108189642D02*
X132069997Y-108153928D01*
X132069997Y-108153928D02*
X132141426Y-108118214D01*
X132141426Y-108118214D02*
X132248569Y-108118214D01*
X132248569Y-108118214D02*
X132319997Y-108153928D01*
X132319997Y-108153928D02*
X132355712Y-108225357D01*
X132355712Y-108225357D02*
X132355712Y-108618214D01*
X132355712Y-108225357D02*
X132391426Y-108153928D01*
X132391426Y-108153928D02*
X132462854Y-108118214D01*
X132462854Y-108118214D02*
X132569997Y-108118214D01*
X132569997Y-108118214D02*
X132641426Y-108153928D01*
X132641426Y-108153928D02*
X132677140Y-108225357D01*
X132677140Y-108225357D02*
X132677140Y-108618214D01*
X133355712Y-108618214D02*
X133355712Y-108225357D01*
X133355712Y-108225357D02*
X133319997Y-108153928D01*
X133319997Y-108153928D02*
X133248569Y-108118214D01*
X133248569Y-108118214D02*
X133105712Y-108118214D01*
X133105712Y-108118214D02*
X133034283Y-108153928D01*
X133355712Y-108582500D02*
X133284283Y-108618214D01*
X133284283Y-108618214D02*
X133105712Y-108618214D01*
X133105712Y-108618214D02*
X133034283Y-108582500D01*
X133034283Y-108582500D02*
X132998569Y-108511071D01*
X132998569Y-108511071D02*
X132998569Y-108439642D01*
X132998569Y-108439642D02*
X133034283Y-108368214D01*
X133034283Y-108368214D02*
X133105712Y-108332500D01*
X133105712Y-108332500D02*
X133284283Y-108332500D01*
X133284283Y-108332500D02*
X133355712Y-108296785D01*
X133712854Y-108118214D02*
X133712854Y-108618214D01*
X133712854Y-108189642D02*
X133748568Y-108153928D01*
X133748568Y-108153928D02*
X133819997Y-108118214D01*
X133819997Y-108118214D02*
X133927140Y-108118214D01*
X133927140Y-108118214D02*
X133998568Y-108153928D01*
X133998568Y-108153928D02*
X134034283Y-108225357D01*
X134034283Y-108225357D02*
X134034283Y-108618214D01*
X134391425Y-108118214D02*
X134391425Y-108618214D01*
X134391425Y-108189642D02*
X134427139Y-108153928D01*
X134427139Y-108153928D02*
X134498568Y-108118214D01*
X134498568Y-108118214D02*
X134605711Y-108118214D01*
X134605711Y-108118214D02*
X134677139Y-108153928D01*
X134677139Y-108153928D02*
X134712854Y-108225357D01*
X134712854Y-108225357D02*
X134712854Y-108618214D01*
X124058095Y-107187619D02*
X124058095Y-106187619D01*
X124058095Y-106187619D02*
X124296190Y-106187619D01*
X124296190Y-106187619D02*
X124439047Y-106235238D01*
X124439047Y-106235238D02*
X124534285Y-106330476D01*
X124534285Y-106330476D02*
X124581904Y-106425714D01*
X124581904Y-106425714D02*
X124629523Y-106616190D01*
X124629523Y-106616190D02*
X124629523Y-106759047D01*
X124629523Y-106759047D02*
X124581904Y-106949523D01*
X124581904Y-106949523D02*
X124534285Y-107044761D01*
X124534285Y-107044761D02*
X124439047Y-107140000D01*
X124439047Y-107140000D02*
X124296190Y-107187619D01*
X124296190Y-107187619D02*
X124058095Y-107187619D01*
X125439047Y-107140000D02*
X125343809Y-107187619D01*
X125343809Y-107187619D02*
X125153333Y-107187619D01*
X125153333Y-107187619D02*
X125058095Y-107140000D01*
X125058095Y-107140000D02*
X125010476Y-107044761D01*
X125010476Y-107044761D02*
X125010476Y-106663809D01*
X125010476Y-106663809D02*
X125058095Y-106568571D01*
X125058095Y-106568571D02*
X125153333Y-106520952D01*
X125153333Y-106520952D02*
X125343809Y-106520952D01*
X125343809Y-106520952D02*
X125439047Y-106568571D01*
X125439047Y-106568571D02*
X125486666Y-106663809D01*
X125486666Y-106663809D02*
X125486666Y-106759047D01*
X125486666Y-106759047D02*
X125010476Y-106854285D01*
X125772381Y-106520952D02*
X126153333Y-106520952D01*
X125915238Y-107187619D02*
X125915238Y-106330476D01*
X125915238Y-106330476D02*
X125962857Y-106235238D01*
X125962857Y-106235238D02*
X126058095Y-106187619D01*
X126058095Y-106187619D02*
X126153333Y-106187619D01*
X126486667Y-107187619D02*
X126486667Y-106520952D01*
X126486667Y-106187619D02*
X126439048Y-106235238D01*
X126439048Y-106235238D02*
X126486667Y-106282857D01*
X126486667Y-106282857D02*
X126534286Y-106235238D01*
X126534286Y-106235238D02*
X126486667Y-106187619D01*
X126486667Y-106187619D02*
X126486667Y-106282857D01*
X127391428Y-107187619D02*
X127391428Y-106663809D01*
X127391428Y-106663809D02*
X127343809Y-106568571D01*
X127343809Y-106568571D02*
X127248571Y-106520952D01*
X127248571Y-106520952D02*
X127058095Y-106520952D01*
X127058095Y-106520952D02*
X126962857Y-106568571D01*
X127391428Y-107140000D02*
X127296190Y-107187619D01*
X127296190Y-107187619D02*
X127058095Y-107187619D01*
X127058095Y-107187619D02*
X126962857Y-107140000D01*
X126962857Y-107140000D02*
X126915238Y-107044761D01*
X126915238Y-107044761D02*
X126915238Y-106949523D01*
X126915238Y-106949523D02*
X126962857Y-106854285D01*
X126962857Y-106854285D02*
X127058095Y-106806666D01*
X127058095Y-106806666D02*
X127296190Y-106806666D01*
X127296190Y-106806666D02*
X127391428Y-106759047D01*
X127867619Y-106520952D02*
X127867619Y-107187619D01*
X127867619Y-106616190D02*
X127915238Y-106568571D01*
X127915238Y-106568571D02*
X128010476Y-106520952D01*
X128010476Y-106520952D02*
X128153333Y-106520952D01*
X128153333Y-106520952D02*
X128248571Y-106568571D01*
X128248571Y-106568571D02*
X128296190Y-106663809D01*
X128296190Y-106663809D02*
X128296190Y-107187619D01*
X128629524Y-106520952D02*
X129010476Y-106520952D01*
X128772381Y-106187619D02*
X128772381Y-107044761D01*
X128772381Y-107044761D02*
X128820000Y-107140000D01*
X128820000Y-107140000D02*
X128915238Y-107187619D01*
X128915238Y-107187619D02*
X129010476Y-107187619D01*
X130010477Y-106520952D02*
X130248572Y-107187619D01*
X130248572Y-107187619D02*
X130486667Y-106520952D01*
X131058096Y-106187619D02*
X131153334Y-106187619D01*
X131153334Y-106187619D02*
X131248572Y-106235238D01*
X131248572Y-106235238D02*
X131296191Y-106282857D01*
X131296191Y-106282857D02*
X131343810Y-106378095D01*
X131343810Y-106378095D02*
X131391429Y-106568571D01*
X131391429Y-106568571D02*
X131391429Y-106806666D01*
X131391429Y-106806666D02*
X131343810Y-106997142D01*
X131343810Y-106997142D02*
X131296191Y-107092380D01*
X131296191Y-107092380D02*
X131248572Y-107140000D01*
X131248572Y-107140000D02*
X131153334Y-107187619D01*
X131153334Y-107187619D02*
X131058096Y-107187619D01*
X131058096Y-107187619D02*
X130962858Y-107140000D01*
X130962858Y-107140000D02*
X130915239Y-107092380D01*
X130915239Y-107092380D02*
X130867620Y-106997142D01*
X130867620Y-106997142D02*
X130820001Y-106806666D01*
X130820001Y-106806666D02*
X130820001Y-106568571D01*
X130820001Y-106568571D02*
X130867620Y-106378095D01*
X130867620Y-106378095D02*
X130915239Y-106282857D01*
X130915239Y-106282857D02*
X130962858Y-106235238D01*
X130962858Y-106235238D02*
X131058096Y-106187619D01*
X131820001Y-107092380D02*
X131867620Y-107140000D01*
X131867620Y-107140000D02*
X131820001Y-107187619D01*
X131820001Y-107187619D02*
X131772382Y-107140000D01*
X131772382Y-107140000D02*
X131820001Y-107092380D01*
X131820001Y-107092380D02*
X131820001Y-107187619D01*
X132820000Y-107187619D02*
X132248572Y-107187619D01*
X132534286Y-107187619D02*
X132534286Y-106187619D01*
X132534286Y-106187619D02*
X132439048Y-106330476D01*
X132439048Y-106330476D02*
X132343810Y-106425714D01*
X132343810Y-106425714D02*
X132248572Y-106473333D01*
%TO.C,*%
%TD*%
%LPC*%
D11*
%TO.C,REF\u002A\u002A*%
X118494251Y-90563323D03*
%TD*%
%TO.C,*%
X181220000Y-113710000D03*
%TD*%
%TO.C,*%
X119704251Y-116603323D03*
%TD*%
%TO.C,REF\u002A\u002A*%
X156494251Y-71553323D03*
%TD*%
%TO.C,REF\u002A\u002A*%
X118494251Y-71553323D03*
%TD*%
%TO.C,REF\u002A\u002A*%
X156494251Y-90563323D03*
%TD*%
%LPD*%
M02*
