%TF.GenerationSoftware,KiCad,Pcbnew,7.0.2-0*%
%TF.CreationDate,2024-02-18T21:26:20+01:00*%
%TF.ProjectId,defiant,64656669-616e-4742-9e6b-696361645f70,rev?*%
%TF.SameCoordinates,Original*%
%TF.FileFunction,Paste,Bot*%
%TF.FilePolarity,Positive*%
%FSLAX46Y46*%
G04 Gerber Fmt 4.6, Leading zero omitted, Abs format (unit mm)*
G04 Created by KiCad (PCBNEW 7.0.2-0) date 2024-02-18 21:26:20*
%MOMM*%
%LPD*%
G01*
G04 APERTURE LIST*
G04 Aperture macros list*
%AMRoundRect*
0 Rectangle with rounded corners*
0 $1 Rounding radius*
0 $2 $3 $4 $5 $6 $7 $8 $9 X,Y pos of 4 corners*
0 Add a 4 corners polygon primitive as box body*
4,1,4,$2,$3,$4,$5,$6,$7,$8,$9,$2,$3,0*
0 Add four circle primitives for the rounded corners*
1,1,$1+$1,$2,$3*
1,1,$1+$1,$4,$5*
1,1,$1+$1,$6,$7*
1,1,$1+$1,$8,$9*
0 Add four rect primitives between the rounded corners*
20,1,$1+$1,$2,$3,$4,$5,0*
20,1,$1+$1,$4,$5,$6,$7,0*
20,1,$1+$1,$6,$7,$8,$9,0*
20,1,$1+$1,$8,$9,$2,$3,0*%
G04 Aperture macros list end*
%ADD10RoundRect,0.500000X-1.062296X-0.186149X0.151229X-1.067827X1.062296X0.186149X-0.151229X1.067827X0*%
%ADD11RoundRect,0.500000X-0.750000X-0.775000X0.750000X-0.775000X0.750000X0.775000X-0.750000X0.775000X0*%
%ADD12RoundRect,0.500000X-0.789533X-0.734686X0.708412X-0.813190X0.789533X0.734686X-0.708412X0.813190X0*%
%ADD13R,2.000000X3.000000*%
%ADD14RoundRect,0.500000X-0.969835X-0.471747X0.439704X-0.984777X0.969835X0.471747X-0.439704X0.984777X0*%
%ADD15RoundRect,0.500000X0.750000X0.775000X-0.750000X0.775000X-0.750000X-0.775000X0.750000X-0.775000X0*%
%ADD16R,1.700000X1.000000*%
G04 APERTURE END LIST*
D10*
%TO.C,T4*%
X183037765Y-133010083D03*
X194029984Y-142294269D03*
%TD*%
D11*
%TO.C,T0*%
X100943816Y-123760449D03*
X115293816Y-124810449D03*
%TD*%
D12*
%TO.C,T2*%
X143934339Y-123844270D03*
X158209720Y-125643852D03*
%TD*%
D13*
%TO.C,U1*%
X203482449Y-120208323D03*
X200942449Y-120208323D03*
X195862449Y-102208323D03*
X193322449Y-102208323D03*
X190782449Y-102208323D03*
X188242449Y-102208323D03*
X188242449Y-120208323D03*
X190782449Y-120208323D03*
X193322449Y-120208323D03*
X195862449Y-120208323D03*
%TD*%
D11*
%TO.C,C5R2*%
X176943821Y-76143323D03*
X191293821Y-77193323D03*
%TD*%
%TO.C,T1*%
X122318816Y-123760448D03*
X136668816Y-124810448D03*
%TD*%
D14*
%TO.C,T3*%
X164203071Y-125535050D03*
X177328539Y-131429716D03*
%TD*%
D11*
%TO.C,C5R3*%
X176943821Y-95143323D03*
X191293821Y-96193323D03*
%TD*%
D15*
%TO.C,C3R1*%
X153293815Y-67810448D03*
X138943815Y-66760448D03*
%TD*%
%TO.C,C3R3*%
X153293816Y-105810447D03*
X138943816Y-104760447D03*
%TD*%
%TO.C,C2R3*%
X134293815Y-101810447D03*
X119943815Y-100760447D03*
%TD*%
%TO.C,C3R2*%
X153293815Y-86810448D03*
X138943815Y-85760448D03*
%TD*%
%TO.C,C0R2*%
X96293816Y-94810447D03*
X81943816Y-93760447D03*
%TD*%
%TO.C,C0R1*%
X96293816Y-75810448D03*
X81943816Y-74760448D03*
%TD*%
%TO.C,C0R3*%
X96293815Y-113810447D03*
X81943815Y-112760447D03*
%TD*%
%TO.C,C4R2*%
X172293816Y-86810447D03*
X157943816Y-85760447D03*
%TD*%
%TO.C,C1R3*%
X115293815Y-105810447D03*
X100943815Y-104760447D03*
%TD*%
D16*
%TO.C,SW2*%
X183490000Y-103220000D03*
X177190000Y-103220000D03*
X183490000Y-107020000D03*
X177190000Y-107020000D03*
%TD*%
D15*
%TO.C,C2R2*%
X134293815Y-82810447D03*
X119943815Y-81760447D03*
%TD*%
%TO.C,C2R1*%
X134293815Y-63810447D03*
X119943815Y-62760447D03*
%TD*%
%TO.C,C1R2*%
X115293815Y-86810448D03*
X100943815Y-85760448D03*
%TD*%
%TO.C,C4R3*%
X172293815Y-105810447D03*
X157943815Y-104760447D03*
%TD*%
%TO.C,C1R1*%
X115293817Y-67810447D03*
X100943817Y-66760447D03*
%TD*%
%TO.C,C4R1*%
X172293815Y-67810447D03*
X157943815Y-66760447D03*
%TD*%
M02*
