M48
; DRILL file {KiCad 7.0.2-0} date 2024 February 18, Sunday 21:26:20
; FORMAT={-:-/ absolute / inch / decimal}
; #@! TF.CreationDate,2024-02-18T21:26:20+01:00
; #@! TF.GenerationSoftware,Kicad,Pcbnew,7.0.2-0
; #@! TF.FileFunction,Plated,1,2,PTH
FMAT,2
INCH
; #@! TA.AperFunction,Plated,PTH,ViaDrill
T1C0.0157
; #@! TA.AperFunction,Plated,PTH,ComponentDrill
T2C0.0315
; #@! TA.AperFunction,Plated,PTH,ComponentDrill
T3C0.0354
; #@! TA.AperFunction,Plated,PTH,ComponentDrill
T4C0.0472
; #@! TA.AperFunction,Plated,PTH,ComponentDrill
T5C0.0512
; #@! TA.AperFunction,Plated,PTH,ComponentDrill
T6C0.0866
; #@! TA.AperFunction,Plated,PTH,ComponentDrill
T7C0.1181
%
G90
G05
T1
X3.2566Y-3.7213
X3.2574Y-2.9744
X3.2574Y-4.4697
X3.8224Y-4.4689
X3.8232Y-3.7205
X3.8248Y-2.9725
X4.0039Y-2.6591
X4.0047Y-4.1547
X4.0051Y-3.4083
X4.0094Y-4.9036
X4.5712Y-4.154
X4.572Y-2.6587
X4.5724Y-3.4067
X4.5728Y-4.8819
X4.7519Y-2.5028
X4.7523Y-3.9992
X4.7535Y-3.2504
X4.8462Y-4.9047
X5.32Y-3.2492
X5.32Y-3.9977
X5.32Y-2.502
X5.412Y-4.8823
X5.5007Y-2.6591
X5.5007Y-4.1559
X5.5011Y-3.4083
X5.695Y-4.9104
X6.0681Y-3.4071
X6.0681Y-4.1551
X6.0685Y-2.6591
X6.2484Y-3.4083
X6.2492Y-2.6603
X6.2492Y-4.1555
X6.2608Y-4.9175
X6.4825Y-4.9832
X6.8161Y-2.6587
X6.8165Y-4.1555
X6.8165Y-3.4071
X6.9752Y-4.0634
X6.9752Y-4.213
X7.0008Y-3.0339
X7.0028Y-3.7839
X7.021Y-5.1557
X7.2128Y-5.2804
X7.2232Y-4.0634
X7.224Y-4.2134
X7.4102Y-4.022
X7.4119Y-4.7297
X7.5103Y-4.021
X7.5103Y-4.7297
X7.5697Y-3.0339
X7.5697Y-3.7799
X7.6088Y-4.021
X7.6088Y-4.7297
X7.6817Y-5.5951
X7.7072Y-4.7297
X7.7114Y-4.022
X7.9111Y-4.7326
X8.0111Y-4.7326
T2
X7.8157Y-3.4531
X7.8945Y-3.4531
X7.9732Y-3.4531
T3
X7.9575Y-3.6677
X7.9575Y-3.7661
X7.9575Y-3.8646
X8.0874Y-3.6677
X8.0874Y-3.7661
X8.0874Y-3.8646
T5
X7.9414Y-4.3283
X7.9414Y-4.4283
T6
X4.6651Y-2.8171
X4.6651Y-3.5655
X4.7128Y-4.5907
X6.1612Y-2.8171
X6.1612Y-3.5655
X7.1346Y-4.4768
T7
X3.3708Y-4.4394
X3.3708Y-2.9433
X3.3708Y-3.6914
X3.4417Y-4.4807
X3.4417Y-2.9847
X3.4417Y-3.7327
X3.6464Y-4.4807
X3.6464Y-2.9847
X3.6464Y-3.7327
X3.7173Y-4.4394
X3.7173Y-2.9433
X3.7173Y-3.6914
X4.1189Y-3.3764
X4.1189Y-4.1244
X4.1189Y-4.8725
X4.1189Y-2.6284
X4.1897Y-3.4177
X4.1897Y-4.1658
X4.1897Y-4.9138
X4.1897Y-2.6697
X4.3944Y-3.4177
X4.3944Y-4.1658
X4.3944Y-4.9138
X4.3944Y-2.6697
X4.4653Y-3.3764
X4.4653Y-4.1244
X4.4653Y-4.8725
X4.4653Y-2.6284
X4.8669Y-2.4709
X4.8669Y-3.2189
X4.8669Y-3.9669
X4.9377Y-2.5122
X4.9377Y-3.2603
X4.9377Y-4.0083
X4.9604Y-4.8725
X5.0313Y-4.9138
X5.1425Y-2.5122
X5.1425Y-3.2603
X5.1425Y-4.0083
X5.2133Y-2.4709
X5.2133Y-3.2189
X5.2133Y-3.9669
X5.236Y-4.9138
X5.3068Y-4.8725
X5.6149Y-2.6284
X5.6149Y-3.3764
X5.6149Y-4.1244
X5.6858Y-2.6697
X5.6858Y-3.4177
X5.6858Y-4.1658
X5.8112Y-4.8833
X5.8798Y-4.9283
X5.8905Y-2.6697
X5.8905Y-3.4177
X5.8905Y-4.1658
X5.9614Y-2.6284
X5.9614Y-3.3764
X5.9614Y-4.1244
X6.0842Y-4.939
X6.1572Y-4.9015
X6.3629Y-2.6284
X6.3629Y-4.1244
X6.3629Y-3.3764
X6.4338Y-2.6697
X6.4338Y-4.1658
X6.4338Y-3.4177
X6.6006Y-4.9918
X6.6385Y-2.6697
X6.6385Y-4.1658
X6.6385Y-3.4177
X6.6531Y-5.0549
X6.7094Y-2.6284
X6.7094Y-4.1244
X6.7094Y-3.3764
X6.8455Y-5.1249
X6.9262Y-5.1103
X7.111Y-2.9978
X7.111Y-3.7458
X7.1818Y-3.0391
X7.1818Y-3.7871
X7.3233Y-5.3217
X7.3563Y-5.3968
X7.3866Y-3.0391
X7.3866Y-3.7871
X7.4574Y-2.9978
X7.4574Y-3.7458
X7.5219Y-5.5171
X7.6036Y-5.5253
T4
G00X7.718Y-4.2169
M15
G01X7.718Y-4.1854
M16
G05
G00X7.718Y-4.5712
M15
G01X7.718Y-4.5397
M16
G05
G00X7.8036Y-4.2169
M15
G01X7.8036Y-4.1854
M16
G05
G00X7.8036Y-4.5712
M15
G01X7.8036Y-4.5397
M16
G05
T0
M30
