%TF.GenerationSoftware,KiCad,Pcbnew,7.0.2-0*%
%TF.CreationDate,2024-02-18T21:26:20+01:00*%
%TF.ProjectId,defiant,64656669-616e-4742-9e6b-696361645f70,rev?*%
%TF.SameCoordinates,Original*%
%TF.FileFunction,Copper,L2,Bot*%
%TF.FilePolarity,Positive*%
%FSLAX46Y46*%
G04 Gerber Fmt 4.6, Leading zero omitted, Abs format (unit mm)*
G04 Created by KiCad (PCBNEW 7.0.2-0) date 2024-02-18 21:26:20*
%MOMM*%
%LPD*%
G01*
G04 APERTURE LIST*
G04 Aperture macros list*
%AMRoundRect*
0 Rectangle with rounded corners*
0 $1 Rounding radius*
0 $2 $3 $4 $5 $6 $7 $8 $9 X,Y pos of 4 corners*
0 Add a 4 corners polygon primitive as box body*
4,1,4,$2,$3,$4,$5,$6,$7,$8,$9,$2,$3,0*
0 Add four circle primitives for the rounded corners*
1,1,$1+$1,$2,$3*
1,1,$1+$1,$4,$5*
1,1,$1+$1,$6,$7*
1,1,$1+$1,$8,$9*
0 Add four rect primitives between the rounded corners*
20,1,$1+$1,$2,$3,$4,$5,0*
20,1,$1+$1,$4,$5,$6,$7,0*
20,1,$1+$1,$6,$7,$8,$9,0*
20,1,$1+$1,$8,$9,$2,$3,0*%
%AMRotRect*
0 Rectangle, with rotation*
0 The origin of the aperture is its center*
0 $1 length*
0 $2 width*
0 $3 Rotation angle, in degrees counterclockwise*
0 Add horizontal line*
21,1,$1,$2,0,0,$3*%
G04 Aperture macros list end*
%TA.AperFunction,ComponentPad*%
%ADD10C,4.000000*%
%TD*%
%TA.AperFunction,SMDPad,CuDef*%
%ADD11RoundRect,0.500000X-1.062296X-0.186149X0.151229X-1.067827X1.062296X0.186149X-0.151229X1.067827X0*%
%TD*%
%TA.AperFunction,SMDPad,CuDef*%
%ADD12RotRect,3.900000X1.000000X324.000000*%
%TD*%
%TA.AperFunction,SMDPad,CuDef*%
%ADD13RotRect,3.750000X1.000000X324.000000*%
%TD*%
%TA.AperFunction,SMDPad,CuDef*%
%ADD14RoundRect,0.500000X-0.750000X-0.775000X0.750000X-0.775000X0.750000X0.775000X-0.750000X0.775000X0*%
%TD*%
%TA.AperFunction,SMDPad,CuDef*%
%ADD15R,3.900000X1.000000*%
%TD*%
%TA.AperFunction,SMDPad,CuDef*%
%ADD16R,3.750000X1.000000*%
%TD*%
%TA.AperFunction,SMDPad,CuDef*%
%ADD17RoundRect,0.500000X-0.789533X-0.734686X0.708412X-0.813190X0.789533X0.734686X-0.708412X0.813190X0*%
%TD*%
%TA.AperFunction,SMDPad,CuDef*%
%ADD18RotRect,3.900000X1.000000X357.000000*%
%TD*%
%TA.AperFunction,SMDPad,CuDef*%
%ADD19RotRect,3.750000X1.000000X357.000000*%
%TD*%
%TA.AperFunction,SMDPad,CuDef*%
%ADD20R,2.000000X3.000000*%
%TD*%
%TA.AperFunction,ComponentPad*%
%ADD21C,2.000000*%
%TD*%
%TA.AperFunction,ComponentPad*%
%ADD22RoundRect,0.575000X0.575000X-1.225000X0.575000X1.225000X-0.575000X1.225000X-0.575000X-1.225000X0*%
%TD*%
%TA.AperFunction,ComponentPad*%
%ADD23RoundRect,0.381000X0.381000X0.381000X-0.381000X0.381000X-0.381000X-0.381000X0.381000X-0.381000X0*%
%TD*%
%TA.AperFunction,ComponentPad*%
%ADD24C,1.524000*%
%TD*%
%TA.AperFunction,SMDPad,CuDef*%
%ADD25RoundRect,0.500000X-0.969835X-0.471747X0.439704X-0.984777X0.969835X0.471747X-0.439704X0.984777X0*%
%TD*%
%TA.AperFunction,SMDPad,CuDef*%
%ADD26RotRect,3.900000X1.000000X340.000000*%
%TD*%
%TA.AperFunction,SMDPad,CuDef*%
%ADD27RotRect,3.750000X1.000000X340.000000*%
%TD*%
%TA.AperFunction,SMDPad,CuDef*%
%ADD28RoundRect,0.500000X0.750000X0.775000X-0.750000X0.775000X-0.750000X-0.775000X0.750000X-0.775000X0*%
%TD*%
%TA.AperFunction,ComponentPad*%
%ADD29R,1.400000X1.400000*%
%TD*%
%TA.AperFunction,ComponentPad*%
%ADD30C,1.400000*%
%TD*%
%TA.AperFunction,SMDPad,CuDef*%
%ADD31R,1.700000X1.000000*%
%TD*%
%TA.AperFunction,ViaPad*%
%ADD32C,0.800000*%
%TD*%
%TA.AperFunction,Conductor*%
%ADD33C,0.250000*%
%TD*%
%TA.AperFunction,Conductor*%
%ADD34C,0.500000*%
%TD*%
G04 APERTURE END LIST*
D10*
%TO.P,,1*%
%TO.N,N/C*%
X181220000Y-113710000D03*
%TD*%
D11*
%TO.P,T4,1,1*%
%TO.N,col4*%
X183037765Y-133010083D03*
D12*
X184433319Y-134024013D03*
D10*
X186010903Y-135170194D03*
X186849959Y-137077675D03*
%TO.P,T4,2,2*%
%TO.N,Net-(D20-A)*%
X191056847Y-140134158D03*
X193130252Y-140342704D03*
D13*
X192573754Y-141236256D03*
D11*
X194029984Y-142294269D03*
%TD*%
D14*
%TO.P,T0,1,1*%
%TO.N,col0*%
X100943816Y-123760449D03*
D15*
X102668816Y-123760449D03*
D10*
X104618816Y-123760449D03*
X106418816Y-124810449D03*
%TO.P,T0,2,2*%
%TO.N,Net-(D4-A)*%
X111618816Y-124810449D03*
X113418816Y-123760449D03*
D16*
X113493816Y-124810449D03*
D14*
X115293816Y-124810449D03*
%TD*%
D17*
%TO.P,T2,1,1*%
%TO.N,col2*%
X143934339Y-123844270D03*
D18*
X145656974Y-123934549D03*
D10*
X147604302Y-124036605D03*
X149346882Y-125179370D03*
%TO.P,T2,2,2*%
%TO.N,Net-(D12-A)*%
X154539756Y-125451517D03*
X156392242Y-124497161D03*
D19*
X156412186Y-125549647D03*
D17*
X158209720Y-125643852D03*
%TD*%
D20*
%TO.P,U1,1,PA02_A0_D0*%
%TO.N,col4*%
X203482449Y-120208323D03*
%TO.P,U1,2,PA4_A1_D1*%
%TO.N,col3*%
X200942449Y-120208323D03*
%TO.P,U1,4,PA11_A3_D3*%
%TO.N,col5*%
X195862449Y-102208323D03*
%TO.P,U1,5,PA8_A4_D4_SDA*%
%TO.N,row0*%
X193322449Y-102208323D03*
%TO.P,U1,6,PA9_A5_D5_SCL*%
%TO.N,row1*%
X190782449Y-102208323D03*
%TO.P,U1,7,PB08_A6_D6_TX*%
%TO.N,row2*%
X188242449Y-102208323D03*
%TO.P,U1,8,PB09_A7_D7_RX*%
%TO.N,col0*%
X188242449Y-120208323D03*
%TO.P,U1,9,PA7_A8_D8_SCK*%
%TO.N,col1*%
X190782449Y-120208323D03*
%TO.P,U1,10,PA5_A9_D9_MISO*%
%TO.N,col2*%
X193322449Y-120208323D03*
%TO.P,U1,11,PA6_A10_D10_MOSI*%
%TO.N,row3*%
X195862449Y-120208323D03*
D21*
%TO.P,U1,19,RESET*%
%TO.N,Net-(U1-RESET)*%
X201712449Y-109938323D03*
%TO.P,U1,20,GND*%
%TO.N,Net-(SW1-Pad2)*%
X201712449Y-112478323D03*
D22*
%TO.P,U1,21,BAT-*%
%TO.N,Net-(J1-Pin_1)*%
X198512449Y-106708323D03*
X198512449Y-115708323D03*
%TO.P,U1,22,BAT+*%
%TO.N,Net-(U1-BAT+)*%
X195737449Y-106708323D03*
X195737449Y-115708323D03*
%TD*%
D10*
%TO.P,REF\u002A\u002A,1*%
%TO.N,N/C*%
X118494251Y-90563323D03*
%TD*%
%TO.P,,1*%
%TO.N,N/C*%
X119704251Y-116603323D03*
%TD*%
D14*
%TO.P,C5R2,1,1*%
%TO.N,col5*%
X176943821Y-76143323D03*
D15*
X178668821Y-76143323D03*
D10*
X180618821Y-76143323D03*
X182418821Y-77193323D03*
%TO.P,C5R2,2,2*%
%TO.N,Net-(D22-A)*%
X187618821Y-77193323D03*
X189418821Y-76143323D03*
D16*
X189493821Y-77193323D03*
D14*
X191293821Y-77193323D03*
%TD*%
%TO.P,T1,1,1*%
%TO.N,col1*%
X122318816Y-123760448D03*
D15*
X124043816Y-123760448D03*
D10*
X125993816Y-123760448D03*
X127793816Y-124810448D03*
%TO.P,T1,2,2*%
%TO.N,Net-(D8-A)*%
X132993816Y-124810448D03*
X134793816Y-123760448D03*
D16*
X134868816Y-124810448D03*
D14*
X136668816Y-124810448D03*
%TD*%
D10*
%TO.P,REF\u002A\u002A,1*%
%TO.N,N/C*%
X156494251Y-71553323D03*
%TD*%
D23*
%TO.P,J1,1,Pin_1*%
%TO.N,Net-(J1-Pin_1)*%
X202520000Y-87710000D03*
X198520000Y-87710000D03*
D24*
%TO.P,J1,2,Pin_2*%
%TO.N,Net-(J1-Pin_2)*%
X200520000Y-87710000D03*
%TD*%
D25*
%TO.P,T3,1,1*%
%TO.N,col3*%
X164203071Y-125535050D03*
D26*
X165824041Y-126125034D03*
D10*
X167656442Y-126791974D03*
X168988767Y-128394287D03*
%TO.P,T3,2,2*%
%TO.N,Net-(D16-A)*%
X173875169Y-130172792D03*
X175925737Y-129801751D03*
D27*
X175637093Y-130814080D03*
D25*
X177328539Y-131429716D03*
%TD*%
D14*
%TO.P,C5R3,1,1*%
%TO.N,col5*%
X176943821Y-95143323D03*
D15*
X178668821Y-95143323D03*
D10*
X180618821Y-95143323D03*
X182418821Y-96193323D03*
%TO.P,C5R3,2,2*%
%TO.N,Net-(D23-A)*%
X187618821Y-96193323D03*
X189418821Y-95143323D03*
D16*
X189493821Y-96193323D03*
D14*
X191293821Y-96193323D03*
%TD*%
D10*
%TO.P,REF\u002A\u002A,1*%
%TO.N,N/C*%
X118494251Y-71553323D03*
%TD*%
%TO.P,REF\u002A\u002A,1*%
%TO.N,N/C*%
X156494251Y-90563323D03*
%TD*%
D28*
%TO.P,C3R1,1,1*%
%TO.N,col3*%
X153293815Y-67810448D03*
D16*
X151493815Y-67810448D03*
D10*
X151418815Y-66760448D03*
X149618815Y-67810448D03*
%TO.P,C3R1,2,2*%
%TO.N,Net-(D13-A)*%
X144418815Y-67810448D03*
X142618815Y-66760448D03*
D15*
X140668815Y-66760448D03*
D28*
X138943815Y-66760448D03*
%TD*%
%TO.P,C3R3,1,1*%
%TO.N,col3*%
X153293816Y-105810447D03*
D16*
X151493816Y-105810447D03*
D10*
X151418816Y-104760447D03*
X149618816Y-105810447D03*
%TO.P,C3R3,2,2*%
%TO.N,Net-(D15-A)*%
X144418816Y-105810447D03*
X142618816Y-104760447D03*
D15*
X140668816Y-104760447D03*
D28*
X138943816Y-104760447D03*
%TD*%
%TO.P,C2R3,1,1*%
%TO.N,col2*%
X134293815Y-101810447D03*
D16*
X132493815Y-101810447D03*
D10*
X132418815Y-100760447D03*
X130618815Y-101810447D03*
%TO.P,C2R3,2,2*%
%TO.N,Net-(D11-A)*%
X125418815Y-101810447D03*
X123618815Y-100760447D03*
D15*
X121668815Y-100760447D03*
D28*
X119943815Y-100760447D03*
%TD*%
%TO.P,C3R2,1,1*%
%TO.N,col3*%
X153293815Y-86810448D03*
D16*
X151493815Y-86810448D03*
D10*
X151418815Y-85760448D03*
X149618815Y-86810448D03*
%TO.P,C3R2,2,2*%
%TO.N,Net-(D14-A)*%
X144418815Y-86810448D03*
X142618815Y-85760448D03*
D15*
X140668815Y-85760448D03*
D28*
X138943815Y-85760448D03*
%TD*%
%TO.P,C0R2,1,1*%
%TO.N,col0*%
X96293816Y-94810447D03*
D16*
X94493816Y-94810447D03*
D10*
X94418816Y-93760447D03*
X92618816Y-94810447D03*
%TO.P,C0R2,2,2*%
%TO.N,Net-(D2-A)*%
X87418816Y-94810447D03*
X85618816Y-93760447D03*
D15*
X83668816Y-93760447D03*
D28*
X81943816Y-93760447D03*
%TD*%
%TO.P,C0R1,1,1*%
%TO.N,col0*%
X96293816Y-75810448D03*
D16*
X94493816Y-75810448D03*
D10*
X94418816Y-74760448D03*
X92618816Y-75810448D03*
%TO.P,C0R1,2,2*%
%TO.N,Net-(D1-A)*%
X87418816Y-75810448D03*
X85618816Y-74760448D03*
D15*
X83668816Y-74760448D03*
D28*
X81943816Y-74760448D03*
%TD*%
%TO.P,C0R3,1,1*%
%TO.N,col0*%
X96293815Y-113810447D03*
D16*
X94493815Y-113810447D03*
D10*
X94418815Y-112760447D03*
X92618815Y-113810447D03*
%TO.P,C0R3,2,2*%
%TO.N,Net-(D3-A)*%
X87418815Y-113810447D03*
X85618815Y-112760447D03*
D15*
X83668815Y-112760447D03*
D28*
X81943815Y-112760447D03*
%TD*%
%TO.P,C4R2,1,1*%
%TO.N,col4*%
X172293816Y-86810447D03*
D16*
X170493816Y-86810447D03*
D10*
X170418816Y-85760447D03*
X168618816Y-86810447D03*
%TO.P,C4R2,2,2*%
%TO.N,Net-(D18-A)*%
X163418816Y-86810447D03*
X161618816Y-85760447D03*
D15*
X159668816Y-85760447D03*
D28*
X157943816Y-85760447D03*
%TD*%
%TO.P,C1R3,1,1*%
%TO.N,col1*%
X115293815Y-105810447D03*
D16*
X113493815Y-105810447D03*
D10*
X113418815Y-104760447D03*
X111618815Y-105810447D03*
%TO.P,C1R3,2,2*%
%TO.N,Net-(D7-A)*%
X106418815Y-105810447D03*
X104618815Y-104760447D03*
D15*
X102668815Y-104760447D03*
D28*
X100943815Y-104760447D03*
%TD*%
D29*
%TO.P,SW3,1,1*%
%TO.N,Net-(J1-Pin_2)*%
X202120000Y-93160000D03*
D30*
%TO.P,SW3,2,2*%
%TO.N,unconnected-(SW3-Pad2)*%
X202120000Y-95660000D03*
%TO.P,SW3,3,3*%
%TO.N,Net-(U1-BAT+)*%
X202120000Y-98160000D03*
%TO.P,SW3,4,4*%
%TO.N,unconnected-(SW3-Pad4)*%
X205420000Y-93160000D03*
%TO.P,SW3,5*%
%TO.N,N/C*%
X205420000Y-95660000D03*
%TO.P,SW3,6*%
X205420000Y-98160000D03*
%TD*%
D31*
%TO.P,SW2,1,1*%
%TO.N,Net-(U1-RESET)*%
X183490000Y-103220000D03*
X177190000Y-103220000D03*
%TO.P,SW2,2,2*%
%TO.N,Net-(SW1-Pad2)*%
X183490000Y-107020000D03*
X177190000Y-107020000D03*
%TD*%
D28*
%TO.P,C2R2,1,1*%
%TO.N,col2*%
X134293815Y-82810447D03*
D16*
X132493815Y-82810447D03*
D10*
X132418815Y-81760447D03*
X130618815Y-82810447D03*
%TO.P,C2R2,2,2*%
%TO.N,Net-(D10-A)*%
X125418815Y-82810447D03*
X123618815Y-81760447D03*
D15*
X121668815Y-81760447D03*
D28*
X119943815Y-81760447D03*
%TD*%
%TO.P,C2R1,1,1*%
%TO.N,col2*%
X134293815Y-63810447D03*
D16*
X132493815Y-63810447D03*
D10*
X132418815Y-62760447D03*
X130618815Y-63810447D03*
%TO.P,C2R1,2,2*%
%TO.N,Net-(D9-A)*%
X125418815Y-63810447D03*
X123618815Y-62760447D03*
D15*
X121668815Y-62760447D03*
D28*
X119943815Y-62760447D03*
%TD*%
%TO.P,C1R2,1,1*%
%TO.N,col1*%
X115293815Y-86810448D03*
D16*
X113493815Y-86810448D03*
D10*
X113418815Y-85760448D03*
X111618815Y-86810448D03*
%TO.P,C1R2,2,2*%
%TO.N,Net-(D6-A)*%
X106418815Y-86810448D03*
X104618815Y-85760448D03*
D15*
X102668815Y-85760448D03*
D28*
X100943815Y-85760448D03*
%TD*%
%TO.P,C4R3,1,1*%
%TO.N,col4*%
X172293815Y-105810447D03*
D16*
X170493815Y-105810447D03*
D10*
X170418815Y-104760447D03*
X168618815Y-105810447D03*
%TO.P,C4R3,2,2*%
%TO.N,Net-(D19-A)*%
X163418815Y-105810447D03*
X161618815Y-104760447D03*
D15*
X159668815Y-104760447D03*
D28*
X157943815Y-104760447D03*
%TD*%
%TO.P,C1R1,1,1*%
%TO.N,col1*%
X115293817Y-67810447D03*
D16*
X113493817Y-67810447D03*
D10*
X113418817Y-66760447D03*
X111618817Y-67810447D03*
%TO.P,C1R1,2,2*%
%TO.N,Net-(D5-A)*%
X106418817Y-67810447D03*
X104618817Y-66760447D03*
D15*
X102668817Y-66760447D03*
D28*
X100943817Y-66760447D03*
%TD*%
%TO.P,C4R1,1,1*%
%TO.N,col4*%
X172293815Y-67810447D03*
D16*
X170493815Y-67810447D03*
D10*
X170418815Y-66760447D03*
X168618815Y-67810447D03*
%TO.P,C4R1,2,2*%
%TO.N,Net-(D17-A)*%
X163418815Y-67810447D03*
X161618815Y-66760447D03*
D15*
X159668815Y-66760447D03*
D28*
X157943815Y-66760447D03*
%TD*%
D32*
%TO.N,col4*%
X183204251Y-134123323D03*
%TO.N,Net-(D20-A)*%
X195116148Y-142115547D03*
%TO.N,col5*%
X195870000Y-102160000D03*
%TO.N,row2*%
X188220000Y-102160000D03*
%TO.N,Net-(D23-A)*%
X192270000Y-96010000D03*
%TO.N,col5*%
X177870000Y-96110000D03*
X177820000Y-77060000D03*
%TO.N,Net-(D22-A)*%
X192270000Y-77060000D03*
%TO.N,col0*%
X97108815Y-94500447D03*
X188262448Y-120133324D03*
X97148815Y-75500448D03*
X97088816Y-113510447D03*
X101838815Y-124550447D03*
%TO.N,Net-(D1-A)*%
X82738815Y-75550448D03*
%TO.N,Net-(D2-A)*%
X82718815Y-94520448D03*
%TO.N,Net-(D3-A)*%
X82738816Y-113530447D03*
%TO.N,col1*%
X123093816Y-124580447D03*
X190762449Y-120133323D03*
X116128815Y-67530448D03*
X116138816Y-86530447D03*
X116108815Y-105510448D03*
%TO.N,Net-(D5-A)*%
X101698816Y-67540447D03*
%TO.N,Net-(D6-A)*%
X101728815Y-86570447D03*
%TO.N,Net-(D7-A)*%
X101718815Y-105530447D03*
%TO.N,col2*%
X135128815Y-82530447D03*
X144654251Y-124723323D03*
X135128816Y-63550447D03*
X193262449Y-120133324D03*
X135128815Y-101540448D03*
%TO.N,Net-(D9-A)*%
X120698816Y-63570448D03*
%TO.N,Net-(D10-A)*%
X120738816Y-82560447D03*
%TO.N,Net-(D11-A)*%
X120708816Y-101580447D03*
%TO.N,col3*%
X164654251Y-126573323D03*
X154128816Y-86540447D03*
X154138815Y-67540448D03*
X154128817Y-105540448D03*
X200942448Y-120208323D03*
%TO.N,Net-(D13-A)*%
X139718815Y-67540447D03*
%TO.N,Net-(D14-A)*%
X139728816Y-86570448D03*
%TO.N,Net-(D15-A)*%
X139718816Y-105560447D03*
%TO.N,col4*%
X203482449Y-120208324D03*
X173138816Y-86540447D03*
X173128816Y-67530448D03*
X173138815Y-105550447D03*
%TO.N,Net-(D17-A)*%
X158728816Y-67570447D03*
%TO.N,Net-(D18-A)*%
X158708816Y-86570448D03*
%TO.N,Net-(D19-A)*%
X158728816Y-105550448D03*
%TO.N,row0*%
X193262448Y-102133324D03*
%TO.N,row1*%
X190762448Y-102133323D03*
%TO.N,row3*%
X195762448Y-120133324D03*
%TO.N,Net-(D4-A)*%
X116148816Y-124000447D03*
%TO.N,Net-(D8-A)*%
X137463816Y-124010447D03*
%TO.N,Net-(D12-A)*%
X159024250Y-124903324D03*
%TO.N,Net-(D16-A)*%
X178332811Y-130955266D03*
%TO.N,Net-(U1-RESET)*%
X183470000Y-103210000D03*
X177170000Y-103210000D03*
%TO.N,Net-(SW1-Pad2)*%
X177170000Y-107010000D03*
X183490000Y-107020000D03*
%TD*%
D33*
%TO.N,col5*%
X195862449Y-102167551D02*
X195862449Y-102208323D01*
X195870000Y-102160000D02*
X195862449Y-102167551D01*
X195862449Y-102152449D02*
X195870000Y-102160000D01*
%TO.N,col0*%
X96293816Y-94810447D02*
X97174251Y-93930012D01*
X97214251Y-112890011D02*
X97214251Y-95730882D01*
X96293815Y-113810447D02*
X97214251Y-112890011D01*
X97174251Y-76690883D02*
X96293816Y-75810448D01*
X96293815Y-114060447D02*
X100943816Y-118710448D01*
X97174251Y-93930012D02*
X97174251Y-76690883D01*
X97214251Y-95730882D02*
X96293816Y-94810447D01*
X100943816Y-118710448D02*
X100943816Y-123760449D01*
%TO.N,col1*%
X115293815Y-105810447D02*
X115293816Y-118133816D01*
X115293816Y-67810448D02*
X115293816Y-86810447D01*
X120920448Y-123760448D02*
X122318816Y-123760448D01*
X115293816Y-86810447D02*
X115293815Y-105810447D01*
X115293816Y-118133816D02*
X120920448Y-123760448D01*
%TO.N,col2*%
X134293816Y-63810447D02*
X134293816Y-82810447D01*
X134293815Y-101810447D02*
X134293815Y-114203746D01*
X134293815Y-114203746D02*
X143934339Y-123844270D01*
X134293816Y-82810447D02*
X134293815Y-101810448D01*
%TO.N,col3*%
X164203071Y-125535050D02*
X169878121Y-119860000D01*
X181020000Y-125360000D02*
X200942449Y-125360000D01*
X153293816Y-86810447D02*
X153293815Y-105810448D01*
X164020000Y-125351979D02*
X164020000Y-116536631D01*
X200942449Y-125360000D02*
X200942449Y-120208323D01*
X169878121Y-119860000D02*
X175520000Y-119860000D01*
X164020000Y-116536631D02*
X153293816Y-105810447D01*
X164203071Y-125535050D02*
X164020000Y-125351979D01*
X153293815Y-67810447D02*
X153293816Y-86810447D01*
X175520000Y-119860000D02*
X181020000Y-125360000D01*
%TO.N,col4*%
X183369917Y-133010083D02*
X183037765Y-133010083D01*
X172293816Y-67810447D02*
X172293815Y-86810448D01*
X203482449Y-129360000D02*
X187020000Y-129360000D01*
X203482449Y-120208323D02*
X203482449Y-129360000D01*
X187020000Y-129360000D02*
X183369917Y-133010083D01*
X172293815Y-86810448D02*
X172293815Y-105810447D01*
%TO.N,col5*%
X176920000Y-99660000D02*
X195820000Y-99660000D01*
X176943821Y-95143323D02*
X176943821Y-99636179D01*
X176943821Y-99636179D02*
X176920000Y-99660000D01*
X195862449Y-99702449D02*
X195862449Y-102152449D01*
X195820000Y-99660000D02*
X195862449Y-99702449D01*
X176943821Y-76143323D02*
X176943821Y-95143323D01*
D34*
%TO.N,Net-(J1-Pin_1)*%
X198620000Y-104860000D02*
X197720000Y-104860000D01*
X198620000Y-104860000D02*
X199320000Y-104860000D01*
X197869060Y-106471975D02*
X197869060Y-107096638D01*
X198520000Y-90430000D02*
X198520000Y-87710000D01*
X197720000Y-90430000D02*
X198520000Y-90430000D01*
X197720000Y-104860000D02*
X197720000Y-90430000D01*
X198620000Y-104860000D02*
X198620000Y-105498472D01*
X198520000Y-90430000D02*
X202520000Y-90430000D01*
X202520000Y-90430000D02*
X202520000Y-87710000D01*
D33*
X197869060Y-107096638D02*
X197875745Y-107103323D01*
%TO.N,Net-(U1-RESET)*%
X185970000Y-103210000D02*
X183470000Y-103210000D01*
X201712449Y-109938323D02*
X192698323Y-109938323D01*
X192698323Y-109938323D02*
X185970000Y-103210000D01*
X177170000Y-103210000D02*
X183470000Y-103210000D01*
%TO.N,Net-(SW1-Pad2)*%
X191388323Y-112478323D02*
X185920000Y-107010000D01*
X177190000Y-107020000D02*
X183490000Y-107020000D01*
X201712448Y-112478324D02*
X191388323Y-112478323D01*
X185910000Y-107020000D02*
X183490000Y-107020000D01*
X185920000Y-107010000D02*
X185910000Y-107020000D01*
%TD*%
M02*
