%TF.GenerationSoftware,KiCad,Pcbnew,7.0.2-0*%
%TF.CreationDate,2024-02-18T21:26:20+01:00*%
%TF.ProjectId,defiant,64656669-616e-4742-9e6b-696361645f70,rev?*%
%TF.SameCoordinates,Original*%
%TF.FileFunction,Paste,Top*%
%TF.FilePolarity,Positive*%
%FSLAX46Y46*%
G04 Gerber Fmt 4.6, Leading zero omitted, Abs format (unit mm)*
G04 Created by KiCad (PCBNEW 7.0.2-0) date 2024-02-18 21:26:20*
%MOMM*%
%LPD*%
G01*
G04 APERTURE LIST*
G04 Aperture macros list*
%AMRoundRect*
0 Rectangle with rounded corners*
0 $1 Rounding radius*
0 $2 $3 $4 $5 $6 $7 $8 $9 X,Y pos of 4 corners*
0 Add a 4 corners polygon primitive as box body*
4,1,4,$2,$3,$4,$5,$6,$7,$8,$9,$2,$3,0*
0 Add four circle primitives for the rounded corners*
1,1,$1+$1,$2,$3*
1,1,$1+$1,$4,$5*
1,1,$1+$1,$6,$7*
1,1,$1+$1,$8,$9*
0 Add four rect primitives between the rounded corners*
20,1,$1+$1,$2,$3,$4,$5,0*
20,1,$1+$1,$4,$5,$6,$7,0*
20,1,$1+$1,$6,$7,$8,$9,0*
20,1,$1+$1,$8,$9,$2,$3,0*%
G04 Aperture macros list end*
%ADD10RoundRect,0.225000X-0.402448X-0.171130X-0.038391X-0.435633X0.402448X0.171130X0.038391X0.435633X0*%
%ADD11RoundRect,0.500000X-1.062296X-0.186149X0.151229X-1.067827X1.062296X0.186149X-0.151229X1.067827X0*%
%ADD12RoundRect,0.225000X0.225000X0.375000X-0.225000X0.375000X-0.225000X-0.375000X0.225000X-0.375000X0*%
%ADD13RoundRect,0.500000X-0.750000X-0.775000X0.750000X-0.775000X0.750000X0.775000X-0.750000X0.775000X0*%
%ADD14RoundRect,0.225000X-0.244318X-0.362710X0.205066X-0.386262X0.244318X0.362710X-0.205066X0.386262X0*%
%ADD15RoundRect,0.500000X-0.789533X-0.734686X0.708412X-0.813190X0.789533X0.734686X-0.708412X0.813190X0*%
%ADD16R,2.000000X3.000000*%
%ADD17RoundRect,0.225000X-0.225000X-0.375000X0.225000X-0.375000X0.225000X0.375000X-0.225000X0.375000X0*%
%ADD18R,1.700000X1.000000*%
%ADD19RoundRect,0.500000X-0.969835X-0.471747X0.439704X-0.984777X0.969835X0.471747X-0.439704X0.984777X0*%
%ADD20RoundRect,0.225000X-0.339688X-0.275430X0.083173X-0.429339X0.339688X0.275430X-0.083173X0.429339X0*%
%ADD21RoundRect,0.500000X0.750000X0.775000X-0.750000X0.775000X-0.750000X-0.775000X0.750000X-0.775000X0*%
G04 APERTURE END LIST*
D10*
%TO.C,D20*%
X193367747Y-128272754D03*
X196037503Y-130212446D03*
%TD*%
D11*
%TO.C,T4*%
X183876821Y-134917564D03*
X196103390Y-142502815D03*
%TD*%
D12*
%TO.C,D3*%
X90818816Y-102860447D03*
X87518816Y-102860447D03*
%TD*%
%TO.C,D13*%
X147818816Y-56860447D03*
X144518816Y-56860447D03*
%TD*%
D13*
%TO.C,T0*%
X102743816Y-124810449D03*
X117093816Y-123760449D03*
%TD*%
D14*
%TO.C,D12*%
X150046511Y-114236969D03*
X153341989Y-114409677D03*
%TD*%
D15*
%TO.C,T2*%
X145676919Y-124987036D03*
X160062205Y-124689496D03*
%TD*%
D12*
%TO.C,D14*%
X147818815Y-75860447D03*
X144518815Y-75860447D03*
%TD*%
%TO.C,D11*%
X128818816Y-90860447D03*
X125518816Y-90860447D03*
%TD*%
D16*
%TO.C,U1*%
X203482449Y-102208323D03*
X200942449Y-102208323D03*
X195862449Y-102208323D03*
X193322449Y-102208323D03*
X190782449Y-102208323D03*
X188242449Y-102208323D03*
X188242449Y-120208323D03*
X190782449Y-120208323D03*
X193322449Y-120208323D03*
X195862449Y-120208323D03*
%TD*%
D12*
%TO.C,D7*%
X109818816Y-94860448D03*
X106518816Y-94860448D03*
%TD*%
%TO.C,D5*%
X109818815Y-56860447D03*
X106518815Y-56860447D03*
%TD*%
%TO.C,D10*%
X128818816Y-71860448D03*
X125518816Y-71860448D03*
%TD*%
%TO.C,D15*%
X147818815Y-94860447D03*
X144518815Y-94860447D03*
%TD*%
%TO.C,D17*%
X166818815Y-56860448D03*
X163518815Y-56860448D03*
%TD*%
D13*
%TO.C,C5R2*%
X178743821Y-77193323D03*
X193093821Y-76143323D03*
%TD*%
D17*
%TO.C,D8*%
X127893815Y-113860448D03*
X131193815Y-113860448D03*
%TD*%
D13*
%TO.C,T1*%
X124118816Y-124810448D03*
X138468816Y-123760448D03*
%TD*%
D17*
%TO.C,D4*%
X106518816Y-113860447D03*
X109818816Y-113860447D03*
%TD*%
D12*
%TO.C,D9*%
X128818815Y-52860448D03*
X125518815Y-52860448D03*
%TD*%
D18*
%TO.C,SW1*%
X177190000Y-103220000D03*
X183490000Y-103220000D03*
X177190000Y-107020000D03*
X183490000Y-107020000D03*
%TD*%
D12*
%TO.C,D2*%
X90818815Y-83860448D03*
X87518815Y-83860448D03*
%TD*%
D17*
%TO.C,D22*%
X182553821Y-66273323D03*
X185853821Y-66273323D03*
%TD*%
D19*
%TO.C,T3*%
X165535397Y-127137363D03*
X179379107Y-131058675D03*
%TD*%
D12*
%TO.C,D19*%
X166818816Y-94860447D03*
X163518816Y-94860447D03*
%TD*%
%TO.C,D6*%
X109818816Y-75860448D03*
X106518816Y-75860448D03*
%TD*%
D13*
%TO.C,C5R3*%
X178743821Y-96193323D03*
X193093821Y-95143323D03*
%TD*%
D17*
%TO.C,D23*%
X182596321Y-85273323D03*
X185896321Y-85273323D03*
%TD*%
D12*
%TO.C,D18*%
X166818816Y-75860447D03*
X163518816Y-75860447D03*
%TD*%
D20*
%TO.C,D16*%
X172848127Y-118129039D03*
X175949113Y-119257705D03*
%TD*%
D12*
%TO.C,D1*%
X90818815Y-64860447D03*
X87518815Y-64860447D03*
%TD*%
D21*
%TO.C,C3R1*%
X155093815Y-66760448D03*
X140743815Y-67810448D03*
%TD*%
%TO.C,C3R3*%
X155093816Y-104760447D03*
X140743816Y-105810447D03*
%TD*%
%TO.C,C2R3*%
X136093815Y-100760447D03*
X121743815Y-101810447D03*
%TD*%
%TO.C,C3R2*%
X155093815Y-85760448D03*
X140743815Y-86810448D03*
%TD*%
%TO.C,C0R2*%
X98093816Y-93760447D03*
X83743816Y-94810447D03*
%TD*%
%TO.C,C0R1*%
X98093816Y-74760448D03*
X83743816Y-75810448D03*
%TD*%
%TO.C,C0R3*%
X98093815Y-112760447D03*
X83743815Y-113810447D03*
%TD*%
%TO.C,C4R2*%
X174093816Y-85760447D03*
X159743816Y-86810447D03*
%TD*%
%TO.C,C1R3*%
X117093815Y-104760447D03*
X102743815Y-105810447D03*
%TD*%
%TO.C,C2R2*%
X136093815Y-81760447D03*
X121743815Y-82810447D03*
%TD*%
%TO.C,C2R1*%
X136093815Y-62760447D03*
X121743815Y-63810447D03*
%TD*%
%TO.C,C1R2*%
X117093815Y-85760448D03*
X102743815Y-86810448D03*
%TD*%
%TO.C,C4R3*%
X174093815Y-104760447D03*
X159743815Y-105810447D03*
%TD*%
%TO.C,C1R1*%
X117093817Y-66760447D03*
X102743817Y-67810447D03*
%TD*%
%TO.C,C4R1*%
X174093815Y-66760447D03*
X159743815Y-67810447D03*
%TD*%
M02*
