%TF.GenerationSoftware,KiCad,Pcbnew,7.0.2-0*%
%TF.CreationDate,2024-03-15T00:53:17+01:00*%
%TF.ProjectId,defiant,64656669-616e-4742-9e6b-696361645f70,v0.1*%
%TF.SameCoordinates,Original*%
%TF.FileFunction,Soldermask,Top*%
%TF.FilePolarity,Negative*%
%FSLAX46Y46*%
G04 Gerber Fmt 4.6, Leading zero omitted, Abs format (unit mm)*
G04 Created by KiCad (PCBNEW 7.0.2-0) date 2024-03-15 00:53:17*
%MOMM*%
%LPD*%
G01*
G04 APERTURE LIST*
G04 Aperture macros list*
%AMRoundRect*
0 Rectangle with rounded corners*
0 $1 Rounding radius*
0 $2 $3 $4 $5 $6 $7 $8 $9 X,Y pos of 4 corners*
0 Add a 4 corners polygon primitive as box body*
4,1,4,$2,$3,$4,$5,$6,$7,$8,$9,$2,$3,0*
0 Add four circle primitives for the rounded corners*
1,1,$1+$1,$2,$3*
1,1,$1+$1,$4,$5*
1,1,$1+$1,$6,$7*
1,1,$1+$1,$8,$9*
0 Add four rect primitives between the rounded corners*
20,1,$1+$1,$2,$3,$4,$5,0*
20,1,$1+$1,$4,$5,$6,$7,0*
20,1,$1+$1,$6,$7,$8,$9,0*
20,1,$1+$1,$8,$9,$2,$3,0*%
G04 Aperture macros list end*
%ADD10RoundRect,0.225000X0.225000X0.375000X-0.225000X0.375000X-0.225000X-0.375000X0.225000X-0.375000X0*%
%ADD11C,5.250000*%
%ADD12RoundRect,0.500000X-0.750000X-0.775000X0.750000X-0.775000X0.750000X0.775000X-0.750000X0.775000X0*%
%ADD13C,4.000000*%
%ADD14RoundRect,0.225000X-0.244318X-0.362710X0.205066X-0.386262X0.244318X0.362710X-0.205066X0.386262X0*%
%ADD15RoundRect,0.500000X-0.789533X-0.734686X0.708412X-0.813190X0.789533X0.734686X-0.708412X0.813190X0*%
%ADD16R,2.000000X3.000000*%
%ADD17C,2.200000*%
%ADD18R,2.300000X2.300000*%
%ADD19RoundRect,0.225000X-0.225000X-0.375000X0.225000X-0.375000X0.225000X0.375000X-0.225000X0.375000X0*%
%ADD20RoundRect,0.500000X-1.062296X-0.186149X0.151229X-1.067827X1.062296X0.186149X-0.151229X1.067827X0*%
%ADD21R,1.700000X1.000000*%
%ADD22RoundRect,0.381000X0.381000X0.381000X-0.381000X0.381000X-0.381000X-0.381000X0.381000X-0.381000X0*%
%ADD23C,1.524000*%
%ADD24RoundRect,0.500000X-0.969835X-0.471747X0.439704X-0.984777X0.969835X0.471747X-0.439704X0.984777X0*%
%ADD25RoundRect,0.225000X-0.402448X-0.171130X-0.038391X-0.435633X0.402448X0.171130X0.038391X0.435633X0*%
%ADD26RoundRect,0.225000X-0.339688X-0.275430X0.083173X-0.429339X0.339688X0.275430X-0.083173X0.429339X0*%
%ADD27RoundRect,0.500000X0.750000X0.775000X-0.750000X0.775000X-0.750000X-0.775000X0.750000X-0.775000X0*%
%ADD28R,1.400000X1.400000*%
%ADD29C,1.400000*%
G04 APERTURE END LIST*
D10*
%TO.C,D3*%
X89976779Y-104557218D03*
X86676779Y-104557218D03*
%TD*%
%TO.C,D13*%
X146976780Y-57557217D03*
X143676780Y-57557217D03*
%TD*%
D11*
%TO.C,T0*%
X108176779Y-119757219D03*
X108176779Y-119757219D03*
D12*
X101901779Y-125507219D03*
D13*
X105576779Y-125507219D03*
X112576779Y-124457219D03*
D12*
X116251779Y-124457219D03*
%TD*%
D14*
%TO.C,D12*%
X149204474Y-114933739D03*
X152499952Y-115106447D03*
%TD*%
D11*
%TO.C,T2*%
X151402214Y-120270094D03*
X151402214Y-120270094D03*
D15*
X144834882Y-125683806D03*
D13*
X148504845Y-125876140D03*
X155550205Y-125193931D03*
D15*
X159220168Y-125386266D03*
%TD*%
D10*
%TO.C,D14*%
X146976777Y-76557217D03*
X143676777Y-76557217D03*
%TD*%
%TO.C,D11*%
X127976780Y-91557217D03*
X124676780Y-91557217D03*
%TD*%
D16*
%TO.C,U1*%
X202640412Y-102655093D03*
X200100412Y-102655093D03*
X195020412Y-102655093D03*
X192480412Y-102655093D03*
X189940412Y-102655093D03*
X187400412Y-102655093D03*
X187400412Y-121155093D03*
X189940412Y-121155093D03*
X192480412Y-121155093D03*
X195020412Y-121155093D03*
D17*
X203410412Y-110635093D03*
X203410412Y-113175093D03*
X200870412Y-110635093D03*
X200870412Y-113175093D03*
D18*
X197720412Y-107405093D03*
X197720412Y-116405093D03*
X194820412Y-107405093D03*
X194820412Y-116405093D03*
%TD*%
D13*
%TO.C,REF\u002A\u002A*%
X117652213Y-91260093D03*
%TD*%
D10*
%TO.C,D7*%
X108976779Y-95557217D03*
X105676779Y-95557217D03*
%TD*%
%TO.C,D5*%
X108976778Y-57557217D03*
X105676778Y-57557217D03*
%TD*%
%TO.C,D10*%
X127976779Y-72557218D03*
X124676779Y-72557218D03*
%TD*%
%TO.C,D15*%
X146976778Y-95557217D03*
X143676778Y-95557217D03*
%TD*%
%TO.C,D17*%
X165976779Y-57557218D03*
X162676779Y-57557218D03*
%TD*%
D13*
%TO.C,*%
X180377963Y-114406770D03*
%TD*%
%TO.C,*%
X118862214Y-117300092D03*
%TD*%
D11*
%TO.C,C5R2*%
X184176784Y-72140093D03*
X184176784Y-72140093D03*
D12*
X177901784Y-77890093D03*
D13*
X181576784Y-77890093D03*
X188576784Y-76840093D03*
D12*
X192251784Y-76840093D03*
%TD*%
D19*
%TO.C,D8*%
X127051777Y-114557218D03*
X130351777Y-114557218D03*
%TD*%
D11*
%TO.C,T4*%
X190577573Y-134259665D03*
X190577573Y-134259665D03*
D20*
X182121226Y-135223160D03*
D13*
X185094364Y-137383271D03*
X191374657Y-140648300D03*
D20*
X194347795Y-142808411D03*
%TD*%
D11*
%TO.C,T1*%
X129551779Y-119757218D03*
X129551779Y-119757218D03*
D12*
X123276779Y-125507218D03*
D13*
X126951779Y-125507218D03*
X133951779Y-124457218D03*
D12*
X137626779Y-124457218D03*
%TD*%
D19*
%TO.C,D4*%
X105676779Y-114557217D03*
X108976779Y-114557217D03*
%TD*%
D10*
%TO.C,D9*%
X127976778Y-53557219D03*
X124676778Y-53557219D03*
%TD*%
D13*
%TO.C,REF\u002A\u002A*%
X155652214Y-72250093D03*
%TD*%
D21*
%TO.C,SW1*%
X176347963Y-103916770D03*
X182647963Y-103916770D03*
X176347963Y-107716770D03*
X182647963Y-107716770D03*
%TD*%
D10*
%TO.C,D2*%
X89976778Y-85557218D03*
X86676778Y-85557218D03*
%TD*%
D19*
%TO.C,D22*%
X181711783Y-66970092D03*
X185011783Y-66970092D03*
%TD*%
D22*
%TO.C,J1*%
X201677963Y-88406771D03*
X197677963Y-88406771D03*
D23*
X199677963Y-88406771D03*
%TD*%
D11*
%TO.C,T3*%
X171804793Y-124303461D03*
X171804793Y-124303461D03*
D24*
X163941606Y-127560517D03*
D13*
X167394976Y-128817441D03*
X174331946Y-130224905D03*
D24*
X177785316Y-131481829D03*
%TD*%
D25*
%TO.C,D20*%
X191612153Y-128578351D03*
X194281909Y-130518043D03*
%TD*%
D10*
%TO.C,D19*%
X165976779Y-95557217D03*
X162676779Y-95557217D03*
%TD*%
%TO.C,D6*%
X108976779Y-76557217D03*
X105676779Y-76557217D03*
%TD*%
D11*
%TO.C,C5R3*%
X184176785Y-91140094D03*
X184176785Y-91140094D03*
D12*
X177901785Y-96890094D03*
D13*
X181576785Y-96890094D03*
X188576785Y-95840094D03*
D12*
X192251785Y-95840094D03*
%TD*%
D19*
%TO.C,D23*%
X181754284Y-85970093D03*
X185054284Y-85970093D03*
%TD*%
D10*
%TO.C,D18*%
X165976779Y-76557216D03*
X162676779Y-76557216D03*
%TD*%
D26*
%TO.C,D16*%
X171254336Y-118552193D03*
X174355322Y-119680859D03*
%TD*%
D13*
%TO.C,REF\u002A\u002A*%
X117652214Y-72250093D03*
%TD*%
%TO.C,REF\u002A\u002A*%
X155652214Y-91260092D03*
%TD*%
D10*
%TO.C,D1*%
X89976777Y-66557217D03*
X86676777Y-66557217D03*
%TD*%
D11*
%TO.C,C3R1*%
X146176778Y-62757218D03*
X146176778Y-62757218D03*
D27*
X154251778Y-67457218D03*
D13*
X150576778Y-67457218D03*
X143576778Y-68507218D03*
D27*
X139901778Y-68507218D03*
%TD*%
D11*
%TO.C,C3R3*%
X146176778Y-100757216D03*
X146176778Y-100757216D03*
D27*
X154251778Y-105457216D03*
D13*
X150576778Y-105457216D03*
X143576778Y-106507216D03*
D27*
X139901778Y-106507216D03*
%TD*%
D11*
%TO.C,C2R3*%
X127176777Y-96757217D03*
X127176777Y-96757217D03*
D27*
X135251777Y-101457217D03*
D13*
X131576777Y-101457217D03*
X124576777Y-102507217D03*
D27*
X120901777Y-102507217D03*
%TD*%
D11*
%TO.C,C3R2*%
X146176778Y-81757218D03*
X146176778Y-81757218D03*
D27*
X154251778Y-86457218D03*
D13*
X150576778Y-86457218D03*
X143576778Y-87507218D03*
D27*
X139901778Y-87507218D03*
%TD*%
D11*
%TO.C,C0R2*%
X89176779Y-90757216D03*
X89176779Y-90757216D03*
D27*
X97251779Y-95457216D03*
D13*
X93576779Y-95457216D03*
X86576779Y-96507216D03*
D27*
X82901779Y-96507216D03*
%TD*%
D11*
%TO.C,C0R1*%
X89176778Y-71757218D03*
X89176778Y-71757218D03*
D27*
X97251778Y-76457218D03*
D13*
X93576778Y-76457218D03*
X86576778Y-77507218D03*
D27*
X82901778Y-77507218D03*
%TD*%
D11*
%TO.C,C0R3*%
X89176778Y-109757217D03*
X89176778Y-109757217D03*
D27*
X97251778Y-114457217D03*
D13*
X93576778Y-114457217D03*
X86576778Y-115507217D03*
D27*
X82901778Y-115507217D03*
%TD*%
D11*
%TO.C,C4R2*%
X165176779Y-81757218D03*
X165176779Y-81757218D03*
D27*
X173251779Y-86457218D03*
D13*
X169576779Y-86457218D03*
X162576779Y-87507218D03*
D27*
X158901779Y-87507218D03*
%TD*%
D11*
%TO.C,C1R3*%
X108176778Y-100757217D03*
X108176778Y-100757217D03*
D27*
X116251778Y-105457217D03*
D13*
X112576778Y-105457217D03*
X105576778Y-106507217D03*
D27*
X101901778Y-106507217D03*
%TD*%
D28*
%TO.C,SW3*%
X201270000Y-93610000D03*
D29*
X201270000Y-96110000D03*
X201270000Y-98610000D03*
X204570000Y-93610000D03*
X204570000Y-96110000D03*
X204570000Y-98610000D03*
%TD*%
D11*
%TO.C,C2R2*%
X127176777Y-77757217D03*
X127176777Y-77757217D03*
D27*
X135251777Y-82457217D03*
D13*
X131576777Y-82457217D03*
X124576777Y-83507217D03*
D27*
X120901777Y-83507217D03*
%TD*%
D11*
%TO.C,C2R1*%
X127176779Y-58757217D03*
X127176779Y-58757217D03*
D27*
X135251779Y-63457217D03*
D13*
X131576779Y-63457217D03*
X124576779Y-64507217D03*
D27*
X120901779Y-64507217D03*
%TD*%
D11*
%TO.C,C1R2*%
X108176779Y-81757218D03*
X108176779Y-81757218D03*
D27*
X116251779Y-86457218D03*
D13*
X112576779Y-86457218D03*
X105576779Y-87507218D03*
D27*
X101901779Y-87507218D03*
%TD*%
D11*
%TO.C,C4R3*%
X165176778Y-100757217D03*
X165176778Y-100757217D03*
D27*
X173251778Y-105457217D03*
D13*
X169576778Y-105457217D03*
X162576778Y-106507217D03*
D27*
X158901778Y-106507217D03*
%TD*%
D11*
%TO.C,C1R1*%
X108176779Y-62757217D03*
X108176779Y-62757217D03*
D27*
X116251779Y-67457217D03*
D13*
X112576779Y-67457217D03*
X105576779Y-68507217D03*
D27*
X101901779Y-68507217D03*
%TD*%
D11*
%TO.C,C4R1*%
X165176778Y-62757217D03*
X165176778Y-62757217D03*
D27*
X173251778Y-67457217D03*
D13*
X169576778Y-67457217D03*
X162576778Y-68507217D03*
D27*
X158901778Y-68507217D03*
%TD*%
M02*
