M48
; DRILL file {KiCad 7.0.2-0} date 2024 March 15, Friday 00:53:17
; FORMAT={-:-/ absolute / inch / decimal}
; #@! TF.CreationDate,2024-03-15T00:53:17+01:00
; #@! TF.GenerationSoftware,Kicad,Pcbnew,7.0.2-0
; #@! TF.FileFunction,Plated,1,2,PTH
FMAT,2
INCH
; #@! TA.AperFunction,Plated,PTH,ViaDrill
T1C0.0157
; #@! TA.AperFunction,Plated,PTH,ComponentDrill
T2C0.0315
; #@! TA.AperFunction,Plated,PTH,ComponentDrill
T3C0.0354
; #@! TA.AperFunction,Plated,PTH,ComponentDrill
T4C0.0591
; #@! TA.AperFunction,Plated,PTH,ComponentDrill
T5C0.0866
; #@! TA.AperFunction,Plated,PTH,ComponentDrill
T6C0.1181
%
G90
G05
T1
X3.1953Y-2.9201
X3.196Y-3.6654
X3.1976Y-4.4236
X3.8295Y-3.1272
X3.8302Y-3.8724
X3.8318Y-4.6307
X3.9406Y-5.0094
X3.942Y-2.5654
X3.9432Y-3.3161
X3.9435Y-4.0254
X4.5768Y-2.5646
X4.5768Y-3.3185
X4.5772Y-4.0278
X4.578Y-5.0224
X4.688Y-3.1181
X4.6916Y-2.385
X4.692Y-3.8807
X4.7854Y-5.0323
X5.3217Y-3.1205
X5.3252Y-2.3874
X5.3256Y-3.8831
X5.4228Y-5.0453
X5.4341Y-4.0571
X5.438Y-3.2831
X5.4388Y-2.552
X5.6334Y-5.0481
X6.0677Y-4.0594
X6.0717Y-3.2854
X6.0724Y-2.5543
X6.1837Y-3.3024
X6.1841Y-4.0528
X6.1849Y-2.5685
X6.2708Y-5.061
X6.3612Y-5.076
X6.8173Y-3.3047
X6.8177Y-4.0551
X6.8299Y-2.7933
X6.9516Y-5.3165
X6.9941Y-3.7083
X6.998Y-3.1677
X7.0657Y-4.2408
X7.0668Y-4.0912
X7.0691Y-5.3454
X7.3771Y-4.1362
X7.3791Y-4.8878
X7.4772Y-4.1352
X7.4776Y-4.8878
X7.5703Y-5.7394
X7.5709Y-3.8748
X7.5756Y-3.1646
X7.5756Y-4.1352
X7.576Y-4.8878
X7.6783Y-4.1362
X7.722Y-4.8906
X7.8866Y-4.6335
X7.9799Y-4.6815
T2
X7.7826Y-3.4806
X7.8613Y-3.4806
X7.9401Y-3.4806
T3
X7.924Y-3.6854
X7.924Y-3.7839
X7.924Y-3.8823
X8.0539Y-3.6854
X8.0539Y-3.7839
X8.0539Y-3.8823
T4
X7.6819Y-4.2285
X7.6819Y-4.5829
X7.7725Y-4.2285
X7.7725Y-4.5829
X7.9083Y-4.3557
X7.9083Y-4.4557
X8.0083Y-4.3557
X8.0083Y-4.4557
T5
X4.632Y-3.5929
X4.632Y-2.8445
X4.6796Y-4.6181
X6.128Y-2.8445
X6.128Y-3.5929
X7.1015Y-4.5042
T6
X3.3377Y-3.0101
X3.3377Y-4.5062
X3.3377Y-3.7582
X3.4085Y-3.0515
X3.4085Y-4.5475
X3.4085Y-3.7995
X3.6133Y-3.0515
X3.6133Y-4.5475
X3.6133Y-3.7995
X3.6841Y-3.0101
X3.6841Y-4.5062
X3.6841Y-3.7582
X4.0857Y-4.1519
X4.0857Y-2.6558
X4.0857Y-3.4038
X4.0857Y-4.8999
X4.1566Y-4.1932
X4.1566Y-2.6971
X4.1566Y-3.4452
X4.1566Y-4.9412
X4.3613Y-4.1932
X4.3613Y-2.6971
X4.3613Y-3.4452
X4.3613Y-4.9412
X4.4322Y-4.1519
X4.4322Y-2.6558
X4.4322Y-3.4038
X4.4322Y-4.8999
X4.8337Y-3.2463
X4.8337Y-3.9944
X4.8337Y-2.4983
X4.9046Y-3.2877
X4.9046Y-4.0357
X4.9046Y-2.5397
X4.9272Y-4.8999
X4.9981Y-4.9412
X5.1093Y-3.2877
X5.1093Y-4.0357
X5.1093Y-2.5397
X5.1802Y-3.2463
X5.1802Y-3.9944
X5.1802Y-2.4983
X5.2028Y-4.9412
X5.2737Y-4.8999
X5.5818Y-2.6558
X5.5818Y-3.4038
X5.5818Y-4.1519
X5.6526Y-2.6971
X5.6526Y-3.4452
X5.6526Y-4.1932
X5.778Y-4.9108
X5.8466Y-4.9558
X5.8574Y-2.6971
X5.8574Y-3.4452
X5.8574Y-4.1932
X5.9282Y-2.6558
X5.9282Y-3.4038
X5.9282Y-4.1519
X6.0511Y-4.9665
X6.124Y-4.9289
X6.3298Y-2.6558
X6.3298Y-4.1519
X6.3298Y-3.4038
X6.4007Y-2.6971
X6.4007Y-4.1932
X6.4007Y-3.4452
X6.5379Y-5.0085
X6.5904Y-5.0716
X6.6054Y-2.6971
X6.6054Y-4.1932
X6.6054Y-3.4452
X6.6763Y-2.6558
X6.6763Y-4.1519
X6.6763Y-3.4038
X6.7827Y-5.1416
X6.8635Y-5.127
X7.0778Y-3.0252
X7.0778Y-3.7732
X7.1487Y-3.0665
X7.1487Y-3.8146
X7.2541Y-5.3337
X7.2872Y-5.4088
X7.3534Y-3.0665
X7.3534Y-3.8146
X7.4243Y-3.0252
X7.4243Y-3.7732
X7.4528Y-5.5291
X7.5344Y-5.5373
T0
M30
