M48
; DRILL file {KiCad 7.0.2-0} date 2024 March 15, Friday 00:53:17
; FORMAT={-:-/ absolute / inch / decimal}
; #@! TF.CreationDate,2024-03-15T00:53:17+01:00
; #@! TF.GenerationSoftware,Kicad,Pcbnew,7.0.2-0
; #@! TF.FileFunction,NonPlated,1,2,NPTH
FMAT,2
INCH
; #@! TA.AperFunction,NonPlated,NPTH,ComponentDrill
T1C0.2067
%
G90
G05
T1
X3.5109Y-2.8251
X3.5109Y-2.8251
X3.5109Y-4.3212
X3.5109Y-4.3212
X3.5109Y-3.5731
X3.5109Y-3.5731
X4.2589Y-3.9668
X4.2589Y-3.9668
X4.2589Y-2.4708
X4.2589Y-2.4708
X4.2589Y-3.2188
X4.2589Y-3.2188
X4.2589Y-4.7149
X4.2589Y-4.7149
X5.007Y-3.0613
X5.007Y-3.0613
X5.007Y-3.8093
X5.007Y-3.8093
X5.007Y-2.3133
X5.007Y-2.3133
X5.1005Y-4.7149
X5.1005Y-4.7149
X5.755Y-2.4708
X5.755Y-2.4708
X5.755Y-3.2188
X5.755Y-3.2188
X5.755Y-3.9668
X5.755Y-3.9668
X5.9607Y-4.735
X5.9607Y-4.735
X6.503Y-2.4708
X6.503Y-2.4708
X6.503Y-3.9668
X6.503Y-3.9668
X6.503Y-3.2188
X6.503Y-3.2188
X6.764Y-4.8938
X6.764Y-4.8938
X7.2511Y-2.8402
X7.2511Y-2.8402
X7.2511Y-3.5882
X7.2511Y-3.5882
X7.5031Y-5.2858
X7.5031Y-5.2858
T0
M30
