%TF.GenerationSoftware,KiCad,Pcbnew,7.0.2-0*%
%TF.CreationDate,2024-02-18T21:26:20+01:00*%
%TF.ProjectId,defiant,64656669-616e-4742-9e6b-696361645f70,rev?*%
%TF.SameCoordinates,Original*%
%TF.FileFunction,Soldermask,Bot*%
%TF.FilePolarity,Negative*%
%FSLAX46Y46*%
G04 Gerber Fmt 4.6, Leading zero omitted, Abs format (unit mm)*
G04 Created by KiCad (PCBNEW 7.0.2-0) date 2024-02-18 21:26:20*
%MOMM*%
%LPD*%
G01*
G04 APERTURE LIST*
G04 Aperture macros list*
%AMRoundRect*
0 Rectangle with rounded corners*
0 $1 Rounding radius*
0 $2 $3 $4 $5 $6 $7 $8 $9 X,Y pos of 4 corners*
0 Add a 4 corners polygon primitive as box body*
4,1,4,$2,$3,$4,$5,$6,$7,$8,$9,$2,$3,0*
0 Add four circle primitives for the rounded corners*
1,1,$1+$1,$2,$3*
1,1,$1+$1,$4,$5*
1,1,$1+$1,$6,$7*
1,1,$1+$1,$8,$9*
0 Add four rect primitives between the rounded corners*
20,1,$1+$1,$2,$3,$4,$5,0*
20,1,$1+$1,$4,$5,$6,$7,0*
20,1,$1+$1,$6,$7,$8,$9,0*
20,1,$1+$1,$8,$9,$2,$3,0*%
G04 Aperture macros list end*
%ADD10C,4.000000*%
%ADD11C,5.250000*%
%ADD12RoundRect,0.500000X-1.062296X-0.186149X0.151229X-1.067827X1.062296X0.186149X-0.151229X1.067827X0*%
%ADD13RoundRect,0.500000X-0.750000X-0.775000X0.750000X-0.775000X0.750000X0.775000X-0.750000X0.775000X0*%
%ADD14RoundRect,0.500000X-0.789533X-0.734686X0.708412X-0.813190X0.789533X0.734686X-0.708412X0.813190X0*%
%ADD15R,2.000000X3.000000*%
%ADD16C,2.000000*%
%ADD17RoundRect,0.575000X0.575000X-1.225000X0.575000X1.225000X-0.575000X1.225000X-0.575000X-1.225000X0*%
%ADD18RoundRect,0.381000X0.381000X0.381000X-0.381000X0.381000X-0.381000X-0.381000X0.381000X-0.381000X0*%
%ADD19C,1.524000*%
%ADD20RoundRect,0.500000X-0.969835X-0.471747X0.439704X-0.984777X0.969835X0.471747X-0.439704X0.984777X0*%
%ADD21RoundRect,0.500000X0.750000X0.775000X-0.750000X0.775000X-0.750000X-0.775000X0.750000X-0.775000X0*%
%ADD22R,1.400000X1.400000*%
%ADD23C,1.400000*%
%ADD24R,1.700000X1.000000*%
G04 APERTURE END LIST*
D10*
%TO.C,*%
X181220000Y-113710000D03*
%TD*%
D11*
%TO.C,T4*%
X192333168Y-133954069D03*
X192333168Y-133954069D03*
D12*
X183037765Y-133010083D03*
D10*
X186010903Y-135170194D03*
X191056847Y-140134158D03*
D12*
X194029984Y-142294269D03*
%TD*%
D11*
%TO.C,T0*%
X109018816Y-119060449D03*
X109018816Y-119060449D03*
D13*
X100943816Y-123760449D03*
D10*
X104618816Y-123760449D03*
X111618816Y-124810449D03*
D13*
X115293816Y-124810449D03*
%TD*%
D11*
%TO.C,T2*%
X152244251Y-119573324D03*
X152244251Y-119573324D03*
D14*
X143934339Y-123844270D03*
D10*
X147604302Y-124036605D03*
X154539756Y-125451517D03*
D14*
X158209720Y-125643852D03*
%TD*%
D15*
%TO.C,U1*%
X203482449Y-120208323D03*
X200942449Y-120208323D03*
X195862449Y-102208323D03*
X193322449Y-102208323D03*
X190782449Y-102208323D03*
X188242449Y-102208323D03*
X188242449Y-120208323D03*
X190782449Y-120208323D03*
X193322449Y-120208323D03*
X195862449Y-120208323D03*
D16*
X201712449Y-109938323D03*
X201712449Y-112478323D03*
D17*
X198512449Y-106708323D03*
X198512449Y-115708323D03*
X195737449Y-106708323D03*
X195737449Y-115708323D03*
%TD*%
D10*
%TO.C,REF\u002A\u002A*%
X118494251Y-90563323D03*
%TD*%
%TO.C,*%
X119704251Y-116603323D03*
%TD*%
D11*
%TO.C,C5R2*%
X185018821Y-71443323D03*
X185018821Y-71443323D03*
D13*
X176943821Y-76143323D03*
D10*
X180618821Y-76143323D03*
X187618821Y-77193323D03*
D13*
X191293821Y-77193323D03*
%TD*%
D11*
%TO.C,T1*%
X130393816Y-119060448D03*
X130393816Y-119060448D03*
D13*
X122318816Y-123760448D03*
D10*
X125993816Y-123760448D03*
X132993816Y-124810448D03*
D13*
X136668816Y-124810448D03*
%TD*%
D10*
%TO.C,REF\u002A\u002A*%
X156494251Y-71553323D03*
%TD*%
D18*
%TO.C,J1*%
X202520000Y-87710000D03*
X198520000Y-87710000D03*
D19*
X200520000Y-87710000D03*
%TD*%
D11*
%TO.C,T3*%
X173398584Y-123880307D03*
X173398584Y-123880307D03*
D20*
X164203071Y-125535050D03*
D10*
X167656442Y-126791974D03*
X173875169Y-130172792D03*
D20*
X177328539Y-131429716D03*
%TD*%
D11*
%TO.C,C5R3*%
X185018821Y-90443323D03*
X185018821Y-90443323D03*
D13*
X176943821Y-95143323D03*
D10*
X180618821Y-95143323D03*
X187618821Y-96193323D03*
D13*
X191293821Y-96193323D03*
%TD*%
D10*
%TO.C,REF\u002A\u002A*%
X118494251Y-71553323D03*
%TD*%
%TO.C,REF\u002A\u002A*%
X156494251Y-90563323D03*
%TD*%
D11*
%TO.C,C3R1*%
X147018815Y-62060448D03*
X147018815Y-62060448D03*
D21*
X153293815Y-67810448D03*
D10*
X149618815Y-67810448D03*
X142618815Y-66760448D03*
D21*
X138943815Y-66760448D03*
%TD*%
D11*
%TO.C,C3R3*%
X147018816Y-100060447D03*
X147018816Y-100060447D03*
D21*
X153293816Y-105810447D03*
D10*
X149618816Y-105810447D03*
X142618816Y-104760447D03*
D21*
X138943816Y-104760447D03*
%TD*%
D11*
%TO.C,C2R3*%
X128018815Y-96060447D03*
X128018815Y-96060447D03*
D21*
X134293815Y-101810447D03*
D10*
X130618815Y-101810447D03*
X123618815Y-100760447D03*
D21*
X119943815Y-100760447D03*
%TD*%
D11*
%TO.C,C3R2*%
X147018815Y-81060448D03*
X147018815Y-81060448D03*
D21*
X153293815Y-86810448D03*
D10*
X149618815Y-86810448D03*
X142618815Y-85760448D03*
D21*
X138943815Y-85760448D03*
%TD*%
D11*
%TO.C,C0R2*%
X90018816Y-89060447D03*
X90018816Y-89060447D03*
D21*
X96293816Y-94810447D03*
D10*
X92618816Y-94810447D03*
X85618816Y-93760447D03*
D21*
X81943816Y-93760447D03*
%TD*%
D11*
%TO.C,C0R1*%
X90018816Y-70060448D03*
X90018816Y-70060448D03*
D21*
X96293816Y-75810448D03*
D10*
X92618816Y-75810448D03*
X85618816Y-74760448D03*
D21*
X81943816Y-74760448D03*
%TD*%
D11*
%TO.C,C0R3*%
X90018815Y-108060447D03*
X90018815Y-108060447D03*
D21*
X96293815Y-113810447D03*
D10*
X92618815Y-113810447D03*
X85618815Y-112760447D03*
D21*
X81943815Y-112760447D03*
%TD*%
D11*
%TO.C,C4R2*%
X166018816Y-81060447D03*
X166018816Y-81060447D03*
D21*
X172293816Y-86810447D03*
D10*
X168618816Y-86810447D03*
X161618816Y-85760447D03*
D21*
X157943816Y-85760447D03*
%TD*%
D11*
%TO.C,C1R3*%
X109018815Y-100060447D03*
X109018815Y-100060447D03*
D21*
X115293815Y-105810447D03*
D10*
X111618815Y-105810447D03*
X104618815Y-104760447D03*
D21*
X100943815Y-104760447D03*
%TD*%
D22*
%TO.C,SW3*%
X202120000Y-93160000D03*
D23*
X202120000Y-95660000D03*
X202120000Y-98160000D03*
X205420000Y-93160000D03*
X205420000Y-95660000D03*
X205420000Y-98160000D03*
%TD*%
D24*
%TO.C,SW2*%
X183490000Y-103220000D03*
X177190000Y-103220000D03*
X183490000Y-107020000D03*
X177190000Y-107020000D03*
%TD*%
D11*
%TO.C,C2R2*%
X128018815Y-77060447D03*
X128018815Y-77060447D03*
D21*
X134293815Y-82810447D03*
D10*
X130618815Y-82810447D03*
X123618815Y-81760447D03*
D21*
X119943815Y-81760447D03*
%TD*%
D11*
%TO.C,C2R1*%
X128018815Y-58060447D03*
X128018815Y-58060447D03*
D21*
X134293815Y-63810447D03*
D10*
X130618815Y-63810447D03*
X123618815Y-62760447D03*
D21*
X119943815Y-62760447D03*
%TD*%
D11*
%TO.C,C1R2*%
X109018815Y-81060448D03*
X109018815Y-81060448D03*
D21*
X115293815Y-86810448D03*
D10*
X111618815Y-86810448D03*
X104618815Y-85760448D03*
D21*
X100943815Y-85760448D03*
%TD*%
D11*
%TO.C,C4R3*%
X166018815Y-100060447D03*
X166018815Y-100060447D03*
D21*
X172293815Y-105810447D03*
D10*
X168618815Y-105810447D03*
X161618815Y-104760447D03*
D21*
X157943815Y-104760447D03*
%TD*%
D11*
%TO.C,C1R1*%
X109018817Y-62060447D03*
X109018817Y-62060447D03*
D21*
X115293817Y-67810447D03*
D10*
X111618817Y-67810447D03*
X104618817Y-66760447D03*
D21*
X100943817Y-66760447D03*
%TD*%
D11*
%TO.C,C4R1*%
X166018815Y-62060447D03*
X166018815Y-62060447D03*
D21*
X172293815Y-67810447D03*
D10*
X168618815Y-67810447D03*
X161618815Y-66760447D03*
D21*
X157943815Y-66760447D03*
%TD*%
M02*
