M48
; DRILL file {KiCad 7.0.2-0} date 2024 February 20, Tuesday 01:11:18
; FORMAT={-:-/ absolute / inch / decimal}
; #@! TF.CreationDate,2024-02-20T01:11:18+01:00
; #@! TF.GenerationSoftware,Kicad,Pcbnew,7.0.2-0
; #@! TF.FileFunction,Plated,1,2,PTH
FMAT,2
INCH
; #@! TA.AperFunction,Plated,PTH,ViaDrill
T1C0.0157
; #@! TA.AperFunction,Plated,PTH,ComponentDrill
T2C0.0315
; #@! TA.AperFunction,Plated,PTH,ComponentDrill
T3C0.0354
; #@! TA.AperFunction,Plated,PTH,ComponentDrill
T4C0.0472
; #@! TA.AperFunction,Plated,PTH,ComponentDrill
T5C0.0512
; #@! TA.AperFunction,Plated,PTH,ComponentDrill
T6C0.0866
; #@! TA.AperFunction,Plated,PTH,ComponentDrill
T7C0.1181
%
G90
G05
T1
X3.2235Y-3.7487
X3.2243Y-3.0019
X3.2243Y-4.4971
X3.7892Y-4.4963
X3.79Y-3.7479
X3.7916Y-2.9999
X3.9707Y-2.6865
X3.9715Y-4.1822
X3.9719Y-3.4357
X3.9763Y-4.931
X4.5381Y-4.1814
X4.5388Y-2.6861
X4.5392Y-3.4341
X4.5396Y-4.9093
X4.7188Y-2.5302
X4.7192Y-4.0267
X4.7203Y-3.2778
X4.8131Y-4.9322
X5.2869Y-4.0251
X5.2869Y-3.2767
X5.2869Y-2.5294
X5.3788Y-4.9097
X5.4676Y-2.6865
X5.4676Y-4.1834
X5.468Y-3.4357
X5.6619Y-4.9378
X6.0349Y-3.4345
X6.0349Y-4.1826
X6.0353Y-2.6865
X6.2152Y-3.4357
X6.216Y-4.183
X6.216Y-2.6877
X6.2276Y-4.9449
X6.4197Y-4.9999
X6.7829Y-2.6861
X6.7833Y-4.183
X6.7833Y-3.4345
X6.942Y-4.0908
X6.942Y-4.2404
X6.9582Y-5.1724
X6.9676Y-3.0613
X6.9696Y-3.8113
X7.1436Y-5.2925
X7.1901Y-4.0908
X7.1909Y-4.2408
X7.3771Y-4.0495
X7.3788Y-4.7571
X7.4772Y-4.0484
X7.4772Y-4.7571
X7.5365Y-3.0613
X7.5365Y-3.8074
X7.5756Y-4.0484
X7.5756Y-4.7571
X7.6126Y-5.6071
X7.674Y-4.7571
X7.6783Y-4.0495
X7.878Y-4.76
X7.978Y-4.76
T2
X7.7826Y-3.4806
X7.8613Y-3.4806
X7.9401Y-3.4806
T3
X7.9243Y-3.6951
X7.9243Y-3.7936
X7.9243Y-3.892
X8.0543Y-3.6951
X8.0543Y-3.7936
X8.0543Y-3.892
T5
X7.9083Y-4.3557
X7.9083Y-4.4557
T6
X4.632Y-3.5929
X4.632Y-2.8445
X4.6796Y-4.6181
X6.128Y-2.8445
X6.128Y-3.5929
X7.1015Y-4.5042
T7
X3.3377Y-2.9708
X3.3377Y-4.4668
X3.3377Y-3.7188
X3.4085Y-3.0121
X3.4085Y-4.5082
X3.4085Y-3.7601
X3.6133Y-3.0121
X3.6133Y-4.5082
X3.6133Y-3.7601
X3.6841Y-2.9708
X3.6841Y-4.4668
X3.6841Y-3.7188
X4.0857Y-4.1519
X4.0857Y-2.6558
X4.0857Y-3.4038
X4.0857Y-4.8999
X4.1566Y-4.1932
X4.1566Y-2.6971
X4.1566Y-3.4452
X4.1566Y-4.9412
X4.3613Y-4.1932
X4.3613Y-2.6971
X4.3613Y-3.4452
X4.3613Y-4.9412
X4.4322Y-4.1519
X4.4322Y-2.6558
X4.4322Y-3.4038
X4.4322Y-4.8999
X4.8337Y-3.2463
X4.8337Y-3.9944
X4.8337Y-2.4983
X4.9046Y-3.2877
X4.9046Y-4.0357
X4.9046Y-2.5397
X4.9272Y-4.8999
X4.9981Y-4.9412
X5.1093Y-3.2877
X5.1093Y-4.0357
X5.1093Y-2.5397
X5.1802Y-3.2463
X5.1802Y-3.9944
X5.1802Y-2.4983
X5.2028Y-4.9412
X5.2737Y-4.8999
X5.5818Y-2.6558
X5.5818Y-3.4038
X5.5818Y-4.1519
X5.6526Y-2.6971
X5.6526Y-3.4452
X5.6526Y-4.1932
X5.778Y-4.9108
X5.8466Y-4.9558
X5.8574Y-2.6971
X5.8574Y-3.4452
X5.8574Y-4.1932
X5.9282Y-2.6558
X5.9282Y-3.4038
X5.9282Y-4.1519
X6.0511Y-4.9665
X6.124Y-4.9289
X6.3298Y-2.6558
X6.3298Y-4.1519
X6.3298Y-3.4038
X6.4007Y-2.6971
X6.4007Y-4.1932
X6.4007Y-3.4452
X6.5379Y-5.0085
X6.5904Y-5.0716
X6.6054Y-2.6971
X6.6054Y-4.1932
X6.6054Y-3.4452
X6.6763Y-2.6558
X6.6763Y-4.1519
X6.6763Y-3.4038
X6.7827Y-5.1416
X6.8635Y-5.127
X7.0778Y-3.0252
X7.0778Y-3.7732
X7.1487Y-3.0665
X7.1487Y-3.8146
X7.2541Y-5.3337
X7.2872Y-5.4088
X7.3534Y-3.0665
X7.3534Y-3.8146
X7.4243Y-3.0252
X7.4243Y-3.7732
X7.4528Y-5.5291
X7.5344Y-5.5373
T4
G00X7.6849Y-4.2443
M15
G01X7.6849Y-4.2128
M16
G05
G00X7.6849Y-4.5986
M15
G01X7.6849Y-4.5671
M16
G05
G00X7.7705Y-4.2443
M15
G01X7.7705Y-4.2128
M16
G05
G00X7.7705Y-4.5986
M15
G01X7.7705Y-4.5671
M16
G05
T0
M30
