%TF.GenerationSoftware,KiCad,Pcbnew,7.0.2-0*%
%TF.CreationDate,2024-02-20T01:11:18+01:00*%
%TF.ProjectId,defiant,64656669-616e-4742-9e6b-696361645f70,v0.1*%
%TF.SameCoordinates,Original*%
%TF.FileFunction,Paste,Bot*%
%TF.FilePolarity,Positive*%
%FSLAX46Y46*%
G04 Gerber Fmt 4.6, Leading zero omitted, Abs format (unit mm)*
G04 Created by KiCad (PCBNEW 7.0.2-0) date 2024-02-20 01:11:18*
%MOMM*%
%LPD*%
G01*
G04 APERTURE LIST*
G04 Aperture macros list*
%AMRoundRect*
0 Rectangle with rounded corners*
0 $1 Rounding radius*
0 $2 $3 $4 $5 $6 $7 $8 $9 X,Y pos of 4 corners*
0 Add a 4 corners polygon primitive as box body*
4,1,4,$2,$3,$4,$5,$6,$7,$8,$9,$2,$3,0*
0 Add four circle primitives for the rounded corners*
1,1,$1+$1,$2,$3*
1,1,$1+$1,$4,$5*
1,1,$1+$1,$6,$7*
1,1,$1+$1,$8,$9*
0 Add four rect primitives between the rounded corners*
20,1,$1+$1,$2,$3,$4,$5,0*
20,1,$1+$1,$4,$5,$6,$7,0*
20,1,$1+$1,$6,$7,$8,$9,0*
20,1,$1+$1,$8,$9,$2,$3,0*%
G04 Aperture macros list end*
%ADD10RoundRect,0.500000X-0.750000X-0.775000X0.750000X-0.775000X0.750000X0.775000X-0.750000X0.775000X0*%
%ADD11RoundRect,0.500000X-0.789533X-0.734686X0.708412X-0.813190X0.789533X0.734686X-0.708412X0.813190X0*%
%ADD12R,2.000000X3.000000*%
%ADD13RoundRect,0.500000X-1.062296X-0.186149X0.151229X-1.067827X1.062296X0.186149X-0.151229X1.067827X0*%
%ADD14RoundRect,0.500000X-0.969835X-0.471747X0.439704X-0.984777X0.969835X0.471747X-0.439704X0.984777X0*%
%ADD15RoundRect,0.500000X0.750000X0.775000X-0.750000X0.775000X-0.750000X-0.775000X0.750000X-0.775000X0*%
%ADD16R,1.700000X1.000000*%
G04 APERTURE END LIST*
D10*
%TO.C,T0*%
X100101779Y-124457219D03*
X114451779Y-125507219D03*
%TD*%
D11*
%TO.C,T2*%
X143092302Y-124541040D03*
X157367683Y-126340622D03*
%TD*%
D12*
%TO.C,U1*%
X202640412Y-120905093D03*
X200100412Y-120905093D03*
X195020412Y-102905093D03*
X192480412Y-102905093D03*
X189940412Y-102905093D03*
X187400412Y-102905093D03*
X187400412Y-120905093D03*
X189940412Y-120905093D03*
X192480412Y-120905093D03*
X195020412Y-120905093D03*
%TD*%
D10*
%TO.C,C5R2*%
X176101784Y-76840093D03*
X190451784Y-77890093D03*
%TD*%
D13*
%TO.C,T4*%
X181282170Y-133315679D03*
X192274389Y-142599865D03*
%TD*%
D10*
%TO.C,T1*%
X121476779Y-124457218D03*
X135826779Y-125507218D03*
%TD*%
D14*
%TO.C,T3*%
X162609280Y-125958204D03*
X175734748Y-131852870D03*
%TD*%
D10*
%TO.C,C5R3*%
X176101785Y-95840094D03*
X190451785Y-96890094D03*
%TD*%
D15*
%TO.C,C3R1*%
X152451778Y-68507218D03*
X138101778Y-67457218D03*
%TD*%
%TO.C,C3R3*%
X152451778Y-106507216D03*
X138101778Y-105457216D03*
%TD*%
%TO.C,C2R3*%
X133451777Y-102507217D03*
X119101777Y-101457217D03*
%TD*%
%TO.C,C3R2*%
X152451778Y-87507218D03*
X138101778Y-86457218D03*
%TD*%
%TO.C,C0R2*%
X95451779Y-95507216D03*
X81101779Y-94457216D03*
%TD*%
%TO.C,C0R1*%
X95451778Y-76507218D03*
X81101778Y-75457218D03*
%TD*%
%TO.C,C0R3*%
X95451778Y-114507217D03*
X81101778Y-113457217D03*
%TD*%
%TO.C,C4R2*%
X171451779Y-87507218D03*
X157101779Y-86457218D03*
%TD*%
%TO.C,C1R3*%
X114451778Y-106507217D03*
X100101778Y-105457217D03*
%TD*%
D16*
%TO.C,SW2*%
X182647963Y-103916770D03*
X176347963Y-103916770D03*
X182647963Y-107716770D03*
X176347963Y-107716770D03*
%TD*%
D15*
%TO.C,C2R2*%
X133451777Y-83507217D03*
X119101777Y-82457217D03*
%TD*%
%TO.C,C2R1*%
X133451779Y-64507217D03*
X119101779Y-63457217D03*
%TD*%
%TO.C,C1R2*%
X114451779Y-87507218D03*
X100101779Y-86457218D03*
%TD*%
%TO.C,C4R3*%
X171451778Y-106507217D03*
X157101778Y-105457217D03*
%TD*%
%TO.C,C1R1*%
X114451779Y-68507217D03*
X100101779Y-67457217D03*
%TD*%
%TO.C,C4R1*%
X171451778Y-68507217D03*
X157101778Y-67457217D03*
%TD*%
M02*
