%TF.GenerationSoftware,KiCad,Pcbnew,7.0.2-0*%
%TF.CreationDate,2024-02-18T21:26:20+01:00*%
%TF.ProjectId,defiant,64656669-616e-4742-9e6b-696361645f70,rev?*%
%TF.SameCoordinates,Original*%
%TF.FileFunction,Legend,Bot*%
%TF.FilePolarity,Positive*%
%FSLAX46Y46*%
G04 Gerber Fmt 4.6, Leading zero omitted, Abs format (unit mm)*
G04 Created by KiCad (PCBNEW 7.0.2-0) date 2024-02-18 21:26:20*
%MOMM*%
%LPD*%
G01*
G04 APERTURE LIST*
G04 Aperture macros list*
%AMRoundRect*
0 Rectangle with rounded corners*
0 $1 Rounding radius*
0 $2 $3 $4 $5 $6 $7 $8 $9 X,Y pos of 4 corners*
0 Add a 4 corners polygon primitive as box body*
4,1,4,$2,$3,$4,$5,$6,$7,$8,$9,$2,$3,0*
0 Add four circle primitives for the rounded corners*
1,1,$1+$1,$2,$3*
1,1,$1+$1,$4,$5*
1,1,$1+$1,$6,$7*
1,1,$1+$1,$8,$9*
0 Add four rect primitives between the rounded corners*
20,1,$1+$1,$2,$3,$4,$5,0*
20,1,$1+$1,$4,$5,$6,$7,0*
20,1,$1+$1,$6,$7,$8,$9,0*
20,1,$1+$1,$8,$9,$2,$3,0*%
G04 Aperture macros list end*
%ADD10C,0.150000*%
%ADD11C,0.101600*%
%ADD12C,0.120000*%
%ADD13C,0.140000*%
%ADD14C,0.127000*%
%ADD15C,0.254000*%
%ADD16C,0.025400*%
%ADD17C,4.000000*%
%ADD18C,5.250000*%
%ADD19RoundRect,0.500000X-1.062296X-0.186149X0.151229X-1.067827X1.062296X0.186149X-0.151229X1.067827X0*%
%ADD20RoundRect,0.500000X-0.750000X-0.775000X0.750000X-0.775000X0.750000X0.775000X-0.750000X0.775000X0*%
%ADD21RoundRect,0.500000X-0.789533X-0.734686X0.708412X-0.813190X0.789533X0.734686X-0.708412X0.813190X0*%
%ADD22R,2.000000X3.000000*%
%ADD23C,2.000000*%
%ADD24RoundRect,0.575000X0.575000X-1.225000X0.575000X1.225000X-0.575000X1.225000X-0.575000X-1.225000X0*%
%ADD25RoundRect,0.381000X0.381000X0.381000X-0.381000X0.381000X-0.381000X-0.381000X0.381000X-0.381000X0*%
%ADD26C,1.524000*%
%ADD27RoundRect,0.500000X-0.969835X-0.471747X0.439704X-0.984777X0.969835X0.471747X-0.439704X0.984777X0*%
%ADD28RoundRect,0.500000X0.750000X0.775000X-0.750000X0.775000X-0.750000X-0.775000X0.750000X-0.775000X0*%
%ADD29R,1.400000X1.400000*%
%ADD30C,1.400000*%
%ADD31R,1.700000X1.000000*%
G04 APERTURE END LIST*
D10*
%TO.C,U1*%
X189899829Y-112732131D02*
X188899829Y-112065465D01*
X189899829Y-112065465D02*
X188899829Y-112732131D01*
X188899829Y-111684512D02*
X189899829Y-111684512D01*
X189185544Y-111255941D02*
X189185544Y-110779751D01*
X188899829Y-111351179D02*
X189899829Y-111017846D01*
X189899829Y-111017846D02*
X188899829Y-110684513D01*
X189899829Y-110160703D02*
X189899829Y-109970227D01*
X189899829Y-109970227D02*
X189852210Y-109874989D01*
X189852210Y-109874989D02*
X189756972Y-109779751D01*
X189756972Y-109779751D02*
X189566496Y-109732132D01*
X189566496Y-109732132D02*
X189233163Y-109732132D01*
X189233163Y-109732132D02*
X189042687Y-109779751D01*
X189042687Y-109779751D02*
X188947449Y-109874989D01*
X188947449Y-109874989D02*
X188899829Y-109970227D01*
X188899829Y-109970227D02*
X188899829Y-110160703D01*
X188899829Y-110160703D02*
X188947449Y-110255941D01*
X188947449Y-110255941D02*
X189042687Y-110351179D01*
X189042687Y-110351179D02*
X189233163Y-110398798D01*
X189233163Y-110398798D02*
X189566496Y-110398798D01*
X189566496Y-110398798D02*
X189756972Y-110351179D01*
X189756972Y-110351179D02*
X189852210Y-110255941D01*
X189852210Y-110255941D02*
X189899829Y-110160703D01*
D11*
X192844718Y-110530989D02*
X193564385Y-110530989D01*
X193564385Y-110530989D02*
X193649051Y-110573323D01*
X193649051Y-110573323D02*
X193691385Y-110615656D01*
X193691385Y-110615656D02*
X193733718Y-110700323D01*
X193733718Y-110700323D02*
X193733718Y-110869656D01*
X193733718Y-110869656D02*
X193691385Y-110954323D01*
X193691385Y-110954323D02*
X193649051Y-110996656D01*
X193649051Y-110996656D02*
X193564385Y-111038989D01*
X193564385Y-111038989D02*
X192844718Y-111038989D01*
X193733718Y-111927989D02*
X193733718Y-111419989D01*
X193733718Y-111673989D02*
X192844718Y-111673989D01*
X192844718Y-111673989D02*
X192971718Y-111589322D01*
X192971718Y-111589322D02*
X193056385Y-111504656D01*
X193056385Y-111504656D02*
X193098718Y-111419989D01*
D10*
X190947449Y-115970227D02*
X190899829Y-115827370D01*
X190899829Y-115827370D02*
X190899829Y-115589275D01*
X190899829Y-115589275D02*
X190947449Y-115494037D01*
X190947449Y-115494037D02*
X190995068Y-115446418D01*
X190995068Y-115446418D02*
X191090306Y-115398799D01*
X191090306Y-115398799D02*
X191185544Y-115398799D01*
X191185544Y-115398799D02*
X191280782Y-115446418D01*
X191280782Y-115446418D02*
X191328401Y-115494037D01*
X191328401Y-115494037D02*
X191376020Y-115589275D01*
X191376020Y-115589275D02*
X191423639Y-115779751D01*
X191423639Y-115779751D02*
X191471258Y-115874989D01*
X191471258Y-115874989D02*
X191518877Y-115922608D01*
X191518877Y-115922608D02*
X191614115Y-115970227D01*
X191614115Y-115970227D02*
X191709353Y-115970227D01*
X191709353Y-115970227D02*
X191804591Y-115922608D01*
X191804591Y-115922608D02*
X191852210Y-115874989D01*
X191852210Y-115874989D02*
X191899829Y-115779751D01*
X191899829Y-115779751D02*
X191899829Y-115541656D01*
X191899829Y-115541656D02*
X191852210Y-115398799D01*
X190947449Y-114589275D02*
X190899829Y-114684513D01*
X190899829Y-114684513D02*
X190899829Y-114874989D01*
X190899829Y-114874989D02*
X190947449Y-114970227D01*
X190947449Y-114970227D02*
X191042687Y-115017846D01*
X191042687Y-115017846D02*
X191423639Y-115017846D01*
X191423639Y-115017846D02*
X191518877Y-114970227D01*
X191518877Y-114970227D02*
X191566496Y-114874989D01*
X191566496Y-114874989D02*
X191566496Y-114684513D01*
X191566496Y-114684513D02*
X191518877Y-114589275D01*
X191518877Y-114589275D02*
X191423639Y-114541656D01*
X191423639Y-114541656D02*
X191328401Y-114541656D01*
X191328401Y-114541656D02*
X191233163Y-115017846D01*
X190947449Y-113732132D02*
X190899829Y-113827370D01*
X190899829Y-113827370D02*
X190899829Y-114017846D01*
X190899829Y-114017846D02*
X190947449Y-114113084D01*
X190947449Y-114113084D02*
X191042687Y-114160703D01*
X191042687Y-114160703D02*
X191423639Y-114160703D01*
X191423639Y-114160703D02*
X191518877Y-114113084D01*
X191518877Y-114113084D02*
X191566496Y-114017846D01*
X191566496Y-114017846D02*
X191566496Y-113827370D01*
X191566496Y-113827370D02*
X191518877Y-113732132D01*
X191518877Y-113732132D02*
X191423639Y-113684513D01*
X191423639Y-113684513D02*
X191328401Y-113684513D01*
X191328401Y-113684513D02*
X191233163Y-114160703D01*
X190947449Y-112874989D02*
X190899829Y-112970227D01*
X190899829Y-112970227D02*
X190899829Y-113160703D01*
X190899829Y-113160703D02*
X190947449Y-113255941D01*
X190947449Y-113255941D02*
X191042687Y-113303560D01*
X191042687Y-113303560D02*
X191423639Y-113303560D01*
X191423639Y-113303560D02*
X191518877Y-113255941D01*
X191518877Y-113255941D02*
X191566496Y-113160703D01*
X191566496Y-113160703D02*
X191566496Y-112970227D01*
X191566496Y-112970227D02*
X191518877Y-112874989D01*
X191518877Y-112874989D02*
X191423639Y-112827370D01*
X191423639Y-112827370D02*
X191328401Y-112827370D01*
X191328401Y-112827370D02*
X191233163Y-113303560D01*
X190899829Y-111970227D02*
X191899829Y-111970227D01*
X190947449Y-111970227D02*
X190899829Y-112065465D01*
X190899829Y-112065465D02*
X190899829Y-112255941D01*
X190899829Y-112255941D02*
X190947449Y-112351179D01*
X190947449Y-112351179D02*
X190995068Y-112398798D01*
X190995068Y-112398798D02*
X191090306Y-112446417D01*
X191090306Y-112446417D02*
X191376020Y-112446417D01*
X191376020Y-112446417D02*
X191471258Y-112398798D01*
X191471258Y-112398798D02*
X191518877Y-112351179D01*
X191518877Y-112351179D02*
X191566496Y-112255941D01*
X191566496Y-112255941D02*
X191566496Y-112065465D01*
X191566496Y-112065465D02*
X191518877Y-111970227D01*
X190947449Y-110779750D02*
X190899829Y-110636893D01*
X190899829Y-110636893D02*
X190899829Y-110398798D01*
X190899829Y-110398798D02*
X190947449Y-110303560D01*
X190947449Y-110303560D02*
X190995068Y-110255941D01*
X190995068Y-110255941D02*
X191090306Y-110208322D01*
X191090306Y-110208322D02*
X191185544Y-110208322D01*
X191185544Y-110208322D02*
X191280782Y-110255941D01*
X191280782Y-110255941D02*
X191328401Y-110303560D01*
X191328401Y-110303560D02*
X191376020Y-110398798D01*
X191376020Y-110398798D02*
X191423639Y-110589274D01*
X191423639Y-110589274D02*
X191471258Y-110684512D01*
X191471258Y-110684512D02*
X191518877Y-110732131D01*
X191518877Y-110732131D02*
X191614115Y-110779750D01*
X191614115Y-110779750D02*
X191709353Y-110779750D01*
X191709353Y-110779750D02*
X191804591Y-110732131D01*
X191804591Y-110732131D02*
X191852210Y-110684512D01*
X191852210Y-110684512D02*
X191899829Y-110589274D01*
X191899829Y-110589274D02*
X191899829Y-110351179D01*
X191899829Y-110351179D02*
X191852210Y-110208322D01*
X191566496Y-109922607D02*
X191566496Y-109541655D01*
X191899829Y-109779750D02*
X191042687Y-109779750D01*
X191042687Y-109779750D02*
X190947449Y-109732131D01*
X190947449Y-109732131D02*
X190899829Y-109636893D01*
X190899829Y-109636893D02*
X190899829Y-109541655D01*
X191566496Y-108779750D02*
X190899829Y-108779750D01*
X191566496Y-109208321D02*
X191042687Y-109208321D01*
X191042687Y-109208321D02*
X190947449Y-109160702D01*
X190947449Y-109160702D02*
X190899829Y-109065464D01*
X190899829Y-109065464D02*
X190899829Y-108922607D01*
X190899829Y-108922607D02*
X190947449Y-108827369D01*
X190947449Y-108827369D02*
X190995068Y-108779750D01*
X190899829Y-107874988D02*
X191899829Y-107874988D01*
X190947449Y-107874988D02*
X190899829Y-107970226D01*
X190899829Y-107970226D02*
X190899829Y-108160702D01*
X190899829Y-108160702D02*
X190947449Y-108255940D01*
X190947449Y-108255940D02*
X190995068Y-108303559D01*
X190995068Y-108303559D02*
X191090306Y-108351178D01*
X191090306Y-108351178D02*
X191376020Y-108351178D01*
X191376020Y-108351178D02*
X191471258Y-108303559D01*
X191471258Y-108303559D02*
X191518877Y-108255940D01*
X191518877Y-108255940D02*
X191566496Y-108160702D01*
X191566496Y-108160702D02*
X191566496Y-107970226D01*
X191566496Y-107970226D02*
X191518877Y-107874988D01*
X190899829Y-107398797D02*
X191566496Y-107398797D01*
X191899829Y-107398797D02*
X191852210Y-107446416D01*
X191852210Y-107446416D02*
X191804591Y-107398797D01*
X191804591Y-107398797D02*
X191852210Y-107351178D01*
X191852210Y-107351178D02*
X191899829Y-107398797D01*
X191899829Y-107398797D02*
X191804591Y-107398797D01*
X190899829Y-106779750D02*
X190947449Y-106874988D01*
X190947449Y-106874988D02*
X190995068Y-106922607D01*
X190995068Y-106922607D02*
X191090306Y-106970226D01*
X191090306Y-106970226D02*
X191376020Y-106970226D01*
X191376020Y-106970226D02*
X191471258Y-106922607D01*
X191471258Y-106922607D02*
X191518877Y-106874988D01*
X191518877Y-106874988D02*
X191566496Y-106779750D01*
X191566496Y-106779750D02*
X191566496Y-106636893D01*
X191566496Y-106636893D02*
X191518877Y-106541655D01*
X191518877Y-106541655D02*
X191471258Y-106494036D01*
X191471258Y-106494036D02*
X191376020Y-106446417D01*
X191376020Y-106446417D02*
X191090306Y-106446417D01*
X191090306Y-106446417D02*
X190995068Y-106494036D01*
X190995068Y-106494036D02*
X190947449Y-106541655D01*
X190947449Y-106541655D02*
X190899829Y-106636893D01*
X190899829Y-106636893D02*
X190899829Y-106779750D01*
%TO.C,SW3*%
X200535000Y-91826667D02*
X200582619Y-91969524D01*
X200582619Y-91969524D02*
X200582619Y-92207619D01*
X200582619Y-92207619D02*
X200535000Y-92302857D01*
X200535000Y-92302857D02*
X200487380Y-92350476D01*
X200487380Y-92350476D02*
X200392142Y-92398095D01*
X200392142Y-92398095D02*
X200296904Y-92398095D01*
X200296904Y-92398095D02*
X200201666Y-92350476D01*
X200201666Y-92350476D02*
X200154047Y-92302857D01*
X200154047Y-92302857D02*
X200106428Y-92207619D01*
X200106428Y-92207619D02*
X200058809Y-92017143D01*
X200058809Y-92017143D02*
X200011190Y-91921905D01*
X200011190Y-91921905D02*
X199963571Y-91874286D01*
X199963571Y-91874286D02*
X199868333Y-91826667D01*
X199868333Y-91826667D02*
X199773095Y-91826667D01*
X199773095Y-91826667D02*
X199677857Y-91874286D01*
X199677857Y-91874286D02*
X199630238Y-91921905D01*
X199630238Y-91921905D02*
X199582619Y-92017143D01*
X199582619Y-92017143D02*
X199582619Y-92255238D01*
X199582619Y-92255238D02*
X199630238Y-92398095D01*
X199582619Y-92731429D02*
X200582619Y-92969524D01*
X200582619Y-92969524D02*
X199868333Y-93160000D01*
X199868333Y-93160000D02*
X200582619Y-93350476D01*
X200582619Y-93350476D02*
X199582619Y-93588572D01*
X199582619Y-93874286D02*
X199582619Y-94493333D01*
X199582619Y-94493333D02*
X199963571Y-94160000D01*
X199963571Y-94160000D02*
X199963571Y-94302857D01*
X199963571Y-94302857D02*
X200011190Y-94398095D01*
X200011190Y-94398095D02*
X200058809Y-94445714D01*
X200058809Y-94445714D02*
X200154047Y-94493333D01*
X200154047Y-94493333D02*
X200392142Y-94493333D01*
X200392142Y-94493333D02*
X200487380Y-94445714D01*
X200487380Y-94445714D02*
X200535000Y-94398095D01*
X200535000Y-94398095D02*
X200582619Y-94302857D01*
X200582619Y-94302857D02*
X200582619Y-94017143D01*
X200582619Y-94017143D02*
X200535000Y-93921905D01*
X200535000Y-93921905D02*
X200487380Y-93874286D01*
%TO.C,SW2*%
X181673332Y-101785000D02*
X181530475Y-101832619D01*
X181530475Y-101832619D02*
X181292380Y-101832619D01*
X181292380Y-101832619D02*
X181197142Y-101785000D01*
X181197142Y-101785000D02*
X181149523Y-101737380D01*
X181149523Y-101737380D02*
X181101904Y-101642142D01*
X181101904Y-101642142D02*
X181101904Y-101546904D01*
X181101904Y-101546904D02*
X181149523Y-101451666D01*
X181149523Y-101451666D02*
X181197142Y-101404047D01*
X181197142Y-101404047D02*
X181292380Y-101356428D01*
X181292380Y-101356428D02*
X181482856Y-101308809D01*
X181482856Y-101308809D02*
X181578094Y-101261190D01*
X181578094Y-101261190D02*
X181625713Y-101213571D01*
X181625713Y-101213571D02*
X181673332Y-101118333D01*
X181673332Y-101118333D02*
X181673332Y-101023095D01*
X181673332Y-101023095D02*
X181625713Y-100927857D01*
X181625713Y-100927857D02*
X181578094Y-100880238D01*
X181578094Y-100880238D02*
X181482856Y-100832619D01*
X181482856Y-100832619D02*
X181244761Y-100832619D01*
X181244761Y-100832619D02*
X181101904Y-100880238D01*
X180768570Y-100832619D02*
X180530475Y-101832619D01*
X180530475Y-101832619D02*
X180339999Y-101118333D01*
X180339999Y-101118333D02*
X180149523Y-101832619D01*
X180149523Y-101832619D02*
X179911428Y-100832619D01*
X179578094Y-100927857D02*
X179530475Y-100880238D01*
X179530475Y-100880238D02*
X179435237Y-100832619D01*
X179435237Y-100832619D02*
X179197142Y-100832619D01*
X179197142Y-100832619D02*
X179101904Y-100880238D01*
X179101904Y-100880238D02*
X179054285Y-100927857D01*
X179054285Y-100927857D02*
X179006666Y-101023095D01*
X179006666Y-101023095D02*
X179006666Y-101118333D01*
X179006666Y-101118333D02*
X179054285Y-101261190D01*
X179054285Y-101261190D02*
X179625713Y-101832619D01*
X179625713Y-101832619D02*
X179006666Y-101832619D01*
D12*
%TO.C,T4*%
X185288754Y-131740762D02*
X184730358Y-132509328D01*
X185288754Y-131740762D02*
X186906788Y-132916333D01*
X182526163Y-135543142D02*
X183084559Y-134774576D01*
X182526163Y-135543142D02*
X184144197Y-136718713D01*
D13*
X190895162Y-124874854D02*
X190307376Y-125683871D01*
X190895162Y-124874854D02*
X191704179Y-125462640D01*
X183841739Y-134583058D02*
X183253953Y-135392075D01*
X184062970Y-135979861D02*
X183253953Y-135392075D01*
D12*
X194541587Y-139761210D02*
X193166258Y-138761975D01*
X194541587Y-139761210D02*
X193983191Y-140529776D01*
X191778996Y-143563590D02*
X190403667Y-142564355D01*
X191778996Y-143563590D02*
X192308003Y-142835475D01*
D13*
X200603366Y-131928277D02*
X201412383Y-132516063D01*
X200824597Y-133325080D02*
X201412383Y-132516063D01*
X193771174Y-143033284D02*
X192962157Y-142445498D01*
X193771174Y-143033284D02*
X194358960Y-142224267D01*
D12*
%TO.C,T0*%
X102018816Y-121410449D02*
X102018816Y-122360449D01*
X102018816Y-121410449D02*
X104018816Y-121410449D01*
X102018816Y-126110449D02*
X102018816Y-125160449D01*
X102018816Y-126110449D02*
X104018816Y-126110449D01*
D13*
X102518816Y-112560449D02*
X102518816Y-113560449D01*
X102518816Y-112560449D02*
X103518816Y-112560449D01*
X102518816Y-124560449D02*
X102518816Y-125560449D01*
X103518816Y-125560449D02*
X102518816Y-125560449D01*
D12*
X114218816Y-122460449D02*
X112518816Y-122460449D01*
X114218816Y-122460449D02*
X114218816Y-123410449D01*
X114218816Y-127160449D02*
X112518816Y-127160449D01*
X114218816Y-127160449D02*
X114218816Y-126260449D01*
D13*
X114518816Y-112560449D02*
X115518816Y-112560449D01*
X115518816Y-113560449D02*
X115518816Y-112560449D01*
X115518816Y-125560449D02*
X114518816Y-125560449D01*
X115518816Y-125560449D02*
X115518816Y-124560449D01*
D12*
%TO.C,T2*%
X145130855Y-121553752D02*
X145081136Y-122502450D01*
X145130855Y-121553752D02*
X147128114Y-121658424D01*
X144884876Y-126247311D02*
X144934595Y-125298612D01*
X144884876Y-126247311D02*
X146882135Y-126351982D01*
D13*
X146093343Y-112742048D02*
X146041007Y-113740678D01*
X146093343Y-112742048D02*
X147091972Y-112794384D01*
X145465311Y-124725603D02*
X145412975Y-125724232D01*
X146411605Y-125776568D02*
X145412975Y-125724232D01*
D12*
X157259182Y-123240811D02*
X155561512Y-123151840D01*
X157259182Y-123240811D02*
X157209463Y-124189509D01*
X157013203Y-127934370D02*
X155315533Y-127845399D01*
X157013203Y-127934370D02*
X157060306Y-127035604D01*
D13*
X158076897Y-113370080D02*
X159075527Y-113422416D01*
X159023191Y-114421045D02*
X159075527Y-113422416D01*
X158395159Y-126404600D02*
X157396530Y-126352264D01*
X158395159Y-126404600D02*
X158447495Y-125405970D01*
D14*
%TO.C,U1*%
X187362449Y-102308323D02*
X204362449Y-102308323D01*
X206361539Y-104308323D02*
X206361539Y-118108323D01*
X207786479Y-106708323D02*
X200433179Y-106708323D01*
X200433179Y-106708323D02*
X200433179Y-115708323D01*
X200433179Y-106708323D02*
X200433179Y-115708323D01*
X207786479Y-115708323D02*
X207786479Y-106708323D01*
X200433179Y-115708323D02*
X207786479Y-115708323D01*
X185362449Y-118108323D02*
X185362449Y-104308323D01*
X204362449Y-120108323D02*
X187362449Y-120108323D01*
D12*
X206362448Y-104308323D02*
G75*
G03*
X204362449Y-102308324I-2044608J-44609D01*
G01*
X187362449Y-102308323D02*
G75*
G03*
X185362449Y-104308323I-1J-1999999D01*
G01*
X204362449Y-120108323D02*
G75*
G03*
X206362449Y-118108323I-44600J2044600D01*
G01*
X185362449Y-118108323D02*
G75*
G03*
X187362449Y-120108323I2044860J44860D01*
G01*
D15*
X205259449Y-120528323D02*
G75*
G03*
X205259449Y-120528323I-127000J0D01*
G01*
D16*
X204472922Y-120092990D02*
X204424154Y-120096038D01*
X204521943Y-120088926D01*
X204472922Y-120092990D01*
X186951494Y-102366075D02*
X186999499Y-102356170D01*
X187047759Y-102347279D01*
X187096274Y-102339659D01*
X187145042Y-102333055D01*
X187193810Y-102327722D01*
X187242831Y-102323658D01*
X187291599Y-102320610D01*
X187340875Y-102318831D01*
X186951494Y-102366075D01*
D12*
%TO.C,C5R2*%
X178018821Y-73793323D02*
X178018821Y-74743323D01*
X178018821Y-73793323D02*
X180018821Y-73793323D01*
X178018821Y-78493323D02*
X178018821Y-77543323D01*
X178018821Y-78493323D02*
X180018821Y-78493323D01*
D13*
X178518821Y-64943323D02*
X178518821Y-65943323D01*
X178518821Y-64943323D02*
X179518821Y-64943323D01*
X178518821Y-76943323D02*
X178518821Y-77943323D01*
X179518821Y-77943323D02*
X178518821Y-77943323D01*
D12*
X190218821Y-74843323D02*
X188518821Y-74843323D01*
X190218821Y-74843323D02*
X190218821Y-75793323D01*
X190218821Y-79543323D02*
X188518821Y-79543323D01*
X190218821Y-79543323D02*
X190218821Y-78643323D01*
D13*
X190518821Y-64943323D02*
X191518821Y-64943323D01*
X191518821Y-65943323D02*
X191518821Y-64943323D01*
X191518821Y-77943323D02*
X190518821Y-77943323D01*
X191518821Y-77943323D02*
X191518821Y-76943323D01*
D12*
%TO.C,T1*%
X123393816Y-121410448D02*
X123393816Y-122360448D01*
X123393816Y-121410448D02*
X125393816Y-121410448D01*
X123393816Y-126110448D02*
X123393816Y-125160448D01*
X123393816Y-126110448D02*
X125393816Y-126110448D01*
D13*
X123893816Y-112560448D02*
X123893816Y-113560448D01*
X123893816Y-112560448D02*
X124893816Y-112560448D01*
X123893816Y-124560448D02*
X123893816Y-125560448D01*
X124893816Y-125560448D02*
X123893816Y-125560448D01*
D12*
X135593816Y-122460448D02*
X133893816Y-122460448D01*
X135593816Y-122460448D02*
X135593816Y-123410448D01*
X135593816Y-127160448D02*
X133893816Y-127160448D01*
X135593816Y-127160448D02*
X135593816Y-126260448D01*
D13*
X135893816Y-112560448D02*
X136893816Y-112560448D01*
X136893816Y-113560448D02*
X136893816Y-112560448D01*
X136893816Y-125560448D02*
X135893816Y-125560448D01*
X136893816Y-125560448D02*
X136893816Y-124560448D01*
D12*
%TO.C,T3*%
X166016988Y-123694444D02*
X165692069Y-124587152D01*
X166016988Y-123694444D02*
X167896374Y-124378484D01*
X164409494Y-128110999D02*
X164734413Y-127218291D01*
X164409494Y-128110999D02*
X166288879Y-128795039D01*
D13*
X169513713Y-115549174D02*
X169171693Y-116488867D01*
X169513713Y-115549174D02*
X170453406Y-115891194D01*
X165409471Y-126825485D02*
X165067451Y-127765178D01*
X166007144Y-128107198D02*
X165067451Y-127765178D01*
D12*
X177122117Y-128853767D02*
X175524640Y-128272332D01*
X177122117Y-128853767D02*
X176797198Y-129746475D01*
X175514622Y-133270322D02*
X173917145Y-132688888D01*
X175514622Y-133270322D02*
X175822441Y-132424599D01*
D13*
X180790024Y-119653416D02*
X181729717Y-119995436D01*
X181387697Y-120935129D02*
X181729717Y-119995436D01*
X177283455Y-132211440D02*
X176343762Y-131869420D01*
X177283455Y-132211440D02*
X177625475Y-131271747D01*
D12*
%TO.C,C5R3*%
X178018821Y-92793323D02*
X178018821Y-93743323D01*
X178018821Y-92793323D02*
X180018821Y-92793323D01*
X178018821Y-97493323D02*
X178018821Y-96543323D01*
X178018821Y-97493323D02*
X180018821Y-97493323D01*
D13*
X178518821Y-83943323D02*
X178518821Y-84943323D01*
X178518821Y-83943323D02*
X179518821Y-83943323D01*
X178518821Y-95943323D02*
X178518821Y-96943323D01*
X179518821Y-96943323D02*
X178518821Y-96943323D01*
D12*
X190218821Y-93843323D02*
X188518821Y-93843323D01*
X190218821Y-93843323D02*
X190218821Y-94793323D01*
X190218821Y-98543323D02*
X188518821Y-98543323D01*
X190218821Y-98543323D02*
X190218821Y-97643323D01*
D13*
X190518821Y-83943323D02*
X191518821Y-83943323D01*
X191518821Y-84943323D02*
X191518821Y-83943323D01*
X191518821Y-96943323D02*
X190518821Y-96943323D01*
X191518821Y-96943323D02*
X191518821Y-95943323D01*
%TO.C,C3R1*%
X153518815Y-68560448D02*
X153518815Y-67560448D01*
X153518815Y-68560448D02*
X152518815Y-68560448D01*
X153518815Y-56560448D02*
X153518815Y-55560448D01*
X152518815Y-55560448D02*
X153518815Y-55560448D01*
D12*
X152218815Y-70160448D02*
X152218815Y-69260448D01*
X152218815Y-70160448D02*
X150518815Y-70160448D01*
X152218815Y-65460448D02*
X152218815Y-66410448D01*
X152218815Y-65460448D02*
X150518815Y-65460448D01*
D13*
X141518815Y-68560448D02*
X140518815Y-68560448D01*
X140518815Y-67560448D02*
X140518815Y-68560448D01*
X140518815Y-55560448D02*
X141518815Y-55560448D01*
X140518815Y-55560448D02*
X140518815Y-56560448D01*
D12*
X140018815Y-69110448D02*
X142018815Y-69110448D01*
X140018815Y-69110448D02*
X140018815Y-68160448D01*
X140018815Y-64410448D02*
X142018815Y-64410448D01*
X140018815Y-64410448D02*
X140018815Y-65360448D01*
D13*
%TO.C,C3R3*%
X153518816Y-106560447D02*
X153518816Y-105560447D01*
X153518816Y-106560447D02*
X152518816Y-106560447D01*
X153518816Y-94560447D02*
X153518816Y-93560447D01*
X152518816Y-93560447D02*
X153518816Y-93560447D01*
D12*
X152218816Y-108160447D02*
X152218816Y-107260447D01*
X152218816Y-108160447D02*
X150518816Y-108160447D01*
X152218816Y-103460447D02*
X152218816Y-104410447D01*
X152218816Y-103460447D02*
X150518816Y-103460447D01*
D13*
X141518816Y-106560447D02*
X140518816Y-106560447D01*
X140518816Y-105560447D02*
X140518816Y-106560447D01*
X140518816Y-93560447D02*
X141518816Y-93560447D01*
X140518816Y-93560447D02*
X140518816Y-94560447D01*
D12*
X140018816Y-107110447D02*
X142018816Y-107110447D01*
X140018816Y-107110447D02*
X140018816Y-106160447D01*
X140018816Y-102410447D02*
X142018816Y-102410447D01*
X140018816Y-102410447D02*
X140018816Y-103360447D01*
D13*
%TO.C,C2R3*%
X134518815Y-102560447D02*
X134518815Y-101560447D01*
X134518815Y-102560447D02*
X133518815Y-102560447D01*
X134518815Y-90560447D02*
X134518815Y-89560447D01*
X133518815Y-89560447D02*
X134518815Y-89560447D01*
D12*
X133218815Y-104160447D02*
X133218815Y-103260447D01*
X133218815Y-104160447D02*
X131518815Y-104160447D01*
X133218815Y-99460447D02*
X133218815Y-100410447D01*
X133218815Y-99460447D02*
X131518815Y-99460447D01*
D13*
X122518815Y-102560447D02*
X121518815Y-102560447D01*
X121518815Y-101560447D02*
X121518815Y-102560447D01*
X121518815Y-89560447D02*
X122518815Y-89560447D01*
X121518815Y-89560447D02*
X121518815Y-90560447D01*
D12*
X121018815Y-103110447D02*
X123018815Y-103110447D01*
X121018815Y-103110447D02*
X121018815Y-102160447D01*
X121018815Y-98410447D02*
X123018815Y-98410447D01*
X121018815Y-98410447D02*
X121018815Y-99360447D01*
D13*
%TO.C,C3R2*%
X153518815Y-87560448D02*
X153518815Y-86560448D01*
X153518815Y-87560448D02*
X152518815Y-87560448D01*
X153518815Y-75560448D02*
X153518815Y-74560448D01*
X152518815Y-74560448D02*
X153518815Y-74560448D01*
D12*
X152218815Y-89160448D02*
X152218815Y-88260448D01*
X152218815Y-89160448D02*
X150518815Y-89160448D01*
X152218815Y-84460448D02*
X152218815Y-85410448D01*
X152218815Y-84460448D02*
X150518815Y-84460448D01*
D13*
X141518815Y-87560448D02*
X140518815Y-87560448D01*
X140518815Y-86560448D02*
X140518815Y-87560448D01*
X140518815Y-74560448D02*
X141518815Y-74560448D01*
X140518815Y-74560448D02*
X140518815Y-75560448D01*
D12*
X140018815Y-88110448D02*
X142018815Y-88110448D01*
X140018815Y-88110448D02*
X140018815Y-87160448D01*
X140018815Y-83410448D02*
X142018815Y-83410448D01*
X140018815Y-83410448D02*
X140018815Y-84360448D01*
D13*
%TO.C,C0R2*%
X96518816Y-95560447D02*
X96518816Y-94560447D01*
X96518816Y-95560447D02*
X95518816Y-95560447D01*
X96518816Y-83560447D02*
X96518816Y-82560447D01*
X95518816Y-82560447D02*
X96518816Y-82560447D01*
D12*
X95218816Y-97160447D02*
X95218816Y-96260447D01*
X95218816Y-97160447D02*
X93518816Y-97160447D01*
X95218816Y-92460447D02*
X95218816Y-93410447D01*
X95218816Y-92460447D02*
X93518816Y-92460447D01*
D13*
X84518816Y-95560447D02*
X83518816Y-95560447D01*
X83518816Y-94560447D02*
X83518816Y-95560447D01*
X83518816Y-82560447D02*
X84518816Y-82560447D01*
X83518816Y-82560447D02*
X83518816Y-83560447D01*
D12*
X83018816Y-96110447D02*
X85018816Y-96110447D01*
X83018816Y-96110447D02*
X83018816Y-95160447D01*
X83018816Y-91410447D02*
X85018816Y-91410447D01*
X83018816Y-91410447D02*
X83018816Y-92360447D01*
D13*
%TO.C,C0R1*%
X96518816Y-76560448D02*
X96518816Y-75560448D01*
X96518816Y-76560448D02*
X95518816Y-76560448D01*
X96518816Y-64560448D02*
X96518816Y-63560448D01*
X95518816Y-63560448D02*
X96518816Y-63560448D01*
D12*
X95218816Y-78160448D02*
X95218816Y-77260448D01*
X95218816Y-78160448D02*
X93518816Y-78160448D01*
X95218816Y-73460448D02*
X95218816Y-74410448D01*
X95218816Y-73460448D02*
X93518816Y-73460448D01*
D13*
X84518816Y-76560448D02*
X83518816Y-76560448D01*
X83518816Y-75560448D02*
X83518816Y-76560448D01*
X83518816Y-63560448D02*
X84518816Y-63560448D01*
X83518816Y-63560448D02*
X83518816Y-64560448D01*
D12*
X83018816Y-77110448D02*
X85018816Y-77110448D01*
X83018816Y-77110448D02*
X83018816Y-76160448D01*
X83018816Y-72410448D02*
X85018816Y-72410448D01*
X83018816Y-72410448D02*
X83018816Y-73360448D01*
D13*
%TO.C,C0R3*%
X96518815Y-114560447D02*
X96518815Y-113560447D01*
X96518815Y-114560447D02*
X95518815Y-114560447D01*
X96518815Y-102560447D02*
X96518815Y-101560447D01*
X95518815Y-101560447D02*
X96518815Y-101560447D01*
D12*
X95218815Y-116160447D02*
X95218815Y-115260447D01*
X95218815Y-116160447D02*
X93518815Y-116160447D01*
X95218815Y-111460447D02*
X95218815Y-112410447D01*
X95218815Y-111460447D02*
X93518815Y-111460447D01*
D13*
X84518815Y-114560447D02*
X83518815Y-114560447D01*
X83518815Y-113560447D02*
X83518815Y-114560447D01*
X83518815Y-101560447D02*
X84518815Y-101560447D01*
X83518815Y-101560447D02*
X83518815Y-102560447D01*
D12*
X83018815Y-115110447D02*
X85018815Y-115110447D01*
X83018815Y-115110447D02*
X83018815Y-114160447D01*
X83018815Y-110410447D02*
X85018815Y-110410447D01*
X83018815Y-110410447D02*
X83018815Y-111360447D01*
D13*
%TO.C,C4R2*%
X172518816Y-87560447D02*
X172518816Y-86560447D01*
X172518816Y-87560447D02*
X171518816Y-87560447D01*
X172518816Y-75560447D02*
X172518816Y-74560447D01*
X171518816Y-74560447D02*
X172518816Y-74560447D01*
D12*
X171218816Y-89160447D02*
X171218816Y-88260447D01*
X171218816Y-89160447D02*
X169518816Y-89160447D01*
X171218816Y-84460447D02*
X171218816Y-85410447D01*
X171218816Y-84460447D02*
X169518816Y-84460447D01*
D13*
X160518816Y-87560447D02*
X159518816Y-87560447D01*
X159518816Y-86560447D02*
X159518816Y-87560447D01*
X159518816Y-74560447D02*
X160518816Y-74560447D01*
X159518816Y-74560447D02*
X159518816Y-75560447D01*
D12*
X159018816Y-88110447D02*
X161018816Y-88110447D01*
X159018816Y-88110447D02*
X159018816Y-87160447D01*
X159018816Y-83410447D02*
X161018816Y-83410447D01*
X159018816Y-83410447D02*
X159018816Y-84360447D01*
D13*
%TO.C,C1R3*%
X115518815Y-106560447D02*
X115518815Y-105560447D01*
X115518815Y-106560447D02*
X114518815Y-106560447D01*
X115518815Y-94560447D02*
X115518815Y-93560447D01*
X114518815Y-93560447D02*
X115518815Y-93560447D01*
D12*
X114218815Y-108160447D02*
X114218815Y-107260447D01*
X114218815Y-108160447D02*
X112518815Y-108160447D01*
X114218815Y-103460447D02*
X114218815Y-104410447D01*
X114218815Y-103460447D02*
X112518815Y-103460447D01*
D13*
X103518815Y-106560447D02*
X102518815Y-106560447D01*
X102518815Y-105560447D02*
X102518815Y-106560447D01*
X102518815Y-93560447D02*
X103518815Y-93560447D01*
X102518815Y-93560447D02*
X102518815Y-94560447D01*
D12*
X102018815Y-107110447D02*
X104018815Y-107110447D01*
X102018815Y-107110447D02*
X102018815Y-106160447D01*
X102018815Y-102410447D02*
X104018815Y-102410447D01*
X102018815Y-102410447D02*
X102018815Y-103360447D01*
%TO.C,SW3*%
X201370000Y-90760000D02*
X202570000Y-90760000D01*
X205870000Y-91060000D02*
X205870000Y-92260000D01*
X201670000Y-91060000D02*
X205870000Y-91060000D01*
X201370000Y-91960000D02*
X201370000Y-90760000D01*
X201670000Y-92260000D02*
X201670000Y-91060000D01*
X201670000Y-99060000D02*
X201670000Y-100260000D01*
X205870000Y-100260000D02*
X205870000Y-99060000D01*
X201670000Y-100260000D02*
X205870000Y-100260000D01*
%TO.C,SW2*%
X183090000Y-104120000D02*
X183090000Y-106120000D01*
X182040000Y-107420000D02*
X181590000Y-107870000D01*
X182040000Y-102820000D02*
X181590000Y-102370000D01*
X181590000Y-107870000D02*
X179090000Y-107870000D01*
X181590000Y-102370000D02*
X179090000Y-102370000D01*
X178640000Y-107420000D02*
X179090000Y-107870000D01*
X178640000Y-102820000D02*
X179090000Y-102370000D01*
X177590000Y-104120000D02*
X177590000Y-106120000D01*
D13*
%TO.C,C2R2*%
X134518815Y-83560447D02*
X134518815Y-82560447D01*
X134518815Y-83560447D02*
X133518815Y-83560447D01*
X134518815Y-71560447D02*
X134518815Y-70560447D01*
X133518815Y-70560447D02*
X134518815Y-70560447D01*
D12*
X133218815Y-85160447D02*
X133218815Y-84260447D01*
X133218815Y-85160447D02*
X131518815Y-85160447D01*
X133218815Y-80460447D02*
X133218815Y-81410447D01*
X133218815Y-80460447D02*
X131518815Y-80460447D01*
D13*
X122518815Y-83560447D02*
X121518815Y-83560447D01*
X121518815Y-82560447D02*
X121518815Y-83560447D01*
X121518815Y-70560447D02*
X122518815Y-70560447D01*
X121518815Y-70560447D02*
X121518815Y-71560447D01*
D12*
X121018815Y-84110447D02*
X123018815Y-84110447D01*
X121018815Y-84110447D02*
X121018815Y-83160447D01*
X121018815Y-79410447D02*
X123018815Y-79410447D01*
X121018815Y-79410447D02*
X121018815Y-80360447D01*
D13*
%TO.C,C2R1*%
X134518815Y-64560447D02*
X134518815Y-63560447D01*
X134518815Y-64560447D02*
X133518815Y-64560447D01*
X134518815Y-52560447D02*
X134518815Y-51560447D01*
X133518815Y-51560447D02*
X134518815Y-51560447D01*
D12*
X133218815Y-66160447D02*
X133218815Y-65260447D01*
X133218815Y-66160447D02*
X131518815Y-66160447D01*
X133218815Y-61460447D02*
X133218815Y-62410447D01*
X133218815Y-61460447D02*
X131518815Y-61460447D01*
D13*
X122518815Y-64560447D02*
X121518815Y-64560447D01*
X121518815Y-63560447D02*
X121518815Y-64560447D01*
X121518815Y-51560447D02*
X122518815Y-51560447D01*
X121518815Y-51560447D02*
X121518815Y-52560447D01*
D12*
X121018815Y-65110447D02*
X123018815Y-65110447D01*
X121018815Y-65110447D02*
X121018815Y-64160447D01*
X121018815Y-60410447D02*
X123018815Y-60410447D01*
X121018815Y-60410447D02*
X121018815Y-61360447D01*
D13*
%TO.C,C1R2*%
X115518815Y-87560448D02*
X115518815Y-86560448D01*
X115518815Y-87560448D02*
X114518815Y-87560448D01*
X115518815Y-75560448D02*
X115518815Y-74560448D01*
X114518815Y-74560448D02*
X115518815Y-74560448D01*
D12*
X114218815Y-89160448D02*
X114218815Y-88260448D01*
X114218815Y-89160448D02*
X112518815Y-89160448D01*
X114218815Y-84460448D02*
X114218815Y-85410448D01*
X114218815Y-84460448D02*
X112518815Y-84460448D01*
D13*
X103518815Y-87560448D02*
X102518815Y-87560448D01*
X102518815Y-86560448D02*
X102518815Y-87560448D01*
X102518815Y-74560448D02*
X103518815Y-74560448D01*
X102518815Y-74560448D02*
X102518815Y-75560448D01*
D12*
X102018815Y-88110448D02*
X104018815Y-88110448D01*
X102018815Y-88110448D02*
X102018815Y-87160448D01*
X102018815Y-83410448D02*
X104018815Y-83410448D01*
X102018815Y-83410448D02*
X102018815Y-84360448D01*
D13*
%TO.C,C4R3*%
X172518815Y-106560447D02*
X172518815Y-105560447D01*
X172518815Y-106560447D02*
X171518815Y-106560447D01*
X172518815Y-94560447D02*
X172518815Y-93560447D01*
X171518815Y-93560447D02*
X172518815Y-93560447D01*
D12*
X171218815Y-108160447D02*
X171218815Y-107260447D01*
X171218815Y-108160447D02*
X169518815Y-108160447D01*
X171218815Y-103460447D02*
X171218815Y-104410447D01*
X171218815Y-103460447D02*
X169518815Y-103460447D01*
D13*
X160518815Y-106560447D02*
X159518815Y-106560447D01*
X159518815Y-105560447D02*
X159518815Y-106560447D01*
X159518815Y-93560447D02*
X160518815Y-93560447D01*
X159518815Y-93560447D02*
X159518815Y-94560447D01*
D12*
X159018815Y-107110447D02*
X161018815Y-107110447D01*
X159018815Y-107110447D02*
X159018815Y-106160447D01*
X159018815Y-102410447D02*
X161018815Y-102410447D01*
X159018815Y-102410447D02*
X159018815Y-103360447D01*
D13*
%TO.C,C1R1*%
X115518817Y-68560447D02*
X115518817Y-67560447D01*
X115518817Y-68560447D02*
X114518817Y-68560447D01*
X115518817Y-56560447D02*
X115518817Y-55560447D01*
X114518817Y-55560447D02*
X115518817Y-55560447D01*
D12*
X114218817Y-70160447D02*
X114218817Y-69260447D01*
X114218817Y-70160447D02*
X112518817Y-70160447D01*
X114218817Y-65460447D02*
X114218817Y-66410447D01*
X114218817Y-65460447D02*
X112518817Y-65460447D01*
D13*
X103518817Y-68560447D02*
X102518817Y-68560447D01*
X102518817Y-67560447D02*
X102518817Y-68560447D01*
X102518817Y-55560447D02*
X103518817Y-55560447D01*
X102518817Y-55560447D02*
X102518817Y-56560447D01*
D12*
X102018817Y-69110447D02*
X104018817Y-69110447D01*
X102018817Y-69110447D02*
X102018817Y-68160447D01*
X102018817Y-64410447D02*
X104018817Y-64410447D01*
X102018817Y-64410447D02*
X102018817Y-65360447D01*
D13*
%TO.C,C4R1*%
X172518815Y-68560447D02*
X172518815Y-67560447D01*
X172518815Y-68560447D02*
X171518815Y-68560447D01*
X172518815Y-56560447D02*
X172518815Y-55560447D01*
X171518815Y-55560447D02*
X172518815Y-55560447D01*
D12*
X171218815Y-70160447D02*
X171218815Y-69260447D01*
X171218815Y-70160447D02*
X169518815Y-70160447D01*
X171218815Y-65460447D02*
X171218815Y-66410447D01*
X171218815Y-65460447D02*
X169518815Y-65460447D01*
D13*
X160518815Y-68560447D02*
X159518815Y-68560447D01*
X159518815Y-67560447D02*
X159518815Y-68560447D01*
X159518815Y-55560447D02*
X160518815Y-55560447D01*
X159518815Y-55560447D02*
X159518815Y-56560447D01*
D12*
X159018815Y-69110447D02*
X161018815Y-69110447D01*
X159018815Y-69110447D02*
X159018815Y-68160447D01*
X159018815Y-64410447D02*
X161018815Y-64410447D01*
X159018815Y-64410447D02*
X159018815Y-65360447D01*
%TD*%
%LPC*%
D17*
%TO.C,*%
X181220000Y-113710000D03*
%TD*%
D18*
%TO.C,T4*%
X192333168Y-133954069D03*
X192333168Y-133954069D03*
D19*
X183037765Y-133010083D03*
D17*
X186010903Y-135170194D03*
X191056847Y-140134158D03*
D19*
X194029984Y-142294269D03*
%TD*%
D18*
%TO.C,T0*%
X109018816Y-119060449D03*
X109018816Y-119060449D03*
D20*
X100943816Y-123760449D03*
D17*
X104618816Y-123760449D03*
X111618816Y-124810449D03*
D20*
X115293816Y-124810449D03*
%TD*%
D18*
%TO.C,T2*%
X152244251Y-119573324D03*
X152244251Y-119573324D03*
D21*
X143934339Y-123844270D03*
D17*
X147604302Y-124036605D03*
X154539756Y-125451517D03*
D21*
X158209720Y-125643852D03*
%TD*%
D22*
%TO.C,U1*%
X203482449Y-120208323D03*
X200942449Y-120208323D03*
X195862449Y-102208323D03*
X193322449Y-102208323D03*
X190782449Y-102208323D03*
X188242449Y-102208323D03*
X188242449Y-120208323D03*
X190782449Y-120208323D03*
X193322449Y-120208323D03*
X195862449Y-120208323D03*
D23*
X201712449Y-109938323D03*
X201712449Y-112478323D03*
D24*
X198512449Y-106708323D03*
X198512449Y-115708323D03*
X195737449Y-106708323D03*
X195737449Y-115708323D03*
%TD*%
D17*
%TO.C,REF\u002A\u002A*%
X118494251Y-90563323D03*
%TD*%
%TO.C,*%
X119704251Y-116603323D03*
%TD*%
D18*
%TO.C,C5R2*%
X185018821Y-71443323D03*
X185018821Y-71443323D03*
D20*
X176943821Y-76143323D03*
D17*
X180618821Y-76143323D03*
X187618821Y-77193323D03*
D20*
X191293821Y-77193323D03*
%TD*%
D18*
%TO.C,T1*%
X130393816Y-119060448D03*
X130393816Y-119060448D03*
D20*
X122318816Y-123760448D03*
D17*
X125993816Y-123760448D03*
X132993816Y-124810448D03*
D20*
X136668816Y-124810448D03*
%TD*%
D17*
%TO.C,REF\u002A\u002A*%
X156494251Y-71553323D03*
%TD*%
D25*
%TO.C,J1*%
X202520000Y-87710000D03*
X198520000Y-87710000D03*
D26*
X200520000Y-87710000D03*
%TD*%
D18*
%TO.C,T3*%
X173398584Y-123880307D03*
X173398584Y-123880307D03*
D27*
X164203071Y-125535050D03*
D17*
X167656442Y-126791974D03*
X173875169Y-130172792D03*
D27*
X177328539Y-131429716D03*
%TD*%
D18*
%TO.C,C5R3*%
X185018821Y-90443323D03*
X185018821Y-90443323D03*
D20*
X176943821Y-95143323D03*
D17*
X180618821Y-95143323D03*
X187618821Y-96193323D03*
D20*
X191293821Y-96193323D03*
%TD*%
D17*
%TO.C,REF\u002A\u002A*%
X118494251Y-71553323D03*
%TD*%
%TO.C,REF\u002A\u002A*%
X156494251Y-90563323D03*
%TD*%
D18*
%TO.C,C3R1*%
X147018815Y-62060448D03*
X147018815Y-62060448D03*
D28*
X153293815Y-67810448D03*
D17*
X149618815Y-67810448D03*
X142618815Y-66760448D03*
D28*
X138943815Y-66760448D03*
%TD*%
D18*
%TO.C,C3R3*%
X147018816Y-100060447D03*
X147018816Y-100060447D03*
D28*
X153293816Y-105810447D03*
D17*
X149618816Y-105810447D03*
X142618816Y-104760447D03*
D28*
X138943816Y-104760447D03*
%TD*%
D18*
%TO.C,C2R3*%
X128018815Y-96060447D03*
X128018815Y-96060447D03*
D28*
X134293815Y-101810447D03*
D17*
X130618815Y-101810447D03*
X123618815Y-100760447D03*
D28*
X119943815Y-100760447D03*
%TD*%
D18*
%TO.C,C3R2*%
X147018815Y-81060448D03*
X147018815Y-81060448D03*
D28*
X153293815Y-86810448D03*
D17*
X149618815Y-86810448D03*
X142618815Y-85760448D03*
D28*
X138943815Y-85760448D03*
%TD*%
D18*
%TO.C,C0R2*%
X90018816Y-89060447D03*
X90018816Y-89060447D03*
D28*
X96293816Y-94810447D03*
D17*
X92618816Y-94810447D03*
X85618816Y-93760447D03*
D28*
X81943816Y-93760447D03*
%TD*%
D18*
%TO.C,C0R1*%
X90018816Y-70060448D03*
X90018816Y-70060448D03*
D28*
X96293816Y-75810448D03*
D17*
X92618816Y-75810448D03*
X85618816Y-74760448D03*
D28*
X81943816Y-74760448D03*
%TD*%
D18*
%TO.C,C0R3*%
X90018815Y-108060447D03*
X90018815Y-108060447D03*
D28*
X96293815Y-113810447D03*
D17*
X92618815Y-113810447D03*
X85618815Y-112760447D03*
D28*
X81943815Y-112760447D03*
%TD*%
D18*
%TO.C,C4R2*%
X166018816Y-81060447D03*
X166018816Y-81060447D03*
D28*
X172293816Y-86810447D03*
D17*
X168618816Y-86810447D03*
X161618816Y-85760447D03*
D28*
X157943816Y-85760447D03*
%TD*%
D18*
%TO.C,C1R3*%
X109018815Y-100060447D03*
X109018815Y-100060447D03*
D28*
X115293815Y-105810447D03*
D17*
X111618815Y-105810447D03*
X104618815Y-104760447D03*
D28*
X100943815Y-104760447D03*
%TD*%
D29*
%TO.C,SW3*%
X202120000Y-93160000D03*
D30*
X202120000Y-95660000D03*
X202120000Y-98160000D03*
X205420000Y-93160000D03*
X205420000Y-95660000D03*
X205420000Y-98160000D03*
%TD*%
D31*
%TO.C,SW2*%
X183490000Y-103220000D03*
X177190000Y-103220000D03*
X183490000Y-107020000D03*
X177190000Y-107020000D03*
%TD*%
D18*
%TO.C,C2R2*%
X128018815Y-77060447D03*
X128018815Y-77060447D03*
D28*
X134293815Y-82810447D03*
D17*
X130618815Y-82810447D03*
X123618815Y-81760447D03*
D28*
X119943815Y-81760447D03*
%TD*%
D18*
%TO.C,C2R1*%
X128018815Y-58060447D03*
X128018815Y-58060447D03*
D28*
X134293815Y-63810447D03*
D17*
X130618815Y-63810447D03*
X123618815Y-62760447D03*
D28*
X119943815Y-62760447D03*
%TD*%
D18*
%TO.C,C1R2*%
X109018815Y-81060448D03*
X109018815Y-81060448D03*
D28*
X115293815Y-86810448D03*
D17*
X111618815Y-86810448D03*
X104618815Y-85760448D03*
D28*
X100943815Y-85760448D03*
%TD*%
D18*
%TO.C,C4R3*%
X166018815Y-100060447D03*
X166018815Y-100060447D03*
D28*
X172293815Y-105810447D03*
D17*
X168618815Y-105810447D03*
X161618815Y-104760447D03*
D28*
X157943815Y-104760447D03*
%TD*%
D18*
%TO.C,C1R1*%
X109018817Y-62060447D03*
X109018817Y-62060447D03*
D28*
X115293817Y-67810447D03*
D17*
X111618817Y-67810447D03*
X104618817Y-66760447D03*
D28*
X100943817Y-66760447D03*
%TD*%
D18*
%TO.C,C4R1*%
X166018815Y-62060447D03*
X166018815Y-62060447D03*
D28*
X172293815Y-67810447D03*
D17*
X168618815Y-67810447D03*
X161618815Y-66760447D03*
D28*
X157943815Y-66760447D03*
%TD*%
%LPD*%
M02*
