%TF.GenerationSoftware,KiCad,Pcbnew,7.0.2-0*%
%TF.CreationDate,2024-02-20T01:11:18+01:00*%
%TF.ProjectId,defiant,64656669-616e-4742-9e6b-696361645f70,v0.1*%
%TF.SameCoordinates,Original*%
%TF.FileFunction,Legend,Bot*%
%TF.FilePolarity,Positive*%
%FSLAX46Y46*%
G04 Gerber Fmt 4.6, Leading zero omitted, Abs format (unit mm)*
G04 Created by KiCad (PCBNEW 7.0.2-0) date 2024-02-20 01:11:18*
%MOMM*%
%LPD*%
G01*
G04 APERTURE LIST*
G04 Aperture macros list*
%AMRoundRect*
0 Rectangle with rounded corners*
0 $1 Rounding radius*
0 $2 $3 $4 $5 $6 $7 $8 $9 X,Y pos of 4 corners*
0 Add a 4 corners polygon primitive as box body*
4,1,4,$2,$3,$4,$5,$6,$7,$8,$9,$2,$3,0*
0 Add four circle primitives for the rounded corners*
1,1,$1+$1,$2,$3*
1,1,$1+$1,$4,$5*
1,1,$1+$1,$6,$7*
1,1,$1+$1,$8,$9*
0 Add four rect primitives between the rounded corners*
20,1,$1+$1,$2,$3,$4,$5,0*
20,1,$1+$1,$4,$5,$6,$7,0*
20,1,$1+$1,$6,$7,$8,$9,0*
20,1,$1+$1,$8,$9,$2,$3,0*%
G04 Aperture macros list end*
%ADD10C,0.150000*%
%ADD11C,0.120000*%
%ADD12C,0.140000*%
%ADD13C,0.127000*%
%ADD14C,0.254000*%
%ADD15C,0.025400*%
%ADD16C,5.250000*%
%ADD17RoundRect,0.500000X-0.750000X-0.775000X0.750000X-0.775000X0.750000X0.775000X-0.750000X0.775000X0*%
%ADD18C,4.000000*%
%ADD19RoundRect,0.500000X-0.789533X-0.734686X0.708412X-0.813190X0.789533X0.734686X-0.708412X0.813190X0*%
%ADD20R,2.000000X3.000000*%
%ADD21C,2.000000*%
%ADD22RoundRect,0.575000X0.575000X-1.225000X0.575000X1.225000X-0.575000X1.225000X-0.575000X-1.225000X0*%
%ADD23RoundRect,0.500000X-1.062296X-0.186149X0.151229X-1.067827X1.062296X0.186149X-0.151229X1.067827X0*%
%ADD24RoundRect,0.381000X0.381000X0.381000X-0.381000X0.381000X-0.381000X-0.381000X0.381000X-0.381000X0*%
%ADD25C,1.524000*%
%ADD26RoundRect,0.500000X-0.969835X-0.471747X0.439704X-0.984777X0.969835X0.471747X-0.439704X0.984777X0*%
%ADD27RoundRect,0.500000X0.750000X0.775000X-0.750000X0.775000X-0.750000X-0.775000X0.750000X-0.775000X0*%
%ADD28R,1.400000X1.400000*%
%ADD29C,1.400000*%
%ADD30R,1.700000X1.000000*%
G04 APERTURE END LIST*
D10*
X133045815Y-109264985D02*
X133045815Y-108514985D01*
X133045815Y-108800699D02*
X132974387Y-108764985D01*
X132974387Y-108764985D02*
X132831529Y-108764985D01*
X132831529Y-108764985D02*
X132760101Y-108800699D01*
X132760101Y-108800699D02*
X132724387Y-108836413D01*
X132724387Y-108836413D02*
X132688672Y-108907842D01*
X132688672Y-108907842D02*
X132688672Y-109122128D01*
X132688672Y-109122128D02*
X132724387Y-109193556D01*
X132724387Y-109193556D02*
X132760101Y-109229271D01*
X132760101Y-109229271D02*
X132831529Y-109264985D01*
X132831529Y-109264985D02*
X132974387Y-109264985D01*
X132974387Y-109264985D02*
X133045815Y-109229271D01*
X132438673Y-108764985D02*
X132260101Y-109264985D01*
X132081530Y-108764985D02*
X132260101Y-109264985D01*
X132260101Y-109264985D02*
X132331530Y-109443556D01*
X132331530Y-109443556D02*
X132367244Y-109479271D01*
X132367244Y-109479271D02*
X132438673Y-109514985D01*
X131260100Y-109050699D02*
X130902958Y-109050699D01*
X131331529Y-109264985D02*
X131081529Y-108514985D01*
X131081529Y-108514985D02*
X130831529Y-109264985D01*
X130581529Y-108764985D02*
X130581529Y-109264985D01*
X130581529Y-108836413D02*
X130545815Y-108800699D01*
X130545815Y-108800699D02*
X130474386Y-108764985D01*
X130474386Y-108764985D02*
X130367243Y-108764985D01*
X130367243Y-108764985D02*
X130295815Y-108800699D01*
X130295815Y-108800699D02*
X130260101Y-108872128D01*
X130260101Y-108872128D02*
X130260101Y-109264985D01*
X130010101Y-108764985D02*
X129724387Y-108764985D01*
X129902958Y-108514985D02*
X129902958Y-109157842D01*
X129902958Y-109157842D02*
X129867244Y-109229271D01*
X129867244Y-109229271D02*
X129795815Y-109264985D01*
X129795815Y-109264985D02*
X129724387Y-109264985D01*
X129367244Y-109264985D02*
X129438673Y-109229271D01*
X129438673Y-109229271D02*
X129474387Y-109193556D01*
X129474387Y-109193556D02*
X129510101Y-109122128D01*
X129510101Y-109122128D02*
X129510101Y-108907842D01*
X129510101Y-108907842D02*
X129474387Y-108836413D01*
X129474387Y-108836413D02*
X129438673Y-108800699D01*
X129438673Y-108800699D02*
X129367244Y-108764985D01*
X129367244Y-108764985D02*
X129260101Y-108764985D01*
X129260101Y-108764985D02*
X129188673Y-108800699D01*
X129188673Y-108800699D02*
X129152959Y-108836413D01*
X129152959Y-108836413D02*
X129117244Y-108907842D01*
X129117244Y-108907842D02*
X129117244Y-109122128D01*
X129117244Y-109122128D02*
X129152959Y-109193556D01*
X129152959Y-109193556D02*
X129188673Y-109229271D01*
X129188673Y-109229271D02*
X129260101Y-109264985D01*
X129260101Y-109264985D02*
X129367244Y-109264985D01*
X128795816Y-108764985D02*
X128795816Y-109264985D01*
X128795816Y-108836413D02*
X128760102Y-108800699D01*
X128760102Y-108800699D02*
X128688673Y-108764985D01*
X128688673Y-108764985D02*
X128581530Y-108764985D01*
X128581530Y-108764985D02*
X128510102Y-108800699D01*
X128510102Y-108800699D02*
X128474388Y-108872128D01*
X128474388Y-108872128D02*
X128474388Y-109264985D01*
X128117245Y-109264985D02*
X128117245Y-108764985D01*
X128117245Y-108514985D02*
X128152959Y-108550699D01*
X128152959Y-108550699D02*
X128117245Y-108586413D01*
X128117245Y-108586413D02*
X128081531Y-108550699D01*
X128081531Y-108550699D02*
X128117245Y-108514985D01*
X128117245Y-108514985D02*
X128117245Y-108586413D01*
X127438674Y-108764985D02*
X127438674Y-109264985D01*
X127760102Y-108764985D02*
X127760102Y-109157842D01*
X127760102Y-109157842D02*
X127724388Y-109229271D01*
X127724388Y-109229271D02*
X127652959Y-109264985D01*
X127652959Y-109264985D02*
X127545816Y-109264985D01*
X127545816Y-109264985D02*
X127474388Y-109229271D01*
X127474388Y-109229271D02*
X127438674Y-109193556D01*
X127117245Y-109229271D02*
X127045817Y-109264985D01*
X127045817Y-109264985D02*
X126902960Y-109264985D01*
X126902960Y-109264985D02*
X126831531Y-109229271D01*
X126831531Y-109229271D02*
X126795817Y-109157842D01*
X126795817Y-109157842D02*
X126795817Y-109122128D01*
X126795817Y-109122128D02*
X126831531Y-109050699D01*
X126831531Y-109050699D02*
X126902960Y-109014985D01*
X126902960Y-109014985D02*
X127010103Y-109014985D01*
X127010103Y-109014985D02*
X127081531Y-108979271D01*
X127081531Y-108979271D02*
X127117245Y-108907842D01*
X127117245Y-108907842D02*
X127117245Y-108872128D01*
X127117245Y-108872128D02*
X127081531Y-108800699D01*
X127081531Y-108800699D02*
X127010103Y-108764985D01*
X127010103Y-108764985D02*
X126902960Y-108764985D01*
X126902960Y-108764985D02*
X126831531Y-108800699D01*
X125902959Y-109264985D02*
X125902959Y-108514985D01*
X125902959Y-108514985D02*
X125474388Y-109264985D01*
X125474388Y-109264985D02*
X125474388Y-108514985D01*
X124795817Y-109264985D02*
X124795817Y-108872128D01*
X124795817Y-108872128D02*
X124831531Y-108800699D01*
X124831531Y-108800699D02*
X124902959Y-108764985D01*
X124902959Y-108764985D02*
X125045817Y-108764985D01*
X125045817Y-108764985D02*
X125117245Y-108800699D01*
X124795817Y-109229271D02*
X124867245Y-109264985D01*
X124867245Y-109264985D02*
X125045817Y-109264985D01*
X125045817Y-109264985D02*
X125117245Y-109229271D01*
X125117245Y-109229271D02*
X125152959Y-109157842D01*
X125152959Y-109157842D02*
X125152959Y-109086413D01*
X125152959Y-109086413D02*
X125117245Y-109014985D01*
X125117245Y-109014985D02*
X125045817Y-108979271D01*
X125045817Y-108979271D02*
X124867245Y-108979271D01*
X124867245Y-108979271D02*
X124795817Y-108943556D01*
X124117246Y-108764985D02*
X124117246Y-109264985D01*
X124438674Y-108764985D02*
X124438674Y-109157842D01*
X124438674Y-109157842D02*
X124402960Y-109229271D01*
X124402960Y-109229271D02*
X124331531Y-109264985D01*
X124331531Y-109264985D02*
X124224388Y-109264985D01*
X124224388Y-109264985D02*
X124152960Y-109229271D01*
X124152960Y-109229271D02*
X124117246Y-109193556D01*
X123760103Y-109264985D02*
X123760103Y-108764985D01*
X123760103Y-108836413D02*
X123724389Y-108800699D01*
X123724389Y-108800699D02*
X123652960Y-108764985D01*
X123652960Y-108764985D02*
X123545817Y-108764985D01*
X123545817Y-108764985D02*
X123474389Y-108800699D01*
X123474389Y-108800699D02*
X123438675Y-108872128D01*
X123438675Y-108872128D02*
X123438675Y-109264985D01*
X123438675Y-108872128D02*
X123402960Y-108800699D01*
X123402960Y-108800699D02*
X123331532Y-108764985D01*
X123331532Y-108764985D02*
X123224389Y-108764985D01*
X123224389Y-108764985D02*
X123152960Y-108800699D01*
X123152960Y-108800699D02*
X123117246Y-108872128D01*
X123117246Y-108872128D02*
X123117246Y-109264985D01*
X122438675Y-109264985D02*
X122438675Y-108872128D01*
X122438675Y-108872128D02*
X122474389Y-108800699D01*
X122474389Y-108800699D02*
X122545817Y-108764985D01*
X122545817Y-108764985D02*
X122688675Y-108764985D01*
X122688675Y-108764985D02*
X122760103Y-108800699D01*
X122438675Y-109229271D02*
X122510103Y-109264985D01*
X122510103Y-109264985D02*
X122688675Y-109264985D01*
X122688675Y-109264985D02*
X122760103Y-109229271D01*
X122760103Y-109229271D02*
X122795817Y-109157842D01*
X122795817Y-109157842D02*
X122795817Y-109086413D01*
X122795817Y-109086413D02*
X122760103Y-109014985D01*
X122760103Y-109014985D02*
X122688675Y-108979271D01*
X122688675Y-108979271D02*
X122510103Y-108979271D01*
X122510103Y-108979271D02*
X122438675Y-108943556D01*
X122081532Y-108764985D02*
X122081532Y-109264985D01*
X122081532Y-108836413D02*
X122045818Y-108800699D01*
X122045818Y-108800699D02*
X121974389Y-108764985D01*
X121974389Y-108764985D02*
X121867246Y-108764985D01*
X121867246Y-108764985D02*
X121795818Y-108800699D01*
X121795818Y-108800699D02*
X121760104Y-108872128D01*
X121760104Y-108872128D02*
X121760104Y-109264985D01*
X121402961Y-108764985D02*
X121402961Y-109264985D01*
X121402961Y-108836413D02*
X121367247Y-108800699D01*
X121367247Y-108800699D02*
X121295818Y-108764985D01*
X121295818Y-108764985D02*
X121188675Y-108764985D01*
X121188675Y-108764985D02*
X121117247Y-108800699D01*
X121117247Y-108800699D02*
X121081533Y-108872128D01*
X121081533Y-108872128D02*
X121081533Y-109264985D01*
X133049391Y-111664984D02*
X133049391Y-110914984D01*
X133049391Y-110914984D02*
X132799391Y-111450698D01*
X132799391Y-111450698D02*
X132549391Y-110914984D01*
X132549391Y-110914984D02*
X132549391Y-111664984D01*
X132192248Y-111664984D02*
X132192248Y-111164984D01*
X132192248Y-110914984D02*
X132227962Y-110950698D01*
X132227962Y-110950698D02*
X132192248Y-110986412D01*
X132192248Y-110986412D02*
X132156534Y-110950698D01*
X132156534Y-110950698D02*
X132192248Y-110914984D01*
X132192248Y-110914984D02*
X132192248Y-110986412D01*
X131835105Y-111664984D02*
X131835105Y-110914984D01*
X131763677Y-111379270D02*
X131549391Y-111664984D01*
X131549391Y-111164984D02*
X131835105Y-111450698D01*
X130656533Y-111664984D02*
X130656533Y-110914984D01*
X130656533Y-110914984D02*
X130406533Y-111450698D01*
X130406533Y-111450698D02*
X130156533Y-110914984D01*
X130156533Y-110914984D02*
X130156533Y-111664984D01*
X129477962Y-111164984D02*
X129477962Y-111664984D01*
X129799390Y-111164984D02*
X129799390Y-111557841D01*
X129799390Y-111557841D02*
X129763676Y-111629270D01*
X129763676Y-111629270D02*
X129692247Y-111664984D01*
X129692247Y-111664984D02*
X129585104Y-111664984D01*
X129585104Y-111664984D02*
X129513676Y-111629270D01*
X129513676Y-111629270D02*
X129477962Y-111593555D01*
X129763676Y-110914984D02*
X129727962Y-110950698D01*
X129727962Y-110950698D02*
X129763676Y-110986412D01*
X129763676Y-110986412D02*
X129799390Y-110950698D01*
X129799390Y-110950698D02*
X129763676Y-110914984D01*
X129763676Y-110914984D02*
X129763676Y-110986412D01*
X129477962Y-110914984D02*
X129442247Y-110950698D01*
X129442247Y-110950698D02*
X129477962Y-110986412D01*
X129477962Y-110986412D02*
X129513676Y-110950698D01*
X129513676Y-110950698D02*
X129477962Y-110914984D01*
X129477962Y-110914984D02*
X129477962Y-110986412D01*
X129013676Y-111664984D02*
X129085105Y-111629270D01*
X129085105Y-111629270D02*
X129120819Y-111557841D01*
X129120819Y-111557841D02*
X129120819Y-110914984D01*
X128620819Y-111664984D02*
X128692248Y-111629270D01*
X128692248Y-111629270D02*
X128727962Y-111557841D01*
X128727962Y-111557841D02*
X128727962Y-110914984D01*
X128049391Y-111629270D02*
X128120819Y-111664984D01*
X128120819Y-111664984D02*
X128263677Y-111664984D01*
X128263677Y-111664984D02*
X128335105Y-111629270D01*
X128335105Y-111629270D02*
X128370819Y-111557841D01*
X128370819Y-111557841D02*
X128370819Y-111272127D01*
X128370819Y-111272127D02*
X128335105Y-111200698D01*
X128335105Y-111200698D02*
X128263677Y-111164984D01*
X128263677Y-111164984D02*
X128120819Y-111164984D01*
X128120819Y-111164984D02*
X128049391Y-111200698D01*
X128049391Y-111200698D02*
X128013677Y-111272127D01*
X128013677Y-111272127D02*
X128013677Y-111343555D01*
X128013677Y-111343555D02*
X128370819Y-111414984D01*
X127692248Y-111664984D02*
X127692248Y-111164984D01*
X127692248Y-111307841D02*
X127656534Y-111236412D01*
X127656534Y-111236412D02*
X127620820Y-111200698D01*
X127620820Y-111200698D02*
X127549391Y-111164984D01*
X127549391Y-111164984D02*
X127477962Y-111164984D01*
X126692247Y-111629270D02*
X126585105Y-111664984D01*
X126585105Y-111664984D02*
X126406533Y-111664984D01*
X126406533Y-111664984D02*
X126335105Y-111629270D01*
X126335105Y-111629270D02*
X126299390Y-111593555D01*
X126299390Y-111593555D02*
X126263676Y-111522127D01*
X126263676Y-111522127D02*
X126263676Y-111450698D01*
X126263676Y-111450698D02*
X126299390Y-111379270D01*
X126299390Y-111379270D02*
X126335105Y-111343555D01*
X126335105Y-111343555D02*
X126406533Y-111307841D01*
X126406533Y-111307841D02*
X126549390Y-111272127D01*
X126549390Y-111272127D02*
X126620819Y-111236412D01*
X126620819Y-111236412D02*
X126656533Y-111200698D01*
X126656533Y-111200698D02*
X126692247Y-111129270D01*
X126692247Y-111129270D02*
X126692247Y-111057841D01*
X126692247Y-111057841D02*
X126656533Y-110986412D01*
X126656533Y-110986412D02*
X126620819Y-110950698D01*
X126620819Y-110950698D02*
X126549390Y-110914984D01*
X126549390Y-110914984D02*
X126370819Y-110914984D01*
X126370819Y-110914984D02*
X126263676Y-110950698D01*
X125942247Y-111164984D02*
X125942247Y-111914984D01*
X125942247Y-111200698D02*
X125870819Y-111164984D01*
X125870819Y-111164984D02*
X125727961Y-111164984D01*
X125727961Y-111164984D02*
X125656533Y-111200698D01*
X125656533Y-111200698D02*
X125620819Y-111236412D01*
X125620819Y-111236412D02*
X125585104Y-111307841D01*
X125585104Y-111307841D02*
X125585104Y-111522127D01*
X125585104Y-111522127D02*
X125620819Y-111593555D01*
X125620819Y-111593555D02*
X125656533Y-111629270D01*
X125656533Y-111629270D02*
X125727961Y-111664984D01*
X125727961Y-111664984D02*
X125870819Y-111664984D01*
X125870819Y-111664984D02*
X125942247Y-111629270D01*
X124977962Y-111629270D02*
X125049390Y-111664984D01*
X125049390Y-111664984D02*
X125192248Y-111664984D01*
X125192248Y-111664984D02*
X125263676Y-111629270D01*
X125263676Y-111629270D02*
X125299390Y-111557841D01*
X125299390Y-111557841D02*
X125299390Y-111272127D01*
X125299390Y-111272127D02*
X125263676Y-111200698D01*
X125263676Y-111200698D02*
X125192248Y-111164984D01*
X125192248Y-111164984D02*
X125049390Y-111164984D01*
X125049390Y-111164984D02*
X124977962Y-111200698D01*
X124977962Y-111200698D02*
X124942248Y-111272127D01*
X124942248Y-111272127D02*
X124942248Y-111343555D01*
X124942248Y-111343555D02*
X125299390Y-111414984D01*
X124299391Y-111629270D02*
X124370819Y-111664984D01*
X124370819Y-111664984D02*
X124513676Y-111664984D01*
X124513676Y-111664984D02*
X124585105Y-111629270D01*
X124585105Y-111629270D02*
X124620819Y-111593555D01*
X124620819Y-111593555D02*
X124656533Y-111522127D01*
X124656533Y-111522127D02*
X124656533Y-111307841D01*
X124656533Y-111307841D02*
X124620819Y-111236412D01*
X124620819Y-111236412D02*
X124585105Y-111200698D01*
X124585105Y-111200698D02*
X124513676Y-111164984D01*
X124513676Y-111164984D02*
X124370819Y-111164984D01*
X124370819Y-111164984D02*
X124299391Y-111200698D01*
X123977962Y-111664984D02*
X123977962Y-111164984D01*
X123977962Y-110914984D02*
X124013676Y-110950698D01*
X124013676Y-110950698D02*
X123977962Y-110986412D01*
X123977962Y-110986412D02*
X123942248Y-110950698D01*
X123942248Y-110950698D02*
X123977962Y-110914984D01*
X123977962Y-110914984D02*
X123977962Y-110986412D01*
X123299391Y-111664984D02*
X123299391Y-111272127D01*
X123299391Y-111272127D02*
X123335105Y-111200698D01*
X123335105Y-111200698D02*
X123406533Y-111164984D01*
X123406533Y-111164984D02*
X123549391Y-111164984D01*
X123549391Y-111164984D02*
X123620819Y-111200698D01*
X123299391Y-111629270D02*
X123370819Y-111664984D01*
X123370819Y-111664984D02*
X123549391Y-111664984D01*
X123549391Y-111664984D02*
X123620819Y-111629270D01*
X123620819Y-111629270D02*
X123656533Y-111557841D01*
X123656533Y-111557841D02*
X123656533Y-111486412D01*
X123656533Y-111486412D02*
X123620819Y-111414984D01*
X123620819Y-111414984D02*
X123549391Y-111379270D01*
X123549391Y-111379270D02*
X123370819Y-111379270D01*
X123370819Y-111379270D02*
X123299391Y-111343555D01*
X122835105Y-111664984D02*
X122906534Y-111629270D01*
X122906534Y-111629270D02*
X122942248Y-111557841D01*
X122942248Y-111557841D02*
X122942248Y-110914984D01*
X121977962Y-111272127D02*
X121727962Y-111272127D01*
X121620819Y-111664984D02*
X121977962Y-111664984D01*
X121977962Y-111664984D02*
X121977962Y-110914984D01*
X121977962Y-110914984D02*
X121620819Y-110914984D01*
X120977963Y-111664984D02*
X120977963Y-110914984D01*
X120977963Y-111629270D02*
X121049391Y-111664984D01*
X121049391Y-111664984D02*
X121192248Y-111664984D01*
X121192248Y-111664984D02*
X121263677Y-111629270D01*
X121263677Y-111629270D02*
X121299391Y-111593555D01*
X121299391Y-111593555D02*
X121335105Y-111522127D01*
X121335105Y-111522127D02*
X121335105Y-111307841D01*
X121335105Y-111307841D02*
X121299391Y-111236412D01*
X121299391Y-111236412D02*
X121263677Y-111200698D01*
X121263677Y-111200698D02*
X121192248Y-111164984D01*
X121192248Y-111164984D02*
X121049391Y-111164984D01*
X121049391Y-111164984D02*
X120977963Y-111200698D01*
X120620820Y-111664984D02*
X120620820Y-111164984D01*
X120620820Y-110914984D02*
X120656534Y-110950698D01*
X120656534Y-110950698D02*
X120620820Y-110986412D01*
X120620820Y-110986412D02*
X120585106Y-110950698D01*
X120585106Y-110950698D02*
X120620820Y-110914984D01*
X120620820Y-110914984D02*
X120620820Y-110986412D01*
X120370820Y-111164984D02*
X120085106Y-111164984D01*
X120263677Y-110914984D02*
X120263677Y-111557841D01*
X120263677Y-111557841D02*
X120227963Y-111629270D01*
X120227963Y-111629270D02*
X120156534Y-111664984D01*
X120156534Y-111664984D02*
X120085106Y-111664984D01*
X119835106Y-111664984D02*
X119835106Y-111164984D01*
X119835106Y-110914984D02*
X119870820Y-110950698D01*
X119870820Y-110950698D02*
X119835106Y-110986412D01*
X119835106Y-110986412D02*
X119799392Y-110950698D01*
X119799392Y-110950698D02*
X119835106Y-110914984D01*
X119835106Y-110914984D02*
X119835106Y-110986412D01*
X119370820Y-111664984D02*
X119442249Y-111629270D01*
X119442249Y-111629270D02*
X119477963Y-111593555D01*
X119477963Y-111593555D02*
X119513677Y-111522127D01*
X119513677Y-111522127D02*
X119513677Y-111307841D01*
X119513677Y-111307841D02*
X119477963Y-111236412D01*
X119477963Y-111236412D02*
X119442249Y-111200698D01*
X119442249Y-111200698D02*
X119370820Y-111164984D01*
X119370820Y-111164984D02*
X119263677Y-111164984D01*
X119263677Y-111164984D02*
X119192249Y-111200698D01*
X119192249Y-111200698D02*
X119156535Y-111236412D01*
X119156535Y-111236412D02*
X119120820Y-111307841D01*
X119120820Y-111307841D02*
X119120820Y-111522127D01*
X119120820Y-111522127D02*
X119156535Y-111593555D01*
X119156535Y-111593555D02*
X119192249Y-111629270D01*
X119192249Y-111629270D02*
X119263677Y-111664984D01*
X119263677Y-111664984D02*
X119370820Y-111664984D01*
X118799392Y-111164984D02*
X118799392Y-111664984D01*
X118799392Y-111236412D02*
X118763678Y-111200698D01*
X118763678Y-111200698D02*
X118692249Y-111164984D01*
X118692249Y-111164984D02*
X118585106Y-111164984D01*
X118585106Y-111164984D02*
X118513678Y-111200698D01*
X118513678Y-111200698D02*
X118477964Y-111272127D01*
X118477964Y-111272127D02*
X118477964Y-111664984D01*
X131736292Y-107834389D02*
X131736292Y-106834389D01*
X131736292Y-106834389D02*
X131498197Y-106834389D01*
X131498197Y-106834389D02*
X131355340Y-106882008D01*
X131355340Y-106882008D02*
X131260102Y-106977246D01*
X131260102Y-106977246D02*
X131212483Y-107072484D01*
X131212483Y-107072484D02*
X131164864Y-107262960D01*
X131164864Y-107262960D02*
X131164864Y-107405817D01*
X131164864Y-107405817D02*
X131212483Y-107596293D01*
X131212483Y-107596293D02*
X131260102Y-107691531D01*
X131260102Y-107691531D02*
X131355340Y-107786770D01*
X131355340Y-107786770D02*
X131498197Y-107834389D01*
X131498197Y-107834389D02*
X131736292Y-107834389D01*
X130355340Y-107786770D02*
X130450578Y-107834389D01*
X130450578Y-107834389D02*
X130641054Y-107834389D01*
X130641054Y-107834389D02*
X130736292Y-107786770D01*
X130736292Y-107786770D02*
X130783911Y-107691531D01*
X130783911Y-107691531D02*
X130783911Y-107310579D01*
X130783911Y-107310579D02*
X130736292Y-107215341D01*
X130736292Y-107215341D02*
X130641054Y-107167722D01*
X130641054Y-107167722D02*
X130450578Y-107167722D01*
X130450578Y-107167722D02*
X130355340Y-107215341D01*
X130355340Y-107215341D02*
X130307721Y-107310579D01*
X130307721Y-107310579D02*
X130307721Y-107405817D01*
X130307721Y-107405817D02*
X130783911Y-107501055D01*
X130022006Y-107167722D02*
X129641054Y-107167722D01*
X129879149Y-107834389D02*
X129879149Y-106977246D01*
X129879149Y-106977246D02*
X129831530Y-106882008D01*
X129831530Y-106882008D02*
X129736292Y-106834389D01*
X129736292Y-106834389D02*
X129641054Y-106834389D01*
X129307720Y-107834389D02*
X129307720Y-107167722D01*
X129307720Y-106834389D02*
X129355339Y-106882008D01*
X129355339Y-106882008D02*
X129307720Y-106929627D01*
X129307720Y-106929627D02*
X129260101Y-106882008D01*
X129260101Y-106882008D02*
X129307720Y-106834389D01*
X129307720Y-106834389D02*
X129307720Y-106929627D01*
X128402959Y-107834389D02*
X128402959Y-107310579D01*
X128402959Y-107310579D02*
X128450578Y-107215341D01*
X128450578Y-107215341D02*
X128545816Y-107167722D01*
X128545816Y-107167722D02*
X128736292Y-107167722D01*
X128736292Y-107167722D02*
X128831530Y-107215341D01*
X128402959Y-107786770D02*
X128498197Y-107834389D01*
X128498197Y-107834389D02*
X128736292Y-107834389D01*
X128736292Y-107834389D02*
X128831530Y-107786770D01*
X128831530Y-107786770D02*
X128879149Y-107691531D01*
X128879149Y-107691531D02*
X128879149Y-107596293D01*
X128879149Y-107596293D02*
X128831530Y-107501055D01*
X128831530Y-107501055D02*
X128736292Y-107453436D01*
X128736292Y-107453436D02*
X128498197Y-107453436D01*
X128498197Y-107453436D02*
X128402959Y-107405817D01*
X127926768Y-107167722D02*
X127926768Y-107834389D01*
X127926768Y-107262960D02*
X127879149Y-107215341D01*
X127879149Y-107215341D02*
X127783911Y-107167722D01*
X127783911Y-107167722D02*
X127641054Y-107167722D01*
X127641054Y-107167722D02*
X127545816Y-107215341D01*
X127545816Y-107215341D02*
X127498197Y-107310579D01*
X127498197Y-107310579D02*
X127498197Y-107834389D01*
X127164863Y-107167722D02*
X126783911Y-107167722D01*
X127022006Y-106834389D02*
X127022006Y-107691531D01*
X127022006Y-107691531D02*
X126974387Y-107786770D01*
X126974387Y-107786770D02*
X126879149Y-107834389D01*
X126879149Y-107834389D02*
X126783911Y-107834389D01*
X125783910Y-107167722D02*
X125545815Y-107834389D01*
X125545815Y-107834389D02*
X125307720Y-107167722D01*
X124736291Y-106834389D02*
X124641053Y-106834389D01*
X124641053Y-106834389D02*
X124545815Y-106882008D01*
X124545815Y-106882008D02*
X124498196Y-106929627D01*
X124498196Y-106929627D02*
X124450577Y-107024865D01*
X124450577Y-107024865D02*
X124402958Y-107215341D01*
X124402958Y-107215341D02*
X124402958Y-107453436D01*
X124402958Y-107453436D02*
X124450577Y-107643912D01*
X124450577Y-107643912D02*
X124498196Y-107739150D01*
X124498196Y-107739150D02*
X124545815Y-107786770D01*
X124545815Y-107786770D02*
X124641053Y-107834389D01*
X124641053Y-107834389D02*
X124736291Y-107834389D01*
X124736291Y-107834389D02*
X124831529Y-107786770D01*
X124831529Y-107786770D02*
X124879148Y-107739150D01*
X124879148Y-107739150D02*
X124926767Y-107643912D01*
X124926767Y-107643912D02*
X124974386Y-107453436D01*
X124974386Y-107453436D02*
X124974386Y-107215341D01*
X124974386Y-107215341D02*
X124926767Y-107024865D01*
X124926767Y-107024865D02*
X124879148Y-106929627D01*
X124879148Y-106929627D02*
X124831529Y-106882008D01*
X124831529Y-106882008D02*
X124736291Y-106834389D01*
X123974386Y-107739150D02*
X123926767Y-107786770D01*
X123926767Y-107786770D02*
X123974386Y-107834389D01*
X123974386Y-107834389D02*
X124022005Y-107786770D01*
X124022005Y-107786770D02*
X123974386Y-107739150D01*
X123974386Y-107739150D02*
X123974386Y-107834389D01*
X122974387Y-107834389D02*
X123545815Y-107834389D01*
X123260101Y-107834389D02*
X123260101Y-106834389D01*
X123260101Y-106834389D02*
X123355339Y-106977246D01*
X123355339Y-106977246D02*
X123450577Y-107072484D01*
X123450577Y-107072484D02*
X123545815Y-107120103D01*
D11*
%TO.C,T0*%
X101176779Y-122107219D02*
X101176779Y-123057219D01*
X101176779Y-122107219D02*
X103176779Y-122107219D01*
X101176779Y-126807219D02*
X101176779Y-125857219D01*
X101176779Y-126807219D02*
X103176779Y-126807219D01*
D12*
X101676779Y-113257219D02*
X101676779Y-114257219D01*
X101676779Y-113257219D02*
X102676779Y-113257219D01*
X101676779Y-125257219D02*
X101676779Y-126257219D01*
X102676779Y-126257219D02*
X101676779Y-126257219D01*
D11*
X113376779Y-123157219D02*
X111676779Y-123157219D01*
X113376779Y-123157219D02*
X113376779Y-124107219D01*
X113376779Y-127857219D02*
X111676779Y-127857219D01*
X113376779Y-127857219D02*
X113376779Y-126957219D01*
D12*
X113676779Y-113257219D02*
X114676779Y-113257219D01*
X114676779Y-114257219D02*
X114676779Y-113257219D01*
X114676779Y-126257219D02*
X113676779Y-126257219D01*
X114676779Y-126257219D02*
X114676779Y-125257219D01*
D11*
%TO.C,T2*%
X144288818Y-122250522D02*
X144239099Y-123199220D01*
X144288818Y-122250522D02*
X146286077Y-122355194D01*
X144042839Y-126944081D02*
X144092558Y-125995382D01*
X144042839Y-126944081D02*
X146040098Y-127048752D01*
D12*
X145251306Y-113438818D02*
X145198970Y-114437448D01*
X145251306Y-113438818D02*
X146249935Y-113491154D01*
X144623274Y-125422373D02*
X144570938Y-126421002D01*
X145569568Y-126473338D02*
X144570938Y-126421002D01*
D11*
X156417145Y-123937581D02*
X154719475Y-123848610D01*
X156417145Y-123937581D02*
X156367426Y-124886279D01*
X156171166Y-128631140D02*
X154473496Y-128542169D01*
X156171166Y-128631140D02*
X156218269Y-127732374D01*
D12*
X157234860Y-114066850D02*
X158233490Y-114119186D01*
X158181154Y-115117815D02*
X158233490Y-114119186D01*
X157553122Y-127101370D02*
X156554493Y-127049034D01*
X157553122Y-127101370D02*
X157605458Y-126102740D01*
D13*
%TO.C,U1*%
X186520412Y-103005093D02*
X203520412Y-103005093D01*
X205519502Y-105005093D02*
X205519502Y-118805093D01*
X206944442Y-107405093D02*
X199591142Y-107405093D01*
X199591142Y-107405093D02*
X199591142Y-116405093D01*
X199591142Y-107405093D02*
X199591142Y-116405093D01*
X206944442Y-116405093D02*
X206944442Y-107405093D01*
X199591142Y-116405093D02*
X206944442Y-116405093D01*
X184520412Y-118805093D02*
X184520412Y-105005093D01*
X203520412Y-120805093D02*
X186520412Y-120805093D01*
D11*
X205520411Y-105005093D02*
G75*
G03*
X203520412Y-103005094I-2044608J-44609D01*
G01*
X186520412Y-103005093D02*
G75*
G03*
X184520412Y-105005093I-1J-1999999D01*
G01*
X203520412Y-120805093D02*
G75*
G03*
X205520412Y-118805093I-44600J2044600D01*
G01*
X184520412Y-118805093D02*
G75*
G03*
X186520412Y-120805093I2044860J44860D01*
G01*
D14*
X204417412Y-121225093D02*
G75*
G03*
X204417412Y-121225093I-127000J0D01*
G01*
D15*
X203630885Y-120789760D02*
X203582117Y-120792808D01*
X203679906Y-120785696D01*
X203630885Y-120789760D01*
X186109457Y-103062845D02*
X186157462Y-103052940D01*
X186205722Y-103044049D01*
X186254237Y-103036429D01*
X186303005Y-103029825D01*
X186351773Y-103024492D01*
X186400794Y-103020428D01*
X186449562Y-103017380D01*
X186498838Y-103015601D01*
X186109457Y-103062845D01*
D11*
%TO.C,C5R2*%
X177176784Y-74490093D02*
X177176784Y-75440093D01*
X177176784Y-74490093D02*
X179176784Y-74490093D01*
X177176784Y-79190093D02*
X177176784Y-78240093D01*
X177176784Y-79190093D02*
X179176784Y-79190093D01*
D12*
X177676784Y-65640093D02*
X177676784Y-66640093D01*
X177676784Y-65640093D02*
X178676784Y-65640093D01*
X177676784Y-77640093D02*
X177676784Y-78640093D01*
X178676784Y-78640093D02*
X177676784Y-78640093D01*
D11*
X189376784Y-75540093D02*
X187676784Y-75540093D01*
X189376784Y-75540093D02*
X189376784Y-76490093D01*
X189376784Y-80240093D02*
X187676784Y-80240093D01*
X189376784Y-80240093D02*
X189376784Y-79340093D01*
D12*
X189676784Y-65640093D02*
X190676784Y-65640093D01*
X190676784Y-66640093D02*
X190676784Y-65640093D01*
X190676784Y-78640093D02*
X189676784Y-78640093D01*
X190676784Y-78640093D02*
X190676784Y-77640093D01*
D11*
%TO.C,T4*%
X183533159Y-132046358D02*
X182974763Y-132814924D01*
X183533159Y-132046358D02*
X185151193Y-133221929D01*
X180770568Y-135848738D02*
X181328964Y-135080172D01*
X180770568Y-135848738D02*
X182388602Y-137024309D01*
D12*
X189139567Y-125180450D02*
X188551781Y-125989467D01*
X189139567Y-125180450D02*
X189948584Y-125768236D01*
X182086144Y-134888654D02*
X181498358Y-135697671D01*
X182307375Y-136285457D02*
X181498358Y-135697671D01*
D11*
X192785992Y-140066806D02*
X191410663Y-139067571D01*
X192785992Y-140066806D02*
X192227596Y-140835372D01*
X190023401Y-143869186D02*
X188648072Y-142869951D01*
X190023401Y-143869186D02*
X190552408Y-143141071D01*
D12*
X198847771Y-132233873D02*
X199656788Y-132821659D01*
X199069002Y-133630676D02*
X199656788Y-132821659D01*
X192015579Y-143338880D02*
X191206562Y-142751094D01*
X192015579Y-143338880D02*
X192603365Y-142529863D01*
D11*
%TO.C,T1*%
X122551779Y-122107218D02*
X122551779Y-123057218D01*
X122551779Y-122107218D02*
X124551779Y-122107218D01*
X122551779Y-126807218D02*
X122551779Y-125857218D01*
X122551779Y-126807218D02*
X124551779Y-126807218D01*
D12*
X123051779Y-113257218D02*
X123051779Y-114257218D01*
X123051779Y-113257218D02*
X124051779Y-113257218D01*
X123051779Y-125257218D02*
X123051779Y-126257218D01*
X124051779Y-126257218D02*
X123051779Y-126257218D01*
D11*
X134751779Y-123157218D02*
X133051779Y-123157218D01*
X134751779Y-123157218D02*
X134751779Y-124107218D01*
X134751779Y-127857218D02*
X133051779Y-127857218D01*
X134751779Y-127857218D02*
X134751779Y-126957218D01*
D12*
X135051779Y-113257218D02*
X136051779Y-113257218D01*
X136051779Y-114257218D02*
X136051779Y-113257218D01*
X136051779Y-126257218D02*
X135051779Y-126257218D01*
X136051779Y-126257218D02*
X136051779Y-125257218D01*
D11*
%TO.C,T3*%
X164423197Y-124117598D02*
X164098278Y-125010306D01*
X164423197Y-124117598D02*
X166302583Y-124801638D01*
X162815703Y-128534153D02*
X163140622Y-127641445D01*
X162815703Y-128534153D02*
X164695088Y-129218193D01*
D12*
X167919922Y-115972328D02*
X167577902Y-116912021D01*
X167919922Y-115972328D02*
X168859615Y-116314348D01*
X163815680Y-127248639D02*
X163473660Y-128188332D01*
X164413353Y-128530352D02*
X163473660Y-128188332D01*
D11*
X175528326Y-129276921D02*
X173930849Y-128695486D01*
X175528326Y-129276921D02*
X175203407Y-130169629D01*
X173920831Y-133693476D02*
X172323354Y-133112042D01*
X173920831Y-133693476D02*
X174228650Y-132847753D01*
D12*
X179196233Y-120076570D02*
X180135926Y-120418590D01*
X179793906Y-121358283D02*
X180135926Y-120418590D01*
X175689664Y-132634594D02*
X174749971Y-132292574D01*
X175689664Y-132634594D02*
X176031684Y-131694901D01*
D11*
%TO.C,C5R3*%
X177176785Y-93490094D02*
X177176785Y-94440094D01*
X177176785Y-93490094D02*
X179176785Y-93490094D01*
X177176785Y-98190094D02*
X177176785Y-97240094D01*
X177176785Y-98190094D02*
X179176785Y-98190094D01*
D12*
X177676785Y-84640094D02*
X177676785Y-85640094D01*
X177676785Y-84640094D02*
X178676785Y-84640094D01*
X177676785Y-96640094D02*
X177676785Y-97640094D01*
X178676785Y-97640094D02*
X177676785Y-97640094D01*
D11*
X189376785Y-94540094D02*
X187676785Y-94540094D01*
X189376785Y-94540094D02*
X189376785Y-95490094D01*
X189376785Y-99240094D02*
X187676785Y-99240094D01*
X189376785Y-99240094D02*
X189376785Y-98340094D01*
D12*
X189676785Y-84640094D02*
X190676785Y-84640094D01*
X190676785Y-85640094D02*
X190676785Y-84640094D01*
X190676785Y-97640094D02*
X189676785Y-97640094D01*
X190676785Y-97640094D02*
X190676785Y-96640094D01*
%TO.C,C3R1*%
X152676778Y-69257218D02*
X152676778Y-68257218D01*
X152676778Y-69257218D02*
X151676778Y-69257218D01*
X152676778Y-57257218D02*
X152676778Y-56257218D01*
X151676778Y-56257218D02*
X152676778Y-56257218D01*
D11*
X151376778Y-70857218D02*
X151376778Y-69957218D01*
X151376778Y-70857218D02*
X149676778Y-70857218D01*
X151376778Y-66157218D02*
X151376778Y-67107218D01*
X151376778Y-66157218D02*
X149676778Y-66157218D01*
D12*
X140676778Y-69257218D02*
X139676778Y-69257218D01*
X139676778Y-68257218D02*
X139676778Y-69257218D01*
X139676778Y-56257218D02*
X140676778Y-56257218D01*
X139676778Y-56257218D02*
X139676778Y-57257218D01*
D11*
X139176778Y-69807218D02*
X141176778Y-69807218D01*
X139176778Y-69807218D02*
X139176778Y-68857218D01*
X139176778Y-65107218D02*
X141176778Y-65107218D01*
X139176778Y-65107218D02*
X139176778Y-66057218D01*
D12*
%TO.C,C3R3*%
X152676778Y-107257216D02*
X152676778Y-106257216D01*
X152676778Y-107257216D02*
X151676778Y-107257216D01*
X152676778Y-95257216D02*
X152676778Y-94257216D01*
X151676778Y-94257216D02*
X152676778Y-94257216D01*
D11*
X151376778Y-108857216D02*
X151376778Y-107957216D01*
X151376778Y-108857216D02*
X149676778Y-108857216D01*
X151376778Y-104157216D02*
X151376778Y-105107216D01*
X151376778Y-104157216D02*
X149676778Y-104157216D01*
D12*
X140676778Y-107257216D02*
X139676778Y-107257216D01*
X139676778Y-106257216D02*
X139676778Y-107257216D01*
X139676778Y-94257216D02*
X140676778Y-94257216D01*
X139676778Y-94257216D02*
X139676778Y-95257216D01*
D11*
X139176778Y-107807216D02*
X141176778Y-107807216D01*
X139176778Y-107807216D02*
X139176778Y-106857216D01*
X139176778Y-103107216D02*
X141176778Y-103107216D01*
X139176778Y-103107216D02*
X139176778Y-104057216D01*
D12*
%TO.C,C2R3*%
X133676777Y-103257217D02*
X133676777Y-102257217D01*
X133676777Y-103257217D02*
X132676777Y-103257217D01*
X133676777Y-91257217D02*
X133676777Y-90257217D01*
X132676777Y-90257217D02*
X133676777Y-90257217D01*
D11*
X132376777Y-104857217D02*
X132376777Y-103957217D01*
X132376777Y-104857217D02*
X130676777Y-104857217D01*
X132376777Y-100157217D02*
X132376777Y-101107217D01*
X132376777Y-100157217D02*
X130676777Y-100157217D01*
D12*
X121676777Y-103257217D02*
X120676777Y-103257217D01*
X120676777Y-102257217D02*
X120676777Y-103257217D01*
X120676777Y-90257217D02*
X121676777Y-90257217D01*
X120676777Y-90257217D02*
X120676777Y-91257217D01*
D11*
X120176777Y-103807217D02*
X122176777Y-103807217D01*
X120176777Y-103807217D02*
X120176777Y-102857217D01*
X120176777Y-99107217D02*
X122176777Y-99107217D01*
X120176777Y-99107217D02*
X120176777Y-100057217D01*
D12*
%TO.C,C3R2*%
X152676778Y-88257218D02*
X152676778Y-87257218D01*
X152676778Y-88257218D02*
X151676778Y-88257218D01*
X152676778Y-76257218D02*
X152676778Y-75257218D01*
X151676778Y-75257218D02*
X152676778Y-75257218D01*
D11*
X151376778Y-89857218D02*
X151376778Y-88957218D01*
X151376778Y-89857218D02*
X149676778Y-89857218D01*
X151376778Y-85157218D02*
X151376778Y-86107218D01*
X151376778Y-85157218D02*
X149676778Y-85157218D01*
D12*
X140676778Y-88257218D02*
X139676778Y-88257218D01*
X139676778Y-87257218D02*
X139676778Y-88257218D01*
X139676778Y-75257218D02*
X140676778Y-75257218D01*
X139676778Y-75257218D02*
X139676778Y-76257218D01*
D11*
X139176778Y-88807218D02*
X141176778Y-88807218D01*
X139176778Y-88807218D02*
X139176778Y-87857218D01*
X139176778Y-84107218D02*
X141176778Y-84107218D01*
X139176778Y-84107218D02*
X139176778Y-85057218D01*
D12*
%TO.C,C0R2*%
X95676779Y-96257216D02*
X95676779Y-95257216D01*
X95676779Y-96257216D02*
X94676779Y-96257216D01*
X95676779Y-84257216D02*
X95676779Y-83257216D01*
X94676779Y-83257216D02*
X95676779Y-83257216D01*
D11*
X94376779Y-97857216D02*
X94376779Y-96957216D01*
X94376779Y-97857216D02*
X92676779Y-97857216D01*
X94376779Y-93157216D02*
X94376779Y-94107216D01*
X94376779Y-93157216D02*
X92676779Y-93157216D01*
D12*
X83676779Y-96257216D02*
X82676779Y-96257216D01*
X82676779Y-95257216D02*
X82676779Y-96257216D01*
X82676779Y-83257216D02*
X83676779Y-83257216D01*
X82676779Y-83257216D02*
X82676779Y-84257216D01*
D11*
X82176779Y-96807216D02*
X84176779Y-96807216D01*
X82176779Y-96807216D02*
X82176779Y-95857216D01*
X82176779Y-92107216D02*
X84176779Y-92107216D01*
X82176779Y-92107216D02*
X82176779Y-93057216D01*
D12*
%TO.C,C0R1*%
X95676778Y-77257218D02*
X95676778Y-76257218D01*
X95676778Y-77257218D02*
X94676778Y-77257218D01*
X95676778Y-65257218D02*
X95676778Y-64257218D01*
X94676778Y-64257218D02*
X95676778Y-64257218D01*
D11*
X94376778Y-78857218D02*
X94376778Y-77957218D01*
X94376778Y-78857218D02*
X92676778Y-78857218D01*
X94376778Y-74157218D02*
X94376778Y-75107218D01*
X94376778Y-74157218D02*
X92676778Y-74157218D01*
D12*
X83676778Y-77257218D02*
X82676778Y-77257218D01*
X82676778Y-76257218D02*
X82676778Y-77257218D01*
X82676778Y-64257218D02*
X83676778Y-64257218D01*
X82676778Y-64257218D02*
X82676778Y-65257218D01*
D11*
X82176778Y-77807218D02*
X84176778Y-77807218D01*
X82176778Y-77807218D02*
X82176778Y-76857218D01*
X82176778Y-73107218D02*
X84176778Y-73107218D01*
X82176778Y-73107218D02*
X82176778Y-74057218D01*
D12*
%TO.C,C0R3*%
X95676778Y-115257217D02*
X95676778Y-114257217D01*
X95676778Y-115257217D02*
X94676778Y-115257217D01*
X95676778Y-103257217D02*
X95676778Y-102257217D01*
X94676778Y-102257217D02*
X95676778Y-102257217D01*
D11*
X94376778Y-116857217D02*
X94376778Y-115957217D01*
X94376778Y-116857217D02*
X92676778Y-116857217D01*
X94376778Y-112157217D02*
X94376778Y-113107217D01*
X94376778Y-112157217D02*
X92676778Y-112157217D01*
D12*
X83676778Y-115257217D02*
X82676778Y-115257217D01*
X82676778Y-114257217D02*
X82676778Y-115257217D01*
X82676778Y-102257217D02*
X83676778Y-102257217D01*
X82676778Y-102257217D02*
X82676778Y-103257217D01*
D11*
X82176778Y-115807217D02*
X84176778Y-115807217D01*
X82176778Y-115807217D02*
X82176778Y-114857217D01*
X82176778Y-111107217D02*
X84176778Y-111107217D01*
X82176778Y-111107217D02*
X82176778Y-112057217D01*
D12*
%TO.C,C4R2*%
X171676779Y-88257218D02*
X171676779Y-87257218D01*
X171676779Y-88257218D02*
X170676779Y-88257218D01*
X171676779Y-76257218D02*
X171676779Y-75257218D01*
X170676779Y-75257218D02*
X171676779Y-75257218D01*
D11*
X170376779Y-89857218D02*
X170376779Y-88957218D01*
X170376779Y-89857218D02*
X168676779Y-89857218D01*
X170376779Y-85157218D02*
X170376779Y-86107218D01*
X170376779Y-85157218D02*
X168676779Y-85157218D01*
D12*
X159676779Y-88257218D02*
X158676779Y-88257218D01*
X158676779Y-87257218D02*
X158676779Y-88257218D01*
X158676779Y-75257218D02*
X159676779Y-75257218D01*
X158676779Y-75257218D02*
X158676779Y-76257218D01*
D11*
X158176779Y-88807218D02*
X160176779Y-88807218D01*
X158176779Y-88807218D02*
X158176779Y-87857218D01*
X158176779Y-84107218D02*
X160176779Y-84107218D01*
X158176779Y-84107218D02*
X158176779Y-85057218D01*
D12*
%TO.C,C1R3*%
X114676778Y-107257217D02*
X114676778Y-106257217D01*
X114676778Y-107257217D02*
X113676778Y-107257217D01*
X114676778Y-95257217D02*
X114676778Y-94257217D01*
X113676778Y-94257217D02*
X114676778Y-94257217D01*
D11*
X113376778Y-108857217D02*
X113376778Y-107957217D01*
X113376778Y-108857217D02*
X111676778Y-108857217D01*
X113376778Y-104157217D02*
X113376778Y-105107217D01*
X113376778Y-104157217D02*
X111676778Y-104157217D01*
D12*
X102676778Y-107257217D02*
X101676778Y-107257217D01*
X101676778Y-106257217D02*
X101676778Y-107257217D01*
X101676778Y-94257217D02*
X102676778Y-94257217D01*
X101676778Y-94257217D02*
X101676778Y-95257217D01*
D11*
X101176778Y-107807217D02*
X103176778Y-107807217D01*
X101176778Y-107807217D02*
X101176778Y-106857217D01*
X101176778Y-103107217D02*
X103176778Y-103107217D01*
X101176778Y-103107217D02*
X101176778Y-104057217D01*
%TO.C,SW3*%
X200527964Y-91456770D02*
X201727964Y-91456770D01*
X205027964Y-91756770D02*
X205027964Y-92956770D01*
X200827964Y-91756770D02*
X205027964Y-91756770D01*
X200527964Y-92656770D02*
X200527964Y-91456770D01*
X200827964Y-92956770D02*
X200827964Y-91756770D01*
X200827964Y-99756770D02*
X200827964Y-100956770D01*
X205027964Y-100956770D02*
X205027964Y-99756770D01*
X200827964Y-100956770D02*
X205027964Y-100956770D01*
%TO.C,SW2*%
X182247963Y-104816770D02*
X182247963Y-106816770D01*
X181197963Y-108116770D02*
X180747963Y-108566770D01*
X181197963Y-103516770D02*
X180747963Y-103066770D01*
X180747963Y-108566770D02*
X178247963Y-108566770D01*
X180747963Y-103066770D02*
X178247963Y-103066770D01*
X177797963Y-108116770D02*
X178247963Y-108566770D01*
X177797963Y-103516770D02*
X178247963Y-103066770D01*
X176747963Y-104816770D02*
X176747963Y-106816770D01*
D12*
%TO.C,C2R2*%
X133676777Y-84257217D02*
X133676777Y-83257217D01*
X133676777Y-84257217D02*
X132676777Y-84257217D01*
X133676777Y-72257217D02*
X133676777Y-71257217D01*
X132676777Y-71257217D02*
X133676777Y-71257217D01*
D11*
X132376777Y-85857217D02*
X132376777Y-84957217D01*
X132376777Y-85857217D02*
X130676777Y-85857217D01*
X132376777Y-81157217D02*
X132376777Y-82107217D01*
X132376777Y-81157217D02*
X130676777Y-81157217D01*
D12*
X121676777Y-84257217D02*
X120676777Y-84257217D01*
X120676777Y-83257217D02*
X120676777Y-84257217D01*
X120676777Y-71257217D02*
X121676777Y-71257217D01*
X120676777Y-71257217D02*
X120676777Y-72257217D01*
D11*
X120176777Y-84807217D02*
X122176777Y-84807217D01*
X120176777Y-84807217D02*
X120176777Y-83857217D01*
X120176777Y-80107217D02*
X122176777Y-80107217D01*
X120176777Y-80107217D02*
X120176777Y-81057217D01*
D12*
%TO.C,C2R1*%
X133676779Y-65257217D02*
X133676779Y-64257217D01*
X133676779Y-65257217D02*
X132676779Y-65257217D01*
X133676779Y-53257217D02*
X133676779Y-52257217D01*
X132676779Y-52257217D02*
X133676779Y-52257217D01*
D11*
X132376779Y-66857217D02*
X132376779Y-65957217D01*
X132376779Y-66857217D02*
X130676779Y-66857217D01*
X132376779Y-62157217D02*
X132376779Y-63107217D01*
X132376779Y-62157217D02*
X130676779Y-62157217D01*
D12*
X121676779Y-65257217D02*
X120676779Y-65257217D01*
X120676779Y-64257217D02*
X120676779Y-65257217D01*
X120676779Y-52257217D02*
X121676779Y-52257217D01*
X120676779Y-52257217D02*
X120676779Y-53257217D01*
D11*
X120176779Y-65807217D02*
X122176779Y-65807217D01*
X120176779Y-65807217D02*
X120176779Y-64857217D01*
X120176779Y-61107217D02*
X122176779Y-61107217D01*
X120176779Y-61107217D02*
X120176779Y-62057217D01*
D12*
%TO.C,C1R2*%
X114676779Y-88257218D02*
X114676779Y-87257218D01*
X114676779Y-88257218D02*
X113676779Y-88257218D01*
X114676779Y-76257218D02*
X114676779Y-75257218D01*
X113676779Y-75257218D02*
X114676779Y-75257218D01*
D11*
X113376779Y-89857218D02*
X113376779Y-88957218D01*
X113376779Y-89857218D02*
X111676779Y-89857218D01*
X113376779Y-85157218D02*
X113376779Y-86107218D01*
X113376779Y-85157218D02*
X111676779Y-85157218D01*
D12*
X102676779Y-88257218D02*
X101676779Y-88257218D01*
X101676779Y-87257218D02*
X101676779Y-88257218D01*
X101676779Y-75257218D02*
X102676779Y-75257218D01*
X101676779Y-75257218D02*
X101676779Y-76257218D01*
D11*
X101176779Y-88807218D02*
X103176779Y-88807218D01*
X101176779Y-88807218D02*
X101176779Y-87857218D01*
X101176779Y-84107218D02*
X103176779Y-84107218D01*
X101176779Y-84107218D02*
X101176779Y-85057218D01*
D12*
%TO.C,C4R3*%
X171676778Y-107257217D02*
X171676778Y-106257217D01*
X171676778Y-107257217D02*
X170676778Y-107257217D01*
X171676778Y-95257217D02*
X171676778Y-94257217D01*
X170676778Y-94257217D02*
X171676778Y-94257217D01*
D11*
X170376778Y-108857217D02*
X170376778Y-107957217D01*
X170376778Y-108857217D02*
X168676778Y-108857217D01*
X170376778Y-104157217D02*
X170376778Y-105107217D01*
X170376778Y-104157217D02*
X168676778Y-104157217D01*
D12*
X159676778Y-107257217D02*
X158676778Y-107257217D01*
X158676778Y-106257217D02*
X158676778Y-107257217D01*
X158676778Y-94257217D02*
X159676778Y-94257217D01*
X158676778Y-94257217D02*
X158676778Y-95257217D01*
D11*
X158176778Y-107807217D02*
X160176778Y-107807217D01*
X158176778Y-107807217D02*
X158176778Y-106857217D01*
X158176778Y-103107217D02*
X160176778Y-103107217D01*
X158176778Y-103107217D02*
X158176778Y-104057217D01*
D12*
%TO.C,C1R1*%
X114676779Y-69257217D02*
X114676779Y-68257217D01*
X114676779Y-69257217D02*
X113676779Y-69257217D01*
X114676779Y-57257217D02*
X114676779Y-56257217D01*
X113676779Y-56257217D02*
X114676779Y-56257217D01*
D11*
X113376779Y-70857217D02*
X113376779Y-69957217D01*
X113376779Y-70857217D02*
X111676779Y-70857217D01*
X113376779Y-66157217D02*
X113376779Y-67107217D01*
X113376779Y-66157217D02*
X111676779Y-66157217D01*
D12*
X102676779Y-69257217D02*
X101676779Y-69257217D01*
X101676779Y-68257217D02*
X101676779Y-69257217D01*
X101676779Y-56257217D02*
X102676779Y-56257217D01*
X101676779Y-56257217D02*
X101676779Y-57257217D01*
D11*
X101176779Y-69807217D02*
X103176779Y-69807217D01*
X101176779Y-69807217D02*
X101176779Y-68857217D01*
X101176779Y-65107217D02*
X103176779Y-65107217D01*
X101176779Y-65107217D02*
X101176779Y-66057217D01*
D12*
%TO.C,C4R1*%
X171676778Y-69257217D02*
X171676778Y-68257217D01*
X171676778Y-69257217D02*
X170676778Y-69257217D01*
X171676778Y-57257217D02*
X171676778Y-56257217D01*
X170676778Y-56257217D02*
X171676778Y-56257217D01*
D11*
X170376778Y-70857217D02*
X170376778Y-69957217D01*
X170376778Y-70857217D02*
X168676778Y-70857217D01*
X170376778Y-66157217D02*
X170376778Y-67107217D01*
X170376778Y-66157217D02*
X168676778Y-66157217D01*
D12*
X159676778Y-69257217D02*
X158676778Y-69257217D01*
X158676778Y-68257217D02*
X158676778Y-69257217D01*
X158676778Y-56257217D02*
X159676778Y-56257217D01*
X158676778Y-56257217D02*
X158676778Y-57257217D01*
D11*
X158176778Y-69807217D02*
X160176778Y-69807217D01*
X158176778Y-69807217D02*
X158176778Y-68857217D01*
X158176778Y-65107217D02*
X160176778Y-65107217D01*
X158176778Y-65107217D02*
X158176778Y-66057217D01*
%TD*%
%LPC*%
D16*
%TO.C,T0*%
X108176779Y-119757219D03*
X108176779Y-119757219D03*
D17*
X100101779Y-124457219D03*
D18*
X103776779Y-124457219D03*
X110776779Y-125507219D03*
D17*
X114451779Y-125507219D03*
%TD*%
D16*
%TO.C,T2*%
X151402214Y-120270094D03*
X151402214Y-120270094D03*
D19*
X143092302Y-124541040D03*
D18*
X146762265Y-124733375D03*
X153697719Y-126148287D03*
D19*
X157367683Y-126340622D03*
%TD*%
D20*
%TO.C,U1*%
X202640412Y-120905093D03*
X200100412Y-120905093D03*
X195020412Y-102905093D03*
X192480412Y-102905093D03*
X189940412Y-102905093D03*
X187400412Y-102905093D03*
X187400412Y-120905093D03*
X189940412Y-120905093D03*
X192480412Y-120905093D03*
X195020412Y-120905093D03*
D21*
X200870412Y-110635093D03*
X200870412Y-113175093D03*
D22*
X197670412Y-107405093D03*
X197670412Y-116405093D03*
X194895412Y-107405093D03*
X194895412Y-116405093D03*
%TD*%
D18*
%TO.C,REF\u002A\u002A*%
X117652213Y-91260093D03*
%TD*%
%TO.C,*%
X180377963Y-114406770D03*
%TD*%
%TO.C,*%
X118862214Y-117300092D03*
%TD*%
D16*
%TO.C,C5R2*%
X184176784Y-72140093D03*
X184176784Y-72140093D03*
D17*
X176101784Y-76840093D03*
D18*
X179776784Y-76840093D03*
X186776784Y-77890093D03*
D17*
X190451784Y-77890093D03*
%TD*%
D16*
%TO.C,T4*%
X190577573Y-134259665D03*
X190577573Y-134259665D03*
D23*
X181282170Y-133315679D03*
D18*
X184255308Y-135475790D03*
X189301252Y-140439754D03*
D23*
X192274389Y-142599865D03*
%TD*%
D16*
%TO.C,T1*%
X129551779Y-119757218D03*
X129551779Y-119757218D03*
D17*
X121476779Y-124457218D03*
D18*
X125151779Y-124457218D03*
X132151779Y-125507218D03*
D17*
X135826779Y-125507218D03*
%TD*%
D18*
%TO.C,REF\u002A\u002A*%
X155652214Y-72250093D03*
%TD*%
D24*
%TO.C,J1*%
X201677963Y-88406771D03*
X197677963Y-88406771D03*
D25*
X199677963Y-88406771D03*
%TD*%
D16*
%TO.C,T3*%
X171804793Y-124303461D03*
X171804793Y-124303461D03*
D26*
X162609280Y-125958204D03*
D18*
X166062651Y-127215128D03*
X172281378Y-130595946D03*
D26*
X175734748Y-131852870D03*
%TD*%
D16*
%TO.C,C5R3*%
X184176785Y-91140094D03*
X184176785Y-91140094D03*
D17*
X176101785Y-95840094D03*
D18*
X179776785Y-95840094D03*
X186776785Y-96890094D03*
D17*
X190451785Y-96890094D03*
%TD*%
D18*
%TO.C,REF\u002A\u002A*%
X117652214Y-72250093D03*
%TD*%
%TO.C,REF\u002A\u002A*%
X155652214Y-91260092D03*
%TD*%
D16*
%TO.C,C3R1*%
X146176778Y-62757218D03*
X146176778Y-62757218D03*
D27*
X152451778Y-68507218D03*
D18*
X148776778Y-68507218D03*
X141776778Y-67457218D03*
D27*
X138101778Y-67457218D03*
%TD*%
D16*
%TO.C,C3R3*%
X146176778Y-100757216D03*
X146176778Y-100757216D03*
D27*
X152451778Y-106507216D03*
D18*
X148776778Y-106507216D03*
X141776778Y-105457216D03*
D27*
X138101778Y-105457216D03*
%TD*%
D16*
%TO.C,C2R3*%
X127176777Y-96757217D03*
X127176777Y-96757217D03*
D27*
X133451777Y-102507217D03*
D18*
X129776777Y-102507217D03*
X122776777Y-101457217D03*
D27*
X119101777Y-101457217D03*
%TD*%
D16*
%TO.C,C3R2*%
X146176778Y-81757218D03*
X146176778Y-81757218D03*
D27*
X152451778Y-87507218D03*
D18*
X148776778Y-87507218D03*
X141776778Y-86457218D03*
D27*
X138101778Y-86457218D03*
%TD*%
D16*
%TO.C,C0R2*%
X89176779Y-89757216D03*
X89176779Y-89757216D03*
D27*
X95451779Y-95507216D03*
D18*
X91776779Y-95507216D03*
X84776779Y-94457216D03*
D27*
X81101779Y-94457216D03*
%TD*%
D16*
%TO.C,C0R1*%
X89176778Y-70757218D03*
X89176778Y-70757218D03*
D27*
X95451778Y-76507218D03*
D18*
X91776778Y-76507218D03*
X84776778Y-75457218D03*
D27*
X81101778Y-75457218D03*
%TD*%
D16*
%TO.C,C0R3*%
X89176778Y-108757217D03*
X89176778Y-108757217D03*
D27*
X95451778Y-114507217D03*
D18*
X91776778Y-114507217D03*
X84776778Y-113457217D03*
D27*
X81101778Y-113457217D03*
%TD*%
D16*
%TO.C,C4R2*%
X165176779Y-81757218D03*
X165176779Y-81757218D03*
D27*
X171451779Y-87507218D03*
D18*
X167776779Y-87507218D03*
X160776779Y-86457218D03*
D27*
X157101779Y-86457218D03*
%TD*%
D16*
%TO.C,C1R3*%
X108176778Y-100757217D03*
X108176778Y-100757217D03*
D27*
X114451778Y-106507217D03*
D18*
X110776778Y-106507217D03*
X103776778Y-105457217D03*
D27*
X100101778Y-105457217D03*
%TD*%
D28*
%TO.C,SW3*%
X201277964Y-93856770D03*
D29*
X201277964Y-96356770D03*
X201277964Y-98856770D03*
X204577964Y-93856770D03*
X204577964Y-96356770D03*
X204577964Y-98856770D03*
%TD*%
D30*
%TO.C,SW2*%
X182647963Y-103916770D03*
X176347963Y-103916770D03*
X182647963Y-107716770D03*
X176347963Y-107716770D03*
%TD*%
D16*
%TO.C,C2R2*%
X127176777Y-77757217D03*
X127176777Y-77757217D03*
D27*
X133451777Y-83507217D03*
D18*
X129776777Y-83507217D03*
X122776777Y-82457217D03*
D27*
X119101777Y-82457217D03*
%TD*%
D16*
%TO.C,C2R1*%
X127176779Y-58757217D03*
X127176779Y-58757217D03*
D27*
X133451779Y-64507217D03*
D18*
X129776779Y-64507217D03*
X122776779Y-63457217D03*
D27*
X119101779Y-63457217D03*
%TD*%
D16*
%TO.C,C1R2*%
X108176779Y-81757218D03*
X108176779Y-81757218D03*
D27*
X114451779Y-87507218D03*
D18*
X110776779Y-87507218D03*
X103776779Y-86457218D03*
D27*
X100101779Y-86457218D03*
%TD*%
D16*
%TO.C,C4R3*%
X165176778Y-100757217D03*
X165176778Y-100757217D03*
D27*
X171451778Y-106507217D03*
D18*
X167776778Y-106507217D03*
X160776778Y-105457217D03*
D27*
X157101778Y-105457217D03*
%TD*%
D16*
%TO.C,C1R1*%
X108176779Y-62757217D03*
X108176779Y-62757217D03*
D27*
X114451779Y-68507217D03*
D18*
X110776779Y-68507217D03*
X103776779Y-67457217D03*
D27*
X100101779Y-67457217D03*
%TD*%
D16*
%TO.C,C4R1*%
X165176778Y-62757217D03*
X165176778Y-62757217D03*
D27*
X171451778Y-68507217D03*
D18*
X167776778Y-68507217D03*
X160776778Y-67457217D03*
D27*
X157101778Y-67457217D03*
%TD*%
%LPD*%
M02*
