%TF.GenerationSoftware,KiCad,Pcbnew,7.0.2-0*%
%TF.CreationDate,2024-03-15T00:53:17+01:00*%
%TF.ProjectId,defiant,64656669-616e-4742-9e6b-696361645f70,v0.1*%
%TF.SameCoordinates,Original*%
%TF.FileFunction,Copper,L2,Bot*%
%TF.FilePolarity,Positive*%
%FSLAX46Y46*%
G04 Gerber Fmt 4.6, Leading zero omitted, Abs format (unit mm)*
G04 Created by KiCad (PCBNEW 7.0.2-0) date 2024-03-15 00:53:17*
%MOMM*%
%LPD*%
G01*
G04 APERTURE LIST*
G04 Aperture macros list*
%AMRoundRect*
0 Rectangle with rounded corners*
0 $1 Rounding radius*
0 $2 $3 $4 $5 $6 $7 $8 $9 X,Y pos of 4 corners*
0 Add a 4 corners polygon primitive as box body*
4,1,4,$2,$3,$4,$5,$6,$7,$8,$9,$2,$3,0*
0 Add four circle primitives for the rounded corners*
1,1,$1+$1,$2,$3*
1,1,$1+$1,$4,$5*
1,1,$1+$1,$6,$7*
1,1,$1+$1,$8,$9*
0 Add four rect primitives between the rounded corners*
20,1,$1+$1,$2,$3,$4,$5,0*
20,1,$1+$1,$4,$5,$6,$7,0*
20,1,$1+$1,$6,$7,$8,$9,0*
20,1,$1+$1,$8,$9,$2,$3,0*%
%AMRotRect*
0 Rectangle, with rotation*
0 The origin of the aperture is its center*
0 $1 length*
0 $2 width*
0 $3 Rotation angle, in degrees counterclockwise*
0 Add horizontal line*
21,1,$1,$2,0,0,$3*%
G04 Aperture macros list end*
%TA.AperFunction,SMDPad,CuDef*%
%ADD10RoundRect,0.500000X-0.750000X-0.775000X0.750000X-0.775000X0.750000X0.775000X-0.750000X0.775000X0*%
%TD*%
%TA.AperFunction,SMDPad,CuDef*%
%ADD11R,3.900000X1.000000*%
%TD*%
%TA.AperFunction,ComponentPad*%
%ADD12C,4.000000*%
%TD*%
%TA.AperFunction,SMDPad,CuDef*%
%ADD13R,3.750000X1.000000*%
%TD*%
%TA.AperFunction,SMDPad,CuDef*%
%ADD14RoundRect,0.500000X-0.789533X-0.734686X0.708412X-0.813190X0.789533X0.734686X-0.708412X0.813190X0*%
%TD*%
%TA.AperFunction,SMDPad,CuDef*%
%ADD15RotRect,3.900000X1.000000X357.000000*%
%TD*%
%TA.AperFunction,SMDPad,CuDef*%
%ADD16RotRect,3.750000X1.000000X357.000000*%
%TD*%
%TA.AperFunction,SMDPad,CuDef*%
%ADD17R,2.000000X3.000000*%
%TD*%
%TA.AperFunction,ComponentPad*%
%ADD18C,2.200000*%
%TD*%
%TA.AperFunction,ComponentPad*%
%ADD19R,2.300000X2.300000*%
%TD*%
%TA.AperFunction,SMDPad,CuDef*%
%ADD20RoundRect,0.500000X-1.062296X-0.186149X0.151229X-1.067827X1.062296X0.186149X-0.151229X1.067827X0*%
%TD*%
%TA.AperFunction,SMDPad,CuDef*%
%ADD21RotRect,3.900000X1.000000X324.000000*%
%TD*%
%TA.AperFunction,SMDPad,CuDef*%
%ADD22RotRect,3.750000X1.000000X324.000000*%
%TD*%
%TA.AperFunction,ComponentPad*%
%ADD23RoundRect,0.381000X0.381000X0.381000X-0.381000X0.381000X-0.381000X-0.381000X0.381000X-0.381000X0*%
%TD*%
%TA.AperFunction,ComponentPad*%
%ADD24C,1.524000*%
%TD*%
%TA.AperFunction,SMDPad,CuDef*%
%ADD25RoundRect,0.500000X-0.969835X-0.471747X0.439704X-0.984777X0.969835X0.471747X-0.439704X0.984777X0*%
%TD*%
%TA.AperFunction,SMDPad,CuDef*%
%ADD26RotRect,3.900000X1.000000X340.000000*%
%TD*%
%TA.AperFunction,SMDPad,CuDef*%
%ADD27RotRect,3.750000X1.000000X340.000000*%
%TD*%
%TA.AperFunction,SMDPad,CuDef*%
%ADD28RoundRect,0.500000X0.750000X0.775000X-0.750000X0.775000X-0.750000X-0.775000X0.750000X-0.775000X0*%
%TD*%
%TA.AperFunction,ComponentPad*%
%ADD29R,1.400000X1.400000*%
%TD*%
%TA.AperFunction,ComponentPad*%
%ADD30C,1.400000*%
%TD*%
%TA.AperFunction,SMDPad,CuDef*%
%ADD31R,1.700000X1.000000*%
%TD*%
%TA.AperFunction,ViaPad*%
%ADD32C,0.800000*%
%TD*%
%TA.AperFunction,Conductor*%
%ADD33C,0.400000*%
%TD*%
G04 APERTURE END LIST*
D10*
%TO.P,T0,1,1*%
%TO.N,col0*%
X100101779Y-124457219D03*
D11*
X101826779Y-124457219D03*
D12*
X103776779Y-124457219D03*
X105576779Y-125507219D03*
%TO.P,T0,2,2*%
%TO.N,Net-(D4-A)*%
X110776779Y-125507219D03*
X112576779Y-124457219D03*
D13*
X112651779Y-125507219D03*
D10*
X114451779Y-125507219D03*
%TD*%
D14*
%TO.P,T2,1,1*%
%TO.N,col2*%
X143092302Y-124541040D03*
D15*
X144814937Y-124631319D03*
D12*
X146762265Y-124733375D03*
X148504845Y-125876140D03*
%TO.P,T2,2,2*%
%TO.N,Net-(D12-A)*%
X153697719Y-126148287D03*
X155550205Y-125193931D03*
D16*
X155570149Y-126246417D03*
D14*
X157367683Y-126340622D03*
%TD*%
D17*
%TO.P,U1,1,PA02_A0_D0*%
%TO.N,col4*%
X202640412Y-121155093D03*
%TO.P,U1,2,PA4_A1_D1*%
%TO.N,col3*%
X200100412Y-121155093D03*
%TO.P,U1,4,PA11_A3_D3*%
%TO.N,col5*%
X195020412Y-102655093D03*
%TO.P,U1,5,PA8_A4_D4_SDA*%
%TO.N,row0*%
X192480412Y-102655093D03*
%TO.P,U1,6,PA9_A5_D5_SCL*%
%TO.N,row1*%
X189940412Y-102655093D03*
%TO.P,U1,7,PB08_A6_D6_TX*%
%TO.N,row2*%
X187400412Y-102655093D03*
%TO.P,U1,8,PB09_A7_D7_RX*%
%TO.N,col0*%
X187400412Y-121155093D03*
%TO.P,U1,9,PA7_A8_D8_SCK*%
%TO.N,col1*%
X189940412Y-121155093D03*
%TO.P,U1,10,PA5_A9_D9_MISO*%
%TO.N,col2*%
X192480412Y-121155093D03*
%TO.P,U1,11,PA6_A10_D10_MOSI*%
%TO.N,row3*%
X195020412Y-121155093D03*
D18*
%TO.P,U1,17*%
%TO.N,N/C*%
X203410412Y-110635093D03*
%TO.P,U1,18*%
X203410412Y-113175093D03*
%TO.P,U1,19,RESET*%
%TO.N,Net-(U1-RESET)*%
X200870412Y-110635093D03*
%TO.P,U1,20,GND*%
%TO.N,Net-(SW1-Pad2)*%
X200870412Y-113175093D03*
D19*
%TO.P,U1,21,BAT-*%
%TO.N,Net-(J1-Pin_1)*%
X197720412Y-107405093D03*
X197720412Y-116405093D03*
%TO.P,U1,22,BAT+*%
%TO.N,Net-(U1-BAT+)*%
X194820412Y-107405093D03*
X194820412Y-116405093D03*
%TD*%
D12*
%TO.P,REF\u002A\u002A,1*%
%TO.N,N/C*%
X117652213Y-91260093D03*
%TD*%
%TO.P,,1*%
%TO.N,N/C*%
X180377963Y-114406770D03*
%TD*%
%TO.P,,1*%
%TO.N,N/C*%
X118862214Y-117300092D03*
%TD*%
D10*
%TO.P,C5R2,1,1*%
%TO.N,col5*%
X176101784Y-76840093D03*
D11*
X177826784Y-76840093D03*
D12*
X179776784Y-76840093D03*
X181576784Y-77890093D03*
%TO.P,C5R2,2,2*%
%TO.N,Net-(D22-A)*%
X186776784Y-77890093D03*
X188576784Y-76840093D03*
D13*
X188651784Y-77890093D03*
D10*
X190451784Y-77890093D03*
%TD*%
D20*
%TO.P,T4,1,1*%
%TO.N,col4*%
X181282170Y-133315679D03*
D21*
X182677724Y-134329609D03*
D12*
X184255308Y-135475790D03*
X185094364Y-137383271D03*
%TO.P,T4,2,2*%
%TO.N,Net-(D20-A)*%
X189301252Y-140439754D03*
X191374657Y-140648300D03*
D22*
X190818159Y-141541852D03*
D20*
X192274389Y-142599865D03*
%TD*%
D10*
%TO.P,T1,1,1*%
%TO.N,col1*%
X121476779Y-124457218D03*
D11*
X123201779Y-124457218D03*
D12*
X125151779Y-124457218D03*
X126951779Y-125507218D03*
%TO.P,T1,2,2*%
%TO.N,Net-(D8-A)*%
X132151779Y-125507218D03*
X133951779Y-124457218D03*
D13*
X134026779Y-125507218D03*
D10*
X135826779Y-125507218D03*
%TD*%
D12*
%TO.P,REF\u002A\u002A,1*%
%TO.N,N/C*%
X155652214Y-72250093D03*
%TD*%
D23*
%TO.P,J1,1,Pin_1*%
%TO.N,Net-(J1-Pin_1)*%
X201677963Y-88406771D03*
X197677963Y-88406771D03*
D24*
%TO.P,J1,2,Pin_2*%
%TO.N,Net-(J1-Pin_2)*%
X199677963Y-88406771D03*
%TD*%
D25*
%TO.P,T3,1,1*%
%TO.N,col3*%
X162609280Y-125958204D03*
D26*
X164230250Y-126548188D03*
D12*
X166062651Y-127215128D03*
X167394976Y-128817441D03*
%TO.P,T3,2,2*%
%TO.N,Net-(D16-A)*%
X172281378Y-130595946D03*
X174331946Y-130224905D03*
D27*
X174043302Y-131237234D03*
D25*
X175734748Y-131852870D03*
%TD*%
D10*
%TO.P,C5R3,1,1*%
%TO.N,col5*%
X176101785Y-95840094D03*
D11*
X177826785Y-95840094D03*
D12*
X179776785Y-95840094D03*
X181576785Y-96890094D03*
%TO.P,C5R3,2,2*%
%TO.N,Net-(D23-A)*%
X186776785Y-96890094D03*
X188576785Y-95840094D03*
D13*
X188651785Y-96890094D03*
D10*
X190451785Y-96890094D03*
%TD*%
D12*
%TO.P,REF\u002A\u002A,1*%
%TO.N,N/C*%
X117652214Y-72250093D03*
%TD*%
%TO.P,REF\u002A\u002A,1*%
%TO.N,N/C*%
X155652214Y-91260092D03*
%TD*%
D28*
%TO.P,C3R1,1,1*%
%TO.N,col3*%
X152451778Y-68507218D03*
D13*
X150651778Y-68507218D03*
D12*
X150576778Y-67457218D03*
X148776778Y-68507218D03*
%TO.P,C3R1,2,2*%
%TO.N,Net-(D13-A)*%
X143576778Y-68507218D03*
X141776778Y-67457218D03*
D11*
X139826778Y-67457218D03*
D28*
X138101778Y-67457218D03*
%TD*%
%TO.P,C3R3,1,1*%
%TO.N,col3*%
X152451778Y-106507216D03*
D13*
X150651778Y-106507216D03*
D12*
X150576778Y-105457216D03*
X148776778Y-106507216D03*
%TO.P,C3R3,2,2*%
%TO.N,Net-(D15-A)*%
X143576778Y-106507216D03*
X141776778Y-105457216D03*
D11*
X139826778Y-105457216D03*
D28*
X138101778Y-105457216D03*
%TD*%
%TO.P,C2R3,1,1*%
%TO.N,col2*%
X133451777Y-102507217D03*
D13*
X131651777Y-102507217D03*
D12*
X131576777Y-101457217D03*
X129776777Y-102507217D03*
%TO.P,C2R3,2,2*%
%TO.N,Net-(D11-A)*%
X124576777Y-102507217D03*
X122776777Y-101457217D03*
D11*
X120826777Y-101457217D03*
D28*
X119101777Y-101457217D03*
%TD*%
%TO.P,C3R2,1,1*%
%TO.N,col3*%
X152451778Y-87507218D03*
D13*
X150651778Y-87507218D03*
D12*
X150576778Y-86457218D03*
X148776778Y-87507218D03*
%TO.P,C3R2,2,2*%
%TO.N,Net-(D14-A)*%
X143576778Y-87507218D03*
X141776778Y-86457218D03*
D11*
X139826778Y-86457218D03*
D28*
X138101778Y-86457218D03*
%TD*%
%TO.P,C0R2,1,1*%
%TO.N,col0*%
X95451779Y-96507216D03*
D13*
X93651779Y-96507216D03*
D12*
X93576779Y-95457216D03*
X91776779Y-96507216D03*
%TO.P,C0R2,2,2*%
%TO.N,Net-(D2-A)*%
X86576779Y-96507216D03*
X84776779Y-95457216D03*
D11*
X82826779Y-95457216D03*
D28*
X81101779Y-95457216D03*
%TD*%
%TO.P,C0R1,1,1*%
%TO.N,col0*%
X95451778Y-77507218D03*
D13*
X93651778Y-77507218D03*
D12*
X93576778Y-76457218D03*
X91776778Y-77507218D03*
%TO.P,C0R1,2,2*%
%TO.N,Net-(D1-A)*%
X86576778Y-77507218D03*
X84776778Y-76457218D03*
D11*
X82826778Y-76457218D03*
D28*
X81101778Y-76457218D03*
%TD*%
%TO.P,C0R3,1,1*%
%TO.N,col0*%
X95451778Y-115507217D03*
D13*
X93651778Y-115507217D03*
D12*
X93576778Y-114457217D03*
X91776778Y-115507217D03*
%TO.P,C0R3,2,2*%
%TO.N,Net-(D3-A)*%
X86576778Y-115507217D03*
X84776778Y-114457217D03*
D11*
X82826778Y-114457217D03*
D28*
X81101778Y-114457217D03*
%TD*%
%TO.P,C4R2,1,1*%
%TO.N,col4*%
X171451779Y-87507218D03*
D13*
X169651779Y-87507218D03*
D12*
X169576779Y-86457218D03*
X167776779Y-87507218D03*
%TO.P,C4R2,2,2*%
%TO.N,Net-(D18-A)*%
X162576779Y-87507218D03*
X160776779Y-86457218D03*
D11*
X158826779Y-86457218D03*
D28*
X157101779Y-86457218D03*
%TD*%
%TO.P,C1R3,1,1*%
%TO.N,col1*%
X114451778Y-106507217D03*
D13*
X112651778Y-106507217D03*
D12*
X112576778Y-105457217D03*
X110776778Y-106507217D03*
%TO.P,C1R3,2,2*%
%TO.N,Net-(D7-A)*%
X105576778Y-106507217D03*
X103776778Y-105457217D03*
D11*
X101826778Y-105457217D03*
D28*
X100101778Y-105457217D03*
%TD*%
D29*
%TO.P,SW3,1,1*%
%TO.N,Net-(J1-Pin_2)*%
X201270000Y-93610000D03*
D30*
%TO.P,SW3,2,2*%
%TO.N,unconnected-(SW3-Pad2)*%
X201270000Y-96110000D03*
%TO.P,SW3,3,3*%
%TO.N,Net-(U1-BAT+)*%
X201270000Y-98610000D03*
%TO.P,SW3,4,4*%
%TO.N,unconnected-(SW3-Pad4)*%
X204570000Y-93610000D03*
%TO.P,SW3,5*%
%TO.N,N/C*%
X204570000Y-96110000D03*
%TO.P,SW3,6*%
X204570000Y-98610000D03*
%TD*%
D31*
%TO.P,SW2,1,1*%
%TO.N,Net-(U1-RESET)*%
X182647963Y-103916770D03*
X176347963Y-103916770D03*
%TO.P,SW2,2,2*%
%TO.N,Net-(SW1-Pad2)*%
X182647963Y-107716770D03*
X176347963Y-107716770D03*
%TD*%
D28*
%TO.P,C2R2,1,1*%
%TO.N,col2*%
X133451777Y-83507217D03*
D13*
X131651777Y-83507217D03*
D12*
X131576777Y-82457217D03*
X129776777Y-83507217D03*
%TO.P,C2R2,2,2*%
%TO.N,Net-(D10-A)*%
X124576777Y-83507217D03*
X122776777Y-82457217D03*
D11*
X120826777Y-82457217D03*
D28*
X119101777Y-82457217D03*
%TD*%
%TO.P,C2R1,1,1*%
%TO.N,col2*%
X133451779Y-64507217D03*
D13*
X131651779Y-64507217D03*
D12*
X131576779Y-63457217D03*
X129776779Y-64507217D03*
%TO.P,C2R1,2,2*%
%TO.N,Net-(D9-A)*%
X124576779Y-64507217D03*
X122776779Y-63457217D03*
D11*
X120826779Y-63457217D03*
D28*
X119101779Y-63457217D03*
%TD*%
%TO.P,C1R2,1,1*%
%TO.N,col1*%
X114451779Y-87507218D03*
D13*
X112651779Y-87507218D03*
D12*
X112576779Y-86457218D03*
X110776779Y-87507218D03*
%TO.P,C1R2,2,2*%
%TO.N,Net-(D6-A)*%
X105576779Y-87507218D03*
X103776779Y-86457218D03*
D11*
X101826779Y-86457218D03*
D28*
X100101779Y-86457218D03*
%TD*%
%TO.P,C4R3,1,1*%
%TO.N,col4*%
X171451778Y-106507217D03*
D13*
X169651778Y-106507217D03*
D12*
X169576778Y-105457217D03*
X167776778Y-106507217D03*
%TO.P,C4R3,2,2*%
%TO.N,Net-(D19-A)*%
X162576778Y-106507217D03*
X160776778Y-105457217D03*
D11*
X158826778Y-105457217D03*
D28*
X157101778Y-105457217D03*
%TD*%
%TO.P,C1R1,1,1*%
%TO.N,col1*%
X114451779Y-68507217D03*
D13*
X112651779Y-68507217D03*
D12*
X112576779Y-67457217D03*
X110776779Y-68507217D03*
%TO.P,C1R1,2,2*%
%TO.N,Net-(D5-A)*%
X105576779Y-68507217D03*
X103776779Y-67457217D03*
D11*
X101826779Y-67457217D03*
D28*
X100101779Y-67457217D03*
%TD*%
%TO.P,C4R1,1,1*%
%TO.N,col4*%
X171451778Y-68507217D03*
D13*
X169651778Y-68507217D03*
D12*
X169576778Y-67457217D03*
X167776778Y-68507217D03*
%TO.P,C4R1,2,2*%
%TO.N,Net-(D17-A)*%
X162576778Y-68507217D03*
X160776778Y-67457217D03*
D11*
X158826778Y-67457217D03*
D28*
X157101778Y-67457217D03*
%TD*%
D32*
%TO.N,col0*%
X187430000Y-124150000D03*
X97270000Y-79430000D03*
X100090000Y-127240000D03*
X97287786Y-98360000D03*
X97327786Y-117620000D03*
%TO.N,Net-(D1-A)*%
X81160000Y-74170000D03*
%TO.N,Net-(D2-A)*%
X81177786Y-93100000D03*
%TO.N,Net-(D3-A)*%
X81217786Y-112360000D03*
%TO.N,col1*%
X189930000Y-124149999D03*
X116251779Y-65141779D03*
X116260000Y-102306391D03*
X116251779Y-84290000D03*
X121548221Y-127820501D03*
%TO.N,Net-(D5-A)*%
X100127786Y-65160000D03*
%TO.N,Net-(D6-A)*%
X100157786Y-84230000D03*
%TO.N,Net-(D7-A)*%
X100166007Y-102246391D03*
%TO.N,col2*%
X135170000Y-79260000D03*
X135270000Y-98630000D03*
X135260000Y-60640000D03*
X192430001Y-124150001D03*
X143088221Y-128220501D03*
%TO.N,Net-(D9-A)*%
X119166007Y-60580000D03*
%TO.N,Net-(D10-A)*%
X119076007Y-79200000D03*
%TO.N,Net-(D11-A)*%
X119176007Y-98570000D03*
%TO.N,col3*%
X161573594Y-128929942D03*
X154120000Y-103110000D03*
X154240000Y-64880000D03*
X200320000Y-117690000D03*
X154220000Y-83450000D03*
%TO.N,Net-(D13-A)*%
X138146007Y-64820000D03*
%TO.N,Net-(D14-A)*%
X138126007Y-83390000D03*
%TO.N,Net-(D15-A)*%
X138026007Y-103050000D03*
%TO.N,col4*%
X202690000Y-118910000D03*
X173170000Y-103000000D03*
X179554244Y-135772588D03*
X173480000Y-70950000D03*
X173160000Y-83940000D03*
%TO.N,Net-(D17-A)*%
X157096007Y-65240000D03*
%TO.N,Net-(D18-A)*%
X157066007Y-83880000D03*
%TO.N,Net-(D19-A)*%
X157076007Y-102940000D03*
%TO.N,row0*%
X192420411Y-105033324D03*
%TO.N,row1*%
X189920411Y-105033323D03*
%TO.N,row2*%
X187377963Y-105060000D03*
%TO.N,row3*%
X196140000Y-124220000D03*
%TO.N,Net-(D4-A)*%
X116280000Y-127570000D03*
%TO.N,Net-(D8-A)*%
X137738221Y-128150501D03*
%TO.N,Net-(D12-A)*%
X159278221Y-128550501D03*
%TO.N,Net-(D16-A)*%
X176570000Y-135040000D03*
%TO.N,Net-(D20-A)*%
X192285555Y-145779524D03*
%TO.N,col5*%
X195027963Y-105060000D03*
X177750000Y-80460000D03*
X177650333Y-94190333D03*
%TO.N,Net-(D22-A)*%
X192420000Y-80380000D03*
%TO.N,Net-(D23-A)*%
X192300000Y-98420000D03*
%TO.N,Net-(U1-RESET)*%
X179496770Y-103916770D03*
%TO.N,Net-(SW1-Pad2)*%
X179470000Y-107716769D03*
%TD*%
D33*
%TO.N,col0*%
X96332214Y-94626781D02*
X96332214Y-79420000D01*
X97292280Y-116597720D02*
X97327786Y-116633226D01*
X100101779Y-127228221D02*
X100101779Y-124457219D01*
X97567280Y-116872720D02*
X100101779Y-119407219D01*
X96332214Y-79420000D02*
X97260000Y-79420000D01*
X96350000Y-98350000D02*
X97277786Y-98350000D01*
X95451778Y-114507217D02*
X96372214Y-114507217D01*
X95451777Y-114757217D02*
X97567280Y-116872720D01*
X187400412Y-124120412D02*
X187400412Y-121155093D01*
X96372214Y-96427652D02*
X95451779Y-95507217D01*
X96332214Y-79420000D02*
X96332214Y-77387653D01*
X100101779Y-119407219D02*
X100101779Y-124457219D01*
X97327786Y-116633226D02*
X97327786Y-117620000D01*
X100090000Y-127240000D02*
X100101779Y-127228221D01*
X97260000Y-79420000D02*
X97270000Y-79430000D01*
X95451779Y-95507217D02*
X96332214Y-94626781D01*
X96372214Y-114507217D02*
X96372214Y-96427652D01*
X96332214Y-77387653D02*
X95451779Y-76507218D01*
X187430000Y-124150000D02*
X187400412Y-124120412D01*
%TO.N,Net-(D1-A)*%
X81101778Y-74228222D02*
X81160000Y-74170000D01*
X81101778Y-76457218D02*
X81101778Y-74228222D01*
%TO.N,Net-(D2-A)*%
X81119564Y-95387218D02*
X81119564Y-93158222D01*
%TO.N,Net-(D3-A)*%
X81159564Y-114647218D02*
X81159564Y-112418222D01*
%TO.N,col1*%
X114451778Y-106507216D02*
X114451778Y-118830586D01*
X121560000Y-127808722D02*
X121560000Y-125037720D01*
X116251779Y-66707217D02*
X116251779Y-65141779D01*
X116251779Y-84290000D02*
X115080000Y-84290000D01*
X114451779Y-68507217D02*
X116251779Y-66707217D01*
X115080000Y-84290000D02*
X115080000Y-83750000D01*
X120078411Y-124457218D02*
X121476778Y-124457218D01*
X115080000Y-87520000D02*
X115079999Y-106519999D01*
X114451778Y-118830586D02*
X120078411Y-124457218D01*
X116260000Y-102306391D02*
X115088221Y-102306391D01*
X115080000Y-83750000D02*
X115080000Y-87520000D01*
X189930000Y-124149999D02*
X189940412Y-124139587D01*
X189940412Y-124139587D02*
X189940412Y-121155093D01*
X115080000Y-68520001D02*
X115080000Y-83750000D01*
%TO.N,Net-(D5-A)*%
X100069564Y-67447218D02*
X100069564Y-65218222D01*
%TO.N,Net-(D6-A)*%
X100099564Y-86517218D02*
X100099564Y-84288222D01*
%TO.N,Net-(D7-A)*%
X100107785Y-104533609D02*
X100107785Y-102304613D01*
%TO.N,col2*%
X143100000Y-128208722D02*
X143100000Y-125437720D01*
X192430001Y-124150001D02*
X192480412Y-124099590D01*
X133940001Y-64450000D02*
X133940000Y-83450000D01*
X135260000Y-60640000D02*
X134088221Y-60640000D01*
X135270000Y-98630000D02*
X134098221Y-98630000D01*
X134088221Y-60640000D02*
X134088221Y-63870775D01*
X133451778Y-102507217D02*
X133451778Y-114900517D01*
X135170000Y-79260000D02*
X133998221Y-79260000D01*
X134088221Y-63870775D02*
X133451779Y-64507217D01*
X192480412Y-124099590D02*
X192480412Y-121155093D01*
X133451778Y-114900517D02*
X143092302Y-124541040D01*
X133940000Y-83450000D02*
X133939998Y-102450001D01*
%TO.N,Net-(D9-A)*%
X119107785Y-62867218D02*
X119107785Y-60638222D01*
%TO.N,Net-(D10-A)*%
X119017785Y-81487218D02*
X119017785Y-79258222D01*
%TO.N,Net-(D11-A)*%
X119117785Y-100857218D02*
X119117785Y-98628222D01*
%TO.N,col3*%
X154240000Y-64880000D02*
X153068221Y-64880000D01*
X163361034Y-126231820D02*
X169036085Y-120556770D01*
X161588812Y-128923166D02*
X162581850Y-126336213D01*
X180177963Y-126056770D02*
X200100412Y-126056769D01*
X152940000Y-87450000D02*
X152939999Y-106450001D01*
X163177963Y-126048749D02*
X163177963Y-117233400D01*
X153068221Y-64880000D02*
X153068221Y-67890775D01*
X153068221Y-67890775D02*
X152451778Y-68507218D01*
X200100412Y-126056769D02*
X200100412Y-120905093D01*
X169036085Y-120556770D02*
X174677964Y-120556770D01*
X163177963Y-117233400D02*
X152451779Y-106507216D01*
X200320000Y-117690000D02*
X200320000Y-120935505D01*
X154220000Y-83450000D02*
X153048221Y-83450000D01*
X200320000Y-120935505D02*
X200100412Y-121155093D01*
X163361034Y-126231820D02*
X163177963Y-126048749D01*
X152939999Y-68450000D02*
X152940000Y-87450000D01*
X154120000Y-103110000D02*
X152948221Y-103110000D01*
X174677964Y-120556770D02*
X180177963Y-126056770D01*
%TO.N,Net-(D13-A)*%
X138087785Y-67107218D02*
X138087785Y-64878222D01*
%TO.N,Net-(D14-A)*%
X138067785Y-85677218D02*
X138067785Y-83448222D01*
%TO.N,Net-(D15-A)*%
X137967785Y-105337218D02*
X137967785Y-103108222D01*
%TO.N,col4*%
X173420000Y-71010000D02*
X173480000Y-70950000D01*
X182527880Y-133706852D02*
X182195728Y-133706853D01*
X202640412Y-120905093D02*
X202640412Y-129939588D01*
X202640037Y-129939213D02*
X186016160Y-129939213D01*
X179570740Y-135770270D02*
X181238371Y-133557249D01*
X171940000Y-71010000D02*
X171939999Y-87490000D01*
X173160000Y-83940000D02*
X171988221Y-83940000D01*
X186016160Y-129939213D02*
X182366076Y-133589295D01*
X202690000Y-121105505D02*
X202640412Y-121155093D01*
X202690000Y-118910000D02*
X202690000Y-121105505D01*
X173170000Y-103000000D02*
X171998221Y-103000000D01*
X171939999Y-87490000D02*
X171939999Y-106489999D01*
X171940000Y-71010000D02*
X173420000Y-71010000D01*
X171940000Y-68489999D02*
X171940000Y-71010000D01*
%TO.N,Net-(D17-A)*%
X157037785Y-67527218D02*
X157037785Y-65298222D01*
%TO.N,Net-(D18-A)*%
X157007785Y-86167218D02*
X157007785Y-83938222D01*
%TO.N,Net-(D19-A)*%
X157017785Y-105227218D02*
X157017785Y-102998222D01*
%TO.N,row0*%
X192420411Y-102715094D02*
X192480412Y-102655093D01*
X192420411Y-105033324D02*
X192420411Y-102715094D01*
%TO.N,row1*%
X189920411Y-105033323D02*
X189920411Y-102675094D01*
X189920411Y-102675094D02*
X189940412Y-102655093D01*
%TO.N,row2*%
X187377963Y-102677542D02*
X187400412Y-102655093D01*
X187377963Y-105060000D02*
X187377963Y-102677542D01*
%TO.N,row3*%
X196140000Y-124220000D02*
X195020412Y-124220000D01*
X195020412Y-124220000D02*
X195020412Y-121155093D01*
%TO.N,Net-(D4-A)*%
X114451779Y-125507219D02*
X114451779Y-127570000D01*
X114451779Y-127570000D02*
X116280000Y-127570000D01*
%TO.N,Net-(D8-A)*%
X135910000Y-126087720D02*
X135910000Y-128150501D01*
X135910000Y-128150501D02*
X137738221Y-128150501D01*
%TO.N,Net-(D12-A)*%
X157450000Y-126487720D02*
X157450000Y-128550501D01*
X157450000Y-128550501D02*
X159278221Y-128550501D01*
%TO.N,Net-(D16-A)*%
X174863209Y-134384825D02*
X176570000Y-135040000D01*
X175602443Y-132459053D02*
X174863209Y-134384825D01*
%TO.N,Net-(D20-A)*%
X192066884Y-143031861D02*
X190825472Y-144679271D01*
X190825472Y-144679271D02*
X192285555Y-145779524D01*
%TO.N,col5*%
X176077963Y-100356770D02*
X194977963Y-100356769D01*
X176112116Y-94190333D02*
X176101783Y-94180000D01*
X177650333Y-94190333D02*
X176112116Y-94190333D01*
X195027963Y-102856770D02*
X195020412Y-102864321D01*
X195020412Y-102849219D02*
X195027963Y-102856770D01*
X176101783Y-95840093D02*
X176101784Y-100332949D01*
X176101783Y-94180000D02*
X176101783Y-95840093D01*
X176101784Y-76840093D02*
X176101784Y-80500000D01*
X176101784Y-80500000D02*
X176101783Y-94180000D01*
X176101784Y-100332949D02*
X176077963Y-100356770D01*
X176141784Y-80460000D02*
X176101784Y-80500000D01*
X195027963Y-102662644D02*
X195020412Y-102655093D01*
X195020412Y-100399219D02*
X195020412Y-102849219D01*
X194977963Y-100356769D02*
X195020412Y-100399219D01*
X195020412Y-102864321D02*
X195020412Y-102905093D01*
X195027963Y-105060000D02*
X195027963Y-102662644D01*
X177750000Y-80460000D02*
X176141784Y-80460000D01*
%TO.N,Net-(D22-A)*%
X190451784Y-80380000D02*
X192420000Y-80380000D01*
X190451784Y-77890093D02*
X190451784Y-80380000D01*
%TO.N,Net-(J1-Pin_1)*%
X197677963Y-91126769D02*
X197680000Y-91128806D01*
X197677963Y-91126769D02*
X197677963Y-88406770D01*
X197680000Y-107145505D02*
X197420412Y-107405093D01*
X197680000Y-91128806D02*
X197680000Y-107145505D01*
X197677963Y-91126769D02*
X201677964Y-91126770D01*
X201677964Y-91126770D02*
X201677963Y-88406770D01*
%TO.N,Net-(D23-A)*%
X190451785Y-96890094D02*
X190451785Y-98420000D01*
X190451785Y-98420000D02*
X192300000Y-98420000D01*
%TO.N,Net-(U1-RESET)*%
X179506769Y-103906771D02*
X179496770Y-103916770D01*
X179496770Y-103916770D02*
X176347963Y-103916770D01*
X200870412Y-110635093D02*
X190495093Y-110635093D01*
X190495093Y-110635093D02*
X183766771Y-103906771D01*
X183766771Y-103906771D02*
X179506769Y-103906771D01*
%TO.N,Net-(SW1-Pad2)*%
X190546286Y-113175093D02*
X185077963Y-107706769D01*
X176347963Y-107716769D02*
X182647963Y-107716769D01*
X200870411Y-113175095D02*
X190546286Y-113175093D01*
X185067963Y-107716769D02*
X182647963Y-107716769D01*
X185077963Y-107706769D02*
X185067963Y-107716769D01*
%TD*%
M02*
