%TF.GenerationSoftware,KiCad,Pcbnew,7.0.2-0*%
%TF.CreationDate,2024-03-15T00:53:17+01:00*%
%TF.ProjectId,defiant,64656669-616e-4742-9e6b-696361645f70,v0.1*%
%TF.SameCoordinates,Original*%
%TF.FileFunction,Profile,NP*%
%FSLAX46Y46*%
G04 Gerber Fmt 4.6, Leading zero omitted, Abs format (unit mm)*
G04 Created by KiCad (PCBNEW 7.0.2-0) date 2024-03-15 00:53:17*
%MOMM*%
%LPD*%
G01*
G04 APERTURE LIST*
%TA.AperFunction,Profile*%
%ADD10C,0.100000*%
%TD*%
G04 APERTURE END LIST*
D10*
X118932214Y-48510094D02*
X135422214Y-48510093D01*
X194422233Y-63900074D02*
X194422214Y-80650093D01*
X175422307Y-54510094D02*
G75*
G03*
X173422325Y-52510093I-2000107J-106D01*
G01*
X161002214Y-131280092D02*
X177210000Y-137150000D01*
X161002213Y-131280095D02*
G75*
G03*
X159928974Y-131012535I-1403313J-3342705D01*
G01*
X175422325Y-54510094D02*
X175422325Y-61900093D01*
X142542215Y-130000092D02*
X159928974Y-131012535D01*
X205130621Y-131676716D02*
G75*
G03*
X205509940Y-130398176I-1617821J1175516D01*
G01*
X194422214Y-80650093D02*
X203502214Y-80650093D01*
X97932215Y-54510094D02*
X97932214Y-61510093D01*
X80932214Y-61510093D02*
X97932214Y-61510093D01*
X97932215Y-128000092D02*
X97932216Y-120000093D01*
X118932214Y-48510114D02*
G75*
G03*
X116932214Y-50510093I-114J-1999886D01*
G01*
X205502207Y-82650094D02*
G75*
G03*
X203502214Y-80650093I-2000207J-206D01*
G01*
X97932209Y-128000092D02*
G75*
G03*
X99932215Y-130000091I2000091J92D01*
G01*
X78932207Y-118000093D02*
G75*
G03*
X80932213Y-120000093I1999893J-107D01*
G01*
X99932215Y-52510115D02*
G75*
G03*
X97932215Y-54510094I-115J-1999885D01*
G01*
X191234510Y-147358015D02*
G75*
G03*
X194028078Y-146915603I1175590J1617915D01*
G01*
X78932214Y-63510094D02*
X78932214Y-118000093D01*
X99932215Y-52510093D02*
X116932216Y-52510094D01*
X137422207Y-50510093D02*
G75*
G03*
X135422214Y-48510093I-1999907J93D01*
G01*
X173422325Y-52510093D02*
X137422213Y-52510094D01*
X80932214Y-61510114D02*
G75*
G03*
X78932214Y-63510094I-14J-1999986D01*
G01*
X116932214Y-50510093D02*
X116932216Y-52510093D01*
X99932215Y-130000091D02*
X142542215Y-130000092D01*
X205130624Y-131676718D02*
X194028079Y-146915603D01*
X137422213Y-50510093D02*
X137422212Y-52510093D01*
X80932213Y-120000093D02*
X97932216Y-120000093D01*
X194422226Y-63900074D02*
G75*
G03*
X192422233Y-61900074I-1999926J74D01*
G01*
X192422233Y-61900074D02*
X175422214Y-61900074D01*
X205509941Y-130398176D02*
X205502214Y-82650094D01*
X191234474Y-147358065D02*
X177210000Y-137150000D01*
M02*
