%TF.GenerationSoftware,KiCad,Pcbnew,7.0.2-0*%
%TF.CreationDate,2024-02-18T22:39:56+01:00*%
%TF.ProjectId,defiant-plate,64656669-616e-4742-9d70-6c6174652e6b,v0.1*%
%TF.SameCoordinates,Original*%
%TF.FileFunction,Profile,NP*%
%FSLAX46Y46*%
G04 Gerber Fmt 4.6, Leading zero omitted, Abs format (unit mm)*
G04 Created by KiCad (PCBNEW 7.0.2-0) date 2024-02-18 22:39:56*
%MOMM*%
%LPD*%
G01*
G04 APERTURE LIST*
%TA.AperFunction,Profile*%
%ADD10C,0.100000*%
%TD*%
G04 APERTURE END LIST*
D10*
X183190000Y-108500000D02*
X175850000Y-108500000D01*
X175850000Y-100650000D02*
X175850000Y-108500000D01*
X193270000Y-100650000D02*
X175850000Y-100650000D01*
X185190000Y-110500000D02*
G75*
G03*
X183190000Y-108500000I-1999951J49D01*
G01*
X185184214Y-118310000D02*
X185190000Y-110500000D01*
X185184214Y-118310000D02*
G75*
G03*
X187184214Y-120310000I2000000J0D01*
G01*
X190210153Y-120286479D02*
X187184214Y-120310000D01*
X191296753Y-120563386D02*
G75*
G03*
X190210153Y-120286480I-1114260J-2102036D01*
G01*
X205046042Y-130406818D02*
X191296753Y-120563385D01*
X193269951Y-100659951D02*
G75*
G03*
X195269951Y-98659951I49J1999951D01*
G01*
X119774252Y-47813324D02*
X136264250Y-47813324D01*
X195264270Y-63203304D02*
X195269951Y-98659951D01*
X176264276Y-53813324D02*
G75*
G03*
X174264362Y-51813324I-1999976J24D01*
G01*
X161844251Y-130583323D02*
X178774251Y-136713323D01*
X161844247Y-130583331D02*
G75*
G03*
X160771011Y-130315766I-1403247J-3342369D01*
G01*
X176264362Y-53813324D02*
X176264362Y-61203323D01*
X143384251Y-129303322D02*
X160771011Y-130315765D01*
X205523181Y-133236042D02*
G75*
G03*
X205046042Y-130406819I-1653181J1176042D01*
G01*
X98774252Y-53813324D02*
X98774251Y-59813323D01*
X81774251Y-59813323D02*
X98774251Y-59813323D01*
X98774252Y-127303322D02*
X98774252Y-118303323D01*
X119774252Y-47813252D02*
G75*
G03*
X117774252Y-49813324I48J-2000048D01*
G01*
X98774278Y-127303322D02*
G75*
G03*
X100774252Y-129303322I2000022J22D01*
G01*
X79774177Y-116303323D02*
G75*
G03*
X81774251Y-118303323I2000023J23D01*
G01*
X100774252Y-51813252D02*
G75*
G03*
X98774252Y-53813324I48J-2000048D01*
G01*
X192988642Y-147071411D02*
G75*
G03*
X195782279Y-146628903I1175558J1618111D01*
G01*
X79774251Y-61813323D02*
X79774251Y-116303323D01*
X100774252Y-51813324D02*
X117774252Y-51813324D01*
X138264276Y-49813324D02*
G75*
G03*
X136264250Y-47813324I-1999976J24D01*
G01*
X174264362Y-51813324D02*
X138264251Y-51813324D01*
X81774251Y-59813351D02*
G75*
G03*
X79774251Y-61813323I-51J-1999949D01*
G01*
X117774252Y-49813324D02*
X117774253Y-51813324D01*
X100774252Y-129303322D02*
X143384251Y-129303322D01*
X205523182Y-133236042D02*
X195782279Y-146628903D01*
X138264250Y-49813324D02*
X138264250Y-51813323D01*
X81774251Y-118303323D02*
X98774252Y-118303323D01*
X195264296Y-63203304D02*
G75*
G03*
X193264270Y-61203304I-1999996J4D01*
G01*
X193264270Y-61203304D02*
X176264251Y-61203304D01*
X192988674Y-147071366D02*
X178774251Y-136713323D01*
%TO.C,T0*%
X102018816Y-112060449D02*
X116018816Y-112060449D01*
X116018816Y-112060449D02*
X116018816Y-126060449D01*
X116018816Y-126060449D02*
X102018816Y-126060449D01*
X102018816Y-126060449D02*
X102018816Y-112060449D01*
%TO.C,T3*%
X169214877Y-114908318D02*
X182370573Y-119696600D01*
X182370573Y-119696600D02*
X177582291Y-132852296D01*
X177582291Y-132852296D02*
X164426595Y-128064014D01*
X164426595Y-128064014D02*
X169214877Y-114908318D01*
%TO.C,T2*%
X145620196Y-112216566D02*
X159601009Y-112949269D01*
X159601009Y-112949269D02*
X158868306Y-126930082D01*
X158868306Y-126930082D02*
X144887493Y-126197379D01*
X144887493Y-126197379D02*
X145620196Y-112216566D01*
%TO.C,T1*%
X123393816Y-112060448D02*
X137393816Y-112060448D01*
X137393816Y-112060448D02*
X137393816Y-126060448D01*
X137393816Y-126060448D02*
X123393816Y-126060448D01*
X123393816Y-126060448D02*
X123393816Y-112060448D01*
%TO.C,C4R1*%
X173018815Y-55060447D02*
X159018815Y-55060447D01*
X159018815Y-55060447D02*
X159018815Y-69060447D01*
X159018815Y-69060447D02*
X173018815Y-69060447D01*
X173018815Y-69060447D02*
X173018815Y-55060447D01*
%TO.C,C4R2*%
X173018816Y-74060447D02*
X159018816Y-74060447D01*
X159018816Y-74060447D02*
X159018816Y-88060447D01*
X159018816Y-88060447D02*
X173018816Y-88060447D01*
X173018816Y-88060447D02*
X173018816Y-74060447D01*
%TO.C,C4R3*%
X173018815Y-93060447D02*
X159018815Y-93060447D01*
X159018815Y-93060447D02*
X159018815Y-107060447D01*
X159018815Y-107060447D02*
X173018815Y-107060447D01*
X173018815Y-107060447D02*
X173018815Y-93060447D01*
%TO.C,C3R3*%
X154018816Y-93060447D02*
X140018816Y-93060447D01*
X140018816Y-93060447D02*
X140018816Y-107060447D01*
X140018816Y-107060447D02*
X154018816Y-107060447D01*
X154018816Y-107060447D02*
X154018816Y-93060447D01*
%TO.C,C3R1*%
X154018815Y-55060448D02*
X140018815Y-55060448D01*
X140018815Y-55060448D02*
X140018815Y-69060448D01*
X140018815Y-69060448D02*
X154018815Y-69060448D01*
X154018815Y-69060448D02*
X154018815Y-55060448D01*
%TO.C,C3R2*%
X154018815Y-74060448D02*
X140018815Y-74060448D01*
X140018815Y-74060448D02*
X140018815Y-88060448D01*
X140018815Y-88060448D02*
X154018815Y-88060448D01*
X154018815Y-88060448D02*
X154018815Y-74060448D01*
%TO.C,C5R2*%
X178018821Y-64443323D02*
X192018821Y-64443323D01*
X192018821Y-64443323D02*
X192018821Y-78443323D01*
X192018821Y-78443323D02*
X178018821Y-78443323D01*
X178018821Y-78443323D02*
X178018821Y-64443323D01*
%TO.C,C5R3*%
X178018821Y-83443323D02*
X192018821Y-83443323D01*
X192018821Y-83443323D02*
X192018821Y-97443323D01*
X192018821Y-97443323D02*
X178018821Y-97443323D01*
X178018821Y-97443323D02*
X178018821Y-83443323D01*
%TO.C,C2R1*%
X135018815Y-51060447D02*
X121018815Y-51060447D01*
X121018815Y-51060447D02*
X121018815Y-65060447D01*
X121018815Y-65060447D02*
X135018815Y-65060447D01*
X135018815Y-65060447D02*
X135018815Y-51060447D01*
%TO.C,C2R2*%
X135018815Y-70060447D02*
X121018815Y-70060447D01*
X121018815Y-70060447D02*
X121018815Y-84060447D01*
X121018815Y-84060447D02*
X135018815Y-84060447D01*
X135018815Y-84060447D02*
X135018815Y-70060447D01*
%TO.C,T4*%
X190784546Y-124176453D02*
X202110784Y-132405447D01*
X202110784Y-132405447D02*
X193881790Y-143731685D01*
X193881790Y-143731685D02*
X182555552Y-135502691D01*
X182555552Y-135502691D02*
X190784546Y-124176453D01*
%TO.C,C2R3*%
X135018815Y-89060447D02*
X121018815Y-89060447D01*
X121018815Y-89060447D02*
X121018815Y-103060447D01*
X121018815Y-103060447D02*
X135018815Y-103060447D01*
X135018815Y-103060447D02*
X135018815Y-89060447D01*
%TO.C,C0R2*%
X97018816Y-82060447D02*
X83018816Y-82060447D01*
X83018816Y-82060447D02*
X83018816Y-96060447D01*
X83018816Y-96060447D02*
X97018816Y-96060447D01*
X97018816Y-96060447D02*
X97018816Y-82060447D01*
%TO.C,C0R3*%
X97018815Y-101060447D02*
X83018815Y-101060447D01*
X83018815Y-101060447D02*
X83018815Y-115060447D01*
X83018815Y-115060447D02*
X97018815Y-115060447D01*
X97018815Y-115060447D02*
X97018815Y-101060447D01*
%TO.C,C1R3*%
X116018815Y-93060447D02*
X102018815Y-93060447D01*
X102018815Y-93060447D02*
X102018815Y-107060447D01*
X102018815Y-107060447D02*
X116018815Y-107060447D01*
X116018815Y-107060447D02*
X116018815Y-93060447D01*
%TO.C,C1R2*%
X116018815Y-74060448D02*
X102018815Y-74060448D01*
X102018815Y-74060448D02*
X102018815Y-88060448D01*
X102018815Y-88060448D02*
X116018815Y-88060448D01*
X116018815Y-88060448D02*
X116018815Y-74060448D01*
%TO.C,C0R1*%
X97018816Y-63060448D02*
X83018816Y-63060448D01*
X83018816Y-63060448D02*
X83018816Y-77060448D01*
X83018816Y-77060448D02*
X97018816Y-77060448D01*
X97018816Y-77060448D02*
X97018816Y-63060448D01*
%TO.C,C1R1*%
X116018817Y-55060447D02*
X102018817Y-55060447D01*
X102018817Y-55060447D02*
X102018817Y-69060447D01*
X102018817Y-69060447D02*
X116018817Y-69060447D01*
X116018817Y-69060447D02*
X116018817Y-55060447D01*
%TD*%
M02*
