M48
; DRILL file {KiCad 7.0.2-0} date 2024 February 18, Sunday 21:26:20
; FORMAT={-:-/ absolute / inch / decimal}
; #@! TF.CreationDate,2024-02-18T21:26:20+01:00
; #@! TF.GenerationSoftware,Kicad,Pcbnew,7.0.2-0
; #@! TF.FileFunction,NonPlated,1,2,NPTH
FMAT,2
INCH
; #@! TA.AperFunction,NonPlated,NPTH,ComponentDrill
T1C0.2067
%
G90
G05
T1
X3.544Y-4.2543
X3.544Y-4.2543
X3.544Y-2.7583
X3.544Y-2.7583
X3.544Y-3.5063
X3.544Y-3.5063
X4.2921Y-3.1914
X4.2921Y-3.1914
X4.2921Y-3.9394
X4.2921Y-3.9394
X4.2921Y-4.6874
X4.2921Y-4.6874
X4.2921Y-2.4433
X4.2921Y-2.4433
X5.0401Y-2.2858
X5.0401Y-2.2858
X5.0401Y-3.0339
X5.0401Y-3.0339
X5.0401Y-3.7819
X5.0401Y-3.7819
X5.1336Y-4.6874
X5.1336Y-4.6874
X5.7881Y-2.4433
X5.7881Y-2.4433
X5.7881Y-3.1914
X5.7881Y-3.1914
X5.7881Y-3.9394
X5.7881Y-3.9394
X5.9939Y-4.7076
X5.9939Y-4.7076
X6.5362Y-2.4433
X6.5362Y-2.4433
X6.5362Y-3.9394
X6.5362Y-3.9394
X6.5362Y-3.1914
X6.5362Y-3.1914
X6.8267Y-4.8772
X6.8267Y-4.8772
X7.2842Y-2.8127
X7.2842Y-2.8127
X7.2842Y-3.5608
X7.2842Y-3.5608
X7.5722Y-5.2738
X7.5722Y-5.2738
T0
M30
