%TF.GenerationSoftware,KiCad,Pcbnew,7.0.2-0*%
%TF.CreationDate,2024-02-18T22:39:56+01:00*%
%TF.ProjectId,defiant-plate,64656669-616e-4742-9d70-6c6174652e6b,v0.1*%
%TF.SameCoordinates,Original*%
%TF.FileFunction,Legend,Bot*%
%TF.FilePolarity,Positive*%
%FSLAX46Y46*%
G04 Gerber Fmt 4.6, Leading zero omitted, Abs format (unit mm)*
G04 Created by KiCad (PCBNEW 7.0.2-0) date 2024-02-18 22:39:56*
%MOMM*%
%LPD*%
G01*
G04 APERTURE LIST*
%ADD10C,0.150000*%
%ADD11C,4.000000*%
G04 APERTURE END LIST*
D10*
X133887852Y-108568214D02*
X133887852Y-107818214D01*
X133887852Y-108103928D02*
X133816424Y-108068214D01*
X133816424Y-108068214D02*
X133673566Y-108068214D01*
X133673566Y-108068214D02*
X133602138Y-108103928D01*
X133602138Y-108103928D02*
X133566424Y-108139642D01*
X133566424Y-108139642D02*
X133530709Y-108211071D01*
X133530709Y-108211071D02*
X133530709Y-108425357D01*
X133530709Y-108425357D02*
X133566424Y-108496785D01*
X133566424Y-108496785D02*
X133602138Y-108532500D01*
X133602138Y-108532500D02*
X133673566Y-108568214D01*
X133673566Y-108568214D02*
X133816424Y-108568214D01*
X133816424Y-108568214D02*
X133887852Y-108532500D01*
X133280710Y-108068214D02*
X133102138Y-108568214D01*
X132923567Y-108068214D02*
X133102138Y-108568214D01*
X133102138Y-108568214D02*
X133173567Y-108746785D01*
X133173567Y-108746785D02*
X133209281Y-108782500D01*
X133209281Y-108782500D02*
X133280710Y-108818214D01*
X132102137Y-108353928D02*
X131744995Y-108353928D01*
X132173566Y-108568214D02*
X131923566Y-107818214D01*
X131923566Y-107818214D02*
X131673566Y-108568214D01*
X131423566Y-108068214D02*
X131423566Y-108568214D01*
X131423566Y-108139642D02*
X131387852Y-108103928D01*
X131387852Y-108103928D02*
X131316423Y-108068214D01*
X131316423Y-108068214D02*
X131209280Y-108068214D01*
X131209280Y-108068214D02*
X131137852Y-108103928D01*
X131137852Y-108103928D02*
X131102138Y-108175357D01*
X131102138Y-108175357D02*
X131102138Y-108568214D01*
X130852138Y-108068214D02*
X130566424Y-108068214D01*
X130744995Y-107818214D02*
X130744995Y-108461071D01*
X130744995Y-108461071D02*
X130709281Y-108532500D01*
X130709281Y-108532500D02*
X130637852Y-108568214D01*
X130637852Y-108568214D02*
X130566424Y-108568214D01*
X130209281Y-108568214D02*
X130280710Y-108532500D01*
X130280710Y-108532500D02*
X130316424Y-108496785D01*
X130316424Y-108496785D02*
X130352138Y-108425357D01*
X130352138Y-108425357D02*
X130352138Y-108211071D01*
X130352138Y-108211071D02*
X130316424Y-108139642D01*
X130316424Y-108139642D02*
X130280710Y-108103928D01*
X130280710Y-108103928D02*
X130209281Y-108068214D01*
X130209281Y-108068214D02*
X130102138Y-108068214D01*
X130102138Y-108068214D02*
X130030710Y-108103928D01*
X130030710Y-108103928D02*
X129994996Y-108139642D01*
X129994996Y-108139642D02*
X129959281Y-108211071D01*
X129959281Y-108211071D02*
X129959281Y-108425357D01*
X129959281Y-108425357D02*
X129994996Y-108496785D01*
X129994996Y-108496785D02*
X130030710Y-108532500D01*
X130030710Y-108532500D02*
X130102138Y-108568214D01*
X130102138Y-108568214D02*
X130209281Y-108568214D01*
X129637853Y-108068214D02*
X129637853Y-108568214D01*
X129637853Y-108139642D02*
X129602139Y-108103928D01*
X129602139Y-108103928D02*
X129530710Y-108068214D01*
X129530710Y-108068214D02*
X129423567Y-108068214D01*
X129423567Y-108068214D02*
X129352139Y-108103928D01*
X129352139Y-108103928D02*
X129316425Y-108175357D01*
X129316425Y-108175357D02*
X129316425Y-108568214D01*
X128959282Y-108568214D02*
X128959282Y-108068214D01*
X128959282Y-107818214D02*
X128994996Y-107853928D01*
X128994996Y-107853928D02*
X128959282Y-107889642D01*
X128959282Y-107889642D02*
X128923568Y-107853928D01*
X128923568Y-107853928D02*
X128959282Y-107818214D01*
X128959282Y-107818214D02*
X128959282Y-107889642D01*
X128280711Y-108068214D02*
X128280711Y-108568214D01*
X128602139Y-108068214D02*
X128602139Y-108461071D01*
X128602139Y-108461071D02*
X128566425Y-108532500D01*
X128566425Y-108532500D02*
X128494996Y-108568214D01*
X128494996Y-108568214D02*
X128387853Y-108568214D01*
X128387853Y-108568214D02*
X128316425Y-108532500D01*
X128316425Y-108532500D02*
X128280711Y-108496785D01*
X127959282Y-108532500D02*
X127887854Y-108568214D01*
X127887854Y-108568214D02*
X127744997Y-108568214D01*
X127744997Y-108568214D02*
X127673568Y-108532500D01*
X127673568Y-108532500D02*
X127637854Y-108461071D01*
X127637854Y-108461071D02*
X127637854Y-108425357D01*
X127637854Y-108425357D02*
X127673568Y-108353928D01*
X127673568Y-108353928D02*
X127744997Y-108318214D01*
X127744997Y-108318214D02*
X127852140Y-108318214D01*
X127852140Y-108318214D02*
X127923568Y-108282500D01*
X127923568Y-108282500D02*
X127959282Y-108211071D01*
X127959282Y-108211071D02*
X127959282Y-108175357D01*
X127959282Y-108175357D02*
X127923568Y-108103928D01*
X127923568Y-108103928D02*
X127852140Y-108068214D01*
X127852140Y-108068214D02*
X127744997Y-108068214D01*
X127744997Y-108068214D02*
X127673568Y-108103928D01*
X126744996Y-108568214D02*
X126744996Y-107818214D01*
X126744996Y-107818214D02*
X126316425Y-108568214D01*
X126316425Y-108568214D02*
X126316425Y-107818214D01*
X125637854Y-108568214D02*
X125637854Y-108175357D01*
X125637854Y-108175357D02*
X125673568Y-108103928D01*
X125673568Y-108103928D02*
X125744996Y-108068214D01*
X125744996Y-108068214D02*
X125887854Y-108068214D01*
X125887854Y-108068214D02*
X125959282Y-108103928D01*
X125637854Y-108532500D02*
X125709282Y-108568214D01*
X125709282Y-108568214D02*
X125887854Y-108568214D01*
X125887854Y-108568214D02*
X125959282Y-108532500D01*
X125959282Y-108532500D02*
X125994996Y-108461071D01*
X125994996Y-108461071D02*
X125994996Y-108389642D01*
X125994996Y-108389642D02*
X125959282Y-108318214D01*
X125959282Y-108318214D02*
X125887854Y-108282500D01*
X125887854Y-108282500D02*
X125709282Y-108282500D01*
X125709282Y-108282500D02*
X125637854Y-108246785D01*
X124959283Y-108068214D02*
X124959283Y-108568214D01*
X125280711Y-108068214D02*
X125280711Y-108461071D01*
X125280711Y-108461071D02*
X125244997Y-108532500D01*
X125244997Y-108532500D02*
X125173568Y-108568214D01*
X125173568Y-108568214D02*
X125066425Y-108568214D01*
X125066425Y-108568214D02*
X124994997Y-108532500D01*
X124994997Y-108532500D02*
X124959283Y-108496785D01*
X124602140Y-108568214D02*
X124602140Y-108068214D01*
X124602140Y-108139642D02*
X124566426Y-108103928D01*
X124566426Y-108103928D02*
X124494997Y-108068214D01*
X124494997Y-108068214D02*
X124387854Y-108068214D01*
X124387854Y-108068214D02*
X124316426Y-108103928D01*
X124316426Y-108103928D02*
X124280712Y-108175357D01*
X124280712Y-108175357D02*
X124280712Y-108568214D01*
X124280712Y-108175357D02*
X124244997Y-108103928D01*
X124244997Y-108103928D02*
X124173569Y-108068214D01*
X124173569Y-108068214D02*
X124066426Y-108068214D01*
X124066426Y-108068214D02*
X123994997Y-108103928D01*
X123994997Y-108103928D02*
X123959283Y-108175357D01*
X123959283Y-108175357D02*
X123959283Y-108568214D01*
X123280712Y-108568214D02*
X123280712Y-108175357D01*
X123280712Y-108175357D02*
X123316426Y-108103928D01*
X123316426Y-108103928D02*
X123387854Y-108068214D01*
X123387854Y-108068214D02*
X123530712Y-108068214D01*
X123530712Y-108068214D02*
X123602140Y-108103928D01*
X123280712Y-108532500D02*
X123352140Y-108568214D01*
X123352140Y-108568214D02*
X123530712Y-108568214D01*
X123530712Y-108568214D02*
X123602140Y-108532500D01*
X123602140Y-108532500D02*
X123637854Y-108461071D01*
X123637854Y-108461071D02*
X123637854Y-108389642D01*
X123637854Y-108389642D02*
X123602140Y-108318214D01*
X123602140Y-108318214D02*
X123530712Y-108282500D01*
X123530712Y-108282500D02*
X123352140Y-108282500D01*
X123352140Y-108282500D02*
X123280712Y-108246785D01*
X122923569Y-108068214D02*
X122923569Y-108568214D01*
X122923569Y-108139642D02*
X122887855Y-108103928D01*
X122887855Y-108103928D02*
X122816426Y-108068214D01*
X122816426Y-108068214D02*
X122709283Y-108068214D01*
X122709283Y-108068214D02*
X122637855Y-108103928D01*
X122637855Y-108103928D02*
X122602141Y-108175357D01*
X122602141Y-108175357D02*
X122602141Y-108568214D01*
X122244998Y-108068214D02*
X122244998Y-108568214D01*
X122244998Y-108139642D02*
X122209284Y-108103928D01*
X122209284Y-108103928D02*
X122137855Y-108068214D01*
X122137855Y-108068214D02*
X122030712Y-108068214D01*
X122030712Y-108068214D02*
X121959284Y-108103928D01*
X121959284Y-108103928D02*
X121923570Y-108175357D01*
X121923570Y-108175357D02*
X121923570Y-108568214D01*
X132578328Y-107137619D02*
X132578328Y-106137619D01*
X132578328Y-106137619D02*
X132340233Y-106137619D01*
X132340233Y-106137619D02*
X132197376Y-106185238D01*
X132197376Y-106185238D02*
X132102138Y-106280476D01*
X132102138Y-106280476D02*
X132054519Y-106375714D01*
X132054519Y-106375714D02*
X132006900Y-106566190D01*
X132006900Y-106566190D02*
X132006900Y-106709047D01*
X132006900Y-106709047D02*
X132054519Y-106899523D01*
X132054519Y-106899523D02*
X132102138Y-106994761D01*
X132102138Y-106994761D02*
X132197376Y-107090000D01*
X132197376Y-107090000D02*
X132340233Y-107137619D01*
X132340233Y-107137619D02*
X132578328Y-107137619D01*
X131197376Y-107090000D02*
X131292614Y-107137619D01*
X131292614Y-107137619D02*
X131483090Y-107137619D01*
X131483090Y-107137619D02*
X131578328Y-107090000D01*
X131578328Y-107090000D02*
X131625947Y-106994761D01*
X131625947Y-106994761D02*
X131625947Y-106613809D01*
X131625947Y-106613809D02*
X131578328Y-106518571D01*
X131578328Y-106518571D02*
X131483090Y-106470952D01*
X131483090Y-106470952D02*
X131292614Y-106470952D01*
X131292614Y-106470952D02*
X131197376Y-106518571D01*
X131197376Y-106518571D02*
X131149757Y-106613809D01*
X131149757Y-106613809D02*
X131149757Y-106709047D01*
X131149757Y-106709047D02*
X131625947Y-106804285D01*
X130864042Y-106470952D02*
X130483090Y-106470952D01*
X130721185Y-107137619D02*
X130721185Y-106280476D01*
X130721185Y-106280476D02*
X130673566Y-106185238D01*
X130673566Y-106185238D02*
X130578328Y-106137619D01*
X130578328Y-106137619D02*
X130483090Y-106137619D01*
X130149756Y-107137619D02*
X130149756Y-106470952D01*
X130149756Y-106137619D02*
X130197375Y-106185238D01*
X130197375Y-106185238D02*
X130149756Y-106232857D01*
X130149756Y-106232857D02*
X130102137Y-106185238D01*
X130102137Y-106185238D02*
X130149756Y-106137619D01*
X130149756Y-106137619D02*
X130149756Y-106232857D01*
X129244995Y-107137619D02*
X129244995Y-106613809D01*
X129244995Y-106613809D02*
X129292614Y-106518571D01*
X129292614Y-106518571D02*
X129387852Y-106470952D01*
X129387852Y-106470952D02*
X129578328Y-106470952D01*
X129578328Y-106470952D02*
X129673566Y-106518571D01*
X129244995Y-107090000D02*
X129340233Y-107137619D01*
X129340233Y-107137619D02*
X129578328Y-107137619D01*
X129578328Y-107137619D02*
X129673566Y-107090000D01*
X129673566Y-107090000D02*
X129721185Y-106994761D01*
X129721185Y-106994761D02*
X129721185Y-106899523D01*
X129721185Y-106899523D02*
X129673566Y-106804285D01*
X129673566Y-106804285D02*
X129578328Y-106756666D01*
X129578328Y-106756666D02*
X129340233Y-106756666D01*
X129340233Y-106756666D02*
X129244995Y-106709047D01*
X128768804Y-106470952D02*
X128768804Y-107137619D01*
X128768804Y-106566190D02*
X128721185Y-106518571D01*
X128721185Y-106518571D02*
X128625947Y-106470952D01*
X128625947Y-106470952D02*
X128483090Y-106470952D01*
X128483090Y-106470952D02*
X128387852Y-106518571D01*
X128387852Y-106518571D02*
X128340233Y-106613809D01*
X128340233Y-106613809D02*
X128340233Y-107137619D01*
X128006899Y-106470952D02*
X127625947Y-106470952D01*
X127864042Y-106137619D02*
X127864042Y-106994761D01*
X127864042Y-106994761D02*
X127816423Y-107090000D01*
X127816423Y-107090000D02*
X127721185Y-107137619D01*
X127721185Y-107137619D02*
X127625947Y-107137619D01*
X126625946Y-106470952D02*
X126387851Y-107137619D01*
X126387851Y-107137619D02*
X126149756Y-106470952D01*
X125578327Y-106137619D02*
X125483089Y-106137619D01*
X125483089Y-106137619D02*
X125387851Y-106185238D01*
X125387851Y-106185238D02*
X125340232Y-106232857D01*
X125340232Y-106232857D02*
X125292613Y-106328095D01*
X125292613Y-106328095D02*
X125244994Y-106518571D01*
X125244994Y-106518571D02*
X125244994Y-106756666D01*
X125244994Y-106756666D02*
X125292613Y-106947142D01*
X125292613Y-106947142D02*
X125340232Y-107042380D01*
X125340232Y-107042380D02*
X125387851Y-107090000D01*
X125387851Y-107090000D02*
X125483089Y-107137619D01*
X125483089Y-107137619D02*
X125578327Y-107137619D01*
X125578327Y-107137619D02*
X125673565Y-107090000D01*
X125673565Y-107090000D02*
X125721184Y-107042380D01*
X125721184Y-107042380D02*
X125768803Y-106947142D01*
X125768803Y-106947142D02*
X125816422Y-106756666D01*
X125816422Y-106756666D02*
X125816422Y-106518571D01*
X125816422Y-106518571D02*
X125768803Y-106328095D01*
X125768803Y-106328095D02*
X125721184Y-106232857D01*
X125721184Y-106232857D02*
X125673565Y-106185238D01*
X125673565Y-106185238D02*
X125578327Y-106137619D01*
X124816422Y-107042380D02*
X124768803Y-107090000D01*
X124768803Y-107090000D02*
X124816422Y-107137619D01*
X124816422Y-107137619D02*
X124864041Y-107090000D01*
X124864041Y-107090000D02*
X124816422Y-107042380D01*
X124816422Y-107042380D02*
X124816422Y-107137619D01*
X123816423Y-107137619D02*
X124387851Y-107137619D01*
X124102137Y-107137619D02*
X124102137Y-106137619D01*
X124102137Y-106137619D02*
X124197375Y-106280476D01*
X124197375Y-106280476D02*
X124292613Y-106375714D01*
X124292613Y-106375714D02*
X124387851Y-106423333D01*
%LPC*%
D11*
%TO.C,REF\u002A\u002A*%
X118494251Y-90563323D03*
%TD*%
%TO.C,*%
X181220000Y-113710000D03*
%TD*%
%TO.C,*%
X119704251Y-116603323D03*
%TD*%
%TO.C,REF\u002A\u002A*%
X156494251Y-71553323D03*
%TD*%
%TO.C,REF\u002A\u002A*%
X118494251Y-71553323D03*
%TD*%
%TO.C,REF\u002A\u002A*%
X156494251Y-90563323D03*
%TD*%
%LPD*%
M02*
