%TF.GenerationSoftware,KiCad,Pcbnew,7.0.2-0*%
%TF.CreationDate,2024-02-18T21:26:20+01:00*%
%TF.ProjectId,defiant,64656669-616e-4742-9e6b-696361645f70,rev?*%
%TF.SameCoordinates,Original*%
%TF.FileFunction,Legend,Top*%
%TF.FilePolarity,Positive*%
%FSLAX46Y46*%
G04 Gerber Fmt 4.6, Leading zero omitted, Abs format (unit mm)*
G04 Created by KiCad (PCBNEW 7.0.2-0) date 2024-02-18 21:26:20*
%MOMM*%
%LPD*%
G01*
G04 APERTURE LIST*
G04 Aperture macros list*
%AMRoundRect*
0 Rectangle with rounded corners*
0 $1 Rounding radius*
0 $2 $3 $4 $5 $6 $7 $8 $9 X,Y pos of 4 corners*
0 Add a 4 corners polygon primitive as box body*
4,1,4,$2,$3,$4,$5,$6,$7,$8,$9,$2,$3,0*
0 Add four circle primitives for the rounded corners*
1,1,$1+$1,$2,$3*
1,1,$1+$1,$4,$5*
1,1,$1+$1,$6,$7*
1,1,$1+$1,$8,$9*
0 Add four rect primitives between the rounded corners*
20,1,$1+$1,$2,$3,$4,$5,0*
20,1,$1+$1,$4,$5,$6,$7,0*
20,1,$1+$1,$6,$7,$8,$9,0*
20,1,$1+$1,$8,$9,$2,$3,0*%
G04 Aperture macros list end*
%ADD10C,0.150000*%
%ADD11C,0.101600*%
%ADD12C,0.100000*%
%ADD13C,0.120000*%
%ADD14C,0.140000*%
%ADD15C,0.127000*%
%ADD16C,0.254000*%
%ADD17C,0.025400*%
%ADD18C,4.000000*%
%ADD19RoundRect,0.225000X-0.402448X-0.171130X-0.038391X-0.435633X0.402448X0.171130X0.038391X0.435633X0*%
%ADD20C,5.250000*%
%ADD21RoundRect,0.500000X-1.062296X-0.186149X0.151229X-1.067827X1.062296X0.186149X-0.151229X1.067827X0*%
%ADD22RoundRect,0.225000X0.225000X0.375000X-0.225000X0.375000X-0.225000X-0.375000X0.225000X-0.375000X0*%
%ADD23RoundRect,0.500000X-0.750000X-0.775000X0.750000X-0.775000X0.750000X0.775000X-0.750000X0.775000X0*%
%ADD24RoundRect,0.225000X-0.244318X-0.362710X0.205066X-0.386262X0.244318X0.362710X-0.205066X0.386262X0*%
%ADD25RoundRect,0.500000X-0.789533X-0.734686X0.708412X-0.813190X0.789533X0.734686X-0.708412X0.813190X0*%
%ADD26R,2.000000X3.000000*%
%ADD27C,2.000000*%
%ADD28RoundRect,0.575000X0.575000X-1.225000X0.575000X1.225000X-0.575000X1.225000X-0.575000X-1.225000X0*%
%ADD29RoundRect,0.225000X-0.225000X-0.375000X0.225000X-0.375000X0.225000X0.375000X-0.225000X0.375000X0*%
%ADD30R,1.700000X1.000000*%
%ADD31RoundRect,0.381000X0.381000X0.381000X-0.381000X0.381000X-0.381000X-0.381000X0.381000X-0.381000X0*%
%ADD32C,1.524000*%
%ADD33RoundRect,0.500000X-0.969835X-0.471747X0.439704X-0.984777X0.969835X0.471747X-0.439704X0.984777X0*%
%ADD34RoundRect,0.225000X-0.339688X-0.275430X0.083173X-0.429339X0.339688X0.275430X-0.083173X0.429339X0*%
%ADD35RoundRect,0.500000X0.750000X0.775000X-0.750000X0.775000X-0.750000X-0.775000X0.750000X-0.775000X0*%
%ADD36R,1.400000X1.400000*%
%ADD37C,1.400000*%
G04 APERTURE END LIST*
D10*
%TO.C,*%
%TO.C,D20*%
X194623897Y-127285093D02*
X195211682Y-126476076D01*
X195211682Y-126476076D02*
X195404305Y-126616025D01*
X195404305Y-126616025D02*
X195491889Y-126738519D01*
X195491889Y-126738519D02*
X195512959Y-126871548D01*
X195512959Y-126871548D02*
X195495504Y-126976587D01*
X195495504Y-126976587D02*
X195422070Y-127158675D01*
X195422070Y-127158675D02*
X195338100Y-127274249D01*
X195338100Y-127274249D02*
X195187617Y-127400357D01*
X195187617Y-127400357D02*
X195093113Y-127449417D01*
X195093113Y-127449417D02*
X194960084Y-127470486D01*
X194960084Y-127470486D02*
X194816520Y-127425042D01*
X194816520Y-127425042D02*
X194623897Y-127285093D01*
X195926195Y-127112921D02*
X195992710Y-127102386D01*
X195992710Y-127102386D02*
X196097749Y-127119841D01*
X196097749Y-127119841D02*
X196290372Y-127259790D01*
X196290372Y-127259790D02*
X196339431Y-127354294D01*
X196339431Y-127354294D02*
X196349966Y-127420808D01*
X196349966Y-127420808D02*
X196332511Y-127525847D01*
X196332511Y-127525847D02*
X196276531Y-127602896D01*
X196276531Y-127602896D02*
X196154037Y-127690480D01*
X196154037Y-127690480D02*
X195355865Y-127816899D01*
X195355865Y-127816899D02*
X195856685Y-128180766D01*
X196945290Y-127735616D02*
X197022339Y-127791595D01*
X197022339Y-127791595D02*
X197071399Y-127886099D01*
X197071399Y-127886099D02*
X197081934Y-127952614D01*
X197081934Y-127952614D02*
X197064479Y-128057653D01*
X197064479Y-128057653D02*
X196991044Y-128239741D01*
X196991044Y-128239741D02*
X196851095Y-128432364D01*
X196851095Y-128432364D02*
X196700612Y-128558473D01*
X196700612Y-128558473D02*
X196606108Y-128607532D01*
X196606108Y-128607532D02*
X196539593Y-128618067D01*
X196539593Y-128618067D02*
X196434554Y-128600612D01*
X196434554Y-128600612D02*
X196357505Y-128544633D01*
X196357505Y-128544633D02*
X196308445Y-128450129D01*
X196308445Y-128450129D02*
X196297911Y-128383614D01*
X196297911Y-128383614D02*
X196315366Y-128278575D01*
X196315366Y-128278575D02*
X196388800Y-128096487D01*
X196388800Y-128096487D02*
X196528749Y-127903864D01*
X196528749Y-127903864D02*
X196679233Y-127777755D01*
X196679233Y-127777755D02*
X196773737Y-127728696D01*
X196773737Y-127728696D02*
X196840251Y-127718161D01*
X196840251Y-127718161D02*
X196945290Y-127735616D01*
%TO.C,D3*%
X88430721Y-105323066D02*
X88430721Y-104323066D01*
X88430721Y-104323066D02*
X88668816Y-104323066D01*
X88668816Y-104323066D02*
X88811673Y-104370685D01*
X88811673Y-104370685D02*
X88906911Y-104465923D01*
X88906911Y-104465923D02*
X88954530Y-104561161D01*
X88954530Y-104561161D02*
X89002149Y-104751637D01*
X89002149Y-104751637D02*
X89002149Y-104894494D01*
X89002149Y-104894494D02*
X88954530Y-105084970D01*
X88954530Y-105084970D02*
X88906911Y-105180208D01*
X88906911Y-105180208D02*
X88811673Y-105275447D01*
X88811673Y-105275447D02*
X88668816Y-105323066D01*
X88668816Y-105323066D02*
X88430721Y-105323066D01*
X89335483Y-104323066D02*
X89954530Y-104323066D01*
X89954530Y-104323066D02*
X89621197Y-104704018D01*
X89621197Y-104704018D02*
X89764054Y-104704018D01*
X89764054Y-104704018D02*
X89859292Y-104751637D01*
X89859292Y-104751637D02*
X89906911Y-104799256D01*
X89906911Y-104799256D02*
X89954530Y-104894494D01*
X89954530Y-104894494D02*
X89954530Y-105132589D01*
X89954530Y-105132589D02*
X89906911Y-105227827D01*
X89906911Y-105227827D02*
X89859292Y-105275447D01*
X89859292Y-105275447D02*
X89764054Y-105323066D01*
X89764054Y-105323066D02*
X89478340Y-105323066D01*
X89478340Y-105323066D02*
X89383102Y-105275447D01*
X89383102Y-105275447D02*
X89335483Y-105227827D01*
%TO.C,D13*%
X144954530Y-59323066D02*
X144954530Y-58323066D01*
X144954530Y-58323066D02*
X145192625Y-58323066D01*
X145192625Y-58323066D02*
X145335482Y-58370685D01*
X145335482Y-58370685D02*
X145430720Y-58465923D01*
X145430720Y-58465923D02*
X145478339Y-58561161D01*
X145478339Y-58561161D02*
X145525958Y-58751637D01*
X145525958Y-58751637D02*
X145525958Y-58894494D01*
X145525958Y-58894494D02*
X145478339Y-59084970D01*
X145478339Y-59084970D02*
X145430720Y-59180208D01*
X145430720Y-59180208D02*
X145335482Y-59275447D01*
X145335482Y-59275447D02*
X145192625Y-59323066D01*
X145192625Y-59323066D02*
X144954530Y-59323066D01*
X146478339Y-59323066D02*
X145906911Y-59323066D01*
X146192625Y-59323066D02*
X146192625Y-58323066D01*
X146192625Y-58323066D02*
X146097387Y-58465923D01*
X146097387Y-58465923D02*
X146002149Y-58561161D01*
X146002149Y-58561161D02*
X145906911Y-58608780D01*
X146811673Y-58323066D02*
X147430720Y-58323066D01*
X147430720Y-58323066D02*
X147097387Y-58704018D01*
X147097387Y-58704018D02*
X147240244Y-58704018D01*
X147240244Y-58704018D02*
X147335482Y-58751637D01*
X147335482Y-58751637D02*
X147383101Y-58799256D01*
X147383101Y-58799256D02*
X147430720Y-58894494D01*
X147430720Y-58894494D02*
X147430720Y-59132589D01*
X147430720Y-59132589D02*
X147383101Y-59227827D01*
X147383101Y-59227827D02*
X147335482Y-59275447D01*
X147335482Y-59275447D02*
X147240244Y-59323066D01*
X147240244Y-59323066D02*
X146954530Y-59323066D01*
X146954530Y-59323066D02*
X146859292Y-59275447D01*
X146859292Y-59275447D02*
X146811673Y-59227827D01*
%TO.C,D12*%
X150562088Y-112724498D02*
X150614424Y-111725868D01*
X150614424Y-111725868D02*
X150852193Y-111738329D01*
X150852193Y-111738329D02*
X150992362Y-111793359D01*
X150992362Y-111793359D02*
X151082486Y-111893451D01*
X151082486Y-111893451D02*
X151125055Y-111991051D01*
X151125055Y-111991051D02*
X151162640Y-112183759D01*
X151162640Y-112183759D02*
X151155163Y-112326420D01*
X151155163Y-112326420D02*
X151097641Y-112514143D01*
X151097641Y-112514143D02*
X151045103Y-112606758D01*
X151045103Y-112606758D02*
X150945011Y-112696881D01*
X150945011Y-112696881D02*
X150799857Y-112736959D01*
X150799857Y-112736959D02*
X150562088Y-112724498D01*
X152083809Y-112804248D02*
X151513164Y-112774342D01*
X151798487Y-112789295D02*
X151850823Y-111790665D01*
X151850823Y-111790665D02*
X151748239Y-111928342D01*
X151748239Y-111928342D02*
X151648147Y-112018465D01*
X151648147Y-112018465D02*
X151550547Y-112061035D01*
X152511591Y-111920663D02*
X152561637Y-111875602D01*
X152561637Y-111875602D02*
X152659237Y-111833032D01*
X152659237Y-111833032D02*
X152897006Y-111845493D01*
X152897006Y-111845493D02*
X152989621Y-111898031D01*
X152989621Y-111898031D02*
X153034683Y-111948077D01*
X153034683Y-111948077D02*
X153077252Y-112045677D01*
X153077252Y-112045677D02*
X153072268Y-112140785D01*
X153072268Y-112140785D02*
X153017238Y-112280954D01*
X153017238Y-112280954D02*
X152416686Y-112821693D01*
X152416686Y-112821693D02*
X153034885Y-112854092D01*
%TO.C,D14*%
X144954529Y-78323066D02*
X144954529Y-77323066D01*
X144954529Y-77323066D02*
X145192624Y-77323066D01*
X145192624Y-77323066D02*
X145335481Y-77370685D01*
X145335481Y-77370685D02*
X145430719Y-77465923D01*
X145430719Y-77465923D02*
X145478338Y-77561161D01*
X145478338Y-77561161D02*
X145525957Y-77751637D01*
X145525957Y-77751637D02*
X145525957Y-77894494D01*
X145525957Y-77894494D02*
X145478338Y-78084970D01*
X145478338Y-78084970D02*
X145430719Y-78180208D01*
X145430719Y-78180208D02*
X145335481Y-78275447D01*
X145335481Y-78275447D02*
X145192624Y-78323066D01*
X145192624Y-78323066D02*
X144954529Y-78323066D01*
X146478338Y-78323066D02*
X145906910Y-78323066D01*
X146192624Y-78323066D02*
X146192624Y-77323066D01*
X146192624Y-77323066D02*
X146097386Y-77465923D01*
X146097386Y-77465923D02*
X146002148Y-77561161D01*
X146002148Y-77561161D02*
X145906910Y-77608780D01*
X147335481Y-77656399D02*
X147335481Y-78323066D01*
X147097386Y-77275447D02*
X146859291Y-77989732D01*
X146859291Y-77989732D02*
X147478338Y-77989732D01*
%TO.C,D11*%
X125954530Y-93323066D02*
X125954530Y-92323066D01*
X125954530Y-92323066D02*
X126192625Y-92323066D01*
X126192625Y-92323066D02*
X126335482Y-92370685D01*
X126335482Y-92370685D02*
X126430720Y-92465923D01*
X126430720Y-92465923D02*
X126478339Y-92561161D01*
X126478339Y-92561161D02*
X126525958Y-92751637D01*
X126525958Y-92751637D02*
X126525958Y-92894494D01*
X126525958Y-92894494D02*
X126478339Y-93084970D01*
X126478339Y-93084970D02*
X126430720Y-93180208D01*
X126430720Y-93180208D02*
X126335482Y-93275447D01*
X126335482Y-93275447D02*
X126192625Y-93323066D01*
X126192625Y-93323066D02*
X125954530Y-93323066D01*
X127478339Y-93323066D02*
X126906911Y-93323066D01*
X127192625Y-93323066D02*
X127192625Y-92323066D01*
X127192625Y-92323066D02*
X127097387Y-92465923D01*
X127097387Y-92465923D02*
X127002149Y-92561161D01*
X127002149Y-92561161D02*
X126906911Y-92608780D01*
X128430720Y-93323066D02*
X127859292Y-93323066D01*
X128145006Y-93323066D02*
X128145006Y-92323066D01*
X128145006Y-92323066D02*
X128049768Y-92465923D01*
X128049768Y-92465923D02*
X127954530Y-92561161D01*
X127954530Y-92561161D02*
X127859292Y-92608780D01*
D11*
%TO.C,U1*%
X192844718Y-111885656D02*
X193564385Y-111885656D01*
X193564385Y-111885656D02*
X193649051Y-111843323D01*
X193649051Y-111843323D02*
X193691385Y-111800989D01*
X193691385Y-111800989D02*
X193733718Y-111716323D01*
X193733718Y-111716323D02*
X193733718Y-111546989D01*
X193733718Y-111546989D02*
X193691385Y-111462323D01*
X193691385Y-111462323D02*
X193649051Y-111419989D01*
X193649051Y-111419989D02*
X193564385Y-111377656D01*
X193564385Y-111377656D02*
X192844718Y-111377656D01*
X193733718Y-110488656D02*
X193733718Y-110996656D01*
X193733718Y-110742656D02*
X192844718Y-110742656D01*
X192844718Y-110742656D02*
X192971718Y-110827323D01*
X192971718Y-110827323D02*
X193056385Y-110911990D01*
X193056385Y-110911990D02*
X193098718Y-110996656D01*
D10*
X189899829Y-109684514D02*
X188899829Y-110351180D01*
X189899829Y-110351180D02*
X188899829Y-109684514D01*
X188899829Y-110732133D02*
X189899829Y-110732133D01*
X189185544Y-111160704D02*
X189185544Y-111636894D01*
X188899829Y-111065466D02*
X189899829Y-111398799D01*
X189899829Y-111398799D02*
X188899829Y-111732132D01*
X189899829Y-112255942D02*
X189899829Y-112446418D01*
X189899829Y-112446418D02*
X189852210Y-112541656D01*
X189852210Y-112541656D02*
X189756972Y-112636894D01*
X189756972Y-112636894D02*
X189566496Y-112684513D01*
X189566496Y-112684513D02*
X189233163Y-112684513D01*
X189233163Y-112684513D02*
X189042687Y-112636894D01*
X189042687Y-112636894D02*
X188947449Y-112541656D01*
X188947449Y-112541656D02*
X188899829Y-112446418D01*
X188899829Y-112446418D02*
X188899829Y-112255942D01*
X188899829Y-112255942D02*
X188947449Y-112160704D01*
X188947449Y-112160704D02*
X189042687Y-112065466D01*
X189042687Y-112065466D02*
X189233163Y-112017847D01*
X189233163Y-112017847D02*
X189566496Y-112017847D01*
X189566496Y-112017847D02*
X189756972Y-112065466D01*
X189756972Y-112065466D02*
X189852210Y-112160704D01*
X189852210Y-112160704D02*
X189899829Y-112255942D01*
X190947449Y-106446418D02*
X190899829Y-106589275D01*
X190899829Y-106589275D02*
X190899829Y-106827370D01*
X190899829Y-106827370D02*
X190947449Y-106922608D01*
X190947449Y-106922608D02*
X190995068Y-106970227D01*
X190995068Y-106970227D02*
X191090306Y-107017846D01*
X191090306Y-107017846D02*
X191185544Y-107017846D01*
X191185544Y-107017846D02*
X191280782Y-106970227D01*
X191280782Y-106970227D02*
X191328401Y-106922608D01*
X191328401Y-106922608D02*
X191376020Y-106827370D01*
X191376020Y-106827370D02*
X191423639Y-106636894D01*
X191423639Y-106636894D02*
X191471258Y-106541656D01*
X191471258Y-106541656D02*
X191518877Y-106494037D01*
X191518877Y-106494037D02*
X191614115Y-106446418D01*
X191614115Y-106446418D02*
X191709353Y-106446418D01*
X191709353Y-106446418D02*
X191804591Y-106494037D01*
X191804591Y-106494037D02*
X191852210Y-106541656D01*
X191852210Y-106541656D02*
X191899829Y-106636894D01*
X191899829Y-106636894D02*
X191899829Y-106874989D01*
X191899829Y-106874989D02*
X191852210Y-107017846D01*
X190947449Y-107827370D02*
X190899829Y-107732132D01*
X190899829Y-107732132D02*
X190899829Y-107541656D01*
X190899829Y-107541656D02*
X190947449Y-107446418D01*
X190947449Y-107446418D02*
X191042687Y-107398799D01*
X191042687Y-107398799D02*
X191423639Y-107398799D01*
X191423639Y-107398799D02*
X191518877Y-107446418D01*
X191518877Y-107446418D02*
X191566496Y-107541656D01*
X191566496Y-107541656D02*
X191566496Y-107732132D01*
X191566496Y-107732132D02*
X191518877Y-107827370D01*
X191518877Y-107827370D02*
X191423639Y-107874989D01*
X191423639Y-107874989D02*
X191328401Y-107874989D01*
X191328401Y-107874989D02*
X191233163Y-107398799D01*
X190947449Y-108684513D02*
X190899829Y-108589275D01*
X190899829Y-108589275D02*
X190899829Y-108398799D01*
X190899829Y-108398799D02*
X190947449Y-108303561D01*
X190947449Y-108303561D02*
X191042687Y-108255942D01*
X191042687Y-108255942D02*
X191423639Y-108255942D01*
X191423639Y-108255942D02*
X191518877Y-108303561D01*
X191518877Y-108303561D02*
X191566496Y-108398799D01*
X191566496Y-108398799D02*
X191566496Y-108589275D01*
X191566496Y-108589275D02*
X191518877Y-108684513D01*
X191518877Y-108684513D02*
X191423639Y-108732132D01*
X191423639Y-108732132D02*
X191328401Y-108732132D01*
X191328401Y-108732132D02*
X191233163Y-108255942D01*
X190947449Y-109541656D02*
X190899829Y-109446418D01*
X190899829Y-109446418D02*
X190899829Y-109255942D01*
X190899829Y-109255942D02*
X190947449Y-109160704D01*
X190947449Y-109160704D02*
X191042687Y-109113085D01*
X191042687Y-109113085D02*
X191423639Y-109113085D01*
X191423639Y-109113085D02*
X191518877Y-109160704D01*
X191518877Y-109160704D02*
X191566496Y-109255942D01*
X191566496Y-109255942D02*
X191566496Y-109446418D01*
X191566496Y-109446418D02*
X191518877Y-109541656D01*
X191518877Y-109541656D02*
X191423639Y-109589275D01*
X191423639Y-109589275D02*
X191328401Y-109589275D01*
X191328401Y-109589275D02*
X191233163Y-109113085D01*
X190899829Y-110446418D02*
X191899829Y-110446418D01*
X190947449Y-110446418D02*
X190899829Y-110351180D01*
X190899829Y-110351180D02*
X190899829Y-110160704D01*
X190899829Y-110160704D02*
X190947449Y-110065466D01*
X190947449Y-110065466D02*
X190995068Y-110017847D01*
X190995068Y-110017847D02*
X191090306Y-109970228D01*
X191090306Y-109970228D02*
X191376020Y-109970228D01*
X191376020Y-109970228D02*
X191471258Y-110017847D01*
X191471258Y-110017847D02*
X191518877Y-110065466D01*
X191518877Y-110065466D02*
X191566496Y-110160704D01*
X191566496Y-110160704D02*
X191566496Y-110351180D01*
X191566496Y-110351180D02*
X191518877Y-110446418D01*
X190947449Y-111636895D02*
X190899829Y-111779752D01*
X190899829Y-111779752D02*
X190899829Y-112017847D01*
X190899829Y-112017847D02*
X190947449Y-112113085D01*
X190947449Y-112113085D02*
X190995068Y-112160704D01*
X190995068Y-112160704D02*
X191090306Y-112208323D01*
X191090306Y-112208323D02*
X191185544Y-112208323D01*
X191185544Y-112208323D02*
X191280782Y-112160704D01*
X191280782Y-112160704D02*
X191328401Y-112113085D01*
X191328401Y-112113085D02*
X191376020Y-112017847D01*
X191376020Y-112017847D02*
X191423639Y-111827371D01*
X191423639Y-111827371D02*
X191471258Y-111732133D01*
X191471258Y-111732133D02*
X191518877Y-111684514D01*
X191518877Y-111684514D02*
X191614115Y-111636895D01*
X191614115Y-111636895D02*
X191709353Y-111636895D01*
X191709353Y-111636895D02*
X191804591Y-111684514D01*
X191804591Y-111684514D02*
X191852210Y-111732133D01*
X191852210Y-111732133D02*
X191899829Y-111827371D01*
X191899829Y-111827371D02*
X191899829Y-112065466D01*
X191899829Y-112065466D02*
X191852210Y-112208323D01*
X191566496Y-112494038D02*
X191566496Y-112874990D01*
X191899829Y-112636895D02*
X191042687Y-112636895D01*
X191042687Y-112636895D02*
X190947449Y-112684514D01*
X190947449Y-112684514D02*
X190899829Y-112779752D01*
X190899829Y-112779752D02*
X190899829Y-112874990D01*
X191566496Y-113636895D02*
X190899829Y-113636895D01*
X191566496Y-113208324D02*
X191042687Y-113208324D01*
X191042687Y-113208324D02*
X190947449Y-113255943D01*
X190947449Y-113255943D02*
X190899829Y-113351181D01*
X190899829Y-113351181D02*
X190899829Y-113494038D01*
X190899829Y-113494038D02*
X190947449Y-113589276D01*
X190947449Y-113589276D02*
X190995068Y-113636895D01*
X190899829Y-114541657D02*
X191899829Y-114541657D01*
X190947449Y-114541657D02*
X190899829Y-114446419D01*
X190899829Y-114446419D02*
X190899829Y-114255943D01*
X190899829Y-114255943D02*
X190947449Y-114160705D01*
X190947449Y-114160705D02*
X190995068Y-114113086D01*
X190995068Y-114113086D02*
X191090306Y-114065467D01*
X191090306Y-114065467D02*
X191376020Y-114065467D01*
X191376020Y-114065467D02*
X191471258Y-114113086D01*
X191471258Y-114113086D02*
X191518877Y-114160705D01*
X191518877Y-114160705D02*
X191566496Y-114255943D01*
X191566496Y-114255943D02*
X191566496Y-114446419D01*
X191566496Y-114446419D02*
X191518877Y-114541657D01*
X190899829Y-115017848D02*
X191566496Y-115017848D01*
X191899829Y-115017848D02*
X191852210Y-114970229D01*
X191852210Y-114970229D02*
X191804591Y-115017848D01*
X191804591Y-115017848D02*
X191852210Y-115065467D01*
X191852210Y-115065467D02*
X191899829Y-115017848D01*
X191899829Y-115017848D02*
X191804591Y-115017848D01*
X190899829Y-115636895D02*
X190947449Y-115541657D01*
X190947449Y-115541657D02*
X190995068Y-115494038D01*
X190995068Y-115494038D02*
X191090306Y-115446419D01*
X191090306Y-115446419D02*
X191376020Y-115446419D01*
X191376020Y-115446419D02*
X191471258Y-115494038D01*
X191471258Y-115494038D02*
X191518877Y-115541657D01*
X191518877Y-115541657D02*
X191566496Y-115636895D01*
X191566496Y-115636895D02*
X191566496Y-115779752D01*
X191566496Y-115779752D02*
X191518877Y-115874990D01*
X191518877Y-115874990D02*
X191471258Y-115922609D01*
X191471258Y-115922609D02*
X191376020Y-115970228D01*
X191376020Y-115970228D02*
X191090306Y-115970228D01*
X191090306Y-115970228D02*
X190995068Y-115922609D01*
X190995068Y-115922609D02*
X190947449Y-115874990D01*
X190947449Y-115874990D02*
X190899829Y-115779752D01*
X190899829Y-115779752D02*
X190899829Y-115636895D01*
%TO.C,D7*%
X107430721Y-97323067D02*
X107430721Y-96323067D01*
X107430721Y-96323067D02*
X107668816Y-96323067D01*
X107668816Y-96323067D02*
X107811673Y-96370686D01*
X107811673Y-96370686D02*
X107906911Y-96465924D01*
X107906911Y-96465924D02*
X107954530Y-96561162D01*
X107954530Y-96561162D02*
X108002149Y-96751638D01*
X108002149Y-96751638D02*
X108002149Y-96894495D01*
X108002149Y-96894495D02*
X107954530Y-97084971D01*
X107954530Y-97084971D02*
X107906911Y-97180209D01*
X107906911Y-97180209D02*
X107811673Y-97275448D01*
X107811673Y-97275448D02*
X107668816Y-97323067D01*
X107668816Y-97323067D02*
X107430721Y-97323067D01*
X108335483Y-96323067D02*
X109002149Y-96323067D01*
X109002149Y-96323067D02*
X108573578Y-97323067D01*
%TO.C,D5*%
X107430720Y-59323066D02*
X107430720Y-58323066D01*
X107430720Y-58323066D02*
X107668815Y-58323066D01*
X107668815Y-58323066D02*
X107811672Y-58370685D01*
X107811672Y-58370685D02*
X107906910Y-58465923D01*
X107906910Y-58465923D02*
X107954529Y-58561161D01*
X107954529Y-58561161D02*
X108002148Y-58751637D01*
X108002148Y-58751637D02*
X108002148Y-58894494D01*
X108002148Y-58894494D02*
X107954529Y-59084970D01*
X107954529Y-59084970D02*
X107906910Y-59180208D01*
X107906910Y-59180208D02*
X107811672Y-59275447D01*
X107811672Y-59275447D02*
X107668815Y-59323066D01*
X107668815Y-59323066D02*
X107430720Y-59323066D01*
X108906910Y-58323066D02*
X108430720Y-58323066D01*
X108430720Y-58323066D02*
X108383101Y-58799256D01*
X108383101Y-58799256D02*
X108430720Y-58751637D01*
X108430720Y-58751637D02*
X108525958Y-58704018D01*
X108525958Y-58704018D02*
X108764053Y-58704018D01*
X108764053Y-58704018D02*
X108859291Y-58751637D01*
X108859291Y-58751637D02*
X108906910Y-58799256D01*
X108906910Y-58799256D02*
X108954529Y-58894494D01*
X108954529Y-58894494D02*
X108954529Y-59132589D01*
X108954529Y-59132589D02*
X108906910Y-59227827D01*
X108906910Y-59227827D02*
X108859291Y-59275447D01*
X108859291Y-59275447D02*
X108764053Y-59323066D01*
X108764053Y-59323066D02*
X108525958Y-59323066D01*
X108525958Y-59323066D02*
X108430720Y-59275447D01*
X108430720Y-59275447D02*
X108383101Y-59227827D01*
%TO.C,D10*%
X125954530Y-74323067D02*
X125954530Y-73323067D01*
X125954530Y-73323067D02*
X126192625Y-73323067D01*
X126192625Y-73323067D02*
X126335482Y-73370686D01*
X126335482Y-73370686D02*
X126430720Y-73465924D01*
X126430720Y-73465924D02*
X126478339Y-73561162D01*
X126478339Y-73561162D02*
X126525958Y-73751638D01*
X126525958Y-73751638D02*
X126525958Y-73894495D01*
X126525958Y-73894495D02*
X126478339Y-74084971D01*
X126478339Y-74084971D02*
X126430720Y-74180209D01*
X126430720Y-74180209D02*
X126335482Y-74275448D01*
X126335482Y-74275448D02*
X126192625Y-74323067D01*
X126192625Y-74323067D02*
X125954530Y-74323067D01*
X127478339Y-74323067D02*
X126906911Y-74323067D01*
X127192625Y-74323067D02*
X127192625Y-73323067D01*
X127192625Y-73323067D02*
X127097387Y-73465924D01*
X127097387Y-73465924D02*
X127002149Y-73561162D01*
X127002149Y-73561162D02*
X126906911Y-73608781D01*
X128097387Y-73323067D02*
X128192625Y-73323067D01*
X128192625Y-73323067D02*
X128287863Y-73370686D01*
X128287863Y-73370686D02*
X128335482Y-73418305D01*
X128335482Y-73418305D02*
X128383101Y-73513543D01*
X128383101Y-73513543D02*
X128430720Y-73704019D01*
X128430720Y-73704019D02*
X128430720Y-73942114D01*
X128430720Y-73942114D02*
X128383101Y-74132590D01*
X128383101Y-74132590D02*
X128335482Y-74227828D01*
X128335482Y-74227828D02*
X128287863Y-74275448D01*
X128287863Y-74275448D02*
X128192625Y-74323067D01*
X128192625Y-74323067D02*
X128097387Y-74323067D01*
X128097387Y-74323067D02*
X128002149Y-74275448D01*
X128002149Y-74275448D02*
X127954530Y-74227828D01*
X127954530Y-74227828D02*
X127906911Y-74132590D01*
X127906911Y-74132590D02*
X127859292Y-73942114D01*
X127859292Y-73942114D02*
X127859292Y-73704019D01*
X127859292Y-73704019D02*
X127906911Y-73513543D01*
X127906911Y-73513543D02*
X127954530Y-73418305D01*
X127954530Y-73418305D02*
X128002149Y-73370686D01*
X128002149Y-73370686D02*
X128097387Y-73323067D01*
%TO.C,D15*%
X144954529Y-97323066D02*
X144954529Y-96323066D01*
X144954529Y-96323066D02*
X145192624Y-96323066D01*
X145192624Y-96323066D02*
X145335481Y-96370685D01*
X145335481Y-96370685D02*
X145430719Y-96465923D01*
X145430719Y-96465923D02*
X145478338Y-96561161D01*
X145478338Y-96561161D02*
X145525957Y-96751637D01*
X145525957Y-96751637D02*
X145525957Y-96894494D01*
X145525957Y-96894494D02*
X145478338Y-97084970D01*
X145478338Y-97084970D02*
X145430719Y-97180208D01*
X145430719Y-97180208D02*
X145335481Y-97275447D01*
X145335481Y-97275447D02*
X145192624Y-97323066D01*
X145192624Y-97323066D02*
X144954529Y-97323066D01*
X146478338Y-97323066D02*
X145906910Y-97323066D01*
X146192624Y-97323066D02*
X146192624Y-96323066D01*
X146192624Y-96323066D02*
X146097386Y-96465923D01*
X146097386Y-96465923D02*
X146002148Y-96561161D01*
X146002148Y-96561161D02*
X145906910Y-96608780D01*
X147383100Y-96323066D02*
X146906910Y-96323066D01*
X146906910Y-96323066D02*
X146859291Y-96799256D01*
X146859291Y-96799256D02*
X146906910Y-96751637D01*
X146906910Y-96751637D02*
X147002148Y-96704018D01*
X147002148Y-96704018D02*
X147240243Y-96704018D01*
X147240243Y-96704018D02*
X147335481Y-96751637D01*
X147335481Y-96751637D02*
X147383100Y-96799256D01*
X147383100Y-96799256D02*
X147430719Y-96894494D01*
X147430719Y-96894494D02*
X147430719Y-97132589D01*
X147430719Y-97132589D02*
X147383100Y-97227827D01*
X147383100Y-97227827D02*
X147335481Y-97275447D01*
X147335481Y-97275447D02*
X147240243Y-97323066D01*
X147240243Y-97323066D02*
X147002148Y-97323066D01*
X147002148Y-97323066D02*
X146906910Y-97275447D01*
X146906910Y-97275447D02*
X146859291Y-97227827D01*
%TO.C,D17*%
X163954529Y-59323067D02*
X163954529Y-58323067D01*
X163954529Y-58323067D02*
X164192624Y-58323067D01*
X164192624Y-58323067D02*
X164335481Y-58370686D01*
X164335481Y-58370686D02*
X164430719Y-58465924D01*
X164430719Y-58465924D02*
X164478338Y-58561162D01*
X164478338Y-58561162D02*
X164525957Y-58751638D01*
X164525957Y-58751638D02*
X164525957Y-58894495D01*
X164525957Y-58894495D02*
X164478338Y-59084971D01*
X164478338Y-59084971D02*
X164430719Y-59180209D01*
X164430719Y-59180209D02*
X164335481Y-59275448D01*
X164335481Y-59275448D02*
X164192624Y-59323067D01*
X164192624Y-59323067D02*
X163954529Y-59323067D01*
X165478338Y-59323067D02*
X164906910Y-59323067D01*
X165192624Y-59323067D02*
X165192624Y-58323067D01*
X165192624Y-58323067D02*
X165097386Y-58465924D01*
X165097386Y-58465924D02*
X165002148Y-58561162D01*
X165002148Y-58561162D02*
X164906910Y-58608781D01*
X165811672Y-58323067D02*
X166478338Y-58323067D01*
X166478338Y-58323067D02*
X166049767Y-59323067D01*
%TO.C,*%
%TO.C,D8*%
X128805720Y-112323067D02*
X128805720Y-111323067D01*
X128805720Y-111323067D02*
X129043815Y-111323067D01*
X129043815Y-111323067D02*
X129186672Y-111370686D01*
X129186672Y-111370686D02*
X129281910Y-111465924D01*
X129281910Y-111465924D02*
X129329529Y-111561162D01*
X129329529Y-111561162D02*
X129377148Y-111751638D01*
X129377148Y-111751638D02*
X129377148Y-111894495D01*
X129377148Y-111894495D02*
X129329529Y-112084971D01*
X129329529Y-112084971D02*
X129281910Y-112180209D01*
X129281910Y-112180209D02*
X129186672Y-112275448D01*
X129186672Y-112275448D02*
X129043815Y-112323067D01*
X129043815Y-112323067D02*
X128805720Y-112323067D01*
X129948577Y-111751638D02*
X129853339Y-111704019D01*
X129853339Y-111704019D02*
X129805720Y-111656400D01*
X129805720Y-111656400D02*
X129758101Y-111561162D01*
X129758101Y-111561162D02*
X129758101Y-111513543D01*
X129758101Y-111513543D02*
X129805720Y-111418305D01*
X129805720Y-111418305D02*
X129853339Y-111370686D01*
X129853339Y-111370686D02*
X129948577Y-111323067D01*
X129948577Y-111323067D02*
X130139053Y-111323067D01*
X130139053Y-111323067D02*
X130234291Y-111370686D01*
X130234291Y-111370686D02*
X130281910Y-111418305D01*
X130281910Y-111418305D02*
X130329529Y-111513543D01*
X130329529Y-111513543D02*
X130329529Y-111561162D01*
X130329529Y-111561162D02*
X130281910Y-111656400D01*
X130281910Y-111656400D02*
X130234291Y-111704019D01*
X130234291Y-111704019D02*
X130139053Y-111751638D01*
X130139053Y-111751638D02*
X129948577Y-111751638D01*
X129948577Y-111751638D02*
X129853339Y-111799257D01*
X129853339Y-111799257D02*
X129805720Y-111846876D01*
X129805720Y-111846876D02*
X129758101Y-111942114D01*
X129758101Y-111942114D02*
X129758101Y-112132590D01*
X129758101Y-112132590D02*
X129805720Y-112227828D01*
X129805720Y-112227828D02*
X129853339Y-112275448D01*
X129853339Y-112275448D02*
X129948577Y-112323067D01*
X129948577Y-112323067D02*
X130139053Y-112323067D01*
X130139053Y-112323067D02*
X130234291Y-112275448D01*
X130234291Y-112275448D02*
X130281910Y-112227828D01*
X130281910Y-112227828D02*
X130329529Y-112132590D01*
X130329529Y-112132590D02*
X130329529Y-111942114D01*
X130329529Y-111942114D02*
X130281910Y-111846876D01*
X130281910Y-111846876D02*
X130234291Y-111799257D01*
X130234291Y-111799257D02*
X130139053Y-111751638D01*
%TO.C,D4*%
X107430721Y-112323066D02*
X107430721Y-111323066D01*
X107430721Y-111323066D02*
X107668816Y-111323066D01*
X107668816Y-111323066D02*
X107811673Y-111370685D01*
X107811673Y-111370685D02*
X107906911Y-111465923D01*
X107906911Y-111465923D02*
X107954530Y-111561161D01*
X107954530Y-111561161D02*
X108002149Y-111751637D01*
X108002149Y-111751637D02*
X108002149Y-111894494D01*
X108002149Y-111894494D02*
X107954530Y-112084970D01*
X107954530Y-112084970D02*
X107906911Y-112180208D01*
X107906911Y-112180208D02*
X107811673Y-112275447D01*
X107811673Y-112275447D02*
X107668816Y-112323066D01*
X107668816Y-112323066D02*
X107430721Y-112323066D01*
X108859292Y-111656399D02*
X108859292Y-112323066D01*
X108621197Y-111275447D02*
X108383102Y-111989732D01*
X108383102Y-111989732D02*
X109002149Y-111989732D01*
%TO.C,D9*%
X126430720Y-55323067D02*
X126430720Y-54323067D01*
X126430720Y-54323067D02*
X126668815Y-54323067D01*
X126668815Y-54323067D02*
X126811672Y-54370686D01*
X126811672Y-54370686D02*
X126906910Y-54465924D01*
X126906910Y-54465924D02*
X126954529Y-54561162D01*
X126954529Y-54561162D02*
X127002148Y-54751638D01*
X127002148Y-54751638D02*
X127002148Y-54894495D01*
X127002148Y-54894495D02*
X126954529Y-55084971D01*
X126954529Y-55084971D02*
X126906910Y-55180209D01*
X126906910Y-55180209D02*
X126811672Y-55275448D01*
X126811672Y-55275448D02*
X126668815Y-55323067D01*
X126668815Y-55323067D02*
X126430720Y-55323067D01*
X127478339Y-55323067D02*
X127668815Y-55323067D01*
X127668815Y-55323067D02*
X127764053Y-55275448D01*
X127764053Y-55275448D02*
X127811672Y-55227828D01*
X127811672Y-55227828D02*
X127906910Y-55084971D01*
X127906910Y-55084971D02*
X127954529Y-54894495D01*
X127954529Y-54894495D02*
X127954529Y-54513543D01*
X127954529Y-54513543D02*
X127906910Y-54418305D01*
X127906910Y-54418305D02*
X127859291Y-54370686D01*
X127859291Y-54370686D02*
X127764053Y-54323067D01*
X127764053Y-54323067D02*
X127573577Y-54323067D01*
X127573577Y-54323067D02*
X127478339Y-54370686D01*
X127478339Y-54370686D02*
X127430720Y-54418305D01*
X127430720Y-54418305D02*
X127383101Y-54513543D01*
X127383101Y-54513543D02*
X127383101Y-54751638D01*
X127383101Y-54751638D02*
X127430720Y-54846876D01*
X127430720Y-54846876D02*
X127478339Y-54894495D01*
X127478339Y-54894495D02*
X127573577Y-54942114D01*
X127573577Y-54942114D02*
X127764053Y-54942114D01*
X127764053Y-54942114D02*
X127859291Y-54894495D01*
X127859291Y-54894495D02*
X127906910Y-54846876D01*
X127906910Y-54846876D02*
X127954529Y-54751638D01*
%TO.C,SW1*%
X179006667Y-101785000D02*
X179149524Y-101832619D01*
X179149524Y-101832619D02*
X179387619Y-101832619D01*
X179387619Y-101832619D02*
X179482857Y-101785000D01*
X179482857Y-101785000D02*
X179530476Y-101737380D01*
X179530476Y-101737380D02*
X179578095Y-101642142D01*
X179578095Y-101642142D02*
X179578095Y-101546904D01*
X179578095Y-101546904D02*
X179530476Y-101451666D01*
X179530476Y-101451666D02*
X179482857Y-101404047D01*
X179482857Y-101404047D02*
X179387619Y-101356428D01*
X179387619Y-101356428D02*
X179197143Y-101308809D01*
X179197143Y-101308809D02*
X179101905Y-101261190D01*
X179101905Y-101261190D02*
X179054286Y-101213571D01*
X179054286Y-101213571D02*
X179006667Y-101118333D01*
X179006667Y-101118333D02*
X179006667Y-101023095D01*
X179006667Y-101023095D02*
X179054286Y-100927857D01*
X179054286Y-100927857D02*
X179101905Y-100880238D01*
X179101905Y-100880238D02*
X179197143Y-100832619D01*
X179197143Y-100832619D02*
X179435238Y-100832619D01*
X179435238Y-100832619D02*
X179578095Y-100880238D01*
X179911429Y-100832619D02*
X180149524Y-101832619D01*
X180149524Y-101832619D02*
X180340000Y-101118333D01*
X180340000Y-101118333D02*
X180530476Y-101832619D01*
X180530476Y-101832619D02*
X180768572Y-100832619D01*
X181673333Y-101832619D02*
X181101905Y-101832619D01*
X181387619Y-101832619D02*
X181387619Y-100832619D01*
X181387619Y-100832619D02*
X181292381Y-100975476D01*
X181292381Y-100975476D02*
X181197143Y-101070714D01*
X181197143Y-101070714D02*
X181101905Y-101118333D01*
%TO.C,D2*%
X88430720Y-86323067D02*
X88430720Y-85323067D01*
X88430720Y-85323067D02*
X88668815Y-85323067D01*
X88668815Y-85323067D02*
X88811672Y-85370686D01*
X88811672Y-85370686D02*
X88906910Y-85465924D01*
X88906910Y-85465924D02*
X88954529Y-85561162D01*
X88954529Y-85561162D02*
X89002148Y-85751638D01*
X89002148Y-85751638D02*
X89002148Y-85894495D01*
X89002148Y-85894495D02*
X88954529Y-86084971D01*
X88954529Y-86084971D02*
X88906910Y-86180209D01*
X88906910Y-86180209D02*
X88811672Y-86275448D01*
X88811672Y-86275448D02*
X88668815Y-86323067D01*
X88668815Y-86323067D02*
X88430720Y-86323067D01*
X89383101Y-85418305D02*
X89430720Y-85370686D01*
X89430720Y-85370686D02*
X89525958Y-85323067D01*
X89525958Y-85323067D02*
X89764053Y-85323067D01*
X89764053Y-85323067D02*
X89859291Y-85370686D01*
X89859291Y-85370686D02*
X89906910Y-85418305D01*
X89906910Y-85418305D02*
X89954529Y-85513543D01*
X89954529Y-85513543D02*
X89954529Y-85608781D01*
X89954529Y-85608781D02*
X89906910Y-85751638D01*
X89906910Y-85751638D02*
X89335482Y-86323067D01*
X89335482Y-86323067D02*
X89954529Y-86323067D01*
%TO.C,D22*%
X182989535Y-64735942D02*
X182989535Y-63735942D01*
X182989535Y-63735942D02*
X183227630Y-63735942D01*
X183227630Y-63735942D02*
X183370487Y-63783561D01*
X183370487Y-63783561D02*
X183465725Y-63878799D01*
X183465725Y-63878799D02*
X183513344Y-63974037D01*
X183513344Y-63974037D02*
X183560963Y-64164513D01*
X183560963Y-64164513D02*
X183560963Y-64307370D01*
X183560963Y-64307370D02*
X183513344Y-64497846D01*
X183513344Y-64497846D02*
X183465725Y-64593084D01*
X183465725Y-64593084D02*
X183370487Y-64688323D01*
X183370487Y-64688323D02*
X183227630Y-64735942D01*
X183227630Y-64735942D02*
X182989535Y-64735942D01*
X183941916Y-63831180D02*
X183989535Y-63783561D01*
X183989535Y-63783561D02*
X184084773Y-63735942D01*
X184084773Y-63735942D02*
X184322868Y-63735942D01*
X184322868Y-63735942D02*
X184418106Y-63783561D01*
X184418106Y-63783561D02*
X184465725Y-63831180D01*
X184465725Y-63831180D02*
X184513344Y-63926418D01*
X184513344Y-63926418D02*
X184513344Y-64021656D01*
X184513344Y-64021656D02*
X184465725Y-64164513D01*
X184465725Y-64164513D02*
X183894297Y-64735942D01*
X183894297Y-64735942D02*
X184513344Y-64735942D01*
X184894297Y-63831180D02*
X184941916Y-63783561D01*
X184941916Y-63783561D02*
X185037154Y-63735942D01*
X185037154Y-63735942D02*
X185275249Y-63735942D01*
X185275249Y-63735942D02*
X185370487Y-63783561D01*
X185370487Y-63783561D02*
X185418106Y-63831180D01*
X185418106Y-63831180D02*
X185465725Y-63926418D01*
X185465725Y-63926418D02*
X185465725Y-64021656D01*
X185465725Y-64021656D02*
X185418106Y-64164513D01*
X185418106Y-64164513D02*
X184846678Y-64735942D01*
X184846678Y-64735942D02*
X185465725Y-64735942D01*
D12*
%TO.C,J1*%
X202981904Y-86213333D02*
X202220000Y-86213333D01*
X198881904Y-86213333D02*
X198120000Y-86213333D01*
X200881904Y-86213333D02*
X200120000Y-86213333D01*
X200500952Y-85832380D02*
X200500952Y-86594285D01*
D10*
%TO.C,D19*%
X163954530Y-97323066D02*
X163954530Y-96323066D01*
X163954530Y-96323066D02*
X164192625Y-96323066D01*
X164192625Y-96323066D02*
X164335482Y-96370685D01*
X164335482Y-96370685D02*
X164430720Y-96465923D01*
X164430720Y-96465923D02*
X164478339Y-96561161D01*
X164478339Y-96561161D02*
X164525958Y-96751637D01*
X164525958Y-96751637D02*
X164525958Y-96894494D01*
X164525958Y-96894494D02*
X164478339Y-97084970D01*
X164478339Y-97084970D02*
X164430720Y-97180208D01*
X164430720Y-97180208D02*
X164335482Y-97275447D01*
X164335482Y-97275447D02*
X164192625Y-97323066D01*
X164192625Y-97323066D02*
X163954530Y-97323066D01*
X165478339Y-97323066D02*
X164906911Y-97323066D01*
X165192625Y-97323066D02*
X165192625Y-96323066D01*
X165192625Y-96323066D02*
X165097387Y-96465923D01*
X165097387Y-96465923D02*
X165002149Y-96561161D01*
X165002149Y-96561161D02*
X164906911Y-96608780D01*
X165954530Y-97323066D02*
X166145006Y-97323066D01*
X166145006Y-97323066D02*
X166240244Y-97275447D01*
X166240244Y-97275447D02*
X166287863Y-97227827D01*
X166287863Y-97227827D02*
X166383101Y-97084970D01*
X166383101Y-97084970D02*
X166430720Y-96894494D01*
X166430720Y-96894494D02*
X166430720Y-96513542D01*
X166430720Y-96513542D02*
X166383101Y-96418304D01*
X166383101Y-96418304D02*
X166335482Y-96370685D01*
X166335482Y-96370685D02*
X166240244Y-96323066D01*
X166240244Y-96323066D02*
X166049768Y-96323066D01*
X166049768Y-96323066D02*
X165954530Y-96370685D01*
X165954530Y-96370685D02*
X165906911Y-96418304D01*
X165906911Y-96418304D02*
X165859292Y-96513542D01*
X165859292Y-96513542D02*
X165859292Y-96751637D01*
X165859292Y-96751637D02*
X165906911Y-96846875D01*
X165906911Y-96846875D02*
X165954530Y-96894494D01*
X165954530Y-96894494D02*
X166049768Y-96942113D01*
X166049768Y-96942113D02*
X166240244Y-96942113D01*
X166240244Y-96942113D02*
X166335482Y-96894494D01*
X166335482Y-96894494D02*
X166383101Y-96846875D01*
X166383101Y-96846875D02*
X166430720Y-96751637D01*
%TO.C,D6*%
X107430721Y-78323067D02*
X107430721Y-77323067D01*
X107430721Y-77323067D02*
X107668816Y-77323067D01*
X107668816Y-77323067D02*
X107811673Y-77370686D01*
X107811673Y-77370686D02*
X107906911Y-77465924D01*
X107906911Y-77465924D02*
X107954530Y-77561162D01*
X107954530Y-77561162D02*
X108002149Y-77751638D01*
X108002149Y-77751638D02*
X108002149Y-77894495D01*
X108002149Y-77894495D02*
X107954530Y-78084971D01*
X107954530Y-78084971D02*
X107906911Y-78180209D01*
X107906911Y-78180209D02*
X107811673Y-78275448D01*
X107811673Y-78275448D02*
X107668816Y-78323067D01*
X107668816Y-78323067D02*
X107430721Y-78323067D01*
X108859292Y-77323067D02*
X108668816Y-77323067D01*
X108668816Y-77323067D02*
X108573578Y-77370686D01*
X108573578Y-77370686D02*
X108525959Y-77418305D01*
X108525959Y-77418305D02*
X108430721Y-77561162D01*
X108430721Y-77561162D02*
X108383102Y-77751638D01*
X108383102Y-77751638D02*
X108383102Y-78132590D01*
X108383102Y-78132590D02*
X108430721Y-78227828D01*
X108430721Y-78227828D02*
X108478340Y-78275448D01*
X108478340Y-78275448D02*
X108573578Y-78323067D01*
X108573578Y-78323067D02*
X108764054Y-78323067D01*
X108764054Y-78323067D02*
X108859292Y-78275448D01*
X108859292Y-78275448D02*
X108906911Y-78227828D01*
X108906911Y-78227828D02*
X108954530Y-78132590D01*
X108954530Y-78132590D02*
X108954530Y-77894495D01*
X108954530Y-77894495D02*
X108906911Y-77799257D01*
X108906911Y-77799257D02*
X108859292Y-77751638D01*
X108859292Y-77751638D02*
X108764054Y-77704019D01*
X108764054Y-77704019D02*
X108573578Y-77704019D01*
X108573578Y-77704019D02*
X108478340Y-77751638D01*
X108478340Y-77751638D02*
X108430721Y-77799257D01*
X108430721Y-77799257D02*
X108383102Y-77894495D01*
%TO.C,D23*%
X183032035Y-83735942D02*
X183032035Y-82735942D01*
X183032035Y-82735942D02*
X183270130Y-82735942D01*
X183270130Y-82735942D02*
X183412987Y-82783561D01*
X183412987Y-82783561D02*
X183508225Y-82878799D01*
X183508225Y-82878799D02*
X183555844Y-82974037D01*
X183555844Y-82974037D02*
X183603463Y-83164513D01*
X183603463Y-83164513D02*
X183603463Y-83307370D01*
X183603463Y-83307370D02*
X183555844Y-83497846D01*
X183555844Y-83497846D02*
X183508225Y-83593084D01*
X183508225Y-83593084D02*
X183412987Y-83688323D01*
X183412987Y-83688323D02*
X183270130Y-83735942D01*
X183270130Y-83735942D02*
X183032035Y-83735942D01*
X183984416Y-82831180D02*
X184032035Y-82783561D01*
X184032035Y-82783561D02*
X184127273Y-82735942D01*
X184127273Y-82735942D02*
X184365368Y-82735942D01*
X184365368Y-82735942D02*
X184460606Y-82783561D01*
X184460606Y-82783561D02*
X184508225Y-82831180D01*
X184508225Y-82831180D02*
X184555844Y-82926418D01*
X184555844Y-82926418D02*
X184555844Y-83021656D01*
X184555844Y-83021656D02*
X184508225Y-83164513D01*
X184508225Y-83164513D02*
X183936797Y-83735942D01*
X183936797Y-83735942D02*
X184555844Y-83735942D01*
X184889178Y-82735942D02*
X185508225Y-82735942D01*
X185508225Y-82735942D02*
X185174892Y-83116894D01*
X185174892Y-83116894D02*
X185317749Y-83116894D01*
X185317749Y-83116894D02*
X185412987Y-83164513D01*
X185412987Y-83164513D02*
X185460606Y-83212132D01*
X185460606Y-83212132D02*
X185508225Y-83307370D01*
X185508225Y-83307370D02*
X185508225Y-83545465D01*
X185508225Y-83545465D02*
X185460606Y-83640703D01*
X185460606Y-83640703D02*
X185412987Y-83688323D01*
X185412987Y-83688323D02*
X185317749Y-83735942D01*
X185317749Y-83735942D02*
X185032035Y-83735942D01*
X185032035Y-83735942D02*
X184936797Y-83688323D01*
X184936797Y-83688323D02*
X184889178Y-83640703D01*
%TO.C,D18*%
X163954530Y-78323066D02*
X163954530Y-77323066D01*
X163954530Y-77323066D02*
X164192625Y-77323066D01*
X164192625Y-77323066D02*
X164335482Y-77370685D01*
X164335482Y-77370685D02*
X164430720Y-77465923D01*
X164430720Y-77465923D02*
X164478339Y-77561161D01*
X164478339Y-77561161D02*
X164525958Y-77751637D01*
X164525958Y-77751637D02*
X164525958Y-77894494D01*
X164525958Y-77894494D02*
X164478339Y-78084970D01*
X164478339Y-78084970D02*
X164430720Y-78180208D01*
X164430720Y-78180208D02*
X164335482Y-78275447D01*
X164335482Y-78275447D02*
X164192625Y-78323066D01*
X164192625Y-78323066D02*
X163954530Y-78323066D01*
X165478339Y-78323066D02*
X164906911Y-78323066D01*
X165192625Y-78323066D02*
X165192625Y-77323066D01*
X165192625Y-77323066D02*
X165097387Y-77465923D01*
X165097387Y-77465923D02*
X165002149Y-77561161D01*
X165002149Y-77561161D02*
X164906911Y-77608780D01*
X166049768Y-77751637D02*
X165954530Y-77704018D01*
X165954530Y-77704018D02*
X165906911Y-77656399D01*
X165906911Y-77656399D02*
X165859292Y-77561161D01*
X165859292Y-77561161D02*
X165859292Y-77513542D01*
X165859292Y-77513542D02*
X165906911Y-77418304D01*
X165906911Y-77418304D02*
X165954530Y-77370685D01*
X165954530Y-77370685D02*
X166049768Y-77323066D01*
X166049768Y-77323066D02*
X166240244Y-77323066D01*
X166240244Y-77323066D02*
X166335482Y-77370685D01*
X166335482Y-77370685D02*
X166383101Y-77418304D01*
X166383101Y-77418304D02*
X166430720Y-77513542D01*
X166430720Y-77513542D02*
X166430720Y-77561161D01*
X166430720Y-77561161D02*
X166383101Y-77656399D01*
X166383101Y-77656399D02*
X166335482Y-77704018D01*
X166335482Y-77704018D02*
X166240244Y-77751637D01*
X166240244Y-77751637D02*
X166049768Y-77751637D01*
X166049768Y-77751637D02*
X165954530Y-77799256D01*
X165954530Y-77799256D02*
X165906911Y-77846875D01*
X165906911Y-77846875D02*
X165859292Y-77942113D01*
X165859292Y-77942113D02*
X165859292Y-78132589D01*
X165859292Y-78132589D02*
X165906911Y-78227827D01*
X165906911Y-78227827D02*
X165954530Y-78275447D01*
X165954530Y-78275447D02*
X166049768Y-78323066D01*
X166049768Y-78323066D02*
X166240244Y-78323066D01*
X166240244Y-78323066D02*
X166335482Y-78275447D01*
X166335482Y-78275447D02*
X166383101Y-78227827D01*
X166383101Y-78227827D02*
X166430720Y-78132589D01*
X166430720Y-78132589D02*
X166430720Y-77942113D01*
X166430720Y-77942113D02*
X166383101Y-77846875D01*
X166383101Y-77846875D02*
X166335482Y-77799256D01*
X166335482Y-77799256D02*
X166240244Y-77751637D01*
%TO.C,D16*%
X173783379Y-116833396D02*
X174125399Y-115893703D01*
X174125399Y-115893703D02*
X174349136Y-115975137D01*
X174349136Y-115975137D02*
X174467091Y-116068744D01*
X174467091Y-116068744D02*
X174524012Y-116190812D01*
X174524012Y-116190812D02*
X174536186Y-116296593D01*
X174536186Y-116296593D02*
X174515786Y-116491869D01*
X174515786Y-116491869D02*
X174466926Y-116626111D01*
X174466926Y-116626111D02*
X174357032Y-116788813D01*
X174357032Y-116788813D02*
X174279712Y-116862021D01*
X174279712Y-116862021D02*
X174157644Y-116918942D01*
X174157644Y-116918942D02*
X174007115Y-116914829D01*
X174007115Y-116914829D02*
X173783379Y-116833396D01*
X175215292Y-117354570D02*
X174678324Y-117159129D01*
X174946808Y-117256850D02*
X175288828Y-116317157D01*
X175288828Y-116317157D02*
X175150474Y-116418825D01*
X175150474Y-116418825D02*
X175028406Y-116475747D01*
X175028406Y-116475747D02*
X174922625Y-116487920D01*
X176362763Y-116708037D02*
X176183774Y-116642890D01*
X176183774Y-116642890D02*
X176077992Y-116655064D01*
X176077992Y-116655064D02*
X176016958Y-116683525D01*
X176016958Y-116683525D02*
X175878604Y-116785193D01*
X175878604Y-116785193D02*
X175768710Y-116947896D01*
X175768710Y-116947896D02*
X175638417Y-117305874D01*
X175638417Y-117305874D02*
X175650590Y-117411655D01*
X175650590Y-117411655D02*
X175679051Y-117472689D01*
X175679051Y-117472689D02*
X175752259Y-117550010D01*
X175752259Y-117550010D02*
X175931248Y-117615156D01*
X175931248Y-117615156D02*
X176037029Y-117602982D01*
X176037029Y-117602982D02*
X176098063Y-117574522D01*
X176098063Y-117574522D02*
X176175384Y-117501314D01*
X176175384Y-117501314D02*
X176256817Y-117277578D01*
X176256817Y-117277578D02*
X176244643Y-117171796D01*
X176244643Y-117171796D02*
X176216183Y-117110762D01*
X176216183Y-117110762D02*
X176142975Y-117033442D01*
X176142975Y-117033442D02*
X175963986Y-116968295D01*
X175963986Y-116968295D02*
X175858204Y-116980469D01*
X175858204Y-116980469D02*
X175797171Y-117008930D01*
X175797171Y-117008930D02*
X175719850Y-117082138D01*
%TO.C,D1*%
X88430720Y-67323066D02*
X88430720Y-66323066D01*
X88430720Y-66323066D02*
X88668815Y-66323066D01*
X88668815Y-66323066D02*
X88811672Y-66370685D01*
X88811672Y-66370685D02*
X88906910Y-66465923D01*
X88906910Y-66465923D02*
X88954529Y-66561161D01*
X88954529Y-66561161D02*
X89002148Y-66751637D01*
X89002148Y-66751637D02*
X89002148Y-66894494D01*
X89002148Y-66894494D02*
X88954529Y-67084970D01*
X88954529Y-67084970D02*
X88906910Y-67180208D01*
X88906910Y-67180208D02*
X88811672Y-67275447D01*
X88811672Y-67275447D02*
X88668815Y-67323066D01*
X88668815Y-67323066D02*
X88430720Y-67323066D01*
X89954529Y-67323066D02*
X89383101Y-67323066D01*
X89668815Y-67323066D02*
X89668815Y-66323066D01*
X89668815Y-66323066D02*
X89573577Y-66465923D01*
X89573577Y-66465923D02*
X89478339Y-66561161D01*
X89478339Y-66561161D02*
X89383101Y-66608780D01*
D13*
%TO.C,D20*%
X193381130Y-127046410D02*
X192205560Y-128664444D01*
X193381130Y-127046410D02*
X196625288Y-129403429D01*
X192205560Y-128664444D02*
X195449718Y-131021463D01*
D14*
%TO.C,T4*%
X190307376Y-125683871D02*
X190895162Y-124874854D01*
X183253953Y-135392075D02*
X183841739Y-134583058D01*
X183253953Y-135392075D02*
X184062970Y-135979861D01*
X191704179Y-125462640D02*
X190895162Y-124874854D01*
D13*
X186127810Y-133648243D02*
X185569414Y-134416810D01*
X186127810Y-133648243D02*
X187503139Y-134647478D01*
X183365219Y-137450623D02*
X183894226Y-136722508D01*
X183365219Y-137450623D02*
X184740548Y-138449858D01*
D14*
X192962157Y-142445498D02*
X193771174Y-143033284D01*
X201412383Y-132516063D02*
X200603366Y-131928277D01*
X201412383Y-132516063D02*
X200824597Y-133325080D01*
X194358960Y-142224267D02*
X193771174Y-143033284D01*
D13*
X196614992Y-139969756D02*
X194996958Y-138794185D01*
X196614992Y-139969756D02*
X196056596Y-140738322D01*
X193852401Y-143772136D02*
X192234367Y-142596565D01*
X193852401Y-143772136D02*
X194410797Y-143003569D01*
%TO.C,D3*%
X91528816Y-103860447D02*
X91528816Y-101860447D01*
X91528816Y-103860447D02*
X87518816Y-103860447D01*
X91528816Y-101860447D02*
X87518816Y-101860447D01*
%TO.C,D13*%
X148528816Y-57860447D02*
X148528816Y-55860447D01*
X148528816Y-57860447D02*
X144518816Y-57860447D01*
X148528816Y-55860447D02*
X144518816Y-55860447D01*
D14*
%TO.C,T0*%
X102518816Y-113560449D02*
X102518816Y-112560449D01*
X102518816Y-125560449D02*
X102518816Y-124560449D01*
X102518816Y-125560449D02*
X103518816Y-125560449D01*
X103518816Y-112560449D02*
X102518816Y-112560449D01*
D13*
X103818816Y-122460449D02*
X103818816Y-123410449D01*
X103818816Y-122460449D02*
X105518816Y-122460449D01*
X103818816Y-127160449D02*
X103818816Y-126260449D01*
X103818816Y-127160449D02*
X105518816Y-127160449D01*
D14*
X114518816Y-125560449D02*
X115518816Y-125560449D01*
X115518816Y-112560449D02*
X114518816Y-112560449D01*
X115518816Y-112560449D02*
X115518816Y-113560449D01*
X115518816Y-124560449D02*
X115518816Y-125560449D01*
D13*
X116018816Y-121410449D02*
X114018816Y-121410449D01*
X116018816Y-121410449D02*
X116018816Y-122360449D01*
X116018816Y-126110449D02*
X114018816Y-126110449D01*
X116018816Y-126110449D02*
X116018816Y-125160449D01*
%TO.C,D12*%
X149389820Y-113201181D02*
X149285148Y-115198440D01*
X149389820Y-113201181D02*
X153394325Y-113411048D01*
X149285148Y-115198440D02*
X153289653Y-115408307D01*
D14*
%TO.C,T2*%
X146041007Y-113740678D02*
X146093343Y-112742048D01*
X145412975Y-125724232D02*
X145465311Y-124725603D01*
X145412975Y-125724232D02*
X146411605Y-125776568D01*
X147091972Y-112794384D02*
X146093343Y-112742048D01*
D13*
X146873435Y-122696517D02*
X146823716Y-123645216D01*
X146873435Y-122696517D02*
X148571105Y-122785489D01*
X146627456Y-127390076D02*
X146674559Y-126491310D01*
X146627456Y-127390076D02*
X148325126Y-127479047D01*
D14*
X157396530Y-126352264D02*
X158395159Y-126404600D01*
X159075527Y-113422416D02*
X158076897Y-113370080D01*
X159075527Y-113422416D02*
X159023191Y-114421045D01*
X158447495Y-125405970D02*
X158395159Y-126404600D01*
D13*
X159111668Y-122286455D02*
X157114409Y-122181783D01*
X159111668Y-122286455D02*
X159061949Y-123235153D01*
X158865689Y-126980014D02*
X156868430Y-126875342D01*
X158865689Y-126980014D02*
X158915408Y-126031316D01*
%TO.C,D14*%
X148528815Y-76860447D02*
X148528815Y-74860447D01*
X148528815Y-76860447D02*
X144518815Y-76860447D01*
X148528815Y-74860447D02*
X144518815Y-74860447D01*
%TO.C,D11*%
X129528816Y-91860447D02*
X129528816Y-89860447D01*
X129528816Y-91860447D02*
X125518816Y-91860447D01*
X129528816Y-89860447D02*
X125518816Y-89860447D01*
D15*
%TO.C,U1*%
X204362449Y-102308323D02*
X187362449Y-102308323D01*
X185362449Y-104308323D02*
X185362449Y-118108323D01*
X207786479Y-106708323D02*
X207786479Y-115708323D01*
X200433179Y-106708323D02*
X207786479Y-106708323D01*
X207786479Y-115708323D02*
X200433179Y-115708323D01*
X200433179Y-115708323D02*
X200433179Y-106708323D01*
X200433179Y-115708323D02*
X200433179Y-106708323D01*
X206361539Y-118108323D02*
X206361539Y-104308323D01*
X187362449Y-120108323D02*
X204362449Y-120108323D01*
D13*
X206362448Y-104308323D02*
G75*
G03*
X204362449Y-102308324I-2044611J-44612D01*
G01*
X187362449Y-102308324D02*
G75*
G03*
X185362450Y-104308323I44857J-2044856D01*
G01*
X204362449Y-120108323D02*
G75*
G03*
X206362449Y-118108323I-44600J2044600D01*
G01*
X185362449Y-118108323D02*
G75*
G03*
X187362449Y-120108323I2000000J0D01*
G01*
D16*
X205259449Y-101888323D02*
G75*
G03*
X205259449Y-101888323I-127000J0D01*
G01*
D17*
X204472922Y-102323656D02*
X204521943Y-102327720D01*
X204424154Y-102320608D01*
X204472922Y-102323656D01*
X187340875Y-120097815D02*
X187291599Y-120096036D01*
X187242831Y-120092988D01*
X187193810Y-120088924D01*
X187145042Y-120083591D01*
X187096274Y-120076987D01*
X187047759Y-120069367D01*
X186999499Y-120060476D01*
X186951494Y-120050571D01*
X187340875Y-120097815D01*
D13*
%TO.C,D7*%
X110528816Y-95860448D02*
X110528816Y-93860448D01*
X110528816Y-95860448D02*
X106518816Y-95860448D01*
X110528816Y-93860448D02*
X106518816Y-93860448D01*
%TO.C,D5*%
X110528815Y-57860447D02*
X110528815Y-55860447D01*
X110528815Y-57860447D02*
X106518815Y-57860447D01*
X110528815Y-55860447D02*
X106518815Y-55860447D01*
%TO.C,D10*%
X129528816Y-72860448D02*
X129528816Y-70860448D01*
X129528816Y-72860448D02*
X125518816Y-72860448D01*
X129528816Y-70860448D02*
X125518816Y-70860448D01*
%TO.C,D15*%
X148528815Y-95860447D02*
X148528815Y-93860447D01*
X148528815Y-95860447D02*
X144518815Y-95860447D01*
X148528815Y-93860447D02*
X144518815Y-93860447D01*
%TO.C,D17*%
X167528815Y-57860448D02*
X167528815Y-55860448D01*
X167528815Y-57860448D02*
X163518815Y-57860448D01*
X167528815Y-55860448D02*
X163518815Y-55860448D01*
D14*
%TO.C,C5R2*%
X178518821Y-65943323D02*
X178518821Y-64943323D01*
X178518821Y-77943323D02*
X178518821Y-76943323D01*
X178518821Y-77943323D02*
X179518821Y-77943323D01*
X179518821Y-64943323D02*
X178518821Y-64943323D01*
D13*
X179818821Y-74843323D02*
X179818821Y-75793323D01*
X179818821Y-74843323D02*
X181518821Y-74843323D01*
X179818821Y-79543323D02*
X179818821Y-78643323D01*
X179818821Y-79543323D02*
X181518821Y-79543323D01*
D14*
X190518821Y-77943323D02*
X191518821Y-77943323D01*
X191518821Y-64943323D02*
X190518821Y-64943323D01*
X191518821Y-64943323D02*
X191518821Y-65943323D01*
X191518821Y-76943323D02*
X191518821Y-77943323D01*
D13*
X192018821Y-73793323D02*
X190018821Y-73793323D01*
X192018821Y-73793323D02*
X192018821Y-74743323D01*
X192018821Y-78493323D02*
X190018821Y-78493323D01*
X192018821Y-78493323D02*
X192018821Y-77543323D01*
%TO.C,D8*%
X127183815Y-112860448D02*
X127183815Y-114860448D01*
X127183815Y-112860448D02*
X131193815Y-112860448D01*
X127183815Y-114860448D02*
X131193815Y-114860448D01*
D14*
%TO.C,T1*%
X123893816Y-113560448D02*
X123893816Y-112560448D01*
X123893816Y-125560448D02*
X123893816Y-124560448D01*
X123893816Y-125560448D02*
X124893816Y-125560448D01*
X124893816Y-112560448D02*
X123893816Y-112560448D01*
D13*
X125193816Y-122460448D02*
X125193816Y-123410448D01*
X125193816Y-122460448D02*
X126893816Y-122460448D01*
X125193816Y-127160448D02*
X125193816Y-126260448D01*
X125193816Y-127160448D02*
X126893816Y-127160448D01*
D14*
X135893816Y-125560448D02*
X136893816Y-125560448D01*
X136893816Y-112560448D02*
X135893816Y-112560448D01*
X136893816Y-112560448D02*
X136893816Y-113560448D01*
X136893816Y-124560448D02*
X136893816Y-125560448D01*
D13*
X137393816Y-121410448D02*
X135393816Y-121410448D01*
X137393816Y-121410448D02*
X137393816Y-122360448D01*
X137393816Y-126110448D02*
X135393816Y-126110448D01*
X137393816Y-126110448D02*
X137393816Y-125160448D01*
%TO.C,D4*%
X105808816Y-112860447D02*
X105808816Y-114860447D01*
X105808816Y-112860447D02*
X109818816Y-112860447D01*
X105808816Y-114860447D02*
X109818816Y-114860447D01*
%TO.C,D9*%
X129528815Y-53860448D02*
X129528815Y-51860448D01*
X129528815Y-53860448D02*
X125518815Y-53860448D01*
X129528815Y-51860448D02*
X125518815Y-51860448D01*
%TO.C,SW1*%
X177590000Y-104120000D02*
X177590000Y-106120000D01*
X178640000Y-102820000D02*
X179090000Y-102370000D01*
X178640000Y-107420000D02*
X179090000Y-107870000D01*
X179090000Y-102370000D02*
X181590000Y-102370000D01*
X179090000Y-107870000D02*
X181590000Y-107870000D01*
X182040000Y-102820000D02*
X181590000Y-102370000D01*
X182040000Y-107420000D02*
X181590000Y-107870000D01*
X183090000Y-104120000D02*
X183090000Y-106120000D01*
%TO.C,D2*%
X91528815Y-84860448D02*
X91528815Y-82860448D01*
X91528815Y-84860448D02*
X87518815Y-84860448D01*
X91528815Y-82860448D02*
X87518815Y-82860448D01*
%TO.C,D22*%
X181843821Y-65273323D02*
X181843821Y-67273323D01*
X181843821Y-65273323D02*
X185853821Y-65273323D01*
X181843821Y-67273323D02*
X185853821Y-67273323D01*
D14*
%TO.C,T3*%
X169171693Y-116488867D02*
X169513713Y-115549174D01*
X165067451Y-127765178D02*
X165409471Y-126825485D01*
X165067451Y-127765178D02*
X166007144Y-128107198D01*
X170453406Y-115891194D02*
X169513713Y-115549174D01*
D13*
X167349314Y-125296757D02*
X167024395Y-126189465D01*
X167349314Y-125296757D02*
X168946791Y-125878191D01*
X165741819Y-129713312D02*
X166049637Y-128867589D01*
X165741819Y-129713312D02*
X167339297Y-130294747D01*
D14*
X176343762Y-131869420D02*
X177283455Y-132211440D01*
X181729717Y-119995436D02*
X180790024Y-119653416D01*
X181729717Y-119995436D02*
X181387697Y-120935129D01*
X177625475Y-131271747D02*
X177283455Y-132211440D01*
D13*
X179172685Y-128482726D02*
X177293300Y-127798685D01*
X179172685Y-128482726D02*
X178847766Y-129375434D01*
X177565190Y-132899281D02*
X175685805Y-132215241D01*
X177565190Y-132899281D02*
X177890109Y-132006573D01*
%TO.C,D19*%
X167528816Y-95860447D02*
X167528816Y-93860447D01*
X167528816Y-95860447D02*
X163518816Y-95860447D01*
X167528816Y-93860447D02*
X163518816Y-93860447D01*
%TO.C,D6*%
X110528816Y-76860448D02*
X110528816Y-74860448D01*
X110528816Y-76860448D02*
X106518816Y-76860448D01*
X110528816Y-74860448D02*
X106518816Y-74860448D01*
D14*
%TO.C,C5R3*%
X178518821Y-84943323D02*
X178518821Y-83943323D01*
X178518821Y-96943323D02*
X178518821Y-95943323D01*
X178518821Y-96943323D02*
X179518821Y-96943323D01*
X179518821Y-83943323D02*
X178518821Y-83943323D01*
D13*
X179818821Y-93843323D02*
X179818821Y-94793323D01*
X179818821Y-93843323D02*
X181518821Y-93843323D01*
X179818821Y-98543323D02*
X179818821Y-97643323D01*
X179818821Y-98543323D02*
X181518821Y-98543323D01*
D14*
X190518821Y-96943323D02*
X191518821Y-96943323D01*
X191518821Y-83943323D02*
X190518821Y-83943323D01*
X191518821Y-83943323D02*
X191518821Y-84943323D01*
X191518821Y-95943323D02*
X191518821Y-96943323D01*
D13*
X192018821Y-92793323D02*
X190018821Y-92793323D01*
X192018821Y-92793323D02*
X192018821Y-93743323D01*
X192018821Y-97493323D02*
X190018821Y-97493323D01*
X192018821Y-97493323D02*
X192018821Y-96543323D01*
%TO.C,D23*%
X181886321Y-84273323D02*
X181886321Y-86273323D01*
X181886321Y-84273323D02*
X185896321Y-84273323D01*
X181886321Y-86273323D02*
X185896321Y-86273323D01*
%TO.C,D18*%
X167528816Y-76860447D02*
X167528816Y-74860447D01*
X167528816Y-76860447D02*
X163518816Y-76860447D01*
X167528816Y-74860447D02*
X163518816Y-74860447D01*
%TO.C,D16*%
X172522966Y-116946512D02*
X171838925Y-118825897D01*
X172522966Y-116946512D02*
X176291133Y-118318013D01*
X171838925Y-118825897D02*
X175607093Y-120197398D01*
%TO.C,D1*%
X91528815Y-65860447D02*
X91528815Y-63860447D01*
X91528815Y-65860447D02*
X87518815Y-65860447D01*
X91528815Y-63860447D02*
X87518815Y-63860447D01*
%TO.C,C3R1*%
X154018815Y-69110448D02*
X154018815Y-68160448D01*
X154018815Y-69110448D02*
X152018815Y-69110448D01*
X154018815Y-64410448D02*
X154018815Y-65360448D01*
X154018815Y-64410448D02*
X152018815Y-64410448D01*
D14*
X153518815Y-67560448D02*
X153518815Y-68560448D01*
X153518815Y-55560448D02*
X153518815Y-56560448D01*
X153518815Y-55560448D02*
X152518815Y-55560448D01*
X152518815Y-68560448D02*
X153518815Y-68560448D01*
D13*
X141818815Y-70160448D02*
X143518815Y-70160448D01*
X141818815Y-70160448D02*
X141818815Y-69260448D01*
X141818815Y-65460448D02*
X143518815Y-65460448D01*
X141818815Y-65460448D02*
X141818815Y-66410448D01*
D14*
X141518815Y-55560448D02*
X140518815Y-55560448D01*
X140518815Y-68560448D02*
X141518815Y-68560448D01*
X140518815Y-68560448D02*
X140518815Y-67560448D01*
X140518815Y-56560448D02*
X140518815Y-55560448D01*
D13*
%TO.C,C3R3*%
X154018816Y-107110447D02*
X154018816Y-106160447D01*
X154018816Y-107110447D02*
X152018816Y-107110447D01*
X154018816Y-102410447D02*
X154018816Y-103360447D01*
X154018816Y-102410447D02*
X152018816Y-102410447D01*
D14*
X153518816Y-105560447D02*
X153518816Y-106560447D01*
X153518816Y-93560447D02*
X153518816Y-94560447D01*
X153518816Y-93560447D02*
X152518816Y-93560447D01*
X152518816Y-106560447D02*
X153518816Y-106560447D01*
D13*
X141818816Y-108160447D02*
X143518816Y-108160447D01*
X141818816Y-108160447D02*
X141818816Y-107260447D01*
X141818816Y-103460447D02*
X143518816Y-103460447D01*
X141818816Y-103460447D02*
X141818816Y-104410447D01*
D14*
X141518816Y-93560447D02*
X140518816Y-93560447D01*
X140518816Y-106560447D02*
X141518816Y-106560447D01*
X140518816Y-106560447D02*
X140518816Y-105560447D01*
X140518816Y-94560447D02*
X140518816Y-93560447D01*
D13*
%TO.C,C2R3*%
X135018815Y-103110447D02*
X135018815Y-102160447D01*
X135018815Y-103110447D02*
X133018815Y-103110447D01*
X135018815Y-98410447D02*
X135018815Y-99360447D01*
X135018815Y-98410447D02*
X133018815Y-98410447D01*
D14*
X134518815Y-101560447D02*
X134518815Y-102560447D01*
X134518815Y-89560447D02*
X134518815Y-90560447D01*
X134518815Y-89560447D02*
X133518815Y-89560447D01*
X133518815Y-102560447D02*
X134518815Y-102560447D01*
D13*
X122818815Y-104160447D02*
X124518815Y-104160447D01*
X122818815Y-104160447D02*
X122818815Y-103260447D01*
X122818815Y-99460447D02*
X124518815Y-99460447D01*
X122818815Y-99460447D02*
X122818815Y-100410447D01*
D14*
X122518815Y-89560447D02*
X121518815Y-89560447D01*
X121518815Y-102560447D02*
X122518815Y-102560447D01*
X121518815Y-102560447D02*
X121518815Y-101560447D01*
X121518815Y-90560447D02*
X121518815Y-89560447D01*
D13*
%TO.C,C3R2*%
X154018815Y-88110448D02*
X154018815Y-87160448D01*
X154018815Y-88110448D02*
X152018815Y-88110448D01*
X154018815Y-83410448D02*
X154018815Y-84360448D01*
X154018815Y-83410448D02*
X152018815Y-83410448D01*
D14*
X153518815Y-86560448D02*
X153518815Y-87560448D01*
X153518815Y-74560448D02*
X153518815Y-75560448D01*
X153518815Y-74560448D02*
X152518815Y-74560448D01*
X152518815Y-87560448D02*
X153518815Y-87560448D01*
D13*
X141818815Y-89160448D02*
X143518815Y-89160448D01*
X141818815Y-89160448D02*
X141818815Y-88260448D01*
X141818815Y-84460448D02*
X143518815Y-84460448D01*
X141818815Y-84460448D02*
X141818815Y-85410448D01*
D14*
X141518815Y-74560448D02*
X140518815Y-74560448D01*
X140518815Y-87560448D02*
X141518815Y-87560448D01*
X140518815Y-87560448D02*
X140518815Y-86560448D01*
X140518815Y-75560448D02*
X140518815Y-74560448D01*
D13*
%TO.C,C0R2*%
X97018816Y-96110447D02*
X97018816Y-95160447D01*
X97018816Y-96110447D02*
X95018816Y-96110447D01*
X97018816Y-91410447D02*
X97018816Y-92360447D01*
X97018816Y-91410447D02*
X95018816Y-91410447D01*
D14*
X96518816Y-94560447D02*
X96518816Y-95560447D01*
X96518816Y-82560447D02*
X96518816Y-83560447D01*
X96518816Y-82560447D02*
X95518816Y-82560447D01*
X95518816Y-95560447D02*
X96518816Y-95560447D01*
D13*
X84818816Y-97160447D02*
X86518816Y-97160447D01*
X84818816Y-97160447D02*
X84818816Y-96260447D01*
X84818816Y-92460447D02*
X86518816Y-92460447D01*
X84818816Y-92460447D02*
X84818816Y-93410447D01*
D14*
X84518816Y-82560447D02*
X83518816Y-82560447D01*
X83518816Y-95560447D02*
X84518816Y-95560447D01*
X83518816Y-95560447D02*
X83518816Y-94560447D01*
X83518816Y-83560447D02*
X83518816Y-82560447D01*
D13*
%TO.C,C0R1*%
X97018816Y-77110448D02*
X97018816Y-76160448D01*
X97018816Y-77110448D02*
X95018816Y-77110448D01*
X97018816Y-72410448D02*
X97018816Y-73360448D01*
X97018816Y-72410448D02*
X95018816Y-72410448D01*
D14*
X96518816Y-75560448D02*
X96518816Y-76560448D01*
X96518816Y-63560448D02*
X96518816Y-64560448D01*
X96518816Y-63560448D02*
X95518816Y-63560448D01*
X95518816Y-76560448D02*
X96518816Y-76560448D01*
D13*
X84818816Y-78160448D02*
X86518816Y-78160448D01*
X84818816Y-78160448D02*
X84818816Y-77260448D01*
X84818816Y-73460448D02*
X86518816Y-73460448D01*
X84818816Y-73460448D02*
X84818816Y-74410448D01*
D14*
X84518816Y-63560448D02*
X83518816Y-63560448D01*
X83518816Y-76560448D02*
X84518816Y-76560448D01*
X83518816Y-76560448D02*
X83518816Y-75560448D01*
X83518816Y-64560448D02*
X83518816Y-63560448D01*
D13*
%TO.C,C0R3*%
X97018815Y-115110447D02*
X97018815Y-114160447D01*
X97018815Y-115110447D02*
X95018815Y-115110447D01*
X97018815Y-110410447D02*
X97018815Y-111360447D01*
X97018815Y-110410447D02*
X95018815Y-110410447D01*
D14*
X96518815Y-113560447D02*
X96518815Y-114560447D01*
X96518815Y-101560447D02*
X96518815Y-102560447D01*
X96518815Y-101560447D02*
X95518815Y-101560447D01*
X95518815Y-114560447D02*
X96518815Y-114560447D01*
D13*
X84818815Y-116160447D02*
X86518815Y-116160447D01*
X84818815Y-116160447D02*
X84818815Y-115260447D01*
X84818815Y-111460447D02*
X86518815Y-111460447D01*
X84818815Y-111460447D02*
X84818815Y-112410447D01*
D14*
X84518815Y-101560447D02*
X83518815Y-101560447D01*
X83518815Y-114560447D02*
X84518815Y-114560447D01*
X83518815Y-114560447D02*
X83518815Y-113560447D01*
X83518815Y-102560447D02*
X83518815Y-101560447D01*
D13*
%TO.C,C4R2*%
X173018816Y-88110447D02*
X173018816Y-87160447D01*
X173018816Y-88110447D02*
X171018816Y-88110447D01*
X173018816Y-83410447D02*
X173018816Y-84360447D01*
X173018816Y-83410447D02*
X171018816Y-83410447D01*
D14*
X172518816Y-86560447D02*
X172518816Y-87560447D01*
X172518816Y-74560447D02*
X172518816Y-75560447D01*
X172518816Y-74560447D02*
X171518816Y-74560447D01*
X171518816Y-87560447D02*
X172518816Y-87560447D01*
D13*
X160818816Y-89160447D02*
X162518816Y-89160447D01*
X160818816Y-89160447D02*
X160818816Y-88260447D01*
X160818816Y-84460447D02*
X162518816Y-84460447D01*
X160818816Y-84460447D02*
X160818816Y-85410447D01*
D14*
X160518816Y-74560447D02*
X159518816Y-74560447D01*
X159518816Y-87560447D02*
X160518816Y-87560447D01*
X159518816Y-87560447D02*
X159518816Y-86560447D01*
X159518816Y-75560447D02*
X159518816Y-74560447D01*
D13*
%TO.C,C1R3*%
X116018815Y-107110447D02*
X116018815Y-106160447D01*
X116018815Y-107110447D02*
X114018815Y-107110447D01*
X116018815Y-102410447D02*
X116018815Y-103360447D01*
X116018815Y-102410447D02*
X114018815Y-102410447D01*
D14*
X115518815Y-105560447D02*
X115518815Y-106560447D01*
X115518815Y-93560447D02*
X115518815Y-94560447D01*
X115518815Y-93560447D02*
X114518815Y-93560447D01*
X114518815Y-106560447D02*
X115518815Y-106560447D01*
D13*
X103818815Y-108160447D02*
X105518815Y-108160447D01*
X103818815Y-108160447D02*
X103818815Y-107260447D01*
X103818815Y-103460447D02*
X105518815Y-103460447D01*
X103818815Y-103460447D02*
X103818815Y-104410447D01*
D14*
X103518815Y-93560447D02*
X102518815Y-93560447D01*
X102518815Y-106560447D02*
X103518815Y-106560447D01*
X102518815Y-106560447D02*
X102518815Y-105560447D01*
X102518815Y-94560447D02*
X102518815Y-93560447D01*
D13*
%TO.C,C2R2*%
X135018815Y-84110447D02*
X135018815Y-83160447D01*
X135018815Y-84110447D02*
X133018815Y-84110447D01*
X135018815Y-79410447D02*
X135018815Y-80360447D01*
X135018815Y-79410447D02*
X133018815Y-79410447D01*
D14*
X134518815Y-82560447D02*
X134518815Y-83560447D01*
X134518815Y-70560447D02*
X134518815Y-71560447D01*
X134518815Y-70560447D02*
X133518815Y-70560447D01*
X133518815Y-83560447D02*
X134518815Y-83560447D01*
D13*
X122818815Y-85160447D02*
X124518815Y-85160447D01*
X122818815Y-85160447D02*
X122818815Y-84260447D01*
X122818815Y-80460447D02*
X124518815Y-80460447D01*
X122818815Y-80460447D02*
X122818815Y-81410447D01*
D14*
X122518815Y-70560447D02*
X121518815Y-70560447D01*
X121518815Y-83560447D02*
X122518815Y-83560447D01*
X121518815Y-83560447D02*
X121518815Y-82560447D01*
X121518815Y-71560447D02*
X121518815Y-70560447D01*
D13*
%TO.C,C2R1*%
X135018815Y-65110447D02*
X135018815Y-64160447D01*
X135018815Y-65110447D02*
X133018815Y-65110447D01*
X135018815Y-60410447D02*
X135018815Y-61360447D01*
X135018815Y-60410447D02*
X133018815Y-60410447D01*
D14*
X134518815Y-63560447D02*
X134518815Y-64560447D01*
X134518815Y-51560447D02*
X134518815Y-52560447D01*
X134518815Y-51560447D02*
X133518815Y-51560447D01*
X133518815Y-64560447D02*
X134518815Y-64560447D01*
D13*
X122818815Y-66160447D02*
X124518815Y-66160447D01*
X122818815Y-66160447D02*
X122818815Y-65260447D01*
X122818815Y-61460447D02*
X124518815Y-61460447D01*
X122818815Y-61460447D02*
X122818815Y-62410447D01*
D14*
X122518815Y-51560447D02*
X121518815Y-51560447D01*
X121518815Y-64560447D02*
X122518815Y-64560447D01*
X121518815Y-64560447D02*
X121518815Y-63560447D01*
X121518815Y-52560447D02*
X121518815Y-51560447D01*
D13*
%TO.C,C1R2*%
X116018815Y-88110448D02*
X116018815Y-87160448D01*
X116018815Y-88110448D02*
X114018815Y-88110448D01*
X116018815Y-83410448D02*
X116018815Y-84360448D01*
X116018815Y-83410448D02*
X114018815Y-83410448D01*
D14*
X115518815Y-86560448D02*
X115518815Y-87560448D01*
X115518815Y-74560448D02*
X115518815Y-75560448D01*
X115518815Y-74560448D02*
X114518815Y-74560448D01*
X114518815Y-87560448D02*
X115518815Y-87560448D01*
D13*
X103818815Y-89160448D02*
X105518815Y-89160448D01*
X103818815Y-89160448D02*
X103818815Y-88260448D01*
X103818815Y-84460448D02*
X105518815Y-84460448D01*
X103818815Y-84460448D02*
X103818815Y-85410448D01*
D14*
X103518815Y-74560448D02*
X102518815Y-74560448D01*
X102518815Y-87560448D02*
X103518815Y-87560448D01*
X102518815Y-87560448D02*
X102518815Y-86560448D01*
X102518815Y-75560448D02*
X102518815Y-74560448D01*
D13*
%TO.C,C4R3*%
X173018815Y-107110447D02*
X173018815Y-106160447D01*
X173018815Y-107110447D02*
X171018815Y-107110447D01*
X173018815Y-102410447D02*
X173018815Y-103360447D01*
X173018815Y-102410447D02*
X171018815Y-102410447D01*
D14*
X172518815Y-105560447D02*
X172518815Y-106560447D01*
X172518815Y-93560447D02*
X172518815Y-94560447D01*
X172518815Y-93560447D02*
X171518815Y-93560447D01*
X171518815Y-106560447D02*
X172518815Y-106560447D01*
D13*
X160818815Y-108160447D02*
X162518815Y-108160447D01*
X160818815Y-108160447D02*
X160818815Y-107260447D01*
X160818815Y-103460447D02*
X162518815Y-103460447D01*
X160818815Y-103460447D02*
X160818815Y-104410447D01*
D14*
X160518815Y-93560447D02*
X159518815Y-93560447D01*
X159518815Y-106560447D02*
X160518815Y-106560447D01*
X159518815Y-106560447D02*
X159518815Y-105560447D01*
X159518815Y-94560447D02*
X159518815Y-93560447D01*
D13*
%TO.C,C1R1*%
X116018817Y-69110447D02*
X116018817Y-68160447D01*
X116018817Y-69110447D02*
X114018817Y-69110447D01*
X116018817Y-64410447D02*
X116018817Y-65360447D01*
X116018817Y-64410447D02*
X114018817Y-64410447D01*
D14*
X115518817Y-67560447D02*
X115518817Y-68560447D01*
X115518817Y-55560447D02*
X115518817Y-56560447D01*
X115518817Y-55560447D02*
X114518817Y-55560447D01*
X114518817Y-68560447D02*
X115518817Y-68560447D01*
D13*
X103818817Y-70160447D02*
X105518817Y-70160447D01*
X103818817Y-70160447D02*
X103818817Y-69260447D01*
X103818817Y-65460447D02*
X105518817Y-65460447D01*
X103818817Y-65460447D02*
X103818817Y-66410447D01*
D14*
X103518817Y-55560447D02*
X102518817Y-55560447D01*
X102518817Y-68560447D02*
X103518817Y-68560447D01*
X102518817Y-68560447D02*
X102518817Y-67560447D01*
X102518817Y-56560447D02*
X102518817Y-55560447D01*
D13*
%TO.C,C4R1*%
X173018815Y-69110447D02*
X173018815Y-68160447D01*
X173018815Y-69110447D02*
X171018815Y-69110447D01*
X173018815Y-64410447D02*
X173018815Y-65360447D01*
X173018815Y-64410447D02*
X171018815Y-64410447D01*
D14*
X172518815Y-67560447D02*
X172518815Y-68560447D01*
X172518815Y-55560447D02*
X172518815Y-56560447D01*
X172518815Y-55560447D02*
X171518815Y-55560447D01*
X171518815Y-68560447D02*
X172518815Y-68560447D01*
D13*
X160818815Y-70160447D02*
X162518815Y-70160447D01*
X160818815Y-70160447D02*
X160818815Y-69260447D01*
X160818815Y-65460447D02*
X162518815Y-65460447D01*
X160818815Y-65460447D02*
X160818815Y-66410447D01*
D14*
X160518815Y-55560447D02*
X159518815Y-55560447D01*
X159518815Y-68560447D02*
X160518815Y-68560447D01*
X159518815Y-68560447D02*
X159518815Y-67560447D01*
X159518815Y-56560447D02*
X159518815Y-55560447D01*
%TD*%
%LPC*%
D18*
%TO.C,*%
X181220000Y-113710000D03*
%TD*%
D19*
%TO.C,D20*%
X193367747Y-128272754D03*
X196037503Y-130212446D03*
%TD*%
D20*
%TO.C,T4*%
X192333168Y-133954069D03*
X192333168Y-133954069D03*
D21*
X183876821Y-134917564D03*
D18*
X186849959Y-137077675D03*
X193130252Y-140342704D03*
D21*
X196103390Y-142502815D03*
%TD*%
D22*
%TO.C,D3*%
X90818816Y-102860447D03*
X87518816Y-102860447D03*
%TD*%
%TO.C,D13*%
X147818816Y-56860447D03*
X144518816Y-56860447D03*
%TD*%
D20*
%TO.C,T0*%
X109018816Y-119060449D03*
X109018816Y-119060449D03*
D23*
X102743816Y-124810449D03*
D18*
X106418816Y-124810449D03*
X113418816Y-123760449D03*
D23*
X117093816Y-123760449D03*
%TD*%
D24*
%TO.C,D12*%
X150046511Y-114236969D03*
X153341989Y-114409677D03*
%TD*%
D20*
%TO.C,T2*%
X152244251Y-119573324D03*
X152244251Y-119573324D03*
D25*
X145676919Y-124987036D03*
D18*
X149346882Y-125179370D03*
X156392242Y-124497161D03*
D25*
X160062205Y-124689496D03*
%TD*%
D22*
%TO.C,D14*%
X147818815Y-75860447D03*
X144518815Y-75860447D03*
%TD*%
%TO.C,D11*%
X128818816Y-90860447D03*
X125518816Y-90860447D03*
%TD*%
D26*
%TO.C,U1*%
X203482449Y-102208323D03*
X200942449Y-102208323D03*
X195862449Y-102208323D03*
X193322449Y-102208323D03*
X190782449Y-102208323D03*
X188242449Y-102208323D03*
X188242449Y-120208323D03*
X190782449Y-120208323D03*
X193322449Y-120208323D03*
X195862449Y-120208323D03*
D27*
X201712449Y-109938323D03*
X201712449Y-112478323D03*
D28*
X198512449Y-106708323D03*
X198512449Y-115708323D03*
X195737449Y-106708323D03*
X195737449Y-115708323D03*
%TD*%
D18*
%TO.C,REF\u002A\u002A*%
X118494251Y-90563323D03*
%TD*%
D22*
%TO.C,D7*%
X109818816Y-94860448D03*
X106518816Y-94860448D03*
%TD*%
%TO.C,D5*%
X109818815Y-56860447D03*
X106518815Y-56860447D03*
%TD*%
%TO.C,D10*%
X128818816Y-71860448D03*
X125518816Y-71860448D03*
%TD*%
%TO.C,D15*%
X147818815Y-94860447D03*
X144518815Y-94860447D03*
%TD*%
%TO.C,D17*%
X166818815Y-56860448D03*
X163518815Y-56860448D03*
%TD*%
D18*
%TO.C,*%
X119704251Y-116603323D03*
%TD*%
D20*
%TO.C,C5R2*%
X185018821Y-71443323D03*
X185018821Y-71443323D03*
D23*
X178743821Y-77193323D03*
D18*
X182418821Y-77193323D03*
X189418821Y-76143323D03*
D23*
X193093821Y-76143323D03*
%TD*%
D29*
%TO.C,D8*%
X127893815Y-113860448D03*
X131193815Y-113860448D03*
%TD*%
D20*
%TO.C,T1*%
X130393816Y-119060448D03*
X130393816Y-119060448D03*
D23*
X124118816Y-124810448D03*
D18*
X127793816Y-124810448D03*
X134793816Y-123760448D03*
D23*
X138468816Y-123760448D03*
%TD*%
D29*
%TO.C,D4*%
X106518816Y-113860447D03*
X109818816Y-113860447D03*
%TD*%
D22*
%TO.C,D9*%
X128818815Y-52860448D03*
X125518815Y-52860448D03*
%TD*%
D18*
%TO.C,REF\u002A\u002A*%
X156494251Y-71553323D03*
%TD*%
D30*
%TO.C,SW1*%
X177190000Y-103220000D03*
X183490000Y-103220000D03*
X177190000Y-107020000D03*
X183490000Y-107020000D03*
%TD*%
D22*
%TO.C,D2*%
X90818815Y-83860448D03*
X87518815Y-83860448D03*
%TD*%
D29*
%TO.C,D22*%
X182553821Y-66273323D03*
X185853821Y-66273323D03*
%TD*%
D31*
%TO.C,J1*%
X202520000Y-87710000D03*
X198520000Y-87710000D03*
D32*
X200520000Y-87710000D03*
%TD*%
D20*
%TO.C,T3*%
X173398584Y-123880307D03*
X173398584Y-123880307D03*
D33*
X165535397Y-127137363D03*
D18*
X168988767Y-128394287D03*
X175925737Y-129801751D03*
D33*
X179379107Y-131058675D03*
%TD*%
D22*
%TO.C,D19*%
X166818816Y-94860447D03*
X163518816Y-94860447D03*
%TD*%
%TO.C,D6*%
X109818816Y-75860448D03*
X106518816Y-75860448D03*
%TD*%
D20*
%TO.C,C5R3*%
X185018821Y-90443323D03*
X185018821Y-90443323D03*
D23*
X178743821Y-96193323D03*
D18*
X182418821Y-96193323D03*
X189418821Y-95143323D03*
D23*
X193093821Y-95143323D03*
%TD*%
D29*
%TO.C,D23*%
X182596321Y-85273323D03*
X185896321Y-85273323D03*
%TD*%
D22*
%TO.C,D18*%
X166818816Y-75860447D03*
X163518816Y-75860447D03*
%TD*%
D34*
%TO.C,D16*%
X172848127Y-118129039D03*
X175949113Y-119257705D03*
%TD*%
D18*
%TO.C,REF\u002A\u002A*%
X118494251Y-71553323D03*
%TD*%
%TO.C,REF\u002A\u002A*%
X156494251Y-90563323D03*
%TD*%
D22*
%TO.C,D1*%
X90818815Y-64860447D03*
X87518815Y-64860447D03*
%TD*%
D20*
%TO.C,C3R1*%
X147018815Y-62060448D03*
X147018815Y-62060448D03*
D35*
X155093815Y-66760448D03*
D18*
X151418815Y-66760448D03*
X144418815Y-67810448D03*
D35*
X140743815Y-67810448D03*
%TD*%
D20*
%TO.C,C3R3*%
X147018816Y-100060447D03*
X147018816Y-100060447D03*
D35*
X155093816Y-104760447D03*
D18*
X151418816Y-104760447D03*
X144418816Y-105810447D03*
D35*
X140743816Y-105810447D03*
%TD*%
D20*
%TO.C,C2R3*%
X128018815Y-96060447D03*
X128018815Y-96060447D03*
D35*
X136093815Y-100760447D03*
D18*
X132418815Y-100760447D03*
X125418815Y-101810447D03*
D35*
X121743815Y-101810447D03*
%TD*%
D20*
%TO.C,C3R2*%
X147018815Y-81060448D03*
X147018815Y-81060448D03*
D35*
X155093815Y-85760448D03*
D18*
X151418815Y-85760448D03*
X144418815Y-86810448D03*
D35*
X140743815Y-86810448D03*
%TD*%
D20*
%TO.C,C0R2*%
X90018816Y-89060447D03*
X90018816Y-89060447D03*
D35*
X98093816Y-93760447D03*
D18*
X94418816Y-93760447D03*
X87418816Y-94810447D03*
D35*
X83743816Y-94810447D03*
%TD*%
D20*
%TO.C,C0R1*%
X90018816Y-70060448D03*
X90018816Y-70060448D03*
D35*
X98093816Y-74760448D03*
D18*
X94418816Y-74760448D03*
X87418816Y-75810448D03*
D35*
X83743816Y-75810448D03*
%TD*%
D20*
%TO.C,C0R3*%
X90018815Y-108060447D03*
X90018815Y-108060447D03*
D35*
X98093815Y-112760447D03*
D18*
X94418815Y-112760447D03*
X87418815Y-113810447D03*
D35*
X83743815Y-113810447D03*
%TD*%
D20*
%TO.C,C4R2*%
X166018816Y-81060447D03*
X166018816Y-81060447D03*
D35*
X174093816Y-85760447D03*
D18*
X170418816Y-85760447D03*
X163418816Y-86810447D03*
D35*
X159743816Y-86810447D03*
%TD*%
D20*
%TO.C,C1R3*%
X109018815Y-100060447D03*
X109018815Y-100060447D03*
D35*
X117093815Y-104760447D03*
D18*
X113418815Y-104760447D03*
X106418815Y-105810447D03*
D35*
X102743815Y-105810447D03*
%TD*%
D36*
%TO.C,SW3*%
X202120000Y-93160000D03*
D37*
X202120000Y-95660000D03*
X202120000Y-98160000D03*
X205420000Y-93160000D03*
X205420000Y-95660000D03*
X205420000Y-98160000D03*
%TD*%
D20*
%TO.C,C2R2*%
X128018815Y-77060447D03*
X128018815Y-77060447D03*
D35*
X136093815Y-81760447D03*
D18*
X132418815Y-81760447D03*
X125418815Y-82810447D03*
D35*
X121743815Y-82810447D03*
%TD*%
D20*
%TO.C,C2R1*%
X128018815Y-58060447D03*
X128018815Y-58060447D03*
D35*
X136093815Y-62760447D03*
D18*
X132418815Y-62760447D03*
X125418815Y-63810447D03*
D35*
X121743815Y-63810447D03*
%TD*%
D20*
%TO.C,C1R2*%
X109018815Y-81060448D03*
X109018815Y-81060448D03*
D35*
X117093815Y-85760448D03*
D18*
X113418815Y-85760448D03*
X106418815Y-86810448D03*
D35*
X102743815Y-86810448D03*
%TD*%
D20*
%TO.C,C4R3*%
X166018815Y-100060447D03*
X166018815Y-100060447D03*
D35*
X174093815Y-104760447D03*
D18*
X170418815Y-104760447D03*
X163418815Y-105810447D03*
D35*
X159743815Y-105810447D03*
%TD*%
D20*
%TO.C,C1R1*%
X109018817Y-62060447D03*
X109018817Y-62060447D03*
D35*
X117093817Y-66760447D03*
D18*
X113418817Y-66760447D03*
X106418817Y-67810447D03*
D35*
X102743817Y-67810447D03*
%TD*%
D20*
%TO.C,C4R1*%
X166018815Y-62060447D03*
X166018815Y-62060447D03*
D35*
X174093815Y-66760447D03*
D18*
X170418815Y-66760447D03*
X163418815Y-67810447D03*
D35*
X159743815Y-67810447D03*
%TD*%
%LPD*%
M02*
